<?xml version="1.0" encoding="utf-8" standalone="no"?>
<!DOCTYPE svg PUBLIC "-//W3C//DTD SVG 1.1//EN"
  "http://www.w3.org/Graphics/SVG/1.1/DTD/svg11.dtd">
<svg xmlns:xlink="http://www.w3.org/1999/xlink" width="280.522031pt" height="196.114697pt" viewBox="0 0 280.522031 196.114697" xmlns="http://www.w3.org/2000/svg" version="1.1">
 <metadata>
  <rdf:RDF xmlns:dc="http://purl.org/dc/elements/1.1/" xmlns:cc="http://creativecommons.org/ns#" xmlns:rdf="http://www.w3.org/1999/02/22-rdf-syntax-ns#">
   <cc:Work>
    <dc:type rdf:resource="http://purl.org/dc/dcmitype/StillImage"/>
    <dc:date>2026-02-11T14:14:28.381088</dc:date>
    <dc:format>image/svg+xml</dc:format>
    <dc:creator>
     <cc:Agent>
      <dc:title>Matplotlib v3.5.3, https://matplotlib.org/</dc:title>
     </cc:Agent>
    </dc:creator>
   </cc:Work>
  </rdf:RDF>
 </metadata>
 <defs>
  <style type="text/css">*{stroke-linejoin: round; stroke-linecap: butt}</style>
 </defs>
 <g id="figure_1">
  <g id="patch_1">
   <path d="M 0 196.114697 
L 280.522031 196.114697 
L 280.522031 0 
L 0 0 
L 0 196.114697 
z
" style="fill: none"/>
  </g>
  <g id="axes_1">
   <g id="PathCollection_1">
    <path d="M 136.322038 31.490457 
L 141.404219 41.975194 
L 141.724173 42.607887 
L 142.502047 44.129885 
L 146.197007 51.080253 
L 147.130392 52.794403 
L 150.008386 57.998255 
L 151.283896 60.226461 
L 164.735845 82.821668 
L 165.187365 83.577809 
L 165.528669 84.117553 
L 166.023134 84.903857 
L 174.505107 97.983554 
L 174.801654 98.438642 
L 175.944739 100.118988 
L 174.754451 98.057349 
L 166.78766 84.258461 
L 150.854078 56.660687 
L 142.887286 42.8618 
" clip-path="url(#p25737cfd43)" style="fill: #fcfdbf"/>
   </g>
   <g id="PathCollection_2">
    <path d="M 175.944739 100.118988 
L 174.801654 98.438642 
L 174.505107 97.983554 
L 166.023134 84.903857 
L 165.528669 84.117553 
L 165.187365 83.577809 
L 164.735845 82.821668 
L 151.283896 60.226461 
L 150.008386 57.998255 
L 147.130392 52.794403 
L 146.197007 51.080253 
L 142.502047 44.129885 
L 141.724173 42.607887 
L 141.404219 41.975194 
L 136.322038 31.490457 
L 134.920495 29.062913 
L 126.953704 42.8618 
L 126.508789 43.632416 
L 127.76497 46.174568 
L 128.109765 46.831699 
L 133.239229 56.478412 
L 139.283341 67.716331 
L 140.358415 69.703969 
L 141.259392 71.255294 
L 143.090132 74.40992 
L 146.830117 80.769368 
L 148.751062 83.999196 
L 152.850362 90.677921 
L 154.547431 93.348095 
L 156.55019 96.546385 
L 160.237201 102.219649 
L 166.517116 111.765506 
L 167.189929 112.819043 
L 168.87668 115.300347 
L 170.61163 117.830037 
L 174.679646 123.826668 
L 177.429925 127.828065 
L 180.018366 131.66745 
L 181.232031 133.36805 
L 182.641648 135.371611 
L 186.534712 140.866807 
L 187.668412 142.482342 
L 188.313221 143.406507 
L 195.411065 153.611477 
L 197.53564 156.665011 
L 199.21459 159.042875 
L 201.740787 162.571528 
L 203.678585 165.271716 
L 204.391796 166.272047 
L 204.841713 166.901024 
L 204.873761 166.944073 
L 204.95984 167.051784 
L 214.588407 167.051784 
L 206.621616 153.252897 
L 198.654824 139.45401 
L 190.688033 125.655123 
L 182.721242 111.856236 
" clip-path="url(#p25737cfd43)" style="fill: #fdebac"/>
   </g>
   <g id="PathCollection_3">
    <path d="M 204.95984 167.051784 
L 204.873761 166.944073 
L 204.841713 166.901024 
L 204.391796 166.272047 
L 203.678585 165.271716 
L 201.740787 162.571528 
L 199.21459 159.042875 
L 197.53564 156.665011 
L 195.411065 153.611477 
L 188.313221 143.406507 
L 187.668412 142.482342 
L 186.534712 140.866807 
L 182.641648 135.371611 
L 181.232031 133.36805 
L 180.018366 131.66745 
L 177.429925 127.828065 
L 174.679646 123.826668 
L 170.61163 117.830037 
L 168.87668 115.300347 
L 167.189929 112.819043 
L 166.517116 111.765506 
L 160.237201 102.219649 
L 156.55019 96.546385 
L 154.547431 93.348095 
L 152.850362 90.677921 
L 148.751062 83.999196 
L 146.830117 80.769368 
L 143.090132 74.40992 
L 141.259392 71.255294 
L 140.358415 69.703969 
L 139.283341 67.716331 
L 133.239229 56.478412 
L 128.109765 46.831699 
L 127.76497 46.174568 
L 126.508789 43.632416 
L 118.986913 56.660687 
L 118.349347 57.764984 
L 118.523109 58.156014 
L 123.003011 66.632538 
L 123.893392 68.297018 
L 125.655967 71.458263 
L 127.195536 74.190434 
L 130.948319 80.7219 
L 132.141034 82.776726 
L 132.494417 83.383923 
L 135.478789 88.367326 
L 137.809289 92.257424 
L 140.929519 97.166805 
L 147.74847 108.056271 
L 151.382095 113.710109 
L 151.948723 114.61601 
L 153.049722 116.393811 
L 154.495452 118.537502 
L 160.097591 127.038177 
L 160.217733 127.21683 
L 160.572419 127.748741 
L 163.629152 132.167065 
L 164.4716 133.396797 
L 172.490498 144.872959 
L 174.573472 148.020763 
L 177.745183 152.841685 
L 178.027226 153.250074 
L 180.53835 156.882531 
L 182.952447 160.275826 
L 187.008706 166.100827 
L 187.698717 167.051784 
L 190.297085 167.051784 
L 203.397369 167.051784 
L 204.365831 167.051784 
" clip-path="url(#p25737cfd43)" style="fill: #fec488"/>
   </g>
   <g id="PathCollection_4">
    <path d="M 187.698717 167.051784 
L 187.008706 166.100827 
L 182.952447 160.275826 
L 180.53835 156.882531 
L 178.027226 153.250074 
L 177.745183 152.841685 
L 174.573472 148.020763 
L 172.490498 144.872959 
L 164.4716 133.396797 
L 163.629152 132.167065 
L 160.572419 127.748741 
L 160.217733 127.21683 
L 160.097591 127.038177 
L 154.495452 118.537502 
L 153.049722 116.393811 
L 151.948723 114.61601 
L 151.382095 113.710109 
L 147.74847 108.056271 
L 140.929519 97.166805 
L 137.809289 92.257424 
L 135.478789 88.367326 
L 132.494417 83.383923 
L 132.141034 82.776726 
L 130.948319 80.7219 
L 127.195536 74.190434 
L 125.655967 71.458263 
L 123.893392 68.297018 
L 123.003011 66.632538 
L 118.523109 58.156014 
L 118.349347 57.764984 
L 110.669259 71.067287 
L 111.985402 74.029099 
L 112.810787 75.558237 
L 114.396536 78.461264 
L 117.752171 84.420823 
L 118.411516 85.562557 
L 120.561322 89.233276 
L 121.88904 91.46625 
L 124.421593 95.703749 
L 125.051877 96.753327 
L 126.496737 99.130398 
L 131.766887 107.488746 
L 135.519801 113.542529 
L 137.458382 116.558916 
L 138.710607 118.560921 
L 140.023733 120.580472 
L 141.555844 122.942513 
L 143.505554 125.88657 
L 144.197395 126.929175 
L 153.625297 141.045719 
L 154.836936 142.926108 
L 158.024502 147.639408 
L 159.342739 149.563653 
L 159.614529 149.952623 
L 160.248818 150.911166 
L 160.320748 151.016724 
L 165.382791 158.347797 
L 165.946296 159.201706 
L 166.076607 159.396292 
L 166.574071 160.133836 
L 166.750083 160.393366 
L 168.686809 163.226936 
L 170.579257 165.968886 
L 171.255285 166.96155 
L 171.317214 167.051784 
L 171.883245 167.051784 
" clip-path="url(#p25737cfd43)" style="fill: #fd9b6b"/>
   </g>
   <g id="PathCollection_5">
    <path d="M 171.317214 167.051784 
L 171.255285 166.96155 
L 170.579257 165.968886 
L 168.686809 163.226936 
L 166.750083 160.393366 
L 166.574071 160.133836 
L 166.076607 159.396292 
L 165.946296 159.201706 
L 165.382791 158.347797 
L 160.320748 151.016724 
L 160.248818 150.911166 
L 159.614529 149.952623 
L 159.342739 149.563653 
L 158.024502 147.639408 
L 154.836936 142.926108 
L 153.625297 141.045719 
L 144.197395 126.929175 
L 143.505554 125.88657 
L 141.555844 122.942513 
L 140.023733 120.580472 
L 138.710607 118.560921 
L 137.458382 116.558916 
L 135.519801 113.542529 
L 131.766887 107.488746 
L 126.496737 99.130398 
L 125.051877 96.753327 
L 124.421593 95.703749 
L 121.88904 91.46625 
L 120.561322 89.233276 
L 118.411516 85.562557 
L 117.752171 84.420823 
L 114.396536 78.461264 
L 112.810787 75.558237 
L 111.985402 74.029099 
L 110.669259 71.067287 
L 103.053331 84.258461 
L 102.994286 84.36073 
L 103.112982 84.565729 
L 110.046822 96.419982 
L 110.757803 97.576596 
L 116.030097 106.28241 
L 117.154504 108.115488 
L 119.443988 111.790082 
L 124.837095 120.306692 
L 126.964057 123.572615 
L 129.026302 126.721055 
L 130.547102 128.809577 
L 139.425876 142.097436 
L 140.87378 144.182426 
L 145.021427 150.46373 
L 147.710427 154.62521 
L 147.955744 155.009945 
L 148.374548 155.662909 
L 148.441563 155.767002 
L 148.860672 156.41573 
L 148.994084 156.621513 
L 149.251016 157.016903 
L 149.500957 157.400497 
L 152.006355 161.041519 
L 153.488574 163.357105 
L 153.529871 163.420837 
L 154.333294 164.654412 
L 154.996981 165.665935 
L 155.1979 165.971065 
L 155.694185 166.7228 
L 155.911932 167.051784 
L 155.992592 167.051784 
L 156.043775 167.051784 
L 158.505732 167.051784 
L 162.973808 167.051784 
L 163.665222 167.051784 
L 165.675898 167.051784 
L 166.217981 167.051784 
L 169.557312 167.051784 
L 171.20162 167.051784 
" clip-path="url(#p25737cfd43)" style="fill: #f8745c"/>
   </g>
   <g id="PathCollection_6">
    <path d="M 155.911932 167.051784 
L 155.694185 166.7228 
L 155.1979 165.971065 
L 154.996981 165.665935 
L 154.333294 164.654412 
L 153.529871 163.420837 
L 153.488574 163.357105 
L 152.006355 161.041519 
L 149.500957 157.400497 
L 149.251016 157.016903 
L 148.994084 156.621513 
L 148.860672 156.41573 
L 148.441563 155.767002 
L 148.374548 155.662909 
L 147.955744 155.009945 
L 147.710427 154.62521 
L 145.021427 150.46373 
L 140.87378 144.182426 
L 139.425876 142.097436 
L 130.547102 128.809577 
L 129.026302 126.721055 
L 126.964057 123.572615 
L 124.837095 120.306692 
L 119.443988 111.790082 
L 117.154504 108.115488 
L 116.030097 106.28241 
L 110.757803 97.576596 
L 110.046822 96.419982 
L 103.112982 84.565729 
L 102.994286 84.36073 
L 95.926569 96.602374 
L 97.010021 98.473608 
L 99.350247 102.357644 
L 103.26277 108.731674 
L 103.905222 109.758614 
L 105.132638 111.701736 
L 110.786085 120.391167 
L 113.919458 125.427071 
L 115.248207 127.636714 
L 116.828837 130.120963 
L 120.646665 135.998469 
L 121.489497 137.155934 
L 123.233114 139.765408 
L 126.619633 144.642014 
L 136.320608 159.333422 
L 140.377051 165.611148 
L 141.012665 166.568179 
L 141.247639 166.919938 
L 141.272247 166.956737 
L 141.335902 167.051784 
L 141.429177 167.051784 
L 141.466346 167.051784 
L 141.853765 167.051784 
L 143.321588 167.051784 
L 144.113711 167.051784 
L 145.34492 167.051784 
L 145.529223 167.051784 
L 146.611787 167.051784 
L 146.933076 167.051784 
L 147.523286 167.051784 
L 148.064152 167.051784 
L 151.903513 167.051784 
L 151.990904 167.051784 
L 153.536099 167.051784 
L 154.625358 167.051784 
L 154.927389 167.051784 
L 155.62541 167.051784 
" clip-path="url(#p25737cfd43)" style="fill: #e75263"/>
   </g>
   <g id="PathCollection_7">
    <path d="M 141.335902 167.051784 
L 141.272247 166.956737 
L 141.247639 166.919938 
L 141.012665 166.568179 
L 140.377051 165.611148 
L 136.320608 159.333422 
L 126.619633 144.642014 
L 123.233114 139.765408 
L 121.489497 137.155934 
L 120.646665 135.998469 
L 116.828837 130.120963 
L 115.248207 127.636714 
L 113.919458 125.427071 
L 110.786085 120.391167 
L 105.132638 111.701736 
L 103.905222 109.758614 
L 103.26277 108.731674 
L 99.350247 102.357644 
L 97.010021 98.473608 
L 95.926569 96.602374 
L 95.08654 98.057349 
L 89.285275 108.105433 
L 91.973956 112.602022 
L 92.506451 113.469529 
L 97.273226 121.08907 
L 97.39706 121.285111 
L 103.546613 130.800008 
L 104.288764 131.943288 
L 106.899851 135.909831 
L 108.003341 137.476207 
L 109.1602 139.193856 
L 113.94165 146.394645 
L 115.475683 148.648741 
L 118.171405 152.79131 
L 118.544345 153.375782 
L 124.350265 162.168763 
L 124.391417 162.236619 
L 124.406225 162.260911 
L 124.631438 162.624182 
L 124.821961 162.927547 
L 124.862311 162.990684 
L 125.009809 163.220268 
L 125.193316 163.503636 
L 125.268709 163.620288 
L 125.745002 164.346762 
L 126.372974 165.295279 
L 126.848371 166.009295 
L 126.986167 166.215797 
L 127.177532 166.50233 
L 127.268848 166.63895 
L 127.545057 167.051784 
L 127.639613 167.051784 
L 127.859418 167.051784 
L 128.194884 167.051784 
L 128.260178 167.051784 
L 128.634039 167.051784 
L 129.116954 167.051784 
L 129.34695 167.051784 
L 129.556596 167.051784 
L 129.796643 167.051784 
L 130.069693 167.051784 
L 132.53713 167.051784 
L 132.826962 167.051784 
L 132.980332 167.051784 
L 134.147608 167.051784 
L 134.957501 167.051784 
L 135.114811 167.051784 
L 135.231786 167.051784 
L 135.486972 167.051784 
L 136.149462 167.051784 
L 136.947652 167.051784 
L 136.986495 167.051784 
L 137.796305 167.051784 
L 138.462834 167.051784 
L 138.83987 167.051784 
L 139.066384 167.051784 
L 139.892759 167.051784 
L 139.91122 167.051784 
L 141.008457 167.051784 
" clip-path="url(#p25737cfd43)" style="fill: #c73d73"/>
   </g>
   <g id="PathCollection_8">
    <path d="M 127.545057 167.051784 
L 127.268848 166.63895 
L 127.177532 166.50233 
L 126.986167 166.215797 
L 126.848371 166.009295 
L 126.372974 165.295279 
L 125.745002 164.346762 
L 125.268709 163.620288 
L 125.193316 163.503636 
L 125.009809 163.220268 
L 124.862311 162.990684 
L 124.821961 162.927547 
L 124.631438 162.624182 
L 124.406225 162.260911 
L 124.391417 162.236619 
L 124.350265 162.168763 
L 118.544345 153.375782 
L 118.171405 152.79131 
L 115.475683 148.648741 
L 113.94165 146.394645 
L 109.1602 139.193856 
L 108.003341 137.476207 
L 106.899851 135.909831 
L 104.288764 131.943288 
L 103.546613 130.800008 
L 97.39706 121.285111 
L 97.273226 121.08907 
L 92.506451 113.469529 
L 91.973956 112.602022 
L 89.285275 108.105433 
L 87.119748 111.856236 
L 83.062026 118.884417 
L 83.449212 119.54569 
L 84.166745 120.783786 
L 85.906697 123.628407 
L 89.002537 128.474641 
L 89.273103 128.883307 
L 90.005946 129.960368 
L 91.784202 132.751835 
L 96.040159 139.235154 
L 96.897443 140.546386 
L 97.62456 141.699014 
L 97.833251 142.013872 
L 98.066578 142.345073 
L 102.105319 148.341597 
L 102.828974 149.431411 
L 107.420505 156.178171 
L 113.325205 165.25204 
L 113.724802 165.853676 
L 114.526423 167.051784 
L 115.268273 167.051784 
L 115.748318 167.051784 
L 116.979967 167.051784 
L 117.461347 167.051784 
L 117.626261 167.051784 
L 119.710391 167.051784 
L 121.033124 167.051784 
L 121.274098 167.051784 
L 122.067449 167.051784 
L 122.898086 167.051784 
L 123.199851 167.051784 
L 124.709128 167.051784 
L 126.041368 167.051784 
L 126.760878 167.051784 
L 126.937526 167.051784 
L 127.163672 167.051784 
L 127.2645 167.051784 
" clip-path="url(#p25737cfd43)" style="fill: #a5317e"/>
   </g>
   <g id="PathCollection_9">
    <path d="M 114.526423 167.051784 
L 113.724802 165.853676 
L 113.325205 165.25204 
L 107.420505 156.178171 
L 102.828974 149.431411 
L 102.105319 148.341597 
L 98.066578 142.345073 
L 97.833251 142.013872 
L 97.62456 141.699014 
L 96.897443 140.546386 
L 96.040159 139.235154 
L 91.784202 132.751835 
L 90.005946 129.960368 
L 89.273103 128.883307 
L 89.002537 128.474641 
L 85.906697 123.628407 
L 84.166745 120.783786 
L 83.449212 119.54569 
L 83.062026 118.884417 
L 79.152957 125.655123 
L 77.2205 129.002237 
L 79.224301 132.127674 
L 83.90139 139.001598 
L 87.162551 144.120897 
L 92.52321 152.08736 
L 97.003541 159.220481 
L 97.258447 159.60473 
L 97.518949 159.999434 
L 101.584393 166.019785 
L 101.831737 166.401364 
L 102.155316 166.898532 
L 102.255689 167.051784 
L 103.201993 167.051784 
L 103.77448 167.051784 
L 108.347004 167.051784 
L 110.599959 167.051784 
L 112.432071 167.051784 
" clip-path="url(#p25737cfd43)" style="fill: #832681"/>
   </g>
   <g id="PathCollection_10">
    <path d="M 102.255689 167.051784 
L 102.155316 166.898532 
L 101.831737 166.401364 
L 101.584393 166.019785 
L 97.518949 159.999434 
L 97.258447 159.60473 
L 97.003541 159.220481 
L 92.52321 152.08736 
L 87.162551 144.120897 
L 83.90139 139.001598 
L 79.224301 132.127674 
L 77.2205 129.002237 
L 71.753914 138.470641 
L 73.533867 141.246929 
L 77.289329 146.680729 
L 78.802207 148.984279 
L 81.999551 153.93268 
L 88.451728 163.640113 
L 88.791516 164.144202 
L 88.924801 164.345081 
L 88.979723 164.427553 
L 89.921075 165.82917 
L 90.133881 166.14831 
L 90.761675 167.051784 
L 95.733384 167.051784 
L 95.926536 167.051784 
L 96.21638 167.051784 
L 98.484169 167.051784 
L 99.108215 167.051784 
L 101.101475 167.051784 
L 101.150235 167.051784 
L 101.592965 167.051784 
L 102.108623 167.051784 
" clip-path="url(#p25737cfd43)" style="fill: #601880"/>
   </g>
   <g id="PathCollection_11">
    <path d="M 90.761675 167.051784 
L 90.133881 166.14831 
L 89.921075 165.82917 
L 88.979723 164.427553 
L 88.924801 164.345081 
L 88.791516 164.144202 
L 88.451728 163.640113 
L 81.999551 153.93268 
L 78.802207 148.984279 
L 77.289329 146.680729 
L 73.533867 141.246929 
L 71.753914 138.470641 
L 71.186166 139.45401 
L 66.832527 146.994734 
L 69.220409 150.449775 
L 76.589079 161.669522 
L 79.716708 166.510027 
L 80.087532 167.051784 
L 86.66734 167.051784 
L 87.635641 167.051784 
L 88.292414 167.051784 
L 88.507391 167.051784 
L 89.587963 167.051784 
" clip-path="url(#p25737cfd43)" style="fill: #3f0f72"/>
   </g>
   <g id="PathCollection_12">
    <path d="M 62.133168 155.134263 
L 70.310169 167.051784 
L 75.650065 167.051784 
L 80.087532 167.051784 
L 79.716708 166.510027 
L 76.589079 161.669522 
L 69.220409 150.449775 
L 66.832527 146.994734 
L 63.219375 153.252897 
" clip-path="url(#p25737cfd43)" style="fill: #1c1044"/>
   </g>
   <g id="PathCollection_13">
    <path d="M 57.894774 162.475376 
L 61.034798 167.051784 
L 70.310169 167.051784 
L 62.133168 155.134263 
" clip-path="url(#p25737cfd43)" style="fill: #050416"/>
   </g>
   <g id="PathCollection_14">
    <path d="M 61.034798 167.051784 
L 57.894774 162.475376 
L 55.252584 167.051784 
" clip-path="url(#p25737cfd43)" style="fill: #000004"/>
   </g>
   <g id="line2d_1">
    <path d="M 55.252584 167.051784 
L 214.588407 167.051784 
L 134.920495 29.062913 
L 55.252584 167.051784 
" clip-path="url(#p25737cfd43)" style="fill: none; stroke: #000000; stroke-width: 2; stroke-linecap: square"/>
   </g>
   <g id="PathCollection_15"/>
   <g id="PathCollection_16">
    <path d="M 175.944739 100.118988 
L 174.801654 98.438642 
L 174.505107 97.983554 
L 166.023134 84.903857 
L 165.528669 84.117553 
L 165.187365 83.577809 
L 164.735845 82.821668 
L 151.283896 60.226461 
L 150.008386 57.998255 
L 147.130392 52.794403 
L 146.197007 51.080253 
L 142.502047 44.129885 
L 141.724173 42.607887 
L 141.404219 41.975194 
L 136.322038 31.490457 
" clip-path="url(#p25737cfd43)" style="fill: none; stroke: #000000; stroke-opacity: 0.3; stroke-width: 0.5"/>
   </g>
   <g id="PathCollection_17">
    <path d="M 204.95984 167.051784 
L 204.873761 166.944073 
L 204.841713 166.901024 
L 204.391796 166.272047 
L 203.678585 165.271716 
L 201.740787 162.571528 
L 199.21459 159.042875 
L 197.53564 156.665011 
L 195.411065 153.611477 
L 188.313221 143.406507 
L 187.668412 142.482342 
L 186.534712 140.866807 
L 182.641648 135.371611 
L 181.232031 133.36805 
L 180.018366 131.66745 
L 177.429925 127.828065 
L 174.679646 123.826668 
L 170.61163 117.830037 
L 168.87668 115.300347 
L 167.189929 112.819043 
L 166.517116 111.765506 
L 160.237201 102.219649 
L 156.55019 96.546385 
L 154.547431 93.348095 
L 152.850362 90.677921 
L 148.751062 83.999196 
L 146.830117 80.769368 
L 143.090132 74.40992 
L 141.259392 71.255294 
L 140.358415 69.703969 
L 139.283341 67.716331 
L 133.239229 56.478412 
L 128.109765 46.831699 
L 127.76497 46.174568 
L 126.508789 43.632416 
" clip-path="url(#p25737cfd43)" style="fill: none; stroke: #000000; stroke-opacity: 0.3; stroke-width: 0.5"/>
   </g>
   <g id="PathCollection_18">
    <path d="M 187.698717 167.051784 
L 187.008706 166.100827 
L 182.952447 160.275826 
L 180.53835 156.882531 
L 178.027226 153.250074 
L 177.745183 152.841685 
L 174.573472 148.020763 
L 172.490498 144.872959 
L 164.4716 133.396797 
L 163.629152 132.167065 
L 160.572419 127.748741 
L 160.217733 127.21683 
L 160.097591 127.038177 
L 154.495452 118.537502 
L 153.049722 116.393811 
L 151.948723 114.61601 
L 151.382095 113.710109 
L 147.74847 108.056271 
L 140.929519 97.166805 
L 137.809289 92.257424 
L 135.478789 88.367326 
L 132.494417 83.383923 
L 132.141034 82.776726 
L 130.948319 80.7219 
L 127.195536 74.190434 
L 125.655967 71.458263 
L 123.893392 68.297018 
L 123.003011 66.632538 
L 118.523109 58.156014 
L 118.349347 57.764984 
" clip-path="url(#p25737cfd43)" style="fill: none; stroke: #000000; stroke-opacity: 0.3; stroke-width: 0.5"/>
   </g>
   <g id="PathCollection_19">
    <path d="M 171.317214 167.051784 
L 171.255285 166.96155 
L 170.579257 165.968886 
L 168.686809 163.226936 
L 166.750083 160.393366 
L 166.574071 160.133836 
L 166.076607 159.396292 
L 165.946296 159.201706 
L 165.382791 158.347797 
L 160.320748 151.016724 
L 160.248818 150.911166 
L 159.614529 149.952623 
L 159.342739 149.563653 
L 158.024502 147.639408 
L 154.836936 142.926108 
L 153.625297 141.045719 
L 144.197395 126.929175 
L 143.505554 125.88657 
L 141.555844 122.942513 
L 140.023733 120.580472 
L 138.710607 118.560921 
L 137.458382 116.558916 
L 135.519801 113.542529 
L 131.766887 107.488746 
L 126.496737 99.130398 
L 125.051877 96.753327 
L 124.421593 95.703749 
L 121.88904 91.46625 
L 120.561322 89.233276 
L 118.411516 85.562557 
L 117.752171 84.420823 
L 114.396536 78.461264 
L 112.810787 75.558237 
L 111.985402 74.029099 
L 110.669259 71.067287 
" clip-path="url(#p25737cfd43)" style="fill: none; stroke: #000000; stroke-opacity: 0.3; stroke-width: 0.5"/>
   </g>
   <g id="PathCollection_20">
    <path d="M 155.911932 167.051784 
L 155.694185 166.7228 
L 155.1979 165.971065 
L 154.996981 165.665935 
L 154.333294 164.654412 
L 153.529871 163.420837 
L 153.488574 163.357105 
L 152.006355 161.041519 
L 149.500957 157.400497 
L 149.251016 157.016903 
L 148.994084 156.621513 
L 148.860672 156.41573 
L 148.441563 155.767002 
L 148.374548 155.662909 
L 147.955744 155.009945 
L 147.710427 154.62521 
L 145.021427 150.46373 
L 140.87378 144.182426 
L 139.425876 142.097436 
L 130.547102 128.809577 
L 129.026302 126.721055 
L 126.964057 123.572615 
L 124.837095 120.306692 
L 119.443988 111.790082 
L 117.154504 108.115488 
L 116.030097 106.28241 
L 110.757803 97.576596 
L 110.046822 96.419982 
L 103.112982 84.565729 
L 102.994286 84.36073 
" clip-path="url(#p25737cfd43)" style="fill: none; stroke: #000000; stroke-opacity: 0.3; stroke-width: 0.5"/>
   </g>
   <g id="PathCollection_21">
    <path d="M 141.335902 167.051784 
L 141.272247 166.956737 
L 141.247639 166.919938 
L 141.012665 166.568179 
L 140.377051 165.611148 
L 136.320608 159.333422 
L 126.619633 144.642014 
L 123.233114 139.765408 
L 121.489497 137.155934 
L 120.646665 135.998469 
L 116.828837 130.120963 
L 115.248207 127.636714 
L 113.919458 125.427071 
L 110.786085 120.391167 
L 105.132638 111.701736 
L 103.905222 109.758614 
L 103.26277 108.731674 
L 99.350247 102.357644 
L 97.010021 98.473608 
L 95.926569 96.602374 
" clip-path="url(#p25737cfd43)" style="fill: none; stroke: #000000; stroke-opacity: 0.3; stroke-width: 0.5"/>
   </g>
   <g id="PathCollection_22">
    <path d="M 127.545057 167.051784 
L 127.268848 166.63895 
L 127.177532 166.50233 
L 126.986167 166.215797 
L 126.848371 166.009295 
L 126.372974 165.295279 
L 125.745002 164.346762 
L 125.268709 163.620288 
L 125.193316 163.503636 
L 125.009809 163.220268 
L 124.862311 162.990684 
L 124.821961 162.927547 
L 124.631438 162.624182 
L 124.406225 162.260911 
L 124.391417 162.236619 
L 124.350265 162.168763 
L 118.544345 153.375782 
L 118.171405 152.79131 
L 115.475683 148.648741 
L 113.94165 146.394645 
L 109.1602 139.193856 
L 108.003341 137.476207 
L 106.899851 135.909831 
L 104.288764 131.943288 
L 103.546613 130.800008 
L 97.39706 121.285111 
L 97.273226 121.08907 
L 92.506451 113.469529 
L 91.973956 112.602022 
L 89.285275 108.105433 
" clip-path="url(#p25737cfd43)" style="fill: none; stroke: #000000; stroke-opacity: 0.3; stroke-width: 0.5"/>
   </g>
   <g id="PathCollection_23">
    <path d="M 114.526423 167.051784 
L 113.724802 165.853676 
L 113.325205 165.25204 
L 107.420505 156.178171 
L 102.828974 149.431411 
L 102.105319 148.341597 
L 98.066578 142.345073 
L 97.833251 142.013872 
L 97.62456 141.699014 
L 96.897443 140.546386 
L 96.040159 139.235154 
L 91.784202 132.751835 
L 90.005946 129.960368 
L 89.273103 128.883307 
L 89.002537 128.474641 
L 85.906697 123.628407 
L 84.166745 120.783786 
L 83.449212 119.54569 
L 83.062026 118.884417 
" clip-path="url(#p25737cfd43)" style="fill: none; stroke: #000000; stroke-opacity: 0.3; stroke-width: 0.5"/>
   </g>
   <g id="PathCollection_24">
    <path d="M 102.255689 167.051784 
L 102.155316 166.898532 
L 101.831737 166.401364 
L 101.584393 166.019785 
L 97.518949 159.999434 
L 97.258447 159.60473 
L 97.003541 159.220481 
L 92.52321 152.08736 
L 87.162551 144.120897 
L 83.90139 139.001598 
L 79.224301 132.127674 
L 77.2205 129.002237 
" clip-path="url(#p25737cfd43)" style="fill: none; stroke: #000000; stroke-opacity: 0.3; stroke-width: 0.5"/>
   </g>
   <g id="PathCollection_25">
    <path d="M 90.761675 167.051784 
L 90.133881 166.14831 
L 89.921075 165.82917 
L 88.979723 164.427553 
L 88.924801 164.345081 
L 88.791516 164.144202 
L 88.451728 163.640113 
L 81.999551 153.93268 
L 78.802207 148.984279 
L 77.289329 146.680729 
L 73.533867 141.246929 
L 71.753914 138.470641 
" clip-path="url(#p25737cfd43)" style="fill: none; stroke: #000000; stroke-opacity: 0.3; stroke-width: 0.5"/>
   </g>
   <g id="PathCollection_26">
    <path d="M 80.087532 167.051784 
L 79.716708 166.510027 
L 76.589079 161.669522 
L 69.220409 150.449775 
L 66.832527 146.994734 
" clip-path="url(#p25737cfd43)" style="fill: none; stroke: #000000; stroke-opacity: 0.3; stroke-width: 0.5"/>
   </g>
   <g id="PathCollection_27">
    <path d="M 70.310169 167.051784 
L 62.133168 155.134263 
" clip-path="url(#p25737cfd43)" style="fill: none; stroke: #000000; stroke-opacity: 0.3; stroke-width: 0.5"/>
   </g>
   <g id="PathCollection_28">
    <path d="M 61.034798 167.051784 
L 57.894774 162.475376 
" clip-path="url(#p25737cfd43)" style="fill: none; stroke: #000000; stroke-opacity: 0.3; stroke-width: 0.5"/>
   </g>
   <g id="PathCollection_29"/>
   <g id="text_1">
    <!-- Heavy-end -->
    <g transform="translate(7.2 179.798649)scale(0.12 -0.12)">
     <defs>
      <path id="HelveticaNeueLTPro-Lt-48" d="M 461 0 
L 896 0 
L 896 2214 
L 3610 2214 
L 3610 0 
L 4045 0 
L 4045 4570 
L 3610 4570 
L 3610 2586 
L 896 2586 
L 896 4570 
L 461 4570 
L 461 0 
z
" transform="scale(0.015625)"/>
      <path id="HelveticaNeueLTPro-Lt-65" d="M 621 1882 
C 691 2483 1043 3059 1709 3059 
C 2355 3059 2739 2490 2758 1882 
L 621 1882 
z
M 3162 1542 
C 3194 2470 2765 3398 1709 3398 
C 659 3398 218 2522 218 1651 
C 218 710 659 -96 1709 -96 
C 2547 -96 2976 339 3149 1088 
L 2746 1088 
C 2618 582 2298 243 1709 243 
C 941 243 621 954 621 1542 
L 3162 1542 
z
" transform="scale(0.015625)"/>
      <path id="HelveticaNeueLTPro-Lt-61" d="M 749 2291 
C 768 2829 1126 3059 1632 3059 
C 2112 3059 2496 2925 2496 2381 
C 2496 2022 2310 1965 1978 1933 
C 1107 1830 205 1792 205 870 
C 205 205 698 -96 1312 -96 
C 1952 -96 2227 147 2515 576 
L 2528 576 
C 2528 237 2592 0 3002 0 
C 3110 0 3168 6 3264 26 
L 3264 365 
C 3219 346 3181 339 3136 339 
C 2976 339 2899 422 2899 582 
L 2899 2336 
C 2899 3226 2266 3398 1683 3398 
C 922 3398 390 3066 346 2291 
L 749 2291 
z
M 2496 1280 
C 2496 634 1965 243 1344 243 
C 960 243 608 493 608 896 
C 608 1536 1459 1536 2144 1658 
C 2253 1677 2432 1709 2483 1805 
L 2496 1805 
L 2496 1280 
z
" transform="scale(0.015625)"/>
      <path id="HelveticaNeueLTPro-Lt-76" d="M 1286 0 
L 1715 0 
L 2950 3302 
L 2534 3302 
L 1510 403 
L 1498 403 
L 461 3302 
L 13 3302 
L 1286 0 
z
" transform="scale(0.015625)"/>
      <path id="HelveticaNeueLTPro-Lt-79" d="M 1331 13 
L 1190 -365 
C 1056 -672 973 -883 614 -883 
C 518 -883 435 -870 339 -851 
L 339 -1190 
C 410 -1216 486 -1216 646 -1222 
C 1152 -1222 1280 -1062 1517 -506 
L 2950 3302 
L 2547 3302 
L 1530 486 
L 442 3302 
L 13 3302 
L 1331 13 
z
" transform="scale(0.015625)"/>
      <path id="HelveticaNeueLTPro-Lt-2d" d="M 1984 1574 
L 1984 1946 
L 384 1946 
L 384 1574 
L 1984 1574 
z
" transform="scale(0.015625)"/>
      <path id="HelveticaNeueLTPro-Lt-6e" d="M 378 0 
L 781 0 
L 781 1926 
C 800 2573 1171 3059 1818 3059 
C 2470 3059 2656 2624 2656 2061 
L 2656 0 
L 3059 0 
L 3059 2125 
C 3059 2912 2778 3398 1850 3398 
C 1382 3398 947 3130 794 2733 
L 781 2733 
L 781 3302 
L 378 3302 
L 378 0 
z
" transform="scale(0.015625)"/>
      <path id="HelveticaNeueLTPro-Lt-64" d="M 3290 4570 
L 2886 4570 
L 2886 2675 
L 2874 2675 
C 2707 3149 2214 3398 1728 3398 
C 723 3398 243 2592 243 1651 
C 243 710 723 -96 1728 -96 
C 2208 -96 2733 192 2906 627 
L 2918 627 
L 2918 0 
L 3290 0 
L 3290 4570 
z
M 646 1651 
C 646 2336 960 3059 1728 3059 
C 2579 3059 2886 2336 2886 1651 
C 2886 966 2579 243 1728 243 
C 960 243 646 966 646 1651 
z
" transform="scale(0.015625)"/>
     </defs>
     <use xlink:href="#HelveticaNeueLTPro-Lt-48"/>
     <use xlink:href="#HelveticaNeueLTPro-Lt-65" x="70.399994"/>
     <use xlink:href="#HelveticaNeueLTPro-Lt-61" x="122.299988"/>
     <use xlink:href="#HelveticaNeueLTPro-Lt-76" x="174.199982"/>
     <use xlink:href="#HelveticaNeueLTPro-Lt-79" x="220.499969"/>
     <use xlink:href="#HelveticaNeueLTPro-Lt-2d" x="266.799957"/>
     <use xlink:href="#HelveticaNeueLTPro-Lt-65" x="303.799942"/>
     <use xlink:href="#HelveticaNeueLTPro-Lt-6e" x="355.699936"/>
     <use xlink:href="#HelveticaNeueLTPro-Lt-64" x="409.399933"/>
    </g>
   </g>
   <g id="text_2">
    <!-- Peak Shift -->
    <g transform="translate(206.621616 179.798649)scale(0.12 -0.12)">
     <defs>
      <path id="HelveticaNeueLTPro-Lt-50" d="M 896 4198 
L 2394 4198 
C 3002 4198 3411 3898 3411 3264 
C 3411 2630 3002 2330 2394 2330 
L 896 2330 
L 896 4198 
z
M 461 0 
L 896 0 
L 896 1958 
L 2490 1958 
C 3309 1958 3846 2438 3846 3264 
C 3846 4090 3309 4570 2490 4570 
L 461 4570 
L 461 0 
z
" transform="scale(0.015625)"/>
      <path id="HelveticaNeueLTPro-Lt-6b" d="M 384 0 
L 787 0 
L 787 1254 
L 1440 1798 
L 2746 0 
L 3251 0 
L 1747 2080 
L 3155 3302 
L 2618 3302 
L 787 1702 
L 787 4570 
L 384 4570 
L 384 0 
z
" transform="scale(0.015625)"/>
      <path id="HelveticaNeueLTPro-Lt-20" transform="scale(0.015625)"/>
      <path id="HelveticaNeueLTPro-Lt-53" d="M 230 1504 
C 179 390 973 -96 2054 -96 
C 3674 -96 3802 896 3802 1210 
C 3802 1952 3264 2240 2618 2413 
L 1504 2688 
C 1126 2771 813 2957 813 3386 
C 813 4064 1363 4294 1958 4294 
C 2611 4294 3174 3936 3206 3245 
L 3642 3245 
C 3642 4186 2861 4666 1952 4666 
C 666 4666 378 3827 378 3379 
C 378 2662 870 2413 1408 2278 
L 2426 2029 
C 2854 1926 3366 1722 3366 1203 
C 3366 538 2637 275 2157 275 
C 1318 275 646 563 666 1504 
L 230 1504 
z
" transform="scale(0.015625)"/>
      <path id="HelveticaNeueLTPro-Lt-68" d="M 378 0 
L 781 0 
L 781 1926 
C 800 2573 1171 3059 1818 3059 
C 2470 3059 2656 2624 2656 2061 
L 2656 0 
L 3059 0 
L 3059 2125 
C 3059 2912 2778 3398 1850 3398 
C 1382 3398 947 3130 794 2733 
L 781 2733 
L 781 4570 
L 378 4570 
L 378 0 
z
" transform="scale(0.015625)"/>
      <path id="HelveticaNeueLTPro-Lt-69" d="M 390 3923 
L 794 3923 
L 794 4570 
L 390 4570 
L 390 3923 
z
M 390 0 
L 794 0 
L 794 3302 
L 390 3302 
L 390 0 
z
" transform="scale(0.015625)"/>
      <path id="HelveticaNeueLTPro-Lt-66" d="M 1658 3302 
L 1005 3302 
L 1005 3590 
C 1005 3942 1005 4230 1446 4230 
C 1542 4230 1632 4218 1741 4198 
L 1741 4544 
C 1613 4563 1523 4570 1402 4570 
C 749 4570 602 4173 602 3603 
L 602 3302 
L 38 3302 
L 38 2963 
L 602 2963 
L 602 0 
L 1005 0 
L 1005 2963 
L 1658 2963 
L 1658 3302 
z
" transform="scale(0.015625)"/>
      <path id="HelveticaNeueLTPro-Lt-74" d="M 1024 4294 
L 621 4294 
L 621 3302 
L 45 3302 
L 45 2963 
L 621 2963 
L 621 704 
C 614 141 800 -38 1338 -38 
C 1459 -38 1574 -26 1696 -26 
L 1696 320 
C 1581 307 1466 301 1350 301 
C 1062 320 1024 474 1024 736 
L 1024 2963 
L 1696 2963 
L 1696 3302 
L 1024 3302 
L 1024 4294 
z
" transform="scale(0.015625)"/>
     </defs>
     <use xlink:href="#HelveticaNeueLTPro-Lt-50"/>
     <use xlink:href="#HelveticaNeueLTPro-Lt-65" x="62.999985"/>
     <use xlink:href="#HelveticaNeueLTPro-Lt-61" x="114.899979"/>
     <use xlink:href="#HelveticaNeueLTPro-Lt-6b" x="166.799973"/>
     <use xlink:href="#HelveticaNeueLTPro-Lt-20" x="216.799957"/>
     <use xlink:href="#HelveticaNeueLTPro-Lt-53" x="244.599945"/>
     <use xlink:href="#HelveticaNeueLTPro-Lt-68" x="307.59993"/>
     <use xlink:href="#HelveticaNeueLTPro-Lt-69" x="361.299927"/>
     <use xlink:href="#HelveticaNeueLTPro-Lt-66" x="379.799911"/>
     <use xlink:href="#HelveticaNeueLTPro-Lt-74" x="405.699905"/>
    </g>
   </g>
   <g id="text_3">
    <!-- Base -->
    <g transform="translate(121.803933 21.096122)scale(0.12 -0.12)">
     <defs>
      <path id="HelveticaNeueLTPro-Lt-42" d="M 896 4198 
L 2394 4198 
C 3078 4198 3424 3910 3424 3341 
C 3424 2912 3085 2566 2394 2566 
L 896 2566 
L 896 4198 
z
M 461 0 
L 2394 0 
C 3878 0 4032 864 4032 1299 
C 4032 1894 3654 2336 3066 2413 
L 3066 2426 
C 3539 2528 3859 2970 3859 3450 
C 3859 4301 3162 4570 2394 4570 
L 461 4570 
L 461 0 
z
M 896 2195 
L 2394 2195 
C 3162 2195 3597 1901 3597 1312 
C 3597 570 3040 371 2394 371 
L 896 371 
L 896 2195 
z
" transform="scale(0.015625)"/>
      <path id="HelveticaNeueLTPro-Lt-73" d="M 2765 2336 
C 2733 3053 2221 3398 1555 3398 
C 973 3398 314 3142 314 2470 
C 314 1914 710 1722 1235 1587 
L 1754 1472 
C 2118 1382 2477 1254 2477 870 
C 2477 410 1958 243 1574 243 
C 1037 243 634 525 602 1069 
L 198 1069 
C 269 256 781 -96 1555 -96 
C 2170 -96 2880 179 2880 896 
C 2880 1472 2400 1741 1939 1811 
L 1402 1933 
C 1120 2003 717 2138 717 2490 
C 717 2918 1139 3059 1498 3059 
C 1958 3059 2342 2835 2362 2336 
L 2765 2336 
z
" transform="scale(0.015625)"/>
     </defs>
     <use xlink:href="#HelveticaNeueLTPro-Lt-42"/>
     <use xlink:href="#HelveticaNeueLTPro-Lt-61" x="66.699997"/>
     <use xlink:href="#HelveticaNeueLTPro-Lt-73" x="118.599991"/>
     <use xlink:href="#HelveticaNeueLTPro-Lt-65" x="166.699982"/>
    </g>
   </g>
  </g>
  <g id="axes_2">
   <g id="patch_2">
    <path d="M 231.142778 135.226264 
L 236.594219 135.226264 
L 236.594219 60.888433 
L 231.142778 60.888433 
L 231.142778 135.226264 
z
" style="fill: none"/>
   </g>
   <g id="patch_3">
    <path clip-path="url(#p884ee2ff9e)" style="fill: #ffffff; stroke: #ffffff; stroke-width: 0.01; stroke-linejoin: miter"/>
   </g>
   <g id="patch_4">
    <path d="M 231.142778 135.226264 
L 233.868498 138.943155 
L 236.594219 135.226264 
" style="fill: #fcfdbf"/>
   </g>
   <g id="patch_5">
    <path d="M 231.142778 60.888433 
L 233.868498 57.171542 
L 236.594219 60.888433 
" style="fill: #000004"/>
   </g>
   <g id="QuadMesh_1">
    <path d="M 231.142778 135.226264 
L 236.594219 135.226264 
L 236.594219 129.031445 
L 231.142778 129.031445 
L 231.142778 135.226264 
" clip-path="url(#p884ee2ff9e)" style="fill: #fdebac"/>
    <path d="M 231.142778 129.031445 
L 236.594219 129.031445 
L 236.594219 122.836625 
L 231.142778 122.836625 
L 231.142778 129.031445 
" clip-path="url(#p884ee2ff9e)" style="fill: #fec488"/>
    <path d="M 231.142778 122.836625 
L 236.594219 122.836625 
L 236.594219 116.641806 
L 231.142778 116.641806 
L 231.142778 122.836625 
" clip-path="url(#p884ee2ff9e)" style="fill: #fd9b6b"/>
    <path d="M 231.142778 116.641806 
L 236.594219 116.641806 
L 236.594219 110.446987 
L 231.142778 110.446987 
L 231.142778 116.641806 
" clip-path="url(#p884ee2ff9e)" style="fill: #f8745c"/>
    <path d="M 231.142778 110.446987 
L 236.594219 110.446987 
L 236.594219 104.252168 
L 231.142778 104.252168 
L 231.142778 110.446987 
" clip-path="url(#p884ee2ff9e)" style="fill: #e75263"/>
    <path d="M 231.142778 104.252168 
L 236.594219 104.252168 
L 236.594219 98.057349 
L 231.142778 98.057349 
L 231.142778 104.252168 
" clip-path="url(#p884ee2ff9e)" style="fill: #c73d73"/>
    <path d="M 231.142778 98.057349 
L 236.594219 98.057349 
L 236.594219 91.862529 
L 231.142778 91.862529 
L 231.142778 98.057349 
" clip-path="url(#p884ee2ff9e)" style="fill: #a5317e"/>
    <path d="M 231.142778 91.862529 
L 236.594219 91.862529 
L 236.594219 85.66771 
L 231.142778 85.66771 
L 231.142778 91.862529 
" clip-path="url(#p884ee2ff9e)" style="fill: #832681"/>
    <path d="M 231.142778 85.66771 
L 236.594219 85.66771 
L 236.594219 79.472891 
L 231.142778 79.472891 
L 231.142778 85.66771 
" clip-path="url(#p884ee2ff9e)" style="fill: #601880"/>
    <path d="M 231.142778 79.472891 
L 236.594219 79.472891 
L 236.594219 73.278072 
L 231.142778 73.278072 
L 231.142778 79.472891 
" clip-path="url(#p884ee2ff9e)" style="fill: #3f0f72"/>
    <path d="M 231.142778 73.278072 
L 236.594219 73.278072 
L 236.594219 67.083252 
L 231.142778 67.083252 
L 231.142778 73.278072 
" clip-path="url(#p884ee2ff9e)" style="fill: #1c1044"/>
    <path d="M 231.142778 67.083252 
L 236.594219 67.083252 
L 236.594219 60.888433 
L 231.142778 60.888433 
L 231.142778 67.083252 
" clip-path="url(#p884ee2ff9e)" style="fill: #050416"/>
   </g>
   <g id="matplotlib.axis_1">
    <g id="ytick_1">
     <g id="line2d_2">
      <defs>
       <path id="me265500f47" d="M 0 0 
L 3.5 0 
" style="stroke: #000000; stroke-width: 0.8"/>
      </defs>
      <g>
       <use xlink:href="#me265500f47" x="236.594219" y="135.226264" style="stroke: #000000; stroke-width: 0.8"/>
      </g>
     </g>
     <g id="text_4">
      <!-- 12.8 -->
      <g transform="translate(240.094219 138.796576)scale(0.1 -0.1)">
       <defs>
        <path id="HelveticaNeueLTPro-Lt-31" d="M 621 3328 
L 1805 3328 
L 1805 0 
L 2208 0 
L 2208 4480 
L 1882 4480 
C 1760 3661 1325 3635 621 3616 
L 621 3328 
z
" transform="scale(0.015625)"/>
        <path id="HelveticaNeueLTPro-Lt-32" d="M 3181 371 
L 691 371 
C 794 966 1600 1376 2035 1664 
C 2624 2042 3162 2509 3162 3258 
C 3162 4090 2554 4518 1773 4518 
C 800 4518 320 3853 339 2931 
L 742 2931 
C 723 3590 1018 4179 1754 4179 
C 2298 4179 2758 3846 2758 3264 
C 2758 2906 2637 2669 2387 2419 
C 1632 1664 256 1331 230 0 
L 3181 0 
L 3181 371 
z
" transform="scale(0.015625)"/>
        <path id="HelveticaNeueLTPro-Lt-2e" d="M 1158 0 
L 1158 678 
L 621 678 
L 621 0 
L 1158 0 
z
" transform="scale(0.015625)"/>
        <path id="HelveticaNeueLTPro-Lt-38" d="M 1779 2566 
C 1299 2547 819 2803 819 3398 
C 819 3910 1286 4179 1779 4179 
C 2317 4179 2733 3910 2733 3398 
C 2733 2822 2272 2547 1779 2566 
z
M 3136 3398 
C 3136 4166 2438 4518 1773 4518 
C 1107 4518 416 4166 416 3398 
C 416 2906 678 2560 1146 2413 
L 1146 2400 
C 589 2298 256 1843 237 1254 
C 237 352 934 -96 1779 -96 
C 2624 -96 3322 352 3322 1254 
C 3322 1862 2989 2278 2406 2400 
L 2406 2413 
C 2867 2547 3136 2912 3136 3398 
z
M 1779 243 
C 1146 243 640 582 640 1254 
C 640 1907 1165 2246 1779 2227 
C 2381 2246 2918 1894 2918 1254 
C 2918 563 2413 243 1779 243 
z
" transform="scale(0.015625)"/>
       </defs>
       <use xlink:href="#HelveticaNeueLTPro-Lt-31"/>
       <use xlink:href="#HelveticaNeueLTPro-Lt-32" x="55.599991"/>
       <use xlink:href="#HelveticaNeueLTPro-Lt-2e" x="111.199982"/>
       <use xlink:href="#HelveticaNeueLTPro-Lt-38" x="138.999969"/>
      </g>
     </g>
    </g>
    <g id="ytick_2">
     <g id="line2d_3">
      <g>
       <use xlink:href="#me265500f47" x="236.594219" y="122.836625" style="stroke: #000000; stroke-width: 0.8"/>
      </g>
     </g>
     <g id="text_5">
      <!-- 14.4 -->
      <g transform="translate(240.094219 126.406938)scale(0.1 -0.1)">
       <defs>
        <path id="HelveticaNeueLTPro-Lt-34" d="M 557 1453 
L 2246 3891 
L 2259 3891 
L 2259 1453 
L 557 1453 
z
M 192 1114 
L 2259 1114 
L 2259 0 
L 2630 0 
L 2630 1114 
L 3302 1114 
L 3302 1453 
L 2630 1453 
L 2630 4480 
L 2266 4480 
L 192 1504 
L 192 1114 
z
" transform="scale(0.015625)"/>
       </defs>
       <use xlink:href="#HelveticaNeueLTPro-Lt-31"/>
       <use xlink:href="#HelveticaNeueLTPro-Lt-34" x="55.599991"/>
       <use xlink:href="#HelveticaNeueLTPro-Lt-2e" x="111.199982"/>
       <use xlink:href="#HelveticaNeueLTPro-Lt-34" x="138.999969"/>
      </g>
     </g>
    </g>
    <g id="ytick_3">
     <g id="line2d_4">
      <g>
       <use xlink:href="#me265500f47" x="236.594219" y="110.446987" style="stroke: #000000; stroke-width: 0.8"/>
      </g>
     </g>
     <g id="text_6">
      <!-- 16.0 -->
      <g transform="translate(240.094219 114.017299)scale(0.1 -0.1)">
       <defs>
        <path id="HelveticaNeueLTPro-Lt-36" d="M 3232 3347 
C 3136 4134 2650 4518 1856 4518 
C 390 4518 256 2816 256 2285 
C 256 538 736 -96 1824 -96 
C 2714 -96 3341 550 3341 1421 
C 3341 2291 2758 2918 1862 2918 
C 1350 2918 883 2618 672 2176 
L 659 2176 
C 659 2989 845 4179 1894 4179 
C 2413 4179 2758 3840 2829 3347 
L 3232 3347 
z
M 1856 2579 
C 2541 2579 2938 2048 2938 1395 
C 2938 774 2502 243 1862 243 
C 1075 243 742 755 742 1395 
C 742 2054 1152 2579 1856 2579 
z
" transform="scale(0.015625)"/>
        <path id="HelveticaNeueLTPro-Lt-30" d="M 1779 4518 
C 474 4518 218 3258 218 2208 
C 218 1165 474 -96 1779 -96 
C 3085 -96 3341 1165 3341 2214 
C 3341 3258 3085 4518 1779 4518 
z
M 1779 4179 
C 2803 4179 2938 2989 2938 2214 
C 2938 1434 2803 243 1779 243 
C 755 243 621 1434 621 2214 
C 621 2989 755 4179 1779 4179 
z
" transform="scale(0.015625)"/>
       </defs>
       <use xlink:href="#HelveticaNeueLTPro-Lt-31"/>
       <use xlink:href="#HelveticaNeueLTPro-Lt-36" x="55.599991"/>
       <use xlink:href="#HelveticaNeueLTPro-Lt-2e" x="111.199982"/>
       <use xlink:href="#HelveticaNeueLTPro-Lt-30" x="138.999969"/>
      </g>
     </g>
    </g>
    <g id="ytick_4">
     <g id="line2d_5">
      <g>
       <use xlink:href="#me265500f47" x="236.594219" y="98.057349" style="stroke: #000000; stroke-width: 0.8"/>
      </g>
     </g>
     <g id="text_7">
      <!-- 17.6 -->
      <g transform="translate(240.094219 101.627661)scale(0.1 -0.1)">
       <defs>
        <path id="HelveticaNeueLTPro-Lt-37" d="M 326 4051 
L 2803 4051 
C 1562 2637 1062 1517 960 0 
L 1395 0 
C 1498 2080 2643 3469 3206 4051 
L 3206 4422 
L 326 4422 
L 326 4051 
z
" transform="scale(0.015625)"/>
       </defs>
       <use xlink:href="#HelveticaNeueLTPro-Lt-31"/>
       <use xlink:href="#HelveticaNeueLTPro-Lt-37" x="55.599991"/>
       <use xlink:href="#HelveticaNeueLTPro-Lt-2e" x="111.199982"/>
       <use xlink:href="#HelveticaNeueLTPro-Lt-36" x="138.999969"/>
      </g>
     </g>
    </g>
    <g id="ytick_5">
     <g id="line2d_6">
      <g>
       <use xlink:href="#me265500f47" x="236.594219" y="85.66771" style="stroke: #000000; stroke-width: 0.8"/>
      </g>
     </g>
     <g id="text_8">
      <!-- 19.2 -->
      <g transform="translate(240.094219 89.238023)scale(0.1 -0.1)">
       <defs>
        <path id="HelveticaNeueLTPro-Lt-39" d="M 326 1075 
C 422 288 909 -96 1702 -96 
C 3168 -96 3302 1606 3302 2138 
C 3302 3885 2822 4518 1734 4518 
C 845 4518 218 3872 218 3002 
C 218 2131 800 1504 1696 1504 
C 2208 1504 2675 1805 2886 2246 
L 2899 2246 
C 2899 1434 2714 243 1664 243 
C 1146 243 800 582 730 1075 
L 326 1075 
z
M 1702 1843 
C 1018 1843 621 2374 621 3027 
C 621 3648 1056 4179 1696 4179 
C 2483 4179 2816 3667 2816 3027 
C 2816 2368 2406 1843 1702 1843 
z
" transform="scale(0.015625)"/>
       </defs>
       <use xlink:href="#HelveticaNeueLTPro-Lt-31"/>
       <use xlink:href="#HelveticaNeueLTPro-Lt-39" x="55.599991"/>
       <use xlink:href="#HelveticaNeueLTPro-Lt-2e" x="111.199982"/>
       <use xlink:href="#HelveticaNeueLTPro-Lt-32" x="138.999969"/>
      </g>
     </g>
    </g>
    <g id="ytick_6">
     <g id="line2d_7">
      <g>
       <use xlink:href="#me265500f47" x="236.594219" y="73.278072" style="stroke: #000000; stroke-width: 0.8"/>
      </g>
     </g>
     <g id="text_9">
      <!-- 20.8 -->
      <g transform="translate(240.094219 76.848384)scale(0.1 -0.1)">
       <use xlink:href="#HelveticaNeueLTPro-Lt-32"/>
       <use xlink:href="#HelveticaNeueLTPro-Lt-30" x="55.599991"/>
       <use xlink:href="#HelveticaNeueLTPro-Lt-2e" x="111.199982"/>
       <use xlink:href="#HelveticaNeueLTPro-Lt-38" x="138.999969"/>
      </g>
     </g>
    </g>
    <g id="ytick_7">
     <g id="line2d_8">
      <g>
       <use xlink:href="#me265500f47" x="236.594219" y="60.888433" style="stroke: #000000; stroke-width: 0.8"/>
      </g>
     </g>
     <g id="text_10">
      <!-- 22.4 -->
      <g transform="translate(240.094219 64.458746)scale(0.1 -0.1)">
       <use xlink:href="#HelveticaNeueLTPro-Lt-32"/>
       <use xlink:href="#HelveticaNeueLTPro-Lt-32" x="55.599991"/>
       <use xlink:href="#HelveticaNeueLTPro-Lt-2e" x="111.199982"/>
       <use xlink:href="#HelveticaNeueLTPro-Lt-34" x="138.999969"/>
      </g>
     </g>
    </g>
    <g id="text_11">
     <!-- GWP [gCO$_2$e MJ$^{-1}$] -->
     <g transform="translate(271.012031 144.477349)rotate(-90)scale(0.11 -0.11)">
      <defs>
       <path id="HelveticaNeueLTPro-Lt-47" d="M 4365 2323 
L 2426 2323 
L 2426 1952 
L 3981 1952 
C 4000 979 3411 275 2400 275 
C 1190 275 678 1286 678 2285 
C 678 3283 1190 4294 2400 4294 
C 3264 4294 3821 3674 3872 3149 
L 4307 3149 
C 4134 4147 3360 4666 2400 4666 
C 960 4666 243 3539 243 2285 
C 243 1030 960 -96 2400 -96 
C 3059 -96 3674 179 3981 832 
L 3994 832 
L 4051 0 
L 4365 0 
L 4365 2323 
z
" transform="scale(0.015625)"/>
       <path id="HelveticaNeueLTPro-Lt-57" d="M 1267 0 
L 1741 0 
L 2893 4090 
L 2906 4090 
L 4064 0 
L 4525 0 
L 5786 4570 
L 5350 4570 
L 4307 570 
L 4294 570 
L 3174 4570 
L 2630 4570 
L 1517 570 
L 1504 570 
L 467 4570 
L 0 4570 
L 1267 0 
z
" transform="scale(0.015625)"/>
       <path id="HelveticaNeueLTPro-Lt-5b" d="M 1517 -1222 
L 1517 -883 
L 890 -883 
L 890 4326 
L 1517 4326 
L 1517 4666 
L 486 4666 
L 486 -1222 
L 1517 -1222 
z
" transform="scale(0.015625)"/>
       <path id="HelveticaNeueLTPro-Lt-67" d="M 3174 3302 
L 2771 3302 
L 2771 2733 
L 2758 2733 
C 2598 3098 2195 3398 1709 3398 
C 755 3398 218 2643 218 1734 
C 218 787 653 38 1709 38 
C 2189 38 2573 307 2758 717 
L 2771 717 
L 2771 269 
C 2771 -544 2458 -979 1709 -979 
C 1267 -979 826 -806 742 -320 
L 339 -320 
C 390 -1018 1050 -1318 1709 -1318 
C 2778 -1318 3174 -723 3174 269 
L 3174 3302 
z
M 1709 378 
C 960 378 621 1024 621 1690 
C 621 2374 941 3059 1709 3059 
C 2477 3059 2771 2336 2771 1690 
C 2771 1024 2406 378 1709 378 
z
" transform="scale(0.015625)"/>
       <path id="HelveticaNeueLTPro-Lt-43" d="M 4237 3187 
C 4115 4141 3270 4666 2400 4666 
C 960 4666 243 3539 243 2285 
C 243 1030 960 -96 2400 -96 
C 3469 -96 4179 614 4301 1741 
L 3866 1741 
C 3782 928 3245 275 2400 275 
C 1190 275 678 1286 678 2285 
C 678 3283 1190 4294 2400 4294 
C 3066 4294 3648 3891 3802 3187 
L 4237 3187 
z
" transform="scale(0.015625)"/>
       <path id="HelveticaNeueLTPro-Lt-4f" d="M 653 2285 
C 653 3283 1165 4294 2374 4294 
C 3578 4294 4090 3283 4090 2285 
C 4090 1286 3578 275 2374 275 
C 1165 275 653 1286 653 2285 
z
M 218 2285 
C 218 1030 934 -96 2374 -96 
C 3808 -96 4525 1030 4525 2285 
C 4525 3539 3808 4666 2374 4666 
C 934 4666 218 3539 218 2285 
z
" transform="scale(0.015625)"/>
       <path id="HelveticaNeueLTPro-Lt-4d" d="M 448 0 
L 883 0 
L 883 3949 
L 896 3949 
L 2464 0 
L 2874 0 
L 4435 3949 
L 4448 3949 
L 4448 0 
L 4883 0 
L 4883 4570 
L 4243 4570 
L 2669 563 
L 1088 4570 
L 448 4570 
L 448 0 
z
" transform="scale(0.015625)"/>
       <path id="HelveticaNeueLTPro-Lt-4a" d="M 2304 1459 
C 2304 621 2131 275 1446 275 
C 544 275 589 1075 570 1466 
L 134 1466 
C 134 672 358 -96 1408 -96 
C 2394 -96 2739 346 2739 1274 
L 2739 4570 
L 2304 4570 
L 2304 1459 
z
" transform="scale(0.015625)"/>
       <path id="HelveticaNeueLTPro-Lt-2212" d="M 3533 1779 
L 314 1779 
L 314 1440 
L 3533 1440 
L 3533 1779 
z
" transform="scale(0.015625)"/>
       <path id="HelveticaNeueLTPro-Lt-5d" d="M 26 4666 
L 26 4326 
L 653 4326 
L 653 -883 
L 26 -883 
L 26 -1222 
L 1056 -1222 
L 1056 4666 
L 26 4666 
z
" transform="scale(0.015625)"/>
      </defs>
      <use xlink:href="#HelveticaNeueLTPro-Lt-47" transform="translate(0 0.884375)"/>
      <use xlink:href="#HelveticaNeueLTPro-Lt-57" transform="translate(74.099991 0.884375)"/>
      <use xlink:href="#HelveticaNeueLTPro-Lt-50" transform="translate(164.799973 0.884375)"/>
      <use xlink:href="#HelveticaNeueLTPro-Lt-20" transform="translate(227.799957 0.884375)"/>
      <use xlink:href="#HelveticaNeueLTPro-Lt-5b" transform="translate(255.599945 0.884375)"/>
      <use xlink:href="#HelveticaNeueLTPro-Lt-67" transform="translate(279.699936 0.884375)"/>
      <use xlink:href="#HelveticaNeueLTPro-Lt-43" transform="translate(335.299927 0.884375)"/>
      <use xlink:href="#HelveticaNeueLTPro-Lt-4f" transform="translate(405.699921 0.884375)"/>
      <use xlink:href="#HelveticaNeueLTPro-Lt-32" transform="translate(480.702802 -14.59375)scale(0.7)"/>
      <use xlink:href="#HelveticaNeueLTPro-Lt-65" transform="translate(522.202483 0.884375)"/>
      <use xlink:href="#HelveticaNeueLTPro-Lt-20" transform="translate(574.102477 0.884375)"/>
      <use xlink:href="#HelveticaNeueLTPro-Lt-4d" transform="translate(601.902465 0.884375)"/>
      <use xlink:href="#HelveticaNeueLTPro-Lt-4a" transform="translate(685.202453 0.884375)"/>
      <use xlink:href="#HelveticaNeueLTPro-Lt-2212" transform="translate(736.105328 37)scale(0.7)"/>
      <use xlink:href="#HelveticaNeueLTPro-Lt-31" transform="translate(778.105317 37)scale(0.7)"/>
      <use xlink:href="#HelveticaNeueLTPro-Lt-5d" transform="translate(819.604998 0.884375)"/>
     </g>
    </g>
   </g>
   <g id="LineCollection_1"/>
   <g id="patch_6">
    <path d="M 231.142778 135.226264 
L 233.868498 138.943155 
L 236.594219 135.226264 
L 236.594219 60.888433 
L 233.868498 57.171542 
L 231.142778 60.888433 
L 231.142778 135.226264 
z
" style="fill: none; stroke: #000000; stroke-width: 0.8; stroke-linejoin: miter; stroke-linecap: square"/>
   </g>
  </g>
 </g>
 <defs>
  <clipPath id="p25737cfd43">
   <rect x="55.252584" y="7.2" width="159.335823" height="181.714697"/>
  </clipPath>
  <clipPath id="p884ee2ff9e">
   <rect x="231.142778" y="60.888433" width="5.451441" height="74.337831"/>
  </clipPath>
 </defs>
</svg>
