<?xml version="1.0" encoding="utf-8" standalone="no"?>
<!DOCTYPE svg PUBLIC "-//W3C//DTD SVG 1.1//EN"
  "http://www.w3.org/Graphics/SVG/1.1/DTD/svg11.dtd">
<svg xmlns:xlink="http://www.w3.org/1999/xlink" width="282.201434pt" height="278.4pt" viewBox="0 0 282.201434 278.4" xmlns="http://www.w3.org/2000/svg" version="1.1">
 <metadata>
  <rdf:RDF xmlns:dc="http://purl.org/dc/elements/1.1/" xmlns:cc="http://creativecommons.org/ns#" xmlns:rdf="http://www.w3.org/1999/02/22-rdf-syntax-ns#">
   <cc:Work>
    <dc:type rdf:resource="http://purl.org/dc/dcmitype/StillImage"/>
    <dc:date>2026-02-09T11:00:50.300634</dc:date>
    <dc:format>image/svg+xml</dc:format>
    <dc:creator>
     <cc:Agent>
      <dc:title>Matplotlib v3.5.3, https://matplotlib.org/</dc:title>
     </cc:Agent>
    </dc:creator>
   </cc:Work>
  </rdf:RDF>
 </metadata>
 <defs>
  <style type="text/css">*{stroke-linejoin: round; stroke-linecap: butt}</style>
 </defs>
 <g id="figure_1">
  <g id="patch_1">
   <path d="M 0 278.4 
L 282.201434 278.4 
L 282.201434 0 
L 0 0 
z
" style="fill: #ffffff"/>
  </g>
  <g id="axes_1">
   <g id="PathCollection_1">
    <path d="M 134.99661 80.919159 
L 136.962859 84.972031 
L 137.73974 86.499497 
L 137.746634 86.513178 
L 140.973658 91.940365 
L 142.344051 94.503467 
L 144.885153 99.182859 
L 147.789799 104.441961 
L 149.183688 106.805828 
L 154.695035 115.874504 
L 156.289605 118.510062 
L 158.793354 122.690535 
L 160.30914 125.627135 
L 163.083381 130.276959 
L 167.401998 136.955568 
L 168.432212 138.556885 
L 172.627977 144.936542 
L 174.038408 147.212728 
L 176.07233 150.421626 
L 177.151103 152.121957 
L 178.969182 154.918425 
L 179.26316 155.348124 
L 180.748902 157.630129 
L 185.689273 165.415183 
L 186.844479 167.048737 
L 193.029415 176.431314 
L 193.970137 177.825354 
L 194.245671 178.243633 
L 195.629959 180.346392 
L 196.979895 182.452965 
L 197.771795 183.732588 
L 202.431488 191.13621 
L 203.56522 192.861685 
L 205.347181 195.561046 
L 205.892167 196.364466 
L 209.929748 202.362892 
L 210.401626 202.972001 
L 211.804497 202.972001 
L 204.44074 190.217601 
L 197.076984 177.463201 
L 189.713227 164.7088 
L 182.349471 151.9544 
L 174.985715 139.2 
L 167.621958 126.4456 
L 152.894445 100.936799 
L 145.530689 88.182399 
L 138.166933 75.427999 
" clip-path="url(#pa9f583d20a)" style="fill: #fcfdbf"/>
   </g>
   <g id="PathCollection_2">
    <path d="M 210.401626 202.972001 
L 209.929748 202.362892 
L 205.892167 196.364466 
L 205.347181 195.561046 
L 203.56522 192.861685 
L 202.431488 191.13621 
L 197.771795 183.732588 
L 196.979895 182.452965 
L 195.629959 180.346392 
L 194.245671 178.243633 
L 193.970137 177.825354 
L 193.029415 176.431314 
L 186.844479 167.048737 
L 185.689273 165.415183 
L 180.748902 157.630129 
L 179.26316 155.348124 
L 178.969182 154.918425 
L 177.151103 152.121957 
L 176.07233 150.421626 
L 174.038408 147.212728 
L 172.627977 144.936542 
L 168.432212 138.556885 
L 167.401998 136.955568 
L 163.083381 130.276959 
L 160.30914 125.627135 
L 158.793354 122.690535 
L 156.289605 118.510062 
L 154.695035 115.874504 
L 149.183688 106.805828 
L 147.789799 104.441961 
L 144.885153 99.182859 
L 142.344051 94.503467 
L 140.973658 91.940365 
L 137.746634 86.513178 
L 137.73974 86.499497 
L 136.962859 84.972031 
L 134.99661 80.919159 
L 130.803176 88.182399 
L 127.452858 93.985321 
L 128.131712 95.331466 
L 130.423663 100.206911 
L 132.896127 104.831261 
L 135.836089 110.245147 
L 138.314759 115.157038 
L 140.569406 118.99163 
L 145.086816 127.108129 
L 145.153716 127.218891 
L 145.184922 127.277085 
L 145.248856 127.389221 
L 150.817793 136.386827 
L 157.635554 147.672814 
L 161.303087 153.470899 
L 162.889136 155.968905 
L 163.183852 156.422881 
L 163.433365 156.82205 
L 165.540909 160.127833 
L 166.150363 161.095646 
L 167.019648 162.435593 
L 170.382182 167.601017 
L 171.964181 170.085754 
L 174.916667 174.665765 
L 178.570222 180.232316 
L 179.087787 181.065904 
L 179.901055 182.381439 
L 180.873685 183.881922 
L 184.865413 190.079198 
L 188.220349 195.224765 
L 190.809462 199.208951 
L 192.900091 202.426236 
L 193.284371 202.972001 
L 201.460548 202.972001 
L 202.355704 202.972001 
" clip-path="url(#pa9f583d20a)" style="fill: #fde9aa"/>
   </g>
   <g id="PathCollection_3">
    <path d="M 193.284371 202.972001 
L 192.900091 202.426236 
L 190.809462 199.208951 
L 188.220349 195.224765 
L 184.865413 190.079198 
L 180.873685 183.881922 
L 179.901055 182.381439 
L 179.087787 181.065904 
L 178.570222 180.232316 
L 174.916667 174.665765 
L 171.964181 170.085754 
L 170.382182 167.601017 
L 167.019648 162.435593 
L 166.150363 161.095646 
L 165.540909 160.127833 
L 163.433365 156.82205 
L 163.183852 156.422881 
L 162.889136 155.968905 
L 161.303087 153.470899 
L 157.635554 147.672814 
L 150.817793 136.386827 
L 145.248856 127.389221 
L 145.184922 127.277085 
L 145.153716 127.218891 
L 145.086816 127.108129 
L 140.569406 118.99163 
L 138.314759 115.157038 
L 135.836089 110.245147 
L 132.896127 104.831261 
L 130.423663 100.206911 
L 128.131712 95.331466 
L 127.452858 93.985321 
L 123.43942 100.936799 
L 120.031467 106.839546 
L 120.907915 109.098501 
L 122.547858 112.602885 
L 123.461631 114.387904 
L 123.936313 115.30491 
L 125.652289 118.476774 
L 129.194744 124.808302 
L 131.767089 129.448594 
L 132.542526 130.836813 
L 133.569068 132.600426 
L 137.349588 139.222767 
L 137.845759 140.024421 
L 138.883864 141.742878 
L 146.983728 154.977142 
L 148.290957 157.189512 
L 149.452708 159.137109 
L 150.029197 160.071516 
L 152.647303 164.174729 
L 158.207746 173.101569 
L 159.094718 174.52986 
L 160.383088 176.528233 
L 162.788543 180.352124 
L 165.971985 185.202412 
L 169.451529 190.80655 
L 170.495474 192.495225 
L 170.686726 192.793436 
L 174.319445 198.554284 
L 174.351519 198.603132 
L 174.375804 198.641116 
L 177.244808 202.972001 
L 189.351871 202.972001 
" clip-path="url(#pa9f583d20a)" style="fill: #febf84"/>
   </g>
   <g id="PathCollection_4">
    <path d="M 177.244808 202.972001 
L 174.375804 198.641116 
L 174.351519 198.603132 
L 174.319445 198.554284 
L 170.686726 192.793436 
L 170.495474 192.495225 
L 169.451529 190.80655 
L 165.971985 185.202412 
L 162.788543 180.352124 
L 160.383088 176.528233 
L 159.094718 174.52986 
L 158.207746 173.101569 
L 152.647303 164.174729 
L 150.029197 160.071516 
L 149.452708 159.137109 
L 148.290957 157.189512 
L 146.983728 154.977142 
L 138.883864 141.742878 
L 137.845759 140.024421 
L 137.349588 139.222767 
L 133.569068 132.600426 
L 132.542526 130.836813 
L 131.767089 129.448594 
L 129.194744 124.808302 
L 125.652289 118.476774 
L 123.936313 115.30491 
L 123.461631 114.387904 
L 122.547858 112.602885 
L 120.907915 109.098501 
L 120.031467 106.839546 
L 112.6455 119.632417 
L 113.265565 121.23057 
L 113.670448 122.024323 
L 115.705642 125.939399 
L 117.992422 130.192516 
L 120.101999 134.03092 
L 120.68047 135.063312 
L 121.542985 136.580211 
L 125.56723 143.604255 
L 132.379465 155.271987 
L 133.570888 157.293594 
L 134.224443 158.391864 
L 135.452367 160.436122 
L 137.467565 163.789841 
L 137.786475 164.250135 
L 148.063756 180.732108 
L 148.676494 181.672272 
L 150.455031 184.630523 
L 151.673982 186.714462 
L 151.7901 186.906476 
L 151.986515 187.242828 
L 152.018069 187.296738 
L 152.216355 187.633896 
L 152.279772 187.741467 
L 152.402369 187.948716 
L 152.522161 188.150792 
L 156.207915 193.988757 
L 157.074653 195.489208 
L 157.09907 195.530999 
L 157.577033 196.345274 
L 157.976238 197.02033 
L 158.097818 197.225495 
L 158.399764 197.733427 
L 158.57464 198.004763 
L 158.599387 198.045657 
L 160.063584 200.482674 
L 160.895204 201.797111 
L 161.706349 202.972001 
L 164.09679 202.972001 
L 164.735869 202.972001 
L 166.594349 202.972001 
L 167.095401 202.972001 
L 170.181965 202.972001 
L 171.70181 202.972001 
L 172.33184 202.972001 
" clip-path="url(#pa9f583d20a)" style="fill: #fd9266"/>
   </g>
   <g id="PathCollection_5">
    <path d="M 161.706349 202.972001 
L 160.895204 201.797111 
L 160.063584 200.482674 
L 158.599387 198.045657 
L 158.57464 198.004763 
L 158.399764 197.733427 
L 158.097818 197.225495 
L 157.976238 197.02033 
L 157.577033 196.345274 
L 157.09907 195.530999 
L 157.074653 195.489208 
L 156.207915 193.988757 
L 152.522161 188.150792 
L 152.402369 187.948716 
L 152.279772 187.741467 
L 152.216355 187.633896 
L 152.018069 187.296738 
L 151.986515 187.242828 
L 151.7901 186.906476 
L 151.673982 186.714462 
L 150.455031 184.630523 
L 148.676494 181.672272 
L 148.063756 180.732108 
L 137.786475 164.250135 
L 137.467565 163.789841 
L 135.452367 160.436122 
L 134.224443 158.391864 
L 133.570888 157.293594 
L 132.379465 155.271987 
L 125.56723 143.604255 
L 121.542985 136.580211 
L 120.68047 135.063312 
L 120.101999 134.03092 
L 117.992422 130.192516 
L 115.705642 125.939399 
L 113.670448 122.024323 
L 113.265565 121.23057 
L 112.6455 119.632417 
L 108.711907 126.4456 
L 105.402898 132.176971 
L 110.00049 141.072447 
L 111.287216 143.40776 
L 114.541681 148.899476 
L 118.247718 154.948613 
L 122.3499 162.393157 
L 122.89529 163.380643 
L 125.672339 168.057528 
L 126.813818 169.976504 
L 128.667947 172.652631 
L 132.289317 178.460326 
L 134.676838 182.123655 
L 141.606871 193.650416 
L 146.356486 201.77044 
L 146.808937 202.518618 
L 147.073694 202.972001 
L 147.802295 202.972001 
L 147.972648 202.972001 
L 148.973269 202.972001 
L 149.270239 202.972001 
L 149.815773 202.972001 
L 150.315699 202.972001 
L 153.864445 202.972001 
L 153.945221 202.972001 
L 155.373455 202.972001 
L 156.380264 202.972001 
L 156.659434 202.972001 
L 157.304618 202.972001 
L 157.644007 202.972001 
L 157.691317 202.972001 
L 159.966919 202.972001 
" clip-path="url(#pa9f583d20a)" style="fill: #f4675c"/>
   </g>
   <g id="PathCollection_6">
    <path d="M 147.073694 202.972001 
L 146.808937 202.518618 
L 146.356486 201.77044 
L 141.606871 193.650416 
L 134.676838 182.123655 
L 132.289317 178.460326 
L 128.667947 172.652631 
L 126.813818 169.976504 
L 125.672339 168.057528 
L 122.89529 163.380643 
L 122.3499 162.393157 
L 118.247718 154.948613 
L 114.541681 148.899476 
L 111.287216 143.40776 
L 110.00049 141.072447 
L 105.402898 132.176971 
L 101.348151 139.2 
L 98.542497 144.059535 
L 99.813486 146.371277 
L 102.826799 151.743841 
L 105.605618 156.667756 
L 111.414525 166.707838 
L 112.02419 167.702957 
L 112.331194 168.260099 
L 112.696951 168.922341 
L 113.930392 170.985465 
L 115.709633 173.924938 
L 115.926249 174.342027 
L 116.21486 174.813122 
L 121.285775 183.192641 
L 121.973442 184.298618 
L 123.276634 186.312811 
L 123.453944 186.62808 
L 129.979655 197.40991 
L 129.993958 197.438002 
L 129.999157 197.448055 
L 130.080353 197.598633 
L 130.145923 197.73057 
L 130.161093 197.757156 
L 130.216966 197.854145 
L 130.287185 197.974727 
L 130.314936 198.026808 
L 130.501471 198.342165 
L 130.75413 198.764982 
L 130.950623 199.091565 
L 131.008426 199.18737 
L 131.089338 199.321488 
L 131.128215 199.385743 
L 131.290745 199.654553 
L 131.401583 199.837583 
L 131.596042 200.138449 
L 131.638871 200.208609 
L 131.921312 200.671122 
L 132.41545 201.479438 
L 132.727161 201.988564 
L 133.074257 202.555359 
L 133.329503 202.972001 
L 133.430923 202.972001 
L 133.683305 202.972001 
L 135.963973 202.972001 
L 136.231867 202.972001 
L 136.373627 202.972001 
L 137.452548 202.972001 
L 138.201137 202.972001 
L 138.34654 202.972001 
L 138.454661 202.972001 
L 138.690531 202.972001 
L 139.302875 202.972001 
L 140.040647 202.972001 
L 140.07655 202.972001 
L 140.825062 202.972001 
L 141.441139 202.972001 
L 141.789636 202.972001 
L 141.999004 202.972001 
L 142.762828 202.972001 
L 142.779891 202.972001 
L 143.794075 202.972001 
L 144.182949 202.972001 
L 144.217305 202.972001 
L 144.575399 202.972001 
L 145.932117 202.972001 
L 146.664282 202.972001 
" clip-path="url(#pa9f583d20a)" style="fill: #db476a"/>
   </g>
   <g id="PathCollection_7">
    <path d="M 133.329503 202.972001 
L 133.074257 202.555359 
L 132.727161 201.988564 
L 132.41545 201.479438 
L 131.921312 200.671122 
L 131.638871 200.208609 
L 131.596042 200.138449 
L 131.401583 199.837583 
L 131.290745 199.654553 
L 131.128215 199.385743 
L 131.089338 199.321488 
L 131.008426 199.18737 
L 130.950623 199.091565 
L 130.75413 198.764982 
L 130.501471 198.342165 
L 130.314936 198.026808 
L 130.287185 197.974727 
L 130.216966 197.854145 
L 130.161093 197.757156 
L 130.145923 197.73057 
L 130.080353 197.598633 
L 129.999157 197.448055 
L 129.993958 197.438002 
L 129.979655 197.40991 
L 123.453944 186.62808 
L 123.276634 186.312811 
L 121.973442 184.298618 
L 121.285775 183.192641 
L 116.21486 174.813122 
L 115.926249 174.342027 
L 115.709633 173.924938 
L 113.930392 170.985465 
L 112.696951 168.922341 
L 112.331194 168.260099 
L 112.02419 167.702957 
L 111.414525 166.707838 
L 105.605618 156.667756 
L 102.826799 151.743841 
L 99.813486 146.371277 
L 98.542497 144.059535 
L 93.984394 151.9544 
L 92.021219 155.35472 
L 92.53877 156.292999 
L 92.81021 156.88767 
L 94.567047 159.657886 
L 95.406893 161.107839 
L 95.917096 161.978404 
L 97.517265 164.775355 
L 98.331945 166.143611 
L 100.504033 169.789783 
L 102.827848 174.148681 
L 104.349648 176.767571 
L 104.667343 177.469063 
L 104.775529 177.643349 
L 105.670745 179.367071 
L 108.783865 184.448553 
L 109.905768 186.302461 
L 113.553457 192.169046 
L 120.466152 202.8532 
L 120.532967 202.972001 
L 121.584387 202.972001 
L 122.029329 202.972001 
L 122.181761 202.972001 
L 124.108135 202.972001 
L 125.330746 202.972001 
L 125.55348 202.972001 
L 126.28678 202.972001 
L 127.054542 202.972001 
L 127.333465 202.972001 
L 128.7285 202.972001 
L 129.959898 202.972001 
L 130.624945 202.972001 
L 130.788223 202.972001 
L 130.997251 202.972001 
L 131.090447 202.972001 
L 131.437166 202.972001 
L 131.640333 202.972001 
L 131.950407 202.972001 
L 132.010758 202.972001 
L 132.356321 202.972001 
L 132.802682 202.972001 
L 133.015269 202.972001 
L 133.209046 202.972001 
" clip-path="url(#pa9f583d20a)" style="fill: #b5367a"/>
   </g>
   <g id="PathCollection_8">
    <path d="M 120.532967 202.972001 
L 120.466152 202.8532 
L 113.553457 192.169046 
L 109.905768 186.302461 
L 108.783865 184.448553 
L 105.670745 179.367071 
L 104.775529 177.643349 
L 104.667343 177.469063 
L 104.349648 176.767571 
L 102.827848 174.148681 
L 100.504033 169.789783 
L 98.331945 166.143611 
L 97.517265 164.775355 
L 95.917096 161.978404 
L 95.406893 161.107839 
L 94.567047 159.657886 
L 92.81021 156.88767 
L 92.53877 156.292999 
L 92.021219 155.35472 
L 86.620638 164.7088 
L 85.725443 166.259324 
L 86.655516 167.873082 
L 91.852944 175.796054 
L 94.880408 181.602426 
L 99.126099 188.650553 
L 103.109665 195.623137 
L 103.368708 196.053616 
L 103.608984 196.451336 
L 107.217477 202.343011 
L 107.448327 202.737067 
L 107.586521 202.972001 
L 107.838707 202.972001 
L 108.849316 202.972001 
L 109.37847 202.972001 
L 113.604883 202.972001 
L 115.687304 202.972001 
L 117.380737 202.972001 
L 120.002257 202.972001 
L 120.445966 202.972001 
" clip-path="url(#pa9f583d20a)" style="fill: #902a81"/>
   </g>
   <g id="PathCollection_9">
    <path d="M 107.586521 202.972001 
L 107.448327 202.737067 
L 107.217477 202.343011 
L 103.608984 196.451336 
L 103.368708 196.053616 
L 103.109665 195.623137 
L 99.126099 188.650553 
L 94.880408 181.602426 
L 91.852944 175.796054 
L 86.655516 167.873082 
L 85.725443 166.259324 
L 80.076238 176.044034 
L 82.181358 179.696599 
L 84.946523 184.120274 
L 86.274666 186.396875 
L 89.702725 192.258759 
L 94.547593 200.330535 
L 95.130096 201.289498 
L 95.368081 201.688881 
L 95.467911 201.855767 
L 95.83987 202.476559 
L 96.139165 202.972001 
L 96.265781 202.972001 
L 101.946033 202.972001 
L 102.124565 202.972001 
L 102.392469 202.972001 
L 104.488602 202.972001 
L 105.065411 202.972001 
L 106.907794 202.972001 
L 106.952863 202.972001 
L 107.362082 202.972001 
" clip-path="url(#pa9f583d20a)" style="fill: #6b1d81"/>
   </g>
   <g id="PathCollection_10">
    <path d="M 96.139165 202.972001 
L 95.83987 202.476559 
L 95.467911 201.855767 
L 95.368081 201.688881 
L 95.130096 201.289498 
L 94.547593 200.330535 
L 89.702725 192.258759 
L 86.274666 186.396875 
L 84.946523 184.120274 
L 82.181358 179.696599 
L 80.076238 176.044034 
L 79.256881 177.463201 
L 74.93094 184.955951 
L 76.790091 187.930196 
L 83.885304 200.092263 
L 85.411357 202.70177 
L 85.579609 202.972001 
L 93.56623 202.972001 
L 94.461237 202.972001 
L 95.068296 202.972001 
L 95.267001 202.972001 
" clip-path="url(#pa9f583d20a)" style="fill: #471078"/>
   </g>
   <g id="PathCollection_11">
    <path d="M 70.112549 193.301649 
L 76.094192 202.972001 
L 83.382892 202.972001 
L 85.579609 202.972001 
L 85.411357 202.70177 
L 83.885304 200.092263 
L 76.790091 187.930196 
L 74.93094 184.955951 
L 71.893125 190.217601 
" clip-path="url(#pa9f583d20a)" style="fill: #20114b"/>
   </g>
   <g id="PathCollection_12">
    <path d="M 65.656865 201.019121 
L 66.864828 202.972001 
L 76.094192 202.972001 
L 70.112549 193.301649 
" clip-path="url(#pa9f583d20a)" style="fill: #060518"/>
   </g>
   <g id="PathCollection_13">
    <path d="M 66.864828 202.972001 
L 65.656865 201.019121 
L 64.529369 202.972001 
" clip-path="url(#pa9f583d20a)" style="fill: #000004"/>
   </g>
   <g id="line2d_1">
    <path d="M 64.529369 202.972001 
L 211.804497 202.972001 
L 138.166933 75.427999 
L 64.529369 202.972001 
" clip-path="url(#pa9f583d20a)" style="fill: none; stroke: #000000; stroke-width: 2; stroke-linecap: square"/>
   </g>
   <g id="PathCollection_14"/>
   <g id="PathCollection_15">
    <path d="M 210.401626 202.972001 
L 209.929748 202.362892 
L 205.892167 196.364466 
L 205.347181 195.561046 
L 203.56522 192.861685 
L 202.431488 191.13621 
L 197.771795 183.732588 
L 196.979895 182.452965 
L 195.629959 180.346392 
L 194.245671 178.243633 
L 193.970137 177.825354 
L 193.029415 176.431314 
L 186.844479 167.048737 
L 185.689273 165.415183 
L 180.748902 157.630129 
L 179.26316 155.348124 
L 178.969182 154.918425 
L 177.151103 152.121957 
L 176.07233 150.421626 
L 174.038408 147.212728 
L 172.627977 144.936542 
L 168.432212 138.556885 
L 167.401998 136.955568 
L 163.083381 130.276959 
L 160.30914 125.627135 
L 158.793354 122.690535 
L 156.289605 118.510062 
L 154.695035 115.874504 
L 149.183688 106.805828 
L 147.789799 104.441961 
L 144.885153 99.182859 
L 142.344051 94.503467 
L 140.973658 91.940365 
L 137.746634 86.513178 
L 137.73974 86.499497 
L 136.962859 84.972031 
L 134.99661 80.919159 
" clip-path="url(#pa9f583d20a)" style="fill: none; stroke: #000000; stroke-opacity: 0.3; stroke-width: 0.5"/>
   </g>
   <g id="PathCollection_16">
    <path d="M 193.284371 202.972001 
L 192.900091 202.426236 
L 190.809462 199.208951 
L 188.220349 195.224765 
L 184.865413 190.079198 
L 180.873685 183.881922 
L 179.901055 182.381439 
L 179.087787 181.065904 
L 178.570222 180.232316 
L 174.916667 174.665765 
L 171.964181 170.085754 
L 170.382182 167.601017 
L 167.019648 162.435593 
L 166.150363 161.095646 
L 165.540909 160.127833 
L 163.433365 156.82205 
L 163.183852 156.422881 
L 162.889136 155.968905 
L 161.303087 153.470899 
L 157.635554 147.672814 
L 150.817793 136.386827 
L 145.248856 127.389221 
L 145.184922 127.277085 
L 145.153716 127.218891 
L 145.086816 127.108129 
L 140.569406 118.99163 
L 138.314759 115.157038 
L 135.836089 110.245147 
L 132.896127 104.831261 
L 130.423663 100.206911 
L 128.131712 95.331466 
L 127.452858 93.985321 
" clip-path="url(#pa9f583d20a)" style="fill: none; stroke: #000000; stroke-opacity: 0.3; stroke-width: 0.5"/>
   </g>
   <g id="PathCollection_17">
    <path d="M 177.244808 202.972001 
L 174.375804 198.641116 
L 174.351519 198.603132 
L 174.319445 198.554284 
L 170.686726 192.793436 
L 170.495474 192.495225 
L 169.451529 190.80655 
L 165.971985 185.202412 
L 162.788543 180.352124 
L 160.383088 176.528233 
L 159.094718 174.52986 
L 158.207746 173.101569 
L 152.647303 164.174729 
L 150.029197 160.071516 
L 149.452708 159.137109 
L 148.290957 157.189512 
L 146.983728 154.977142 
L 138.883864 141.742878 
L 137.845759 140.024421 
L 137.349588 139.222767 
L 133.569068 132.600426 
L 132.542526 130.836813 
L 131.767089 129.448594 
L 129.194744 124.808302 
L 125.652289 118.476774 
L 123.936313 115.30491 
L 123.461631 114.387904 
L 122.547858 112.602885 
L 120.907915 109.098501 
L 120.031467 106.839546 
" clip-path="url(#pa9f583d20a)" style="fill: none; stroke: #000000; stroke-opacity: 0.3; stroke-width: 0.5"/>
   </g>
   <g id="PathCollection_18">
    <path d="M 161.706349 202.972001 
L 160.895204 201.797111 
L 160.063584 200.482674 
L 158.599387 198.045657 
L 158.57464 198.004763 
L 158.399764 197.733427 
L 158.097818 197.225495 
L 157.976238 197.02033 
L 157.577033 196.345274 
L 157.09907 195.530999 
L 157.074653 195.489208 
L 156.207915 193.988757 
L 152.522161 188.150792 
L 152.402369 187.948716 
L 152.279772 187.741467 
L 152.216355 187.633896 
L 152.018069 187.296738 
L 151.986515 187.242828 
L 151.7901 186.906476 
L 151.673982 186.714462 
L 150.455031 184.630523 
L 148.676494 181.672272 
L 148.063756 180.732108 
L 137.786475 164.250135 
L 137.467565 163.789841 
L 135.452367 160.436122 
L 134.224443 158.391864 
L 133.570888 157.293594 
L 132.379465 155.271987 
L 125.56723 143.604255 
L 121.542985 136.580211 
L 120.68047 135.063312 
L 120.101999 134.03092 
L 117.992422 130.192516 
L 115.705642 125.939399 
L 113.670448 122.024323 
L 113.265565 121.23057 
L 112.6455 119.632417 
" clip-path="url(#pa9f583d20a)" style="fill: none; stroke: #000000; stroke-opacity: 0.3; stroke-width: 0.5"/>
   </g>
   <g id="PathCollection_19">
    <path d="M 147.073694 202.972001 
L 146.808937 202.518618 
L 146.356486 201.77044 
L 141.606871 193.650416 
L 134.676838 182.123655 
L 132.289317 178.460326 
L 128.667947 172.652631 
L 126.813818 169.976504 
L 125.672339 168.057528 
L 122.89529 163.380643 
L 122.3499 162.393157 
L 118.247718 154.948613 
L 114.541681 148.899476 
L 111.287216 143.40776 
L 110.00049 141.072447 
L 105.402898 132.176971 
" clip-path="url(#pa9f583d20a)" style="fill: none; stroke: #000000; stroke-opacity: 0.3; stroke-width: 0.5"/>
   </g>
   <g id="PathCollection_20">
    <path d="M 133.329503 202.972001 
L 133.074257 202.555359 
L 132.727161 201.988564 
L 132.41545 201.479438 
L 131.921312 200.671122 
L 131.638871 200.208609 
L 131.596042 200.138449 
L 131.401583 199.837583 
L 131.290745 199.654553 
L 131.128215 199.385743 
L 131.089338 199.321488 
L 131.008426 199.18737 
L 130.950623 199.091565 
L 130.75413 198.764982 
L 130.501471 198.342165 
L 130.314936 198.026808 
L 130.287185 197.974727 
L 130.216966 197.854145 
L 130.161093 197.757156 
L 130.145923 197.73057 
L 130.080353 197.598633 
L 129.999157 197.448055 
L 129.993958 197.438002 
L 129.979655 197.40991 
L 123.453944 186.62808 
L 123.276634 186.312811 
L 121.973442 184.298618 
L 121.285775 183.192641 
L 116.21486 174.813122 
L 115.926249 174.342027 
L 115.709633 173.924938 
L 113.930392 170.985465 
L 112.696951 168.922341 
L 112.331194 168.260099 
L 112.02419 167.702957 
L 111.414525 166.707838 
L 105.605618 156.667756 
L 102.826799 151.743841 
L 99.813486 146.371277 
L 98.542497 144.059535 
" clip-path="url(#pa9f583d20a)" style="fill: none; stroke: #000000; stroke-opacity: 0.3; stroke-width: 0.5"/>
   </g>
   <g id="PathCollection_21">
    <path d="M 120.532967 202.972001 
L 120.466152 202.8532 
L 113.553457 192.169046 
L 109.905768 186.302461 
L 108.783865 184.448553 
L 105.670745 179.367071 
L 104.775529 177.643349 
L 104.667343 177.469063 
L 104.349648 176.767571 
L 102.827848 174.148681 
L 100.504033 169.789783 
L 98.331945 166.143611 
L 97.517265 164.775355 
L 95.917096 161.978404 
L 95.406893 161.107839 
L 94.567047 159.657886 
L 92.81021 156.88767 
L 92.53877 156.292999 
L 92.021219 155.35472 
" clip-path="url(#pa9f583d20a)" style="fill: none; stroke: #000000; stroke-opacity: 0.3; stroke-width: 0.5"/>
   </g>
   <g id="PathCollection_22">
    <path d="M 107.586521 202.972001 
L 107.448327 202.737067 
L 107.217477 202.343011 
L 103.608984 196.451336 
L 103.368708 196.053616 
L 103.109665 195.623137 
L 99.126099 188.650553 
L 94.880408 181.602426 
L 91.852944 175.796054 
L 86.655516 167.873082 
L 85.725443 166.259324 
" clip-path="url(#pa9f583d20a)" style="fill: none; stroke: #000000; stroke-opacity: 0.3; stroke-width: 0.5"/>
   </g>
   <g id="PathCollection_23">
    <path d="M 96.139165 202.972001 
L 95.83987 202.476559 
L 95.467911 201.855767 
L 95.368081 201.688881 
L 95.130096 201.289498 
L 94.547593 200.330535 
L 89.702725 192.258759 
L 86.274666 186.396875 
L 84.946523 184.120274 
L 82.181358 179.696599 
L 80.076238 176.044034 
" clip-path="url(#pa9f583d20a)" style="fill: none; stroke: #000000; stroke-opacity: 0.3; stroke-width: 0.5"/>
   </g>
   <g id="PathCollection_24">
    <path d="M 85.579609 202.972001 
L 85.411357 202.70177 
L 83.885304 200.092263 
L 76.790091 187.930196 
L 74.93094 184.955951 
" clip-path="url(#pa9f583d20a)" style="fill: none; stroke: #000000; stroke-opacity: 0.3; stroke-width: 0.5"/>
   </g>
   <g id="PathCollection_25">
    <path d="M 76.094192 202.972001 
L 70.112549 193.301649 
" clip-path="url(#pa9f583d20a)" style="fill: none; stroke: #000000; stroke-opacity: 0.3; stroke-width: 0.5"/>
   </g>
   <g id="PathCollection_26">
    <path d="M 66.864828 202.972001 
L 65.656865 201.019121 
" clip-path="url(#pa9f583d20a)" style="fill: none; stroke: #000000; stroke-opacity: 0.3; stroke-width: 0.5"/>
   </g>
   <g id="PathCollection_27"/>
   <g id="text_1">
    <!-- Heavy-end -->
    <g transform="translate(7.2 213.28126)scale(0.12 -0.12)">
     <defs>
      <path id="DejaVuSans-48" d="M 628 4666 
L 1259 4666 
L 1259 2753 
L 3553 2753 
L 3553 4666 
L 4184 4666 
L 4184 0 
L 3553 0 
L 3553 2222 
L 1259 2222 
L 1259 0 
L 628 0 
L 628 4666 
z
" transform="scale(0.015625)"/>
      <path id="DejaVuSans-65" d="M 3597 1894 
L 3597 1613 
L 953 1613 
Q 991 1019 1311 708 
Q 1631 397 2203 397 
Q 2534 397 2845 478 
Q 3156 559 3463 722 
L 3463 178 
Q 3153 47 2828 -22 
Q 2503 -91 2169 -91 
Q 1331 -91 842 396 
Q 353 884 353 1716 
Q 353 2575 817 3079 
Q 1281 3584 2069 3584 
Q 2775 3584 3186 3129 
Q 3597 2675 3597 1894 
z
M 3022 2063 
Q 3016 2534 2758 2815 
Q 2500 3097 2075 3097 
Q 1594 3097 1305 2825 
Q 1016 2553 972 2059 
L 3022 2063 
z
" transform="scale(0.015625)"/>
      <path id="DejaVuSans-61" d="M 2194 1759 
Q 1497 1759 1228 1600 
Q 959 1441 959 1056 
Q 959 750 1161 570 
Q 1363 391 1709 391 
Q 2188 391 2477 730 
Q 2766 1069 2766 1631 
L 2766 1759 
L 2194 1759 
z
M 3341 1997 
L 3341 0 
L 2766 0 
L 2766 531 
Q 2569 213 2275 61 
Q 1981 -91 1556 -91 
Q 1019 -91 701 211 
Q 384 513 384 1019 
Q 384 1609 779 1909 
Q 1175 2209 1959 2209 
L 2766 2209 
L 2766 2266 
Q 2766 2663 2505 2880 
Q 2244 3097 1772 3097 
Q 1472 3097 1187 3025 
Q 903 2953 641 2809 
L 641 3341 
Q 956 3463 1253 3523 
Q 1550 3584 1831 3584 
Q 2591 3584 2966 3190 
Q 3341 2797 3341 1997 
z
" transform="scale(0.015625)"/>
      <path id="DejaVuSans-76" d="M 191 3500 
L 800 3500 
L 1894 563 
L 2988 3500 
L 3597 3500 
L 2284 0 
L 1503 0 
L 191 3500 
z
" transform="scale(0.015625)"/>
      <path id="DejaVuSans-79" d="M 2059 -325 
Q 1816 -950 1584 -1140 
Q 1353 -1331 966 -1331 
L 506 -1331 
L 506 -850 
L 844 -850 
Q 1081 -850 1212 -737 
Q 1344 -625 1503 -206 
L 1606 56 
L 191 3500 
L 800 3500 
L 1894 763 
L 2988 3500 
L 3597 3500 
L 2059 -325 
z
" transform="scale(0.015625)"/>
      <path id="DejaVuSans-2d" d="M 313 2009 
L 1997 2009 
L 1997 1497 
L 313 1497 
L 313 2009 
z
" transform="scale(0.015625)"/>
      <path id="DejaVuSans-6e" d="M 3513 2113 
L 3513 0 
L 2938 0 
L 2938 2094 
Q 2938 2591 2744 2837 
Q 2550 3084 2163 3084 
Q 1697 3084 1428 2787 
Q 1159 2491 1159 1978 
L 1159 0 
L 581 0 
L 581 3500 
L 1159 3500 
L 1159 2956 
Q 1366 3272 1645 3428 
Q 1925 3584 2291 3584 
Q 2894 3584 3203 3211 
Q 3513 2838 3513 2113 
z
" transform="scale(0.015625)"/>
      <path id="DejaVuSans-64" d="M 2906 2969 
L 2906 4863 
L 3481 4863 
L 3481 0 
L 2906 0 
L 2906 525 
Q 2725 213 2448 61 
Q 2172 -91 1784 -91 
Q 1150 -91 751 415 
Q 353 922 353 1747 
Q 353 2572 751 3078 
Q 1150 3584 1784 3584 
Q 2172 3584 2448 3432 
Q 2725 3281 2906 2969 
z
M 947 1747 
Q 947 1113 1208 752 
Q 1469 391 1925 391 
Q 2381 391 2643 752 
Q 2906 1113 2906 1747 
Q 2906 2381 2643 2742 
Q 2381 3103 1925 3103 
Q 1469 3103 1208 2742 
Q 947 2381 947 1747 
z
" transform="scale(0.015625)"/>
     </defs>
     <use xlink:href="#DejaVuSans-48"/>
     <use xlink:href="#DejaVuSans-65" x="75.195312"/>
     <use xlink:href="#DejaVuSans-61" x="136.71875"/>
     <use xlink:href="#DejaVuSans-76" x="197.998047"/>
     <use xlink:href="#DejaVuSans-79" x="257.177734"/>
     <use xlink:href="#DejaVuSans-2d" x="314.607422"/>
     <use xlink:href="#DejaVuSans-65" x="350.691406"/>
     <use xlink:href="#DejaVuSans-6e" x="412.214844"/>
     <use xlink:href="#DejaVuSans-64" x="475.59375"/>
    </g>
   </g>
   <g id="text_2">
    <!-- Peak Shift -->
    <g transform="translate(204.44074 213.28126)scale(0.12 -0.12)">
     <defs>
      <path id="DejaVuSans-50" d="M 1259 4147 
L 1259 2394 
L 2053 2394 
Q 2494 2394 2734 2622 
Q 2975 2850 2975 3272 
Q 2975 3691 2734 3919 
Q 2494 4147 2053 4147 
L 1259 4147 
z
M 628 4666 
L 2053 4666 
Q 2838 4666 3239 4311 
Q 3641 3956 3641 3272 
Q 3641 2581 3239 2228 
Q 2838 1875 2053 1875 
L 1259 1875 
L 1259 0 
L 628 0 
L 628 4666 
z
" transform="scale(0.015625)"/>
      <path id="DejaVuSans-6b" d="M 581 4863 
L 1159 4863 
L 1159 1991 
L 2875 3500 
L 3609 3500 
L 1753 1863 
L 3688 0 
L 2938 0 
L 1159 1709 
L 1159 0 
L 581 0 
L 581 4863 
z
" transform="scale(0.015625)"/>
      <path id="DejaVuSans-20" transform="scale(0.015625)"/>
      <path id="DejaVuSans-53" d="M 3425 4513 
L 3425 3897 
Q 3066 4069 2747 4153 
Q 2428 4238 2131 4238 
Q 1616 4238 1336 4038 
Q 1056 3838 1056 3469 
Q 1056 3159 1242 3001 
Q 1428 2844 1947 2747 
L 2328 2669 
Q 3034 2534 3370 2195 
Q 3706 1856 3706 1288 
Q 3706 609 3251 259 
Q 2797 -91 1919 -91 
Q 1588 -91 1214 -16 
Q 841 59 441 206 
L 441 856 
Q 825 641 1194 531 
Q 1563 422 1919 422 
Q 2459 422 2753 634 
Q 3047 847 3047 1241 
Q 3047 1584 2836 1778 
Q 2625 1972 2144 2069 
L 1759 2144 
Q 1053 2284 737 2584 
Q 422 2884 422 3419 
Q 422 4038 858 4394 
Q 1294 4750 2059 4750 
Q 2388 4750 2728 4690 
Q 3069 4631 3425 4513 
z
" transform="scale(0.015625)"/>
      <path id="DejaVuSans-68" d="M 3513 2113 
L 3513 0 
L 2938 0 
L 2938 2094 
Q 2938 2591 2744 2837 
Q 2550 3084 2163 3084 
Q 1697 3084 1428 2787 
Q 1159 2491 1159 1978 
L 1159 0 
L 581 0 
L 581 4863 
L 1159 4863 
L 1159 2956 
Q 1366 3272 1645 3428 
Q 1925 3584 2291 3584 
Q 2894 3584 3203 3211 
Q 3513 2838 3513 2113 
z
" transform="scale(0.015625)"/>
      <path id="DejaVuSans-69" d="M 603 3500 
L 1178 3500 
L 1178 0 
L 603 0 
L 603 3500 
z
M 603 4863 
L 1178 4863 
L 1178 4134 
L 603 4134 
L 603 4863 
z
" transform="scale(0.015625)"/>
      <path id="DejaVuSans-66" d="M 2375 4863 
L 2375 4384 
L 1825 4384 
Q 1516 4384 1395 4259 
Q 1275 4134 1275 3809 
L 1275 3500 
L 2222 3500 
L 2222 3053 
L 1275 3053 
L 1275 0 
L 697 0 
L 697 3053 
L 147 3053 
L 147 3500 
L 697 3500 
L 697 3744 
Q 697 4328 969 4595 
Q 1241 4863 1831 4863 
L 2375 4863 
z
" transform="scale(0.015625)"/>
      <path id="DejaVuSans-74" d="M 1172 4494 
L 1172 3500 
L 2356 3500 
L 2356 3053 
L 1172 3053 
L 1172 1153 
Q 1172 725 1289 603 
Q 1406 481 1766 481 
L 2356 481 
L 2356 0 
L 1766 0 
Q 1100 0 847 248 
Q 594 497 594 1153 
L 594 3053 
L 172 3053 
L 172 3500 
L 594 3500 
L 594 4494 
L 1172 4494 
z
" transform="scale(0.015625)"/>
     </defs>
     <use xlink:href="#DejaVuSans-50"/>
     <use xlink:href="#DejaVuSans-65" x="56.677734"/>
     <use xlink:href="#DejaVuSans-61" x="118.201172"/>
     <use xlink:href="#DejaVuSans-6b" x="179.480469"/>
     <use xlink:href="#DejaVuSans-20" x="237.390625"/>
     <use xlink:href="#DejaVuSans-53" x="269.177734"/>
     <use xlink:href="#DejaVuSans-68" x="332.654297"/>
     <use xlink:href="#DejaVuSans-69" x="396.033203"/>
     <use xlink:href="#DejaVuSans-66" x="423.816406"/>
     <use xlink:href="#DejaVuSans-74" x="457.271484"/>
    </g>
   </g>
   <g id="text_3">
    <!-- Base -->
    <g transform="translate(123.555995 68.064243)scale(0.12 -0.12)">
     <defs>
      <path id="DejaVuSans-42" d="M 1259 2228 
L 1259 519 
L 2272 519 
Q 2781 519 3026 730 
Q 3272 941 3272 1375 
Q 3272 1813 3026 2020 
Q 2781 2228 2272 2228 
L 1259 2228 
z
M 1259 4147 
L 1259 2741 
L 2194 2741 
Q 2656 2741 2882 2914 
Q 3109 3088 3109 3444 
Q 3109 3797 2882 3972 
Q 2656 4147 2194 4147 
L 1259 4147 
z
M 628 4666 
L 2241 4666 
Q 2963 4666 3353 4366 
Q 3744 4066 3744 3513 
Q 3744 3084 3544 2831 
Q 3344 2578 2956 2516 
Q 3422 2416 3680 2098 
Q 3938 1781 3938 1306 
Q 3938 681 3513 340 
Q 3088 0 2303 0 
L 628 0 
L 628 4666 
z
" transform="scale(0.015625)"/>
      <path id="DejaVuSans-73" d="M 2834 3397 
L 2834 2853 
Q 2591 2978 2328 3040 
Q 2066 3103 1784 3103 
Q 1356 3103 1142 2972 
Q 928 2841 928 2578 
Q 928 2378 1081 2264 
Q 1234 2150 1697 2047 
L 1894 2003 
Q 2506 1872 2764 1633 
Q 3022 1394 3022 966 
Q 3022 478 2636 193 
Q 2250 -91 1575 -91 
Q 1294 -91 989 -36 
Q 684 19 347 128 
L 347 722 
Q 666 556 975 473 
Q 1284 391 1588 391 
Q 1994 391 2212 530 
Q 2431 669 2431 922 
Q 2431 1156 2273 1281 
Q 2116 1406 1581 1522 
L 1381 1569 
Q 847 1681 609 1914 
Q 372 2147 372 2553 
Q 372 3047 722 3315 
Q 1072 3584 1716 3584 
Q 2034 3584 2315 3537 
Q 2597 3491 2834 3397 
z
" transform="scale(0.015625)"/>
     </defs>
     <use xlink:href="#DejaVuSans-42"/>
     <use xlink:href="#DejaVuSans-61" x="68.603516"/>
     <use xlink:href="#DejaVuSans-73" x="129.882812"/>
     <use xlink:href="#DejaVuSans-65" x="181.982422"/>
    </g>
   </g>
  </g>
  <g id="axes_2">
   <g id="patch_2">
    <path d="M 227.105809 193.2 
L 235.025809 193.2 
L 235.025809 85.2 
L 227.105809 85.2 
z
" style="fill: #ffffff"/>
   </g>
   <g id="patch_3">
    <path clip-path="url(#p6c09a23b14)" style="fill: #ffffff; stroke: #ffffff; stroke-width: 0.01; stroke-linejoin: miter"/>
   </g>
   <g id="patch_4">
    <path d="M 227.105809 193.2 
L 231.065809 198.6 
L 235.025809 193.2 
" style="fill: #fcfdbf"/>
   </g>
   <g id="patch_5">
    <path d="M 227.105809 85.2 
L 231.065809 79.8 
L 235.025809 85.2 
" style="fill: #000004"/>
   </g>
   <g id="QuadMesh_1">
    <path d="M 227.105809 193.2 
L 235.025809 193.2 
L 235.025809 183.381818 
L 227.105809 183.381818 
L 227.105809 193.2 
" clip-path="url(#p6c09a23b14)" style="fill: #fde9aa"/>
    <path d="M 227.105809 183.381818 
L 235.025809 183.381818 
L 235.025809 173.563636 
L 227.105809 173.563636 
L 227.105809 183.381818 
" clip-path="url(#p6c09a23b14)" style="fill: #febf84"/>
    <path d="M 227.105809 173.563636 
L 235.025809 173.563636 
L 235.025809 163.745455 
L 227.105809 163.745455 
L 227.105809 173.563636 
" clip-path="url(#p6c09a23b14)" style="fill: #fd9266"/>
    <path d="M 227.105809 163.745455 
L 235.025809 163.745455 
L 235.025809 153.927273 
L 227.105809 153.927273 
L 227.105809 163.745455 
" clip-path="url(#p6c09a23b14)" style="fill: #f4675c"/>
    <path d="M 227.105809 153.927273 
L 235.025809 153.927273 
L 235.025809 144.109091 
L 227.105809 144.109091 
L 227.105809 153.927273 
" clip-path="url(#p6c09a23b14)" style="fill: #db476a"/>
    <path d="M 227.105809 144.109091 
L 235.025809 144.109091 
L 235.025809 134.290909 
L 227.105809 134.290909 
L 227.105809 144.109091 
" clip-path="url(#p6c09a23b14)" style="fill: #b5367a"/>
    <path d="M 227.105809 134.290909 
L 235.025809 134.290909 
L 235.025809 124.472727 
L 227.105809 124.472727 
L 227.105809 134.290909 
" clip-path="url(#p6c09a23b14)" style="fill: #902a81"/>
    <path d="M 227.105809 124.472727 
L 235.025809 124.472727 
L 235.025809 114.654545 
L 227.105809 114.654545 
L 227.105809 124.472727 
" clip-path="url(#p6c09a23b14)" style="fill: #6b1d81"/>
    <path d="M 227.105809 114.654545 
L 235.025809 114.654545 
L 235.025809 104.836364 
L 227.105809 104.836364 
L 227.105809 114.654545 
" clip-path="url(#p6c09a23b14)" style="fill: #471078"/>
    <path d="M 227.105809 104.836364 
L 235.025809 104.836364 
L 235.025809 95.018182 
L 227.105809 95.018182 
L 227.105809 104.836364 
" clip-path="url(#p6c09a23b14)" style="fill: #20114b"/>
    <path d="M 227.105809 95.018182 
L 235.025809 95.018182 
L 235.025809 85.2 
L 227.105809 85.2 
L 227.105809 95.018182 
" clip-path="url(#p6c09a23b14)" style="fill: #060518"/>
   </g>
   <g id="matplotlib.axis_1">
    <g id="ytick_1">
     <g id="line2d_2">
      <defs>
       <path id="mc6f9948868" d="M 0 0 
L 3.5 0 
" style="stroke: #000000; stroke-width: 0.8"/>
      </defs>
      <g>
       <use xlink:href="#mc6f9948868" x="235.025809" y="193.2" style="stroke: #000000; stroke-width: 0.8"/>
      </g>
     </g>
     <g id="text_4">
      <!-- 1.20 -->
      <g transform="translate(238.525809 196.999219)scale(0.1 -0.1)">
       <defs>
        <path id="DejaVuSans-31" d="M 794 531 
L 1825 531 
L 1825 4091 
L 703 3866 
L 703 4441 
L 1819 4666 
L 2450 4666 
L 2450 531 
L 3481 531 
L 3481 0 
L 794 0 
L 794 531 
z
" transform="scale(0.015625)"/>
        <path id="DejaVuSans-2e" d="M 684 794 
L 1344 794 
L 1344 0 
L 684 0 
L 684 794 
z
" transform="scale(0.015625)"/>
        <path id="DejaVuSans-32" d="M 1228 531 
L 3431 531 
L 3431 0 
L 469 0 
L 469 531 
Q 828 903 1448 1529 
Q 2069 2156 2228 2338 
Q 2531 2678 2651 2914 
Q 2772 3150 2772 3378 
Q 2772 3750 2511 3984 
Q 2250 4219 1831 4219 
Q 1534 4219 1204 4116 
Q 875 4013 500 3803 
L 500 4441 
Q 881 4594 1212 4672 
Q 1544 4750 1819 4750 
Q 2544 4750 2975 4387 
Q 3406 4025 3406 3419 
Q 3406 3131 3298 2873 
Q 3191 2616 2906 2266 
Q 2828 2175 2409 1742 
Q 1991 1309 1228 531 
z
" transform="scale(0.015625)"/>
        <path id="DejaVuSans-30" d="M 2034 4250 
Q 1547 4250 1301 3770 
Q 1056 3291 1056 2328 
Q 1056 1369 1301 889 
Q 1547 409 2034 409 
Q 2525 409 2770 889 
Q 3016 1369 3016 2328 
Q 3016 3291 2770 3770 
Q 2525 4250 2034 4250 
z
M 2034 4750 
Q 2819 4750 3233 4129 
Q 3647 3509 3647 2328 
Q 3647 1150 3233 529 
Q 2819 -91 2034 -91 
Q 1250 -91 836 529 
Q 422 1150 422 2328 
Q 422 3509 836 4129 
Q 1250 4750 2034 4750 
z
" transform="scale(0.015625)"/>
       </defs>
       <use xlink:href="#DejaVuSans-31"/>
       <use xlink:href="#DejaVuSans-2e" x="63.623047"/>
       <use xlink:href="#DejaVuSans-32" x="95.410156"/>
       <use xlink:href="#DejaVuSans-30" x="159.033203"/>
      </g>
     </g>
    </g>
    <g id="ytick_2">
     <g id="line2d_3">
      <g>
       <use xlink:href="#mc6f9948868" x="235.025809" y="173.563636" style="stroke: #000000; stroke-width: 0.8"/>
      </g>
     </g>
     <g id="text_5">
      <!-- 1.36 -->
      <g transform="translate(238.525809 177.362855)scale(0.1 -0.1)">
       <defs>
        <path id="DejaVuSans-33" d="M 2597 2516 
Q 3050 2419 3304 2112 
Q 3559 1806 3559 1356 
Q 3559 666 3084 287 
Q 2609 -91 1734 -91 
Q 1441 -91 1130 -33 
Q 819 25 488 141 
L 488 750 
Q 750 597 1062 519 
Q 1375 441 1716 441 
Q 2309 441 2620 675 
Q 2931 909 2931 1356 
Q 2931 1769 2642 2001 
Q 2353 2234 1838 2234 
L 1294 2234 
L 1294 2753 
L 1863 2753 
Q 2328 2753 2575 2939 
Q 2822 3125 2822 3475 
Q 2822 3834 2567 4026 
Q 2313 4219 1838 4219 
Q 1578 4219 1281 4162 
Q 984 4106 628 3988 
L 628 4550 
Q 988 4650 1302 4700 
Q 1616 4750 1894 4750 
Q 2613 4750 3031 4423 
Q 3450 4097 3450 3541 
Q 3450 3153 3228 2886 
Q 3006 2619 2597 2516 
z
" transform="scale(0.015625)"/>
        <path id="DejaVuSans-36" d="M 2113 2584 
Q 1688 2584 1439 2293 
Q 1191 2003 1191 1497 
Q 1191 994 1439 701 
Q 1688 409 2113 409 
Q 2538 409 2786 701 
Q 3034 994 3034 1497 
Q 3034 2003 2786 2293 
Q 2538 2584 2113 2584 
z
M 3366 4563 
L 3366 3988 
Q 3128 4100 2886 4159 
Q 2644 4219 2406 4219 
Q 1781 4219 1451 3797 
Q 1122 3375 1075 2522 
Q 1259 2794 1537 2939 
Q 1816 3084 2150 3084 
Q 2853 3084 3261 2657 
Q 3669 2231 3669 1497 
Q 3669 778 3244 343 
Q 2819 -91 2113 -91 
Q 1303 -91 875 529 
Q 447 1150 447 2328 
Q 447 3434 972 4092 
Q 1497 4750 2381 4750 
Q 2619 4750 2861 4703 
Q 3103 4656 3366 4563 
z
" transform="scale(0.015625)"/>
       </defs>
       <use xlink:href="#DejaVuSans-31"/>
       <use xlink:href="#DejaVuSans-2e" x="63.623047"/>
       <use xlink:href="#DejaVuSans-33" x="95.410156"/>
       <use xlink:href="#DejaVuSans-36" x="159.033203"/>
      </g>
     </g>
    </g>
    <g id="ytick_3">
     <g id="line2d_4">
      <g>
       <use xlink:href="#mc6f9948868" x="235.025809" y="153.927273" style="stroke: #000000; stroke-width: 0.8"/>
      </g>
     </g>
     <g id="text_6">
      <!-- 1.52 -->
      <g transform="translate(238.525809 157.726491)scale(0.1 -0.1)">
       <defs>
        <path id="DejaVuSans-35" d="M 691 4666 
L 3169 4666 
L 3169 4134 
L 1269 4134 
L 1269 2991 
Q 1406 3038 1543 3061 
Q 1681 3084 1819 3084 
Q 2600 3084 3056 2656 
Q 3513 2228 3513 1497 
Q 3513 744 3044 326 
Q 2575 -91 1722 -91 
Q 1428 -91 1123 -41 
Q 819 9 494 109 
L 494 744 
Q 775 591 1075 516 
Q 1375 441 1709 441 
Q 2250 441 2565 725 
Q 2881 1009 2881 1497 
Q 2881 1984 2565 2268 
Q 2250 2553 1709 2553 
Q 1456 2553 1204 2497 
Q 953 2441 691 2322 
L 691 4666 
z
" transform="scale(0.015625)"/>
       </defs>
       <use xlink:href="#DejaVuSans-31"/>
       <use xlink:href="#DejaVuSans-2e" x="63.623047"/>
       <use xlink:href="#DejaVuSans-35" x="95.410156"/>
       <use xlink:href="#DejaVuSans-32" x="159.033203"/>
      </g>
     </g>
    </g>
    <g id="ytick_4">
     <g id="line2d_5">
      <g>
       <use xlink:href="#mc6f9948868" x="235.025809" y="134.290909" style="stroke: #000000; stroke-width: 0.8"/>
      </g>
     </g>
     <g id="text_7">
      <!-- 1.68 -->
      <g transform="translate(238.525809 138.090128)scale(0.1 -0.1)">
       <defs>
        <path id="DejaVuSans-38" d="M 2034 2216 
Q 1584 2216 1326 1975 
Q 1069 1734 1069 1313 
Q 1069 891 1326 650 
Q 1584 409 2034 409 
Q 2484 409 2743 651 
Q 3003 894 3003 1313 
Q 3003 1734 2745 1975 
Q 2488 2216 2034 2216 
z
M 1403 2484 
Q 997 2584 770 2862 
Q 544 3141 544 3541 
Q 544 4100 942 4425 
Q 1341 4750 2034 4750 
Q 2731 4750 3128 4425 
Q 3525 4100 3525 3541 
Q 3525 3141 3298 2862 
Q 3072 2584 2669 2484 
Q 3125 2378 3379 2068 
Q 3634 1759 3634 1313 
Q 3634 634 3220 271 
Q 2806 -91 2034 -91 
Q 1263 -91 848 271 
Q 434 634 434 1313 
Q 434 1759 690 2068 
Q 947 2378 1403 2484 
z
M 1172 3481 
Q 1172 3119 1398 2916 
Q 1625 2713 2034 2713 
Q 2441 2713 2670 2916 
Q 2900 3119 2900 3481 
Q 2900 3844 2670 4047 
Q 2441 4250 2034 4250 
Q 1625 4250 1398 4047 
Q 1172 3844 1172 3481 
z
" transform="scale(0.015625)"/>
       </defs>
       <use xlink:href="#DejaVuSans-31"/>
       <use xlink:href="#DejaVuSans-2e" x="63.623047"/>
       <use xlink:href="#DejaVuSans-36" x="95.410156"/>
       <use xlink:href="#DejaVuSans-38" x="159.033203"/>
      </g>
     </g>
    </g>
    <g id="ytick_5">
     <g id="line2d_6">
      <g>
       <use xlink:href="#mc6f9948868" x="235.025809" y="114.654545" style="stroke: #000000; stroke-width: 0.8"/>
      </g>
     </g>
     <g id="text_8">
      <!-- 1.84 -->
      <g transform="translate(238.525809 118.453764)scale(0.1 -0.1)">
       <defs>
        <path id="DejaVuSans-34" d="M 2419 4116 
L 825 1625 
L 2419 1625 
L 2419 4116 
z
M 2253 4666 
L 3047 4666 
L 3047 1625 
L 3713 1625 
L 3713 1100 
L 3047 1100 
L 3047 0 
L 2419 0 
L 2419 1100 
L 313 1100 
L 313 1709 
L 2253 4666 
z
" transform="scale(0.015625)"/>
       </defs>
       <use xlink:href="#DejaVuSans-31"/>
       <use xlink:href="#DejaVuSans-2e" x="63.623047"/>
       <use xlink:href="#DejaVuSans-38" x="95.410156"/>
       <use xlink:href="#DejaVuSans-34" x="159.033203"/>
      </g>
     </g>
    </g>
    <g id="ytick_6">
     <g id="line2d_7">
      <g>
       <use xlink:href="#mc6f9948868" x="235.025809" y="95.018182" style="stroke: #000000; stroke-width: 0.8"/>
      </g>
     </g>
     <g id="text_9">
      <!-- 2.00 -->
      <g transform="translate(238.525809 98.817401)scale(0.1 -0.1)">
       <use xlink:href="#DejaVuSans-32"/>
       <use xlink:href="#DejaVuSans-2e" x="63.623047"/>
       <use xlink:href="#DejaVuSans-30" x="95.410156"/>
       <use xlink:href="#DejaVuSans-30" x="159.033203"/>
      </g>
     </g>
    </g>
    <g id="text_10">
     <!-- MSP [\$ $\cdot$ kg$^{-1}$] -->
     <g transform="translate(272.691434 178.14)rotate(-90)scale(0.11 -0.11)">
      <defs>
       <path id="DejaVuSans-4d" d="M 628 4666 
L 1569 4666 
L 2759 1491 
L 3956 4666 
L 4897 4666 
L 4897 0 
L 4281 0 
L 4281 4097 
L 3078 897 
L 2444 897 
L 1241 4097 
L 1241 0 
L 628 0 
L 628 4666 
z
" transform="scale(0.015625)"/>
       <path id="DejaVuSans-5b" d="M 550 4863 
L 1875 4863 
L 1875 4416 
L 1125 4416 
L 1125 -397 
L 1875 -397 
L 1875 -844 
L 550 -844 
L 550 4863 
z
" transform="scale(0.015625)"/>
       <path id="DejaVuSans-24" d="M 2163 -941 
L 1850 -941 
L 1847 0 
Q 1519 6 1191 76 
Q 863 147 531 288 
L 531 850 
Q 850 650 1176 548 
Q 1503 447 1850 444 
L 1850 1869 
Q 1159 1981 845 2250 
Q 531 2519 531 2988 
Q 531 3497 872 3790 
Q 1213 4084 1850 4128 
L 1850 4863 
L 2163 4863 
L 2163 4138 
Q 2453 4125 2725 4076 
Q 2997 4028 3256 3944 
L 3256 3397 
Q 2997 3528 2723 3600 
Q 2450 3672 2163 3684 
L 2163 2350 
Q 2872 2241 3206 1959 
Q 3541 1678 3541 1191 
Q 3541 663 3186 358 
Q 2831 53 2163 6 
L 2163 -941 
z
M 1850 2406 
L 1850 3688 
Q 1488 3647 1297 3481 
Q 1106 3316 1106 3041 
Q 1106 2772 1282 2622 
Q 1459 2472 1850 2406 
z
M 2163 1806 
L 2163 453 
Q 2559 506 2761 678 
Q 2963 850 2963 1131 
Q 2963 1406 2770 1568 
Q 2578 1731 2163 1806 
z
" transform="scale(0.015625)"/>
       <path id="DejaVuSans-22c5" d="M 684 2619 
L 1344 2619 
L 1344 1825 
L 684 1825 
L 684 2619 
z
" transform="scale(0.015625)"/>
       <path id="DejaVuSans-67" d="M 2906 1791 
Q 2906 2416 2648 2759 
Q 2391 3103 1925 3103 
Q 1463 3103 1205 2759 
Q 947 2416 947 1791 
Q 947 1169 1205 825 
Q 1463 481 1925 481 
Q 2391 481 2648 825 
Q 2906 1169 2906 1791 
z
M 3481 434 
Q 3481 -459 3084 -895 
Q 2688 -1331 1869 -1331 
Q 1566 -1331 1297 -1286 
Q 1028 -1241 775 -1147 
L 775 -588 
Q 1028 -725 1275 -790 
Q 1522 -856 1778 -856 
Q 2344 -856 2625 -561 
Q 2906 -266 2906 331 
L 2906 616 
Q 2728 306 2450 153 
Q 2172 0 1784 0 
Q 1141 0 747 490 
Q 353 981 353 1791 
Q 353 2603 747 3093 
Q 1141 3584 1784 3584 
Q 2172 3584 2450 3431 
Q 2728 3278 2906 2969 
L 2906 3500 
L 3481 3500 
L 3481 434 
z
" transform="scale(0.015625)"/>
       <path id="DejaVuSans-2212" d="M 678 2272 
L 4684 2272 
L 4684 1741 
L 678 1741 
L 678 2272 
z
" transform="scale(0.015625)"/>
       <path id="DejaVuSans-5d" d="M 1947 4863 
L 1947 -844 
L 622 -844 
L 622 -397 
L 1369 -397 
L 1369 4416 
L 622 4416 
L 622 4863 
L 1947 4863 
z
" transform="scale(0.015625)"/>
      </defs>
      <use xlink:href="#DejaVuSans-4d" transform="translate(0 0.684375)"/>
      <use xlink:href="#DejaVuSans-53" transform="translate(86.279297 0.684375)"/>
      <use xlink:href="#DejaVuSans-50" transform="translate(149.755859 0.684375)"/>
      <use xlink:href="#DejaVuSans-20" transform="translate(210.058594 0.684375)"/>
      <use xlink:href="#DejaVuSans-5b" transform="translate(241.845703 0.684375)"/>
      <use xlink:href="#DejaVuSans-24" transform="translate(280.859375 0.684375)"/>
      <use xlink:href="#DejaVuSans-20" transform="translate(344.482422 0.684375)"/>
      <use xlink:href="#DejaVuSans-22c5" transform="translate(376.269531 0.684375)"/>
      <use xlink:href="#DejaVuSans-20" transform="translate(408.056641 0.684375)"/>
      <use xlink:href="#DejaVuSans-6b" transform="translate(439.84375 0.684375)"/>
      <use xlink:href="#DejaVuSans-67" transform="translate(497.753906 0.684375)"/>
      <use xlink:href="#DejaVuSans-2212" transform="translate(562.1875 38.965625)scale(0.7)"/>
      <use xlink:href="#DejaVuSans-31" transform="translate(620.839844 38.965625)scale(0.7)"/>
      <use xlink:href="#DejaVuSans-5d" transform="translate(668.110352 0.684375)"/>
     </g>
    </g>
   </g>
   <g id="LineCollection_1"/>
   <g id="patch_6">
    <path d="M 227.105809 193.2 
L 231.065809 198.6 
L 235.025809 193.2 
L 235.025809 85.2 
L 231.065809 79.8 
L 227.105809 85.2 
L 227.105809 193.2 
z
" style="fill: none; stroke: #000000; stroke-width: 0.8; stroke-linejoin: miter; stroke-linecap: square"/>
   </g>
  </g>
 </g>
 <defs>
  <clipPath id="pa9f583d20a">
   <rect x="64.529369" y="7.2" width="147.275128" height="264"/>
  </clipPath>
  <clipPath id="p6c09a23b14">
   <rect x="227.105809" y="85.2" width="7.92" height="108"/>
  </clipPath>
 </defs>
</svg>
