<?xml version="1.0" encoding="utf-8" standalone="no"?>
<!DOCTYPE svg PUBLIC "-//W3C//DTD SVG 1.1//EN"
  "http://www.w3.org/Graphics/SVG/1.1/DTD/svg11.dtd">
<svg xmlns:xlink="http://www.w3.org/1999/xlink" width="281.443236pt" height="196.114697pt" viewBox="0 0 281.443236 196.114697" xmlns="http://www.w3.org/2000/svg" version="1.1">
 <metadata>
  <rdf:RDF xmlns:dc="http://purl.org/dc/elements/1.1/" xmlns:cc="http://creativecommons.org/ns#" xmlns:rdf="http://www.w3.org/1999/02/22-rdf-syntax-ns#">
   <cc:Work>
    <dc:type rdf:resource="http://purl.org/dc/dcmitype/StillImage"/>
    <dc:date>2026-02-11T14:14:27.526414</dc:date>
    <dc:format>image/svg+xml</dc:format>
    <dc:creator>
     <cc:Agent>
      <dc:title>Matplotlib v3.5.3, https://matplotlib.org/</dc:title>
     </cc:Agent>
    </dc:creator>
   </cc:Work>
  </rdf:RDF>
 </metadata>
 <defs>
  <style type="text/css">*{stroke-linejoin: round; stroke-linecap: butt}</style>
 </defs>
 <g id="figure_1">
  <g id="patch_1">
   <path d="M 0 196.114697 
L 281.443236 196.114697 
L 281.443236 0 
L 0 0 
L 0 196.114697 
z
" style="fill: none"/>
  </g>
  <g id="axes_1">
   <g id="PathCollection_1">
    <path d="M 80.194458 122.362804 
L 80.461236 122.439516 
L 82.616495 122.27347 
L 87.183497 121.023823 
L 88.483119 120.282393 
L 92.298691 117.801656 
L 93.272987 116.471349 
L 94.786786 111.701644 
L 93.987477 99.177633 
L 93.946504 98.543562 
L 86.475258 111.484139 
" clip-path="url(#p8e7dc965d0)" style="fill: #440154"/>
   </g>
   <g id="PathCollection_2">
    <path d="M 93.946504 98.543562 
L 93.987477 99.177633 
L 94.786786 111.701644 
L 93.272987 116.471349 
L 92.298691 117.801656 
L 88.483119 120.282393 
L 87.183497 121.023823 
L 82.616495 122.27347 
L 80.461236 122.439516 
L 80.194458 122.362804 
L 78.723297 124.91093 
L 70.971336 138.33772 
L 70.806329 138.62352 
L 71.481266 138.727149 
L 78.871133 138.323028 
L 83.220633 138.079756 
L 93.452505 138.305354 
L 95.180698 137.991726 
L 97.370511 137.626534 
L 98.1132 137.510908 
L 98.268411 137.461844 
L 104.392 134.990476 
L 108.731935 132.694631 
L 110.813013 130.988912 
L 111.256094 130.564241 
L 111.728838 129.929782 
L 112.409848 128.396799 
L 114.108113 123.777943 
L 116.598025 113.441846 
L 116.415825 110.326973 
L 115.666872 107.886811 
L 114.584705 105.486394 
L 110.695207 96.817768 
L 109.952414 95.236782 
L 102.098355 85.244438 
L 101.823843 84.899611 
L 94.22722 98.057349 
" clip-path="url(#p8e7dc965d0)" style="fill: #471063"/>
   </g>
   <g id="PathCollection_3">
    <path d="M 101.823843 84.899611 
L 102.098355 85.244438 
L 109.952414 95.236782 
L 110.695207 96.817768 
L 114.584705 105.486394 
L 115.666872 107.886811 
L 116.415825 110.326973 
L 116.598025 113.441846 
L 114.108113 123.777943 
L 112.409848 128.396799 
L 111.728838 129.929782 
L 111.256094 130.564241 
L 110.813013 130.988912 
L 108.731935 132.694631 
L 104.392 134.990476 
L 98.268411 137.461844 
L 98.1132 137.510908 
L 97.370511 137.626534 
L 95.180698 137.991726 
L 93.452505 138.305354 
L 83.220633 138.079756 
L 78.871133 138.323028 
L 71.481266 138.727149 
L 70.806329 138.62352 
L 65.122973 148.467382 
L 69.002718 149.063073 
L 78.001375 149.792698 
L 80.79841 150.249459 
L 82.396778 150.506601 
L 91.891368 150.103733 
L 95.430263 150.533094 
L 99.021858 150.748747 
L 100.739107 150.688675 
L 115.47387 145.969048 
L 117.718263 145.261348 
L 117.812302 145.241517 
L 118.725589 145.03193 
L 118.998657 144.852103 
L 120.19511 143.537846 
L 124.208184 139.014212 
L 130.195952 126.630924 
L 131.722413 124.155401 
L 132.096421 121.987416 
L 131.777298 117.185265 
L 129.219228 111.134165 
L 125.574356 99.124204 
L 123.659774 96.019933 
L 122.829972 94.767354 
L 120.744837 91.616674 
L 119.233228 89.580263 
L 116.904034 86.747554 
L 114.892871 84.476719 
L 112.518682 82.224541 
L 108.32868 78.969034 
L 107.428334 78.389971 
L 105.485046 78.558221 
L 101.979181 84.630558 
" clip-path="url(#p8e7dc965d0)" style="fill: #472d7b"/>
   </g>
   <g id="PathCollection_4">
    <path d="M 60.23776 156.928819 
L 69.337075 158.555562 
L 76.373035 159.126048 
L 84.030899 160.376592 
L 88.406993 161.080608 
L 88.593277 161.072704 
L 88.982714 161.119953 
L 92.617357 161.227123 
L 95.602497 161.336965 
L 95.683173 161.340493 
L 95.804628 161.345561 
L 96.767508 161.375543 
L 97.03497 161.38062 
L 97.889746 161.387103 
L 97.910592 161.387072 
L 101.811447 161.188308 
L 102.028026 161.187456 
L 102.280519 161.185301 
L 102.815715 161.17658 
L 103.095255 161.169753 
L 105.269278 161.060303 
L 106.271465 160.972588 
L 107.037502 160.886789 
L 108.120324 160.732243 
L 108.290101 160.703859 
L 115.479522 158.436899 
L 116.323255 158.25897 
L 124.517403 156.37852 
L 126.967411 154.765091 
L 137.702171 142.973377 
L 139.28787 141.185938 
L 142.580302 134.376868 
L 143.343641 129.623129 
L 143.466854 129.047041 
L 144.042684 123.235503 
L 143.88761 120.649836 
L 143.706039 119.101282 
L 142.962201 117.321522 
L 142.140732 114.692403 
L 138.179935 103.403233 
L 135.327711 98.174049 
L 133.723341 95.616386 
L 130.066092 90.225248 
L 128.02581 87.77779 
L 127.168661 86.743037 
L 123.879666 82.80296 
L 119.182614 78.152095 
L 115.030807 73.757547 
L 113.18257 72.144375 
L 112.990004 72.020525 
L 109.063302 72.3605 
L 105.485046 78.558221 
L 107.428334 78.389971 
L 108.32868 78.969034 
L 112.518682 82.224541 
L 114.892871 84.476719 
L 116.904034 86.747554 
L 119.233228 89.580263 
L 120.744837 91.616674 
L 122.829972 94.767354 
L 123.659774 96.019933 
L 125.574356 99.124204 
L 129.219228 111.134165 
L 131.777298 117.185265 
L 132.096421 121.987416 
L 131.722413 124.155401 
L 130.195952 126.630924 
L 124.208184 139.014212 
L 120.19511 143.537846 
L 118.998657 144.852103 
L 118.725589 145.03193 
L 117.812302 145.241517 
L 117.718263 145.261348 
L 115.47387 145.969048 
L 100.739107 150.688675 
L 99.021858 150.748747 
L 95.430263 150.533094 
L 91.891368 150.103733 
L 82.396778 150.506601 
L 80.79841 150.249459 
L 78.001375 149.792698 
L 69.002718 149.063073 
L 65.122973 148.467382 
L 63.219375 151.764511 
" clip-path="url(#p8e7dc965d0)" style="fill: #404688"/>
   </g>
   <g id="PathCollection_5">
    <path d="M 55.754515 164.694028 
L 58.536054 165.191301 
L 75.314863 165.191301 
L 86.035049 165.191301 
L 86.977239 165.191301 
L 87.616302 165.191301 
L 87.825482 165.191301 
L 88.876916 165.191301 
L 94.856621 165.191301 
L 95.044565 165.191301 
L 95.326593 165.191301 
L 97.53323 165.191301 
L 98.140447 165.191301 
L 100.079958 165.191301 
L 100.127403 165.191301 
L 100.558195 165.191301 
L 101.059947 165.191301 
L 102.123834 165.191301 
L 102.680884 165.191301 
L 107.130106 165.191301 
L 109.322309 165.191301 
L 111.105017 165.191301 
L 113.864739 165.191301 
L 114.331839 165.191301 
L 115.530276 165.191301 
L 115.998675 165.191301 
L 116.159142 165.191301 
L 118.187072 165.191301 
L 119.474136 165.191301 
L 119.708613 165.191301 
L 120.480571 165.191301 
L 121.288808 165.191301 
L 121.582436 165.191301 
L 123.051015 165.191301 
L 124.347329 165.191301 
L 125.047437 165.191301 
L 125.219322 165.191301 
L 125.43937 165.191301 
L 125.53748 165.191301 
L 125.902477 165.191301 
L 126.116355 165.191301 
L 126.442775 165.191301 
L 126.506308 165.191301 
L 126.870088 165.191301 
L 127.33998 165.191301 
L 127.563774 165.191301 
L 127.767767 165.191301 
L 128.001341 165.191301 
L 128.267029 165.191301 
L 130.667929 165.191301 
L 130.949946 165.191301 
L 131.09918 165.191301 
L 132.196069 165.191301 
L 132.232663 165.174707 
L 132.918688 164.852226 
L 133.040784 164.793763 
L 133.129396 164.751104 
L 133.316494 164.660382 
L 133.765143 164.438882 
L 134.242202 164.196189 
L 134.263816 164.184997 
L 134.683861 163.963401 
L 134.989756 163.796528 
L 135.14857 163.707723 
L 135.239403 163.656185 
L 135.543945 163.478864 
L 135.550296 163.475084 
L 135.895942 163.26334 
L 136.013211 163.188399 
L 136.023198 163.181932 
L 136.123844 163.115964 
L 136.453391 162.887788 
L 145.468401 152.996943 
L 145.991013 152.47046 
L 146.710557 151.732705 
L 146.809575 151.629857 
L 147.350694 151.061319 
L 147.498932 150.903486 
L 147.757809 150.625461 
L 147.980732 150.383415 
L 152.243453 145.160399 
L 152.467274 144.617716 
L 153.464616 141.917511 
L 153.605095 141.072222 
L 153.715894 139.936849 
L 153.999834 133.925305 
L 154.776334 126.08852 
L 154.67479 124.395398 
L 153.33429 117.664681 
L 152.345571 113.576284 
L 152.087712 112.959313 
L 151.999 112.675391 
L 151.571269 111.456258 
L 143.132774 95.985368 
L 138.386137 88.41835 
L 137.338186 86.873568 
L 132.437589 80.994967 
L 132.324304 80.858209 
L 131.889614 80.337469 
L 128.144272 76.628955 
L 123.378667 72.13329 
L 121.687456 70.678817 
L 119.060497 68.71965 
L 114.943918 65.96344 
L 112.641558 66.162779 
L 109.063302 72.3605 
L 112.990004 72.020525 
L 113.18257 72.144375 
L 115.030807 73.757547 
L 119.182614 78.152095 
L 123.879666 82.80296 
L 127.168661 86.743037 
L 128.02581 87.77779 
L 130.066092 90.225248 
L 133.723341 95.616386 
L 135.327711 98.174049 
L 138.179935 103.403233 
L 142.140732 114.692403 
L 142.962201 117.321522 
L 143.706039 119.101282 
L 143.88761 120.649836 
L 144.042684 123.235503 
L 143.466854 129.047041 
L 143.343641 129.623129 
L 142.580302 134.376868 
L 139.28787 141.185938 
L 137.702171 142.973377 
L 126.967411 154.765091 
L 124.517403 156.37852 
L 116.323255 158.25897 
L 115.479522 158.436899 
L 108.290101 160.703859 
L 108.120324 160.732243 
L 107.037502 160.886789 
L 106.271465 160.972588 
L 105.269278 161.060303 
L 103.095255 161.169753 
L 102.815715 161.17658 
L 102.280519 161.185301 
L 102.028026 161.187456 
L 101.811447 161.188308 
L 97.910592 161.387072 
L 97.889746 161.387103 
L 97.03497 161.38062 
L 96.767508 161.375543 
L 95.804628 161.345561 
L 95.683173 161.340493 
L 95.602497 161.336965 
L 92.617357 161.227123 
L 88.982714 161.119953 
L 88.593277 161.072704 
L 88.406993 161.080608 
L 84.030899 160.376592 
L 76.373035 159.126048 
L 69.337075 158.555562 
L 60.23776 156.928819 
" clip-path="url(#p8e7dc965d0)" style="fill: #365d8d"/>
   </g>
   <g id="PathCollection_6">
    <path d="M 58.536054 165.191301 
L 55.754515 164.694028 
L 55.467414 165.191301 
M 151.263645 165.191301 
L 152.616339 163.491519 
L 153.002465 163.001798 
L 153.805786 161.976018 
L 154.184625 161.488548 
L 154.23528 161.423165 
L 156.181966 158.864127 
L 160.889154 152.026729 
L 160.964919 151.880478 
L 162.017771 146.579667 
L 164.493709 129.631099 
L 164.487031 129.007322 
L 164.381678 128.270197 
L 163.365534 122.437819 
L 162.798444 118.870764 
L 162.422895 117.490758 
L 161.444725 114.281347 
L 161.24157 113.69059 
L 153.893912 99.216268 
L 150.937837 93.796686 
L 148.45327 89.835826 
L 144.540358 84.732053 
L 142.842192 82.958909 
L 140.573648 80.657852 
L 136.181471 75.904981 
L 133.29869 72.677655 
L 126.538661 67.004509 
L 124.255708 65.355785 
L 123.485967 64.795449 
L 120.467671 62.354927 
L 116.820561 59.913045 
L 116.219814 59.965058 
L 112.641558 66.162779 
L 114.943918 65.96344 
L 119.060497 68.71965 
L 121.687456 70.678817 
L 123.378667 72.13329 
L 128.144272 76.628955 
L 131.889614 80.337469 
L 132.324304 80.858209 
L 132.437589 80.994967 
L 137.338186 86.873568 
L 138.386137 88.41835 
L 143.132774 95.985368 
L 151.571269 111.456258 
L 151.999 112.675391 
L 152.087712 112.959313 
L 152.345571 113.576284 
L 153.33429 117.664681 
L 154.67479 124.395398 
L 154.776334 126.08852 
L 153.999834 133.925305 
L 153.715894 139.936849 
L 153.605095 141.072222 
L 153.464616 141.917511 
L 152.467274 144.617716 
L 152.243453 145.160399 
L 147.980732 150.383415 
L 147.757809 150.625461 
L 147.498932 150.903486 
L 147.350694 151.061319 
L 146.809575 151.629857 
L 146.710557 151.732705 
L 145.991013 152.47046 
L 145.468401 152.996943 
L 136.453391 162.887788 
L 136.123844 163.115964 
L 136.023198 163.181932 
L 136.013211 163.188399 
L 135.895942 163.26334 
L 135.550296 163.475084 
L 135.543945 163.478864 
L 135.239403 163.656185 
L 135.14857 163.707723 
L 134.989756 163.796528 
L 134.683861 163.963401 
L 134.263816 164.184997 
L 134.242202 164.196189 
L 133.765143 164.438882 
L 133.316494 164.660382 
L 133.129396 164.751104 
L 133.040784 164.793763 
L 132.918688 164.852226 
L 132.232663 165.174707 
L 132.196069 165.191301 
L 132.23498 165.191301 
L 133.023033 165.191301 
L 133.176101 165.191301 
L 133.289922 165.191301 
L 133.538227 165.191301 
L 134.182852 165.191301 
L 134.959518 165.191301 
L 134.997314 165.191301 
L 135.785287 165.191301 
L 136.433843 165.191301 
L 136.800712 165.191301 
L 137.021117 165.191301 
L 137.825209 165.191301 
L 137.843171 165.191301 
L 138.910821 165.191301 
L 139.320196 165.191301 
L 139.356363 165.191301 
L 139.733335 165.191301 
L 141.161577 165.191301 
L 141.93234 165.191301 
L 143.130348 165.191301 
L 143.309682 165.191301 
L 144.363053 165.191301 
L 144.675679 165.191301 
L 145.249973 165.191301 
L 145.776254 165.191301 
L 149.512084 165.191301 
L 149.597118 165.191301 
L 151.100646 165.191301 
" clip-path="url(#p8e7dc965d0)" style="fill: #2c728e"/>
   </g>
   <g id="PathCollection_7">
    <path d="M 164.606673 165.191301 
L 166.140743 162.778679 
L 168.692234 158.541155 
L 170.481637 154.311152 
L 170.548517 154.150948 
L 171.752999 146.489224 
L 172.56119 142.420212 
L 173.387006 136.767241 
L 173.340271 132.401969 
L 172.602993 127.243473 
L 171.912583 123.280715 
L 170.171142 116.81276 
L 168.345989 111.685827 
L 167.955344 110.437717 
L 166.369624 107.915718 
L 160.089798 95.360559 
L 159.546335 94.446561 
L 156.926118 90.597832 
L 152.414757 84.340807 
L 151.695601 83.402782 
L 147.159486 78.666386 
L 141.099785 72.51984 
L 139.805364 71.119118 
L 138.955777 70.167991 
L 136.963524 68.496053 
L 127.581396 61.720381 
L 124.41803 59.417598 
L 119.463372 55.41138 
L 118.989864 55.167189 
L 117.483103 57.776977 
L 116.219814 59.965058 
L 116.820561 59.913045 
L 120.467671 62.354927 
L 123.485967 64.795449 
L 124.255708 65.355785 
L 126.538661 67.004509 
L 133.29869 72.677655 
L 136.181471 75.904981 
L 140.573648 80.657852 
L 142.842192 82.958909 
L 144.540358 84.732053 
L 148.45327 89.835826 
L 150.937837 93.796686 
L 153.893912 99.216268 
L 161.24157 113.69059 
L 161.444725 114.281347 
L 162.422895 117.490758 
L 162.798444 118.870764 
L 163.365534 122.437819 
L 164.381678 128.270197 
L 164.487031 129.007322 
L 164.493709 129.631099 
L 162.017771 146.579667 
L 160.964919 151.880478 
L 160.889154 152.026729 
L 156.181966 158.864127 
L 154.23528 161.423165 
L 154.184625 161.488548 
L 153.805786 161.976018 
L 153.002465 163.001798 
L 152.616339 163.491519 
L 151.263645 165.191301 
L 152.160533 165.191301 
L 152.45442 165.191301 
L 153.133617 165.191301 
L 153.490898 165.191301 
L 153.540702 165.191301 
L 155.93627 165.191301 
L 160.283861 165.191301 
L 160.956631 165.191301 
L 162.913087 165.191301 
L 163.440553 165.191301 
" clip-path="url(#p8e7dc965d0)" style="fill: #24868e"/>
   </g>
   <g id="PathCollection_8">
    <path d="M 175.217317 165.191301 
L 176.901456 162.308427 
L 178.274755 158.932306 
L 179.518194 156.000377 
L 181.000631 148.379587 
L 181.548479 145.444874 
L 181.743269 142.487129 
L 181.715204 142.000335 
L 181.731248 139.884726 
L 181.576815 134.914922 
L 180.847101 130.134163 
L 180.394921 126.114432 
L 178.177496 117.74624 
L 177.007115 114.224001 
L 176.603001 112.996984 
L 175.557631 110.521772 
L 171.641776 102.306875 
L 171.179061 101.570953 
L 170.224621 99.662755 
L 168.741118 97.167795 
L 161.588651 86.661831 
L 159.784311 84.159304 
L 158.208815 82.169579 
L 154.389787 77.90455 
L 150.411684 73.711419 
L 142.86895 66.668872 
L 142.033969 66.07832 
L 140.958926 65.34431 
L 130.907085 58.084977 
L 125.350093 54.039748 
L 122.524285 51.754866 
L 121.318873 51.133228 
L 118.989864 55.167189 
L 119.463372 55.41138 
L 124.41803 59.417598 
L 127.581396 61.720381 
L 136.963524 68.496053 
L 138.955777 70.167991 
L 139.805364 71.119118 
L 141.099785 72.51984 
L 147.159486 78.666386 
L 151.695601 83.402782 
L 152.414757 84.340807 
L 156.926118 90.597832 
L 159.546335 94.446561 
L 160.089798 95.360559 
L 166.369624 107.915718 
L 167.955344 110.437717 
L 168.345989 111.685827 
L 170.171142 116.81276 
L 171.912583 123.280715 
L 172.602993 127.243473 
L 173.340271 132.401969 
L 173.387006 136.767241 
L 172.56119 142.420212 
L 171.752999 146.489224 
L 170.548517 154.150948 
L 170.481637 154.311152 
L 168.692234 158.541155 
L 166.140743 162.778679 
L 164.606673 165.191301 
L 166.689836 165.191301 
L 168.289805 165.191301 
L 168.953049 165.191301 
" clip-path="url(#p8e7dc965d0)" style="fill: #1f9a8a"/>
   </g>
   <g id="PathCollection_9">
    <path d="M 185.231729 165.191301 
L 185.468548 164.785919 
L 186.153293 163.10254 
L 188.339034 156.071276 
L 188.871743 153.217664 
L 189.627725 141.738585 
L 189.518806 139.849324 
L 189.525427 138.976187 
L 189.461691 136.925092 
L 187.763444 125.798937 
L 187.250753 124.91093 
L 179.498792 111.484139 
L 171.746831 98.057349 
L 163.99487 84.630558 
L 159.294924 76.490013 
L 149.502425 66.1682 
L 145.530352 62.45953 
L 143.261046 60.85453 
L 140.339299 58.859642 
L 134.232773 54.449574 
L 126.282156 48.661897 
L 125.585197 48.098352 
L 123.647882 47.099266 
L 121.318873 51.133228 
L 122.524285 51.754866 
L 125.350093 54.039748 
L 130.907085 58.084977 
L 140.958926 65.34431 
L 142.033969 66.07832 
L 142.86895 66.668872 
L 150.411684 73.711419 
L 154.389787 77.90455 
L 158.208815 82.169579 
L 159.784311 84.159304 
L 161.588651 86.661831 
L 168.741118 97.167795 
L 170.224621 99.662755 
L 171.179061 101.570953 
L 171.641776 102.306875 
L 175.557631 110.521772 
L 176.603001 112.996984 
L 177.007115 114.224001 
L 178.177496 117.74624 
L 180.394921 126.114432 
L 180.847101 130.134163 
L 181.576815 134.914922 
L 181.731248 139.884726 
L 181.715204 142.000335 
L 181.743269 142.487129 
L 181.548479 145.444874 
L 181.000631 148.379587 
L 179.518194 156.000377 
L 178.274755 158.932306 
L 176.901456 162.308427 
L 175.217317 165.191301 
" clip-path="url(#p8e7dc965d0)" style="fill: #27ad81"/>
   </g>
   <g id="PathCollection_10">
    <path d="M 194.099723 165.191301 
L 194.634838 163.997016 
L 194.907681 163.106306 
L 195.424416 160.933897 
L 196.710281 155.566255 
L 196.83976 154.468748 
L 197.40511 143.635055 
L 197.261273 142.249659 
L 195.002714 138.33772 
L 187.763444 125.798937 
L 189.461691 136.925092 
L 189.525427 138.976187 
L 189.518806 139.849324 
L 189.627725 141.738585 
L 188.871743 153.217664 
L 188.339034 156.071276 
L 186.153293 163.10254 
L 185.468548 164.785919 
L 185.231729 165.191301 
L 186.870347 165.191301 
M 149.58278 59.668087 
L 148.593166 58.624981 
L 148.191754 58.250188 
L 144.488122 55.63074 
L 139.719672 52.374974 
L 137.558461 50.81417 
L 133.63799 47.960251 
L 129.056582 45.115474 
L 127.065514 43.906095 
L 126.587551 43.645283 
L 125.844955 43.293824 
L 125.235064 44.350186 
L 123.647882 47.099266 
L 125.585197 48.098352 
L 126.282156 48.661897 
L 134.232773 54.449574 
L 140.339299 58.859642 
L 143.261046 60.85453 
L 145.530352 62.45953 
L 149.502425 66.1682 
L 159.294924 76.490013 
" clip-path="url(#p8e7dc965d0)" style="fill: #48c16e"/>
   </g>
   <g id="PathCollection_11">
    <path d="M 202.528528 165.191301 
L 202.663477 164.745181 
L 202.732706 164.502898 
L 203.565761 161.021208 
L 204.046055 158.564731 
L 204.082516 158.376198 
L 204.13927 158.075223 
L 204.434496 154.674045 
L 202.754676 151.764511 
L 197.261273 142.249659 
L 197.40511 143.635055 
L 196.83976 154.468748 
L 196.710281 155.566255 
L 195.424416 160.933897 
L 194.907681 163.106306 
L 194.634838 163.997016 
L 194.099723 165.191301 
L 199.617373 165.191301 
L 200.55972 165.191301 
M 143.968775 49.944345 
L 143.085371 49.152249 
L 139.945955 46.96059 
L 133.070988 42.676223 
L 132.635093 42.415136 
L 130.833764 41.432197 
L 127.759744 39.977312 
L 125.844955 43.293824 
L 126.587551 43.645283 
L 127.065514 43.906095 
L 129.056582 45.115474 
L 133.63799 47.960251 
L 137.558461 50.81417 
L 139.719672 52.374974 
L 144.488122 55.63074 
L 148.191754 58.250188 
L 148.593166 58.624981 
L 149.58278 59.668087 
L 148.490948 57.776977 
" clip-path="url(#p8e7dc965d0)" style="fill: #75d054"/>
   </g>
   <g id="PathCollection_12">
    <path d="M 210.496724 165.191301 
L 210.497611 165.188369 
L 210.498725 165.18246 
L 210.499092 165.178234 
L 204.434496 154.674045 
L 204.13927 158.075223 
L 204.082516 158.376198 
L 204.046055 158.564731 
L 203.565761 161.021208 
L 202.732706 164.502898 
L 202.663477 164.745181 
L 202.528528 165.191301 
M 139.385078 42.005149 
L 133.424784 38.435734 
L 129.674533 36.6608 
L 127.759744 39.977312 
L 130.833764 41.432197 
L 132.635093 42.415136 
L 133.070988 42.676223 
L 139.945955 46.96059 
L 143.085371 49.152249 
L 143.968775 49.944345 
L 140.738986 44.350186 
" clip-path="url(#p8e7dc965d0)" style="fill: #aadc32"/>
   </g>
   <g id="PathCollection_13">
    <path d="M 210.499092 165.178234 
L 210.498725 165.18246 
L 210.497611 165.188369 
L 210.496724 165.191301 
L 210.506637 165.191301 
M 135.686678 35.599331 
L 133.171737 34.09322 
L 131.589322 33.344288 
L 129.674533 36.6608 
L 133.424784 38.435734 
L 139.385078 42.005149 
" clip-path="url(#p8e7dc965d0)" style="fill: #e5e419"/>
   </g>
   <g id="PathCollection_14">
    <path d="M 131.589322 33.344288 
L 133.171737 34.09322 
L 135.686678 35.599331 
L 132.987025 30.923396 
" clip-path="url(#p8e7dc965d0)" style="fill: #fde725"/>
   </g>
   <g id="line2d_1">
    <path d="M 55.467414 165.191301 
L 210.506637 165.191301 
L 132.987025 30.923396 
L 55.467414 165.191301 
" clip-path="url(#p8e7dc965d0)" style="fill: none; stroke: #000000; stroke-width: 2; stroke-linecap: square"/>
   </g>
   <g id="PathCollection_15"/>
   <g id="PathCollection_16">
    <path d="M 93.946504 98.543562 
L 93.987477 99.177633 
L 94.786786 111.701644 
L 93.272987 116.471349 
L 92.298691 117.801656 
L 88.483119 120.282393 
L 87.183497 121.023823 
L 82.616495 122.27347 
L 80.461236 122.439516 
L 80.194458 122.362804 
" clip-path="url(#p8e7dc965d0)" style="fill: none; stroke: #000000; stroke-opacity: 0.3; stroke-width: 0.5"/>
   </g>
   <g id="PathCollection_17">
    <path d="M 101.823843 84.899611 
L 102.098355 85.244438 
L 109.952414 95.236782 
L 110.695207 96.817768 
L 114.584705 105.486394 
L 115.666872 107.886811 
L 116.415825 110.326973 
L 116.598025 113.441846 
L 114.108113 123.777943 
L 112.409848 128.396799 
L 111.728838 129.929782 
L 111.256094 130.564241 
L 110.813013 130.988912 
L 108.731935 132.694631 
L 104.392 134.990476 
L 98.268411 137.461844 
L 98.1132 137.510908 
L 97.370511 137.626534 
L 95.180698 137.991726 
L 93.452505 138.305354 
L 83.220633 138.079756 
L 78.871133 138.323028 
L 71.481266 138.727149 
L 70.806329 138.62352 
" clip-path="url(#p8e7dc965d0)" style="fill: none; stroke: #000000; stroke-opacity: 0.3; stroke-width: 0.5"/>
   </g>
   <g id="PathCollection_18">
    <path d="M 105.485046 78.558221 
L 107.428334 78.389971 
L 108.32868 78.969034 
L 112.518682 82.224541 
L 114.892871 84.476719 
L 116.904034 86.747554 
L 119.233228 89.580263 
L 120.744837 91.616674 
L 122.829972 94.767354 
L 123.659774 96.019933 
L 125.574356 99.124204 
L 129.219228 111.134165 
L 131.777298 117.185265 
L 132.096421 121.987416 
L 131.722413 124.155401 
L 130.195952 126.630924 
L 124.208184 139.014212 
L 120.19511 143.537846 
L 118.998657 144.852103 
L 118.725589 145.03193 
L 117.812302 145.241517 
L 117.718263 145.261348 
L 115.47387 145.969048 
L 100.739107 150.688675 
L 99.021858 150.748747 
L 95.430263 150.533094 
L 91.891368 150.103733 
L 82.396778 150.506601 
L 80.79841 150.249459 
L 78.001375 149.792698 
L 69.002718 149.063073 
L 65.122973 148.467382 
" clip-path="url(#p8e7dc965d0)" style="fill: none; stroke: #000000; stroke-opacity: 0.3; stroke-width: 0.5"/>
   </g>
   <g id="PathCollection_19">
    <path d="M 109.063302 72.3605 
L 112.990004 72.020525 
L 113.18257 72.144375 
L 115.030807 73.757547 
L 119.182614 78.152095 
L 123.879666 82.80296 
L 127.168661 86.743037 
L 128.02581 87.77779 
L 130.066092 90.225248 
L 133.723341 95.616386 
L 135.327711 98.174049 
L 138.179935 103.403233 
L 142.140732 114.692403 
L 142.962201 117.321522 
L 143.706039 119.101282 
L 143.88761 120.649836 
L 144.042684 123.235503 
L 143.466854 129.047041 
L 143.343641 129.623129 
L 142.580302 134.376868 
L 139.28787 141.185938 
L 137.702171 142.973377 
L 126.967411 154.765091 
L 124.517403 156.37852 
L 116.323255 158.25897 
L 115.479522 158.436899 
L 108.290101 160.703859 
L 108.120324 160.732243 
L 107.037502 160.886789 
L 106.271465 160.972588 
L 105.269278 161.060303 
L 103.095255 161.169753 
L 102.815715 161.17658 
L 102.280519 161.185301 
L 102.028026 161.187456 
L 101.811447 161.188308 
L 97.910592 161.387072 
L 97.889746 161.387103 
L 97.03497 161.38062 
L 96.767508 161.375543 
L 95.804628 161.345561 
L 95.683173 161.340493 
L 95.602497 161.336965 
L 92.617357 161.227123 
L 88.982714 161.119953 
L 88.593277 161.072704 
L 88.406993 161.080608 
L 84.030899 160.376592 
L 76.373035 159.126048 
L 69.337075 158.555562 
L 60.23776 156.928819 
" clip-path="url(#p8e7dc965d0)" style="fill: none; stroke: #000000; stroke-opacity: 0.3; stroke-width: 0.5"/>
   </g>
   <g id="PathCollection_20">
    <path d="M 58.536054 165.191301 
L 55.754515 164.694028 
" clip-path="url(#p8e7dc965d0)" style="fill: none; stroke: #000000; stroke-opacity: 0.3; stroke-width: 0.5"/>
    <path d="M 112.641558 66.162779 
L 114.943918 65.96344 
L 119.060497 68.71965 
L 121.687456 70.678817 
L 123.378667 72.13329 
L 128.144272 76.628955 
L 131.889614 80.337469 
L 132.324304 80.858209 
L 132.437589 80.994967 
L 137.338186 86.873568 
L 138.386137 88.41835 
L 143.132774 95.985368 
L 151.571269 111.456258 
L 151.999 112.675391 
L 152.087712 112.959313 
L 152.345571 113.576284 
L 153.33429 117.664681 
L 154.67479 124.395398 
L 154.776334 126.08852 
L 153.999834 133.925305 
L 153.715894 139.936849 
L 153.605095 141.072222 
L 153.464616 141.917511 
L 152.467274 144.617716 
L 152.243453 145.160399 
L 147.980732 150.383415 
L 147.757809 150.625461 
L 147.498932 150.903486 
L 147.350694 151.061319 
L 146.809575 151.629857 
L 146.710557 151.732705 
L 145.991013 152.47046 
L 145.468401 152.996943 
L 136.453391 162.887788 
L 136.123844 163.115964 
L 136.023198 163.181932 
L 136.013211 163.188399 
L 135.895942 163.26334 
L 135.550296 163.475084 
L 135.543945 163.478864 
L 135.239403 163.656185 
L 135.14857 163.707723 
L 134.989756 163.796528 
L 134.683861 163.963401 
L 134.263816 164.184997 
L 134.242202 164.196189 
L 133.765143 164.438882 
L 133.316494 164.660382 
L 133.129396 164.751104 
L 133.040784 164.793763 
L 132.918688 164.852226 
L 132.232663 165.174707 
L 132.196069 165.191301 
" clip-path="url(#p8e7dc965d0)" style="fill: none; stroke: #000000; stroke-opacity: 0.3; stroke-width: 0.5"/>
   </g>
   <g id="PathCollection_21">
    <path d="M 116.219814 59.965058 
L 116.820561 59.913045 
L 120.467671 62.354927 
L 123.485967 64.795449 
L 124.255708 65.355785 
L 126.538661 67.004509 
L 133.29869 72.677655 
L 136.181471 75.904981 
L 140.573648 80.657852 
L 142.842192 82.958909 
L 144.540358 84.732053 
L 148.45327 89.835826 
L 150.937837 93.796686 
L 153.893912 99.216268 
L 161.24157 113.69059 
L 161.444725 114.281347 
L 162.422895 117.490758 
L 162.798444 118.870764 
L 163.365534 122.437819 
L 164.381678 128.270197 
L 164.487031 129.007322 
L 164.493709 129.631099 
L 162.017771 146.579667 
L 160.964919 151.880478 
L 160.889154 152.026729 
L 156.181966 158.864127 
L 154.23528 161.423165 
L 154.184625 161.488548 
L 153.805786 161.976018 
L 153.002465 163.001798 
L 152.616339 163.491519 
L 151.263645 165.191301 
" clip-path="url(#p8e7dc965d0)" style="fill: none; stroke: #000000; stroke-opacity: 0.3; stroke-width: 0.5"/>
   </g>
   <g id="PathCollection_22">
    <path d="M 118.989864 55.167189 
L 119.463372 55.41138 
L 124.41803 59.417598 
L 127.581396 61.720381 
L 136.963524 68.496053 
L 138.955777 70.167991 
L 139.805364 71.119118 
L 141.099785 72.51984 
L 147.159486 78.666386 
L 151.695601 83.402782 
L 152.414757 84.340807 
L 156.926118 90.597832 
L 159.546335 94.446561 
L 160.089798 95.360559 
L 166.369624 107.915718 
L 167.955344 110.437717 
L 168.345989 111.685827 
L 170.171142 116.81276 
L 171.912583 123.280715 
L 172.602993 127.243473 
L 173.340271 132.401969 
L 173.387006 136.767241 
L 172.56119 142.420212 
L 171.752999 146.489224 
L 170.548517 154.150948 
L 170.481637 154.311152 
L 168.692234 158.541155 
L 166.140743 162.778679 
L 164.606673 165.191301 
" clip-path="url(#p8e7dc965d0)" style="fill: none; stroke: #000000; stroke-opacity: 0.3; stroke-width: 0.5"/>
   </g>
   <g id="PathCollection_23">
    <path d="M 121.318873 51.133228 
L 122.524285 51.754866 
L 125.350093 54.039748 
L 130.907085 58.084977 
L 140.958926 65.34431 
L 142.033969 66.07832 
L 142.86895 66.668872 
L 150.411684 73.711419 
L 154.389787 77.90455 
L 158.208815 82.169579 
L 159.784311 84.159304 
L 161.588651 86.661831 
L 168.741118 97.167795 
L 170.224621 99.662755 
L 171.179061 101.570953 
L 171.641776 102.306875 
L 175.557631 110.521772 
L 176.603001 112.996984 
L 177.007115 114.224001 
L 178.177496 117.74624 
L 180.394921 126.114432 
L 180.847101 130.134163 
L 181.576815 134.914922 
L 181.731248 139.884726 
L 181.715204 142.000335 
L 181.743269 142.487129 
L 181.548479 145.444874 
L 181.000631 148.379587 
L 179.518194 156.000377 
L 178.274755 158.932306 
L 176.901456 162.308427 
L 175.217317 165.191301 
" clip-path="url(#p8e7dc965d0)" style="fill: none; stroke: #000000; stroke-opacity: 0.3; stroke-width: 0.5"/>
   </g>
   <g id="PathCollection_24">
    <path d="M 187.763444 125.798937 
L 189.461691 136.925092 
L 189.525427 138.976187 
L 189.518806 139.849324 
L 189.627725 141.738585 
L 188.871743 153.217664 
L 188.339034 156.071276 
L 186.153293 163.10254 
L 185.468548 164.785919 
L 185.231729 165.191301 
" clip-path="url(#p8e7dc965d0)" style="fill: none; stroke: #000000; stroke-opacity: 0.3; stroke-width: 0.5"/>
    <path d="M 123.647882 47.099266 
L 125.585197 48.098352 
L 126.282156 48.661897 
L 134.232773 54.449574 
L 140.339299 58.859642 
L 143.261046 60.85453 
L 145.530352 62.45953 
L 149.502425 66.1682 
L 159.294924 76.490013 
" clip-path="url(#p8e7dc965d0)" style="fill: none; stroke: #000000; stroke-opacity: 0.3; stroke-width: 0.5"/>
   </g>
   <g id="PathCollection_25">
    <path d="M 197.261273 142.249659 
L 197.40511 143.635055 
L 196.83976 154.468748 
L 196.710281 155.566255 
L 195.424416 160.933897 
L 194.907681 163.106306 
L 194.634838 163.997016 
L 194.099723 165.191301 
" clip-path="url(#p8e7dc965d0)" style="fill: none; stroke: #000000; stroke-opacity: 0.3; stroke-width: 0.5"/>
    <path d="M 125.844955 43.293824 
L 126.587551 43.645283 
L 127.065514 43.906095 
L 129.056582 45.115474 
L 133.63799 47.960251 
L 137.558461 50.81417 
L 139.719672 52.374974 
L 144.488122 55.63074 
L 148.191754 58.250188 
L 148.593166 58.624981 
L 149.58278 59.668087 
" clip-path="url(#p8e7dc965d0)" style="fill: none; stroke: #000000; stroke-opacity: 0.3; stroke-width: 0.5"/>
   </g>
   <g id="PathCollection_26">
    <path d="M 204.434496 154.674045 
L 204.13927 158.075223 
L 204.082516 158.376198 
L 204.046055 158.564731 
L 203.565761 161.021208 
L 202.732706 164.502898 
L 202.663477 164.745181 
L 202.528528 165.191301 
" clip-path="url(#p8e7dc965d0)" style="fill: none; stroke: #000000; stroke-opacity: 0.3; stroke-width: 0.5"/>
    <path d="M 127.759744 39.977312 
L 130.833764 41.432197 
L 132.635093 42.415136 
L 133.070988 42.676223 
L 139.945955 46.96059 
L 143.085371 49.152249 
L 143.968775 49.944345 
" clip-path="url(#p8e7dc965d0)" style="fill: none; stroke: #000000; stroke-opacity: 0.3; stroke-width: 0.5"/>
   </g>
   <g id="PathCollection_27">
    <path d="M 210.499092 165.178234 
L 210.498725 165.18246 
L 210.497611 165.188369 
L 210.496724 165.191301 
" clip-path="url(#p8e7dc965d0)" style="fill: none; stroke: #000000; stroke-opacity: 0.3; stroke-width: 0.5"/>
    <path d="M 129.674533 36.6608 
L 133.424784 38.435734 
L 139.385078 42.005149 
" clip-path="url(#p8e7dc965d0)" style="fill: none; stroke: #000000; stroke-opacity: 0.3; stroke-width: 0.5"/>
   </g>
   <g id="PathCollection_28">
    <path d="M 131.589322 33.344288 
L 133.171737 34.09322 
L 135.686678 35.599331 
" clip-path="url(#p8e7dc965d0)" style="fill: none; stroke: #000000; stroke-opacity: 0.3; stroke-width: 0.5"/>
   </g>
   <g id="PathCollection_29"/>
   <g id="text_1">
    <!-- Heavy-end -->
    <g transform="translate(7.2 177.594439)scale(0.12 -0.12)">
     <defs>
      <path id="HelveticaNeueLTPro-Lt-48" d="M 461 0 
L 896 0 
L 896 2214 
L 3610 2214 
L 3610 0 
L 4045 0 
L 4045 4570 
L 3610 4570 
L 3610 2586 
L 896 2586 
L 896 4570 
L 461 4570 
L 461 0 
z
" transform="scale(0.015625)"/>
      <path id="HelveticaNeueLTPro-Lt-65" d="M 621 1882 
C 691 2483 1043 3059 1709 3059 
C 2355 3059 2739 2490 2758 1882 
L 621 1882 
z
M 3162 1542 
C 3194 2470 2765 3398 1709 3398 
C 659 3398 218 2522 218 1651 
C 218 710 659 -96 1709 -96 
C 2547 -96 2976 339 3149 1088 
L 2746 1088 
C 2618 582 2298 243 1709 243 
C 941 243 621 954 621 1542 
L 3162 1542 
z
" transform="scale(0.015625)"/>
      <path id="HelveticaNeueLTPro-Lt-61" d="M 749 2291 
C 768 2829 1126 3059 1632 3059 
C 2112 3059 2496 2925 2496 2381 
C 2496 2022 2310 1965 1978 1933 
C 1107 1830 205 1792 205 870 
C 205 205 698 -96 1312 -96 
C 1952 -96 2227 147 2515 576 
L 2528 576 
C 2528 237 2592 0 3002 0 
C 3110 0 3168 6 3264 26 
L 3264 365 
C 3219 346 3181 339 3136 339 
C 2976 339 2899 422 2899 582 
L 2899 2336 
C 2899 3226 2266 3398 1683 3398 
C 922 3398 390 3066 346 2291 
L 749 2291 
z
M 2496 1280 
C 2496 634 1965 243 1344 243 
C 960 243 608 493 608 896 
C 608 1536 1459 1536 2144 1658 
C 2253 1677 2432 1709 2483 1805 
L 2496 1805 
L 2496 1280 
z
" transform="scale(0.015625)"/>
      <path id="HelveticaNeueLTPro-Lt-76" d="M 1286 0 
L 1715 0 
L 2950 3302 
L 2534 3302 
L 1510 403 
L 1498 403 
L 461 3302 
L 13 3302 
L 1286 0 
z
" transform="scale(0.015625)"/>
      <path id="HelveticaNeueLTPro-Lt-79" d="M 1331 13 
L 1190 -365 
C 1056 -672 973 -883 614 -883 
C 518 -883 435 -870 339 -851 
L 339 -1190 
C 410 -1216 486 -1216 646 -1222 
C 1152 -1222 1280 -1062 1517 -506 
L 2950 3302 
L 2547 3302 
L 1530 486 
L 442 3302 
L 13 3302 
L 1331 13 
z
" transform="scale(0.015625)"/>
      <path id="HelveticaNeueLTPro-Lt-2d" d="M 1984 1574 
L 1984 1946 
L 384 1946 
L 384 1574 
L 1984 1574 
z
" transform="scale(0.015625)"/>
      <path id="HelveticaNeueLTPro-Lt-6e" d="M 378 0 
L 781 0 
L 781 1926 
C 800 2573 1171 3059 1818 3059 
C 2470 3059 2656 2624 2656 2061 
L 2656 0 
L 3059 0 
L 3059 2125 
C 3059 2912 2778 3398 1850 3398 
C 1382 3398 947 3130 794 2733 
L 781 2733 
L 781 3302 
L 378 3302 
L 378 0 
z
" transform="scale(0.015625)"/>
      <path id="HelveticaNeueLTPro-Lt-64" d="M 3290 4570 
L 2886 4570 
L 2886 2675 
L 2874 2675 
C 2707 3149 2214 3398 1728 3398 
C 723 3398 243 2592 243 1651 
C 243 710 723 -96 1728 -96 
C 2208 -96 2733 192 2906 627 
L 2918 627 
L 2918 0 
L 3290 0 
L 3290 4570 
z
M 646 1651 
C 646 2336 960 3059 1728 3059 
C 2579 3059 2886 2336 2886 1651 
C 2886 966 2579 243 1728 243 
C 960 243 646 966 646 1651 
z
" transform="scale(0.015625)"/>
     </defs>
     <use xlink:href="#HelveticaNeueLTPro-Lt-48"/>
     <use xlink:href="#HelveticaNeueLTPro-Lt-65" x="70.399994"/>
     <use xlink:href="#HelveticaNeueLTPro-Lt-61" x="122.299988"/>
     <use xlink:href="#HelveticaNeueLTPro-Lt-76" x="174.199982"/>
     <use xlink:href="#HelveticaNeueLTPro-Lt-79" x="220.499969"/>
     <use xlink:href="#HelveticaNeueLTPro-Lt-2d" x="266.799957"/>
     <use xlink:href="#HelveticaNeueLTPro-Lt-65" x="303.799942"/>
     <use xlink:href="#HelveticaNeueLTPro-Lt-6e" x="355.699936"/>
     <use xlink:href="#HelveticaNeueLTPro-Lt-64" x="409.399933"/>
    </g>
   </g>
   <g id="text_2">
    <!-- Peak Shift -->
    <g transform="translate(202.754676 177.594439)scale(0.12 -0.12)">
     <defs>
      <path id="HelveticaNeueLTPro-Lt-50" d="M 896 4198 
L 2394 4198 
C 3002 4198 3411 3898 3411 3264 
C 3411 2630 3002 2330 2394 2330 
L 896 2330 
L 896 4198 
z
M 461 0 
L 896 0 
L 896 1958 
L 2490 1958 
C 3309 1958 3846 2438 3846 3264 
C 3846 4090 3309 4570 2490 4570 
L 461 4570 
L 461 0 
z
" transform="scale(0.015625)"/>
      <path id="HelveticaNeueLTPro-Lt-6b" d="M 384 0 
L 787 0 
L 787 1254 
L 1440 1798 
L 2746 0 
L 3251 0 
L 1747 2080 
L 3155 3302 
L 2618 3302 
L 787 1702 
L 787 4570 
L 384 4570 
L 384 0 
z
" transform="scale(0.015625)"/>
      <path id="HelveticaNeueLTPro-Lt-20" transform="scale(0.015625)"/>
      <path id="HelveticaNeueLTPro-Lt-53" d="M 230 1504 
C 179 390 973 -96 2054 -96 
C 3674 -96 3802 896 3802 1210 
C 3802 1952 3264 2240 2618 2413 
L 1504 2688 
C 1126 2771 813 2957 813 3386 
C 813 4064 1363 4294 1958 4294 
C 2611 4294 3174 3936 3206 3245 
L 3642 3245 
C 3642 4186 2861 4666 1952 4666 
C 666 4666 378 3827 378 3379 
C 378 2662 870 2413 1408 2278 
L 2426 2029 
C 2854 1926 3366 1722 3366 1203 
C 3366 538 2637 275 2157 275 
C 1318 275 646 563 666 1504 
L 230 1504 
z
" transform="scale(0.015625)"/>
      <path id="HelveticaNeueLTPro-Lt-68" d="M 378 0 
L 781 0 
L 781 1926 
C 800 2573 1171 3059 1818 3059 
C 2470 3059 2656 2624 2656 2061 
L 2656 0 
L 3059 0 
L 3059 2125 
C 3059 2912 2778 3398 1850 3398 
C 1382 3398 947 3130 794 2733 
L 781 2733 
L 781 4570 
L 378 4570 
L 378 0 
z
" transform="scale(0.015625)"/>
      <path id="HelveticaNeueLTPro-Lt-69" d="M 390 3923 
L 794 3923 
L 794 4570 
L 390 4570 
L 390 3923 
z
M 390 0 
L 794 0 
L 794 3302 
L 390 3302 
L 390 0 
z
" transform="scale(0.015625)"/>
      <path id="HelveticaNeueLTPro-Lt-66" d="M 1658 3302 
L 1005 3302 
L 1005 3590 
C 1005 3942 1005 4230 1446 4230 
C 1542 4230 1632 4218 1741 4198 
L 1741 4544 
C 1613 4563 1523 4570 1402 4570 
C 749 4570 602 4173 602 3603 
L 602 3302 
L 38 3302 
L 38 2963 
L 602 2963 
L 602 0 
L 1005 0 
L 1005 2963 
L 1658 2963 
L 1658 3302 
z
" transform="scale(0.015625)"/>
      <path id="HelveticaNeueLTPro-Lt-74" d="M 1024 4294 
L 621 4294 
L 621 3302 
L 45 3302 
L 45 2963 
L 621 2963 
L 621 704 
C 614 141 800 -38 1338 -38 
C 1459 -38 1574 -26 1696 -26 
L 1696 320 
C 1581 307 1466 301 1350 301 
C 1062 320 1024 474 1024 736 
L 1024 2963 
L 1696 2963 
L 1696 3302 
L 1024 3302 
L 1024 4294 
z
" transform="scale(0.015625)"/>
     </defs>
     <use xlink:href="#HelveticaNeueLTPro-Lt-50"/>
     <use xlink:href="#HelveticaNeueLTPro-Lt-65" x="62.999985"/>
     <use xlink:href="#HelveticaNeueLTPro-Lt-61" x="114.899979"/>
     <use xlink:href="#HelveticaNeueLTPro-Lt-6b" x="166.799973"/>
     <use xlink:href="#HelveticaNeueLTPro-Lt-20" x="216.799957"/>
     <use xlink:href="#HelveticaNeueLTPro-Lt-53" x="244.599945"/>
     <use xlink:href="#HelveticaNeueLTPro-Lt-68" x="307.59993"/>
     <use xlink:href="#HelveticaNeueLTPro-Lt-69" x="361.299927"/>
     <use xlink:href="#HelveticaNeueLTPro-Lt-66" x="379.799911"/>
     <use xlink:href="#HelveticaNeueLTPro-Lt-74" x="405.699905"/>
    </g>
   </g>
   <g id="text_3">
    <!-- Base -->
    <g transform="translate(119.870463 23.171435)scale(0.12 -0.12)">
     <defs>
      <path id="HelveticaNeueLTPro-Lt-42" d="M 896 4198 
L 2394 4198 
C 3078 4198 3424 3910 3424 3341 
C 3424 2912 3085 2566 2394 2566 
L 896 2566 
L 896 4198 
z
M 461 0 
L 2394 0 
C 3878 0 4032 864 4032 1299 
C 4032 1894 3654 2336 3066 2413 
L 3066 2426 
C 3539 2528 3859 2970 3859 3450 
C 3859 4301 3162 4570 2394 4570 
L 461 4570 
L 461 0 
z
M 896 2195 
L 2394 2195 
C 3162 2195 3597 1901 3597 1312 
C 3597 570 3040 371 2394 371 
L 896 371 
L 896 2195 
z
" transform="scale(0.015625)"/>
      <path id="HelveticaNeueLTPro-Lt-73" d="M 2765 2336 
C 2733 3053 2221 3398 1555 3398 
C 973 3398 314 3142 314 2470 
C 314 1914 710 1722 1235 1587 
L 1754 1472 
C 2118 1382 2477 1254 2477 870 
C 2477 410 1958 243 1574 243 
C 1037 243 634 525 602 1069 
L 198 1069 
C 269 256 781 -96 1555 -96 
C 2170 -96 2880 179 2880 896 
C 2880 1472 2400 1741 1939 1811 
L 1402 1933 
C 1120 2003 717 2138 717 2490 
C 717 2918 1139 3059 1498 3059 
C 1958 3059 2342 2835 2362 2336 
L 2765 2336 
z
" transform="scale(0.015625)"/>
     </defs>
     <use xlink:href="#HelveticaNeueLTPro-Lt-42"/>
     <use xlink:href="#HelveticaNeueLTPro-Lt-61" x="66.699997"/>
     <use xlink:href="#HelveticaNeueLTPro-Lt-73" x="118.599991"/>
     <use xlink:href="#HelveticaNeueLTPro-Lt-65" x="166.699982"/>
    </g>
   </g>
  </g>
  <g id="axes_2">
   <g id="patch_2">
    <path d="M 226.614608 135.226264 
L 232.066049 135.226264 
L 232.066049 60.888433 
L 226.614608 60.888433 
L 226.614608 135.226264 
z
" style="fill: none"/>
   </g>
   <g id="patch_3">
    <path clip-path="url(#ped65ebf7dc)" style="fill: #ffffff; stroke: #ffffff; stroke-width: 0.01; stroke-linejoin: miter"/>
   </g>
   <g id="patch_4">
    <path d="M 226.614608 135.226264 
L 229.340328 138.943155 
L 232.066049 135.226264 
" style="fill: #440154"/>
   </g>
   <g id="patch_5">
    <path d="M 226.614608 60.888433 
L 229.340328 57.171542 
L 232.066049 60.888433 
" style="fill: #fde725"/>
   </g>
   <g id="QuadMesh_1">
    <path d="M 226.614608 135.226264 
L 232.066049 135.226264 
L 232.066049 129.031445 
L 226.614608 129.031445 
L 226.614608 135.226264 
" clip-path="url(#ped65ebf7dc)" style="fill: #471063"/>
    <path d="M 226.614608 129.031445 
L 232.066049 129.031445 
L 232.066049 122.836625 
L 226.614608 122.836625 
L 226.614608 129.031445 
" clip-path="url(#ped65ebf7dc)" style="fill: #472d7b"/>
    <path d="M 226.614608 122.836625 
L 232.066049 122.836625 
L 232.066049 116.641806 
L 226.614608 116.641806 
L 226.614608 122.836625 
" clip-path="url(#ped65ebf7dc)" style="fill: #404688"/>
    <path d="M 226.614608 116.641806 
L 232.066049 116.641806 
L 232.066049 110.446987 
L 226.614608 110.446987 
L 226.614608 116.641806 
" clip-path="url(#ped65ebf7dc)" style="fill: #365d8d"/>
    <path d="M 226.614608 110.446987 
L 232.066049 110.446987 
L 232.066049 104.252168 
L 226.614608 104.252168 
L 226.614608 110.446987 
" clip-path="url(#ped65ebf7dc)" style="fill: #2c728e"/>
    <path d="M 226.614608 104.252168 
L 232.066049 104.252168 
L 232.066049 98.057349 
L 226.614608 98.057349 
L 226.614608 104.252168 
" clip-path="url(#ped65ebf7dc)" style="fill: #24868e"/>
    <path d="M 226.614608 98.057349 
L 232.066049 98.057349 
L 232.066049 91.862529 
L 226.614608 91.862529 
L 226.614608 98.057349 
" clip-path="url(#ped65ebf7dc)" style="fill: #1f9a8a"/>
    <path d="M 226.614608 91.862529 
L 232.066049 91.862529 
L 232.066049 85.66771 
L 226.614608 85.66771 
L 226.614608 91.862529 
" clip-path="url(#ped65ebf7dc)" style="fill: #27ad81"/>
    <path d="M 226.614608 85.66771 
L 232.066049 85.66771 
L 232.066049 79.472891 
L 226.614608 79.472891 
L 226.614608 85.66771 
" clip-path="url(#ped65ebf7dc)" style="fill: #48c16e"/>
    <path d="M 226.614608 79.472891 
L 232.066049 79.472891 
L 232.066049 73.278072 
L 226.614608 73.278072 
L 226.614608 79.472891 
" clip-path="url(#ped65ebf7dc)" style="fill: #75d054"/>
    <path d="M 226.614608 73.278072 
L 232.066049 73.278072 
L 232.066049 67.083252 
L 226.614608 67.083252 
L 226.614608 73.278072 
" clip-path="url(#ped65ebf7dc)" style="fill: #aadc32"/>
    <path d="M 226.614608 67.083252 
L 232.066049 67.083252 
L 232.066049 60.888433 
L 226.614608 60.888433 
L 226.614608 67.083252 
" clip-path="url(#ped65ebf7dc)" style="fill: #e5e419"/>
   </g>
   <g id="matplotlib.axis_1">
    <g id="ytick_1">
     <g id="line2d_2">
      <defs>
       <path id="m41b976593d" d="M 0 0 
L 3.5 0 
" style="stroke: #000000; stroke-width: 0.8"/>
      </defs>
      <g>
       <use xlink:href="#m41b976593d" x="232.066049" y="135.226264" style="stroke: #000000; stroke-width: 0.8"/>
      </g>
     </g>
     <g id="text_4">
      <!-- 1.605 -->
      <g transform="translate(235.566049 138.796576)scale(0.1 -0.1)">
       <defs>
        <path id="HelveticaNeueLTPro-Lt-31" d="M 621 3328 
L 1805 3328 
L 1805 0 
L 2208 0 
L 2208 4480 
L 1882 4480 
C 1760 3661 1325 3635 621 3616 
L 621 3328 
z
" transform="scale(0.015625)"/>
        <path id="HelveticaNeueLTPro-Lt-2e" d="M 1158 0 
L 1158 678 
L 621 678 
L 621 0 
L 1158 0 
z
" transform="scale(0.015625)"/>
        <path id="HelveticaNeueLTPro-Lt-36" d="M 3232 3347 
C 3136 4134 2650 4518 1856 4518 
C 390 4518 256 2816 256 2285 
C 256 538 736 -96 1824 -96 
C 2714 -96 3341 550 3341 1421 
C 3341 2291 2758 2918 1862 2918 
C 1350 2918 883 2618 672 2176 
L 659 2176 
C 659 2989 845 4179 1894 4179 
C 2413 4179 2758 3840 2829 3347 
L 3232 3347 
z
M 1856 2579 
C 2541 2579 2938 2048 2938 1395 
C 2938 774 2502 243 1862 243 
C 1075 243 742 755 742 1395 
C 742 2054 1152 2579 1856 2579 
z
" transform="scale(0.015625)"/>
        <path id="HelveticaNeueLTPro-Lt-30" d="M 1779 4518 
C 474 4518 218 3258 218 2208 
C 218 1165 474 -96 1779 -96 
C 3085 -96 3341 1165 3341 2214 
C 3341 3258 3085 4518 1779 4518 
z
M 1779 4179 
C 2803 4179 2938 2989 2938 2214 
C 2938 1434 2803 243 1779 243 
C 755 243 621 1434 621 2214 
C 621 2989 755 4179 1779 4179 
z
" transform="scale(0.015625)"/>
        <path id="HelveticaNeueLTPro-Lt-35" d="M 230 1280 
C 250 429 870 -96 1702 -96 
C 2560 -96 3258 550 3258 1421 
C 3258 2323 2675 2970 1754 2970 
C 1402 2970 1030 2816 806 2554 
L 794 2566 
L 1082 4051 
L 3040 4051 
L 3040 4422 
L 800 4422 
L 365 2099 
L 710 2099 
C 934 2438 1306 2630 1709 2630 
C 2374 2630 2854 2125 2854 1466 
C 2854 813 2426 243 1734 243 
C 1120 243 653 659 634 1280 
L 230 1280 
z
" transform="scale(0.015625)"/>
       </defs>
       <use xlink:href="#HelveticaNeueLTPro-Lt-31"/>
       <use xlink:href="#HelveticaNeueLTPro-Lt-2e" x="55.599991"/>
       <use xlink:href="#HelveticaNeueLTPro-Lt-36" x="83.399979"/>
       <use xlink:href="#HelveticaNeueLTPro-Lt-30" x="138.999969"/>
       <use xlink:href="#HelveticaNeueLTPro-Lt-35" x="194.59996"/>
      </g>
     </g>
    </g>
    <g id="ytick_2">
     <g id="line2d_3">
      <g>
       <use xlink:href="#m41b976593d" x="232.066049" y="122.836625" style="stroke: #000000; stroke-width: 0.8"/>
      </g>
     </g>
     <g id="text_5">
      <!-- 1.635 -->
      <g transform="translate(235.566049 126.406938)scale(0.1 -0.1)">
       <defs>
        <path id="HelveticaNeueLTPro-Lt-33" d="M 211 1427 
C 141 467 819 -96 1741 -96 
C 2566 -96 3283 390 3283 1267 
C 3283 1856 2950 2278 2362 2374 
L 2362 2387 
C 2848 2509 3117 2893 3117 3379 
C 3117 4173 2426 4518 1728 4518 
C 858 4518 314 3891 314 3046 
L 717 3046 
C 698 3712 1069 4179 1734 4179 
C 2272 4179 2714 3923 2714 3334 
C 2714 2765 2221 2522 1805 2522 
L 1466 2522 
L 1466 2182 
L 1805 2182 
C 2400 2182 2880 1875 2880 1235 
C 2880 595 2323 243 1734 243 
C 1018 243 582 717 614 1427 
L 211 1427 
z
" transform="scale(0.015625)"/>
       </defs>
       <use xlink:href="#HelveticaNeueLTPro-Lt-31"/>
       <use xlink:href="#HelveticaNeueLTPro-Lt-2e" x="55.599991"/>
       <use xlink:href="#HelveticaNeueLTPro-Lt-36" x="83.399979"/>
       <use xlink:href="#HelveticaNeueLTPro-Lt-33" x="138.999969"/>
       <use xlink:href="#HelveticaNeueLTPro-Lt-35" x="194.59996"/>
      </g>
     </g>
    </g>
    <g id="ytick_3">
     <g id="line2d_4">
      <g>
       <use xlink:href="#m41b976593d" x="232.066049" y="110.446987" style="stroke: #000000; stroke-width: 0.8"/>
      </g>
     </g>
     <g id="text_6">
      <!-- 1.665 -->
      <g transform="translate(235.566049 114.017299)scale(0.1 -0.1)">
       <use xlink:href="#HelveticaNeueLTPro-Lt-31"/>
       <use xlink:href="#HelveticaNeueLTPro-Lt-2e" x="55.599991"/>
       <use xlink:href="#HelveticaNeueLTPro-Lt-36" x="83.399979"/>
       <use xlink:href="#HelveticaNeueLTPro-Lt-36" x="138.999969"/>
       <use xlink:href="#HelveticaNeueLTPro-Lt-35" x="194.59996"/>
      </g>
     </g>
    </g>
    <g id="ytick_4">
     <g id="line2d_5">
      <g>
       <use xlink:href="#m41b976593d" x="232.066049" y="98.057349" style="stroke: #000000; stroke-width: 0.8"/>
      </g>
     </g>
     <g id="text_7">
      <!-- 1.695 -->
      <g transform="translate(235.566049 101.627661)scale(0.1 -0.1)">
       <defs>
        <path id="HelveticaNeueLTPro-Lt-39" d="M 326 1075 
C 422 288 909 -96 1702 -96 
C 3168 -96 3302 1606 3302 2138 
C 3302 3885 2822 4518 1734 4518 
C 845 4518 218 3872 218 3002 
C 218 2131 800 1504 1696 1504 
C 2208 1504 2675 1805 2886 2246 
L 2899 2246 
C 2899 1434 2714 243 1664 243 
C 1146 243 800 582 730 1075 
L 326 1075 
z
M 1702 1843 
C 1018 1843 621 2374 621 3027 
C 621 3648 1056 4179 1696 4179 
C 2483 4179 2816 3667 2816 3027 
C 2816 2368 2406 1843 1702 1843 
z
" transform="scale(0.015625)"/>
       </defs>
       <use xlink:href="#HelveticaNeueLTPro-Lt-31"/>
       <use xlink:href="#HelveticaNeueLTPro-Lt-2e" x="55.599991"/>
       <use xlink:href="#HelveticaNeueLTPro-Lt-36" x="83.399979"/>
       <use xlink:href="#HelveticaNeueLTPro-Lt-39" x="138.999969"/>
       <use xlink:href="#HelveticaNeueLTPro-Lt-35" x="194.59996"/>
      </g>
     </g>
    </g>
    <g id="ytick_5">
     <g id="line2d_6">
      <g>
       <use xlink:href="#m41b976593d" x="232.066049" y="85.66771" style="stroke: #000000; stroke-width: 0.8"/>
      </g>
     </g>
     <g id="text_8">
      <!-- 1.725 -->
      <g transform="translate(235.566049 89.238023)scale(0.1 -0.1)">
       <defs>
        <path id="HelveticaNeueLTPro-Lt-37" d="M 326 4051 
L 2803 4051 
C 1562 2637 1062 1517 960 0 
L 1395 0 
C 1498 2080 2643 3469 3206 4051 
L 3206 4422 
L 326 4422 
L 326 4051 
z
" transform="scale(0.015625)"/>
        <path id="HelveticaNeueLTPro-Lt-32" d="M 3181 371 
L 691 371 
C 794 966 1600 1376 2035 1664 
C 2624 2042 3162 2509 3162 3258 
C 3162 4090 2554 4518 1773 4518 
C 800 4518 320 3853 339 2931 
L 742 2931 
C 723 3590 1018 4179 1754 4179 
C 2298 4179 2758 3846 2758 3264 
C 2758 2906 2637 2669 2387 2419 
C 1632 1664 256 1331 230 0 
L 3181 0 
L 3181 371 
z
" transform="scale(0.015625)"/>
       </defs>
       <use xlink:href="#HelveticaNeueLTPro-Lt-31"/>
       <use xlink:href="#HelveticaNeueLTPro-Lt-2e" x="55.599991"/>
       <use xlink:href="#HelveticaNeueLTPro-Lt-37" x="83.399979"/>
       <use xlink:href="#HelveticaNeueLTPro-Lt-32" x="138.999969"/>
       <use xlink:href="#HelveticaNeueLTPro-Lt-35" x="194.59996"/>
      </g>
     </g>
    </g>
    <g id="ytick_6">
     <g id="line2d_7">
      <g>
       <use xlink:href="#m41b976593d" x="232.066049" y="73.278072" style="stroke: #000000; stroke-width: 0.8"/>
      </g>
     </g>
     <g id="text_9">
      <!-- 1.755 -->
      <g transform="translate(235.566049 76.848384)scale(0.1 -0.1)">
       <use xlink:href="#HelveticaNeueLTPro-Lt-31"/>
       <use xlink:href="#HelveticaNeueLTPro-Lt-2e" x="55.599991"/>
       <use xlink:href="#HelveticaNeueLTPro-Lt-37" x="83.399979"/>
       <use xlink:href="#HelveticaNeueLTPro-Lt-35" x="138.999969"/>
       <use xlink:href="#HelveticaNeueLTPro-Lt-35" x="194.59996"/>
      </g>
     </g>
    </g>
    <g id="ytick_7">
     <g id="line2d_8">
      <g>
       <use xlink:href="#m41b976593d" x="232.066049" y="60.888433" style="stroke: #000000; stroke-width: 0.8"/>
      </g>
     </g>
     <g id="text_10">
      <!-- 1.785 -->
      <g transform="translate(235.566049 64.458746)scale(0.1 -0.1)">
       <defs>
        <path id="HelveticaNeueLTPro-Lt-38" d="M 1779 2566 
C 1299 2547 819 2803 819 3398 
C 819 3910 1286 4179 1779 4179 
C 2317 4179 2733 3910 2733 3398 
C 2733 2822 2272 2547 1779 2566 
z
M 3136 3398 
C 3136 4166 2438 4518 1773 4518 
C 1107 4518 416 4166 416 3398 
C 416 2906 678 2560 1146 2413 
L 1146 2400 
C 589 2298 256 1843 237 1254 
C 237 352 934 -96 1779 -96 
C 2624 -96 3322 352 3322 1254 
C 3322 1862 2989 2278 2406 2400 
L 2406 2413 
C 2867 2547 3136 2912 3136 3398 
z
M 1779 243 
C 1146 243 640 582 640 1254 
C 640 1907 1165 2246 1779 2227 
C 2381 2246 2918 1894 2918 1254 
C 2918 563 2413 243 1779 243 
z
" transform="scale(0.015625)"/>
       </defs>
       <use xlink:href="#HelveticaNeueLTPro-Lt-31"/>
       <use xlink:href="#HelveticaNeueLTPro-Lt-2e" x="55.599991"/>
       <use xlink:href="#HelveticaNeueLTPro-Lt-37" x="83.399979"/>
       <use xlink:href="#HelveticaNeueLTPro-Lt-38" x="138.999969"/>
       <use xlink:href="#HelveticaNeueLTPro-Lt-35" x="194.59996"/>
      </g>
     </g>
    </g>
    <g id="text_11">
     <!-- H2 Consumption [t h$^{-1}$] -->
     <g transform="translate(272.043236 153.332349)rotate(-90)scale(0.11 -0.11)">
      <defs>
       <path id="HelveticaNeueLTPro-Lt-43" d="M 4237 3187 
C 4115 4141 3270 4666 2400 4666 
C 960 4666 243 3539 243 2285 
C 243 1030 960 -96 2400 -96 
C 3469 -96 4179 614 4301 1741 
L 3866 1741 
C 3782 928 3245 275 2400 275 
C 1190 275 678 1286 678 2285 
C 678 3283 1190 4294 2400 4294 
C 3066 4294 3648 3891 3802 3187 
L 4237 3187 
z
" transform="scale(0.015625)"/>
       <path id="HelveticaNeueLTPro-Lt-6f" d="M 1779 3059 
C 2547 3059 2938 2349 2938 1651 
C 2938 954 2547 243 1779 243 
C 1011 243 621 954 621 1651 
C 621 2349 1011 3059 1779 3059 
z
M 1779 3398 
C 774 3398 218 2598 218 1651 
C 218 704 774 -96 1779 -96 
C 2784 -96 3341 704 3341 1651 
C 3341 2598 2784 3398 1779 3398 
z
" transform="scale(0.015625)"/>
       <path id="HelveticaNeueLTPro-Lt-75" d="M 3059 3302 
L 2656 3302 
L 2656 1568 
C 2656 896 2355 243 1664 243 
C 1024 243 800 557 781 1152 
L 781 3302 
L 378 3302 
L 378 1158 
C 378 384 698 -96 1536 -96 
C 2029 -96 2464 154 2675 595 
L 2688 595 
L 2688 0 
L 3059 0 
L 3059 3302 
z
" transform="scale(0.015625)"/>
       <path id="HelveticaNeueLTPro-Lt-6d" d="M 384 0 
L 787 0 
L 787 1843 
C 787 2534 1082 3059 1773 3059 
C 2291 3059 2464 2688 2464 2240 
L 2464 0 
L 2867 0 
L 2867 1869 
C 2867 2483 3066 3059 3763 3059 
C 4346 3059 4544 2765 4544 2221 
L 4544 0 
L 4947 0 
L 4947 2240 
C 4947 3014 4582 3398 3853 3398 
C 3418 3398 3002 3187 2803 2752 
C 2682 3187 2291 3398 1856 3398 
C 1325 3398 986 3149 774 2746 
L 755 2746 
L 755 3302 
L 384 3302 
L 384 0 
z
" transform="scale(0.015625)"/>
       <path id="HelveticaNeueLTPro-Lt-70" d="M 384 -1222 
L 787 -1222 
L 787 627 
L 800 627 
C 973 147 1459 -96 1946 -96 
C 2950 -96 3430 710 3430 1651 
C 3430 2592 2950 3398 1946 3398 
C 1408 3398 954 3130 768 2675 
L 755 2675 
L 755 3302 
L 384 3302 
L 384 -1222 
z
M 3027 1651 
C 3027 966 2714 243 1946 243 
C 1094 243 787 966 787 1651 
C 787 2400 1050 3059 1946 3059 
C 2714 3059 3027 2336 3027 1651 
z
" transform="scale(0.015625)"/>
       <path id="HelveticaNeueLTPro-Lt-5b" d="M 1517 -1222 
L 1517 -883 
L 890 -883 
L 890 4326 
L 1517 4326 
L 1517 4666 
L 486 4666 
L 486 -1222 
L 1517 -1222 
z
" transform="scale(0.015625)"/>
       <path id="HelveticaNeueLTPro-Lt-2212" d="M 3533 1779 
L 314 1779 
L 314 1440 
L 3533 1440 
L 3533 1779 
z
" transform="scale(0.015625)"/>
       <path id="HelveticaNeueLTPro-Lt-5d" d="M 26 4666 
L 26 4326 
L 653 4326 
L 653 -883 
L 26 -883 
L 26 -1222 
L 1056 -1222 
L 1056 4666 
L 26 4666 
z
" transform="scale(0.015625)"/>
      </defs>
      <use xlink:href="#HelveticaNeueLTPro-Lt-48" transform="translate(0 0.884375)"/>
      <use xlink:href="#HelveticaNeueLTPro-Lt-32" transform="translate(70.399994 0.884375)"/>
      <use xlink:href="#HelveticaNeueLTPro-Lt-20" transform="translate(125.999985 0.884375)"/>
      <use xlink:href="#HelveticaNeueLTPro-Lt-43" transform="translate(153.799973 0.884375)"/>
      <use xlink:href="#HelveticaNeueLTPro-Lt-6f" transform="translate(224.199966 0.884375)"/>
      <use xlink:href="#HelveticaNeueLTPro-Lt-6e" transform="translate(279.799957 0.884375)"/>
      <use xlink:href="#HelveticaNeueLTPro-Lt-73" transform="translate(333.499954 0.884375)"/>
      <use xlink:href="#HelveticaNeueLTPro-Lt-75" transform="translate(381.599945 0.884375)"/>
      <use xlink:href="#HelveticaNeueLTPro-Lt-6d" transform="translate(435.299942 0.884375)"/>
      <use xlink:href="#HelveticaNeueLTPro-Lt-70" transform="translate(518.59993 0.884375)"/>
      <use xlink:href="#HelveticaNeueLTPro-Lt-74" transform="translate(575.999924 0.884375)"/>
      <use xlink:href="#HelveticaNeueLTPro-Lt-69" transform="translate(605.599915 0.884375)"/>
      <use xlink:href="#HelveticaNeueLTPro-Lt-6f" transform="translate(624.099899 0.884375)"/>
      <use xlink:href="#HelveticaNeueLTPro-Lt-6e" transform="translate(679.69989 0.884375)"/>
      <use xlink:href="#HelveticaNeueLTPro-Lt-20" transform="translate(733.399887 0.884375)"/>
      <use xlink:href="#HelveticaNeueLTPro-Lt-5b" transform="translate(761.199875 0.884375)"/>
      <use xlink:href="#HelveticaNeueLTPro-Lt-74" transform="translate(785.299866 0.884375)"/>
      <use xlink:href="#HelveticaNeueLTPro-Lt-20" transform="translate(814.899857 0.884375)"/>
      <use xlink:href="#HelveticaNeueLTPro-Lt-68" transform="translate(842.699844 0.884375)"/>
      <use xlink:href="#HelveticaNeueLTPro-Lt-2212" transform="translate(897.302732 37)scale(0.7)"/>
      <use xlink:href="#HelveticaNeueLTPro-Lt-31" transform="translate(939.302721 37)scale(0.7)"/>
      <use xlink:href="#HelveticaNeueLTPro-Lt-5d" transform="translate(980.802402 0.884375)"/>
     </g>
    </g>
   </g>
   <g id="LineCollection_1"/>
   <g id="patch_6">
    <path d="M 226.614608 135.226264 
L 229.340328 138.943155 
L 232.066049 135.226264 
L 232.066049 60.888433 
L 229.340328 57.171542 
L 226.614608 60.888433 
L 226.614608 135.226264 
z
" style="fill: none; stroke: #000000; stroke-width: 0.8; stroke-linejoin: miter; stroke-linecap: square"/>
   </g>
  </g>
 </g>
 <defs>
  <clipPath id="p8e7dc965d0">
   <rect x="55.467414" y="7.2" width="155.039223" height="181.714697"/>
  </clipPath>
  <clipPath id="ped65ebf7dc">
   <rect x="226.614608" y="60.888433" width="5.451441" height="74.337831"/>
  </clipPath>
 </defs>
</svg>
