<?xml version="1.0" encoding="utf-8" standalone="no"?>
<!DOCTYPE svg PUBLIC "-//W3C//DTD SVG 1.1//EN"
  "http://www.w3.org/Graphics/SVG/1.1/DTD/svg11.dtd">
<svg xmlns:xlink="http://www.w3.org/1999/xlink" width="282.201434pt" height="278.4pt" viewBox="0 0 282.201434 278.4" xmlns="http://www.w3.org/2000/svg" version="1.1">
 <metadata>
  <rdf:RDF xmlns:dc="http://purl.org/dc/elements/1.1/" xmlns:cc="http://creativecommons.org/ns#" xmlns:rdf="http://www.w3.org/1999/02/22-rdf-syntax-ns#">
   <cc:Work>
    <dc:type rdf:resource="http://purl.org/dc/dcmitype/StillImage"/>
    <dc:date>2026-02-11T13:05:07.576827</dc:date>
    <dc:format>image/svg+xml</dc:format>
    <dc:creator>
     <cc:Agent>
      <dc:title>Matplotlib v3.5.3, https://matplotlib.org/</dc:title>
     </cc:Agent>
    </dc:creator>
   </cc:Work>
  </rdf:RDF>
 </metadata>
 <defs>
  <style type="text/css">*{stroke-linejoin: round; stroke-linecap: butt}</style>
 </defs>
 <g id="figure_1">
  <g id="patch_1">
   <path d="M 0 278.4 
L 282.201434 278.4 
L 282.201434 0 
L 0 0 
z
" style="fill: #ffffff"/>
  </g>
  <g id="axes_1">
   <g id="PathCollection_1">
    <path d="M 139.462388 77.671793 
L 144.15988 87.362903 
L 144.455616 87.947705 
L 145.17461 89.354498 
L 148.589885 95.778768 
L 149.452619 97.363168 
L 152.112767 102.173121 
L 153.291729 104.232667 
L 165.725453 125.117562 
L 166.142795 125.816468 
L 166.458265 126.315357 
L 166.915302 127.042143 
L 174.755244 139.131791 
L 175.029345 139.552432 
L 176.085905 141.105586 
L 174.985715 139.2 
L 167.621958 126.4456 
L 152.894445 100.936799 
L 145.530689 88.182399 
" clip-path="url(#pf6a7c04689)" style="fill: #fcfdbf"/>
   </g>
   <g id="PathCollection_2">
    <path d="M 176.085905 141.105586 
L 175.029345 139.552432 
L 174.755244 139.131791 
L 166.915302 127.042143 
L 166.458265 126.315357 
L 166.142795 125.816468 
L 165.725453 125.117562 
L 153.291729 104.232667 
L 152.112767 102.173121 
L 149.452619 97.363168 
L 148.589885 95.778768 
L 145.17461 89.354498 
L 144.455616 87.947705 
L 144.15988 87.362903 
L 139.462388 77.671793 
L 138.166933 75.427999 
L 130.803176 88.182399 
L 130.391938 88.894684 
L 131.553034 91.244412 
L 131.871731 91.851802 
L 136.612927 100.768321 
L 142.199539 111.155602 
L 143.193237 112.992789 
L 144.026016 114.426688 
L 145.71818 117.34253 
L 149.175072 123.220608 
L 150.950615 126.205959 
L 154.739624 132.379148 
L 156.308236 134.847207 
L 158.159399 137.803407 
L 161.567327 143.047241 
L 167.371893 151.870538 
L 167.993778 152.844329 
L 169.552853 155.137815 
L 171.156479 157.476023 
L 174.916572 163.018748 
L 177.458672 166.717265 
L 179.851186 170.266034 
L 180.972984 171.837909 
L 182.275902 173.689814 
L 185.874286 178.769058 
L 186.922172 180.262308 
L 187.518173 181.11652 
L 194.078756 190.549039 
L 196.042514 193.37144 
L 197.594379 195.569315 
L 199.929359 198.830872 
L 201.720478 201.326673 
L 202.379704 202.251285 
L 202.795565 202.832653 
L 202.825187 202.872443 
L 202.90475 202.972001 
L 211.804497 202.972001 
L 204.44074 190.217601 
L 197.076984 177.463201 
L 189.713227 164.7088 
L 182.349471 151.9544 
" clip-path="url(#pf6a7c04689)" style="fill: #fdebac"/>
   </g>
   <g id="PathCollection_3">
    <path d="M 202.90475 202.972001 
L 202.825187 202.872443 
L 202.795565 202.832653 
L 202.379704 202.251285 
L 201.720478 201.326673 
L 199.929359 198.830872 
L 197.594379 195.569315 
L 196.042514 193.37144 
L 194.078756 190.549039 
L 187.518173 181.11652 
L 186.922172 180.262308 
L 185.874286 178.769058 
L 182.275902 173.689814 
L 180.972984 171.837909 
L 179.851186 170.266034 
L 177.458672 166.717265 
L 174.916572 163.018748 
L 171.156479 157.476023 
L 169.552853 155.137815 
L 167.993778 152.844329 
L 167.371893 151.870538 
L 161.567327 143.047241 
L 158.159399 137.803407 
L 156.308236 134.847207 
L 154.739624 132.379148 
L 150.950615 126.205959 
L 149.175072 123.220608 
L 145.71818 117.34253 
L 144.026016 114.426688 
L 143.193237 112.992789 
L 142.199539 111.155602 
L 136.612927 100.768321 
L 131.871731 91.851802 
L 131.553034 91.244412 
L 130.391938 88.894684 
L 123.43942 100.936799 
L 122.850113 101.957508 
L 123.010723 102.31894 
L 127.151525 110.153846 
L 127.97451 111.692334 
L 129.603669 114.614294 
L 131.026703 117.139657 
L 134.495424 123.176733 
L 135.597858 125.076022 
L 135.924493 125.637258 
L 138.682967 130.24345 
L 140.837063 133.839092 
L 143.721112 138.376865 
L 150.023912 148.442068 
L 153.382496 153.667948 
L 153.906233 154.505278 
L 154.923894 156.14851 
L 156.260191 158.129938 
L 161.438284 165.987166 
L 161.549332 166.152297 
L 161.877171 166.643946 
L 164.702529 170.727831 
L 165.481209 171.86448 
L 172.893129 182.471971 
L 174.818434 185.381506 
L 177.750068 189.837515 
L 178.010762 190.214992 
L 180.331809 193.572495 
L 182.563175 196.708939 
L 186.312401 202.093026 
L 186.950183 202.972001 
L 189.351871 202.972001 
L 201.460548 202.972001 
L 202.355704 202.972001 
" clip-path="url(#pf6a7c04689)" style="fill: #fec488"/>
   </g>
   <g id="PathCollection_4">
    <path d="M 186.950183 202.972001 
L 186.312401 202.093026 
L 182.563175 196.708939 
L 180.331809 193.572495 
L 178.010762 190.214992 
L 177.750068 189.837515 
L 174.818434 185.381506 
L 172.893129 182.471971 
L 165.481209 171.86448 
L 164.702529 170.727831 
L 161.877171 166.643946 
L 161.549332 166.152297 
L 161.438284 165.987166 
L 156.260191 158.129938 
L 154.923894 156.14851 
L 153.906233 154.505278 
L 153.382496 153.667948 
L 150.023912 148.442068 
L 143.721112 138.376865 
L 140.837063 133.839092 
L 138.682967 130.24345 
L 135.924493 125.637258 
L 135.597858 125.076022 
L 134.495424 123.176733 
L 131.026703 117.139657 
L 129.603669 114.614294 
L 127.97451 111.692334 
L 127.151525 110.153846 
L 123.010723 102.31894 
L 122.850113 101.957508 
L 115.751358 114.252912 
L 116.967878 116.990534 
L 117.730787 118.403926 
L 119.196505 121.087213 
L 122.29814 126.595672 
L 122.907577 127.650984 
L 124.894656 131.043853 
L 126.121875 133.107805 
L 128.462729 137.024553 
L 129.045305 137.994684 
L 130.380799 140.191826 
L 135.252032 147.917501 
L 138.720875 153.513052 
L 140.512717 156.301118 
L 141.670157 158.151585 
L 142.883888 160.018269 
L 144.300028 162.201518 
L 146.102157 164.922729 
L 146.741631 165.886415 
L 155.455901 178.934427 
L 156.575827 180.672484 
L 159.522115 185.029017 
L 160.74057 186.80761 
L 160.991787 187.167136 
L 161.578065 188.053124 
L 161.64455 188.150692 
L 166.323429 194.92685 
L 166.84428 195.716123 
L 166.964727 195.89598 
L 167.424537 196.577698 
L 167.587225 196.817583 
L 169.377354 199.43667 
L 171.126555 201.971072 
L 171.751413 202.888598 
L 171.808655 202.972001 
L 172.33184 202.972001 
" clip-path="url(#pf6a7c04689)" style="fill: #fd9b6b"/>
   </g>
   <g id="PathCollection_5">
    <path d="M 171.808655 202.972001 
L 171.751413 202.888598 
L 171.126555 201.971072 
L 169.377354 199.43667 
L 167.587225 196.817583 
L 167.424537 196.577698 
L 166.964727 195.89598 
L 166.84428 195.716123 
L 166.323429 194.92685 
L 161.64455 188.150692 
L 161.578065 188.053124 
L 160.991787 187.167136 
L 160.74057 186.80761 
L 159.522115 185.029017 
L 156.575827 180.672484 
L 155.455901 178.934427 
L 146.741631 165.886415 
L 146.102157 164.922729 
L 144.300028 162.201518 
L 142.883888 160.018269 
L 141.670157 158.151585 
L 140.512717 156.301118 
L 138.720875 153.513052 
L 135.252032 147.917501 
L 130.380799 140.191826 
L 129.045305 137.994684 
L 128.462729 137.024553 
L 126.121875 133.107805 
L 124.894656 131.043853 
L 122.907577 127.650984 
L 122.29814 126.595672 
L 119.196505 121.087213 
L 117.730787 118.403926 
L 116.967878 116.990534 
L 115.751358 114.252912 
L 108.711907 126.4456 
L 108.657332 126.540127 
L 108.767043 126.729609 
L 115.176036 137.686572 
L 115.833201 138.755637 
L 120.706416 146.802477 
L 121.745712 148.496803 
L 123.861898 151.893254 
L 128.84678 159.765211 
L 130.812745 162.783926 
L 132.718892 165.694048 
L 134.124577 167.624483 
L 142.331285 179.906537 
L 143.669592 181.833707 
L 147.503289 187.639556 
L 149.988749 191.486039 
L 150.215497 191.841652 
L 150.602601 192.445191 
L 150.664542 192.541405 
L 151.051928 193.141028 
L 151.175242 193.331235 
L 151.412725 193.696697 
L 151.643748 194.051254 
L 153.959503 197.416675 
L 155.329528 199.556986 
L 155.367698 199.615893 
L 156.110308 200.756095 
L 156.723758 201.691053 
L 156.909468 201.973086 
L 157.368188 202.667919 
L 157.569453 202.972001 
L 157.644007 202.972001 
L 157.691317 202.972001 
L 159.966919 202.972001 
L 164.09679 202.972001 
L 164.735869 202.972001 
L 166.594349 202.972001 
L 167.095401 202.972001 
L 170.181965 202.972001 
L 171.70181 202.972001 
" clip-path="url(#pf6a7c04689)" style="fill: #f8745c"/>
   </g>
   <g id="PathCollection_6">
    <path d="M 157.569453 202.972001 
L 157.368188 202.667919 
L 156.909468 201.973086 
L 156.723758 201.691053 
L 156.110308 200.756095 
L 155.367698 199.615893 
L 155.329528 199.556986 
L 153.959503 197.416675 
L 151.643748 194.051254 
L 151.412725 193.696697 
L 151.175242 193.331235 
L 151.051928 193.141028 
L 150.664542 192.541405 
L 150.602601 192.445191 
L 150.215497 191.841652 
L 149.988749 191.486039 
L 147.503289 187.639556 
L 143.669592 181.833707 
L 142.331285 179.906537 
L 134.124577 167.624483 
L 132.718892 165.694048 
L 130.812745 162.783926 
L 128.84678 159.765211 
L 123.861898 151.893254 
L 121.745712 148.496803 
L 120.706416 146.802477 
L 115.833201 138.755637 
L 115.176036 137.686572 
L 108.767043 126.729609 
L 108.657332 126.540127 
L 102.124596 137.855158 
L 103.126037 139.584751 
L 105.289123 143.174791 
L 108.905493 149.066347 
L 109.499316 150.015555 
L 110.633824 151.811595 
L 115.859341 159.843293 
L 118.755539 164.498011 
L 119.98371 166.540399 
L 121.444696 168.836606 
L 124.97354 174.269222 
L 125.752574 175.339074 
L 127.36421 177.751028 
L 130.494392 182.258507 
L 139.461066 195.837869 
L 143.210462 201.640412 
L 143.797964 202.525002 
L 144.015153 202.850136 
L 144.037897 202.884149 
L 144.096734 202.972001 
L 144.182949 202.972001 
L 144.217305 202.972001 
L 144.575399 202.972001 
L 145.932117 202.972001 
L 146.664282 202.972001 
L 147.802295 202.972001 
L 147.972648 202.972001 
L 148.973269 202.972001 
L 149.270239 202.972001 
L 149.815773 202.972001 
L 150.315699 202.972001 
L 153.864445 202.972001 
L 153.945221 202.972001 
L 155.373455 202.972001 
L 156.380264 202.972001 
L 156.659434 202.972001 
L 157.304618 202.972001 
" clip-path="url(#pf6a7c04689)" style="fill: #e75263"/>
   </g>
   <g id="PathCollection_7">
    <path d="M 144.096734 202.972001 
L 144.037897 202.884149 
L 144.015153 202.850136 
L 143.797964 202.525002 
L 143.210462 201.640412 
L 139.461066 195.837869 
L 130.494392 182.258507 
L 127.36421 177.751028 
L 125.752574 175.339074 
L 124.97354 174.269222 
L 121.444696 168.836606 
L 119.98371 166.540399 
L 118.755539 164.498011 
L 115.859341 159.843293 
L 110.633824 151.811595 
L 109.499316 150.015555 
L 108.905493 149.066347 
L 105.289123 143.174791 
L 103.126037 139.584751 
L 102.124596 137.855158 
L 101.348151 139.2 
L 95.986005 148.487509 
L 98.47117 152.643736 
L 98.963358 153.445578 
L 103.369319 160.488368 
L 103.48378 160.66957 
L 109.167851 169.464251 
L 109.853826 170.520992 
L 112.267271 174.187294 
L 113.287233 175.635105 
L 114.356526 177.222739 
L 118.776051 183.878475 
L 120.193967 185.96195 
L 122.685641 189.790953 
L 123.030351 190.331185 
L 128.396801 198.458593 
L 128.434837 198.521313 
L 128.448524 198.543767 
L 128.656691 198.879541 
L 128.832792 199.159943 
L 128.870088 199.218301 
L 129.006421 199.430506 
L 129.176038 199.692425 
L 129.245724 199.800248 
L 129.685965 200.471732 
L 130.266403 201.348452 
L 130.705817 202.008422 
L 130.833182 202.199293 
L 131.010062 202.464138 
L 131.094466 202.590416 
L 131.349767 202.972001 
L 131.437166 202.972001 
L 131.640333 202.972001 
L 131.950407 202.972001 
L 132.010758 202.972001 
L 132.356321 202.972001 
L 132.802682 202.972001 
L 133.015269 202.972001 
L 133.209046 202.972001 
L 133.430923 202.972001 
L 133.683305 202.972001 
L 135.963973 202.972001 
L 136.231867 202.972001 
L 136.373627 202.972001 
L 137.452548 202.972001 
L 138.201137 202.972001 
L 138.34654 202.972001 
L 138.454661 202.972001 
L 138.690531 202.972001 
L 139.302875 202.972001 
L 140.040647 202.972001 
L 140.07655 202.972001 
L 140.825062 202.972001 
L 141.441139 202.972001 
L 141.789636 202.972001 
L 141.999004 202.972001 
L 142.762828 202.972001 
L 142.779891 202.972001 
L 143.794075 202.972001 
" clip-path="url(#pf6a7c04689)" style="fill: #c73d73"/>
   </g>
   <g id="PathCollection_8">
    <path d="M 131.349767 202.972001 
L 131.094466 202.590416 
L 131.010062 202.464138 
L 130.833182 202.199293 
L 130.705817 202.008422 
L 130.266403 201.348452 
L 129.685965 200.471732 
L 129.245724 199.800248 
L 129.176038 199.692425 
L 129.006421 199.430506 
L 128.870088 199.218301 
L 128.832792 199.159943 
L 128.656691 198.879541 
L 128.448524 198.543767 
L 128.434837 198.521313 
L 128.396801 198.458593 
L 123.030351 190.331185 
L 122.685641 189.790953 
L 120.193967 185.96195 
L 118.776051 183.878475 
L 114.356526 177.222739 
L 113.287233 175.635105 
L 112.267271 174.187294 
L 109.853826 170.520992 
L 109.167851 169.464251 
L 103.48378 160.66957 
L 103.369319 160.488368 
L 98.963358 153.445578 
L 98.47117 152.643736 
L 95.986005 148.487509 
L 93.984394 151.9544 
L 90.233815 158.450594 
L 90.591694 159.061813 
L 91.254914 160.206193 
L 92.863163 162.835494 
L 95.724668 167.314899 
L 95.974754 167.692632 
L 96.652125 168.688166 
L 98.295779 171.268337 
L 102.229587 177.260911 
L 103.021981 178.472892 
L 103.694059 179.538272 
L 103.886954 179.829298 
L 104.102619 180.135429 
L 107.835653 185.678055 
L 108.504533 186.685377 
L 112.748514 192.921451 
L 118.206267 201.308486 
L 118.575616 201.864582 
L 119.31656 202.972001 
L 120.002257 202.972001 
L 120.445966 202.972001 
L 121.584387 202.972001 
L 122.029329 202.972001 
L 122.181761 202.972001 
L 124.108135 202.972001 
L 125.330746 202.972001 
L 125.55348 202.972001 
L 126.28678 202.972001 
L 127.054542 202.972001 
L 127.333465 202.972001 
L 128.7285 202.972001 
L 129.959898 202.972001 
L 130.624945 202.972001 
L 130.788223 202.972001 
L 130.997251 202.972001 
L 131.090447 202.972001 
" clip-path="url(#pf6a7c04689)" style="fill: #a5317e"/>
   </g>
   <g id="PathCollection_9">
    <path d="M 119.31656 202.972001 
L 118.575616 201.864582 
L 118.206267 201.308486 
L 112.748514 192.921451 
L 108.504533 186.685377 
L 107.835653 185.678055 
L 104.102619 180.135429 
L 103.886954 179.829298 
L 103.694059 179.538272 
L 103.021981 178.472892 
L 102.229587 177.260911 
L 98.295779 171.268337 
L 96.652125 168.688166 
L 95.974754 167.692632 
L 95.724668 167.314899 
L 92.863163 162.835494 
L 91.254914 160.206193 
L 90.591694 159.061813 
L 90.233815 158.450594 
L 86.620638 164.7088 
L 84.834455 167.80256 
L 86.686582 170.691422 
L 91.009645 177.045033 
L 94.023957 181.776835 
L 98.978848 189.140288 
L 103.120047 195.733477 
L 103.355658 196.088641 
L 103.596442 196.453469 
L 107.354158 202.018118 
L 107.58278 202.370814 
L 107.881866 202.83035 
L 107.974642 202.972001 
L 108.849316 202.972001 
L 109.37847 202.972001 
L 113.604883 202.972001 
L 115.687304 202.972001 
L 117.380737 202.972001 
" clip-path="url(#pf6a7c04689)" style="fill: #832681"/>
   </g>
   <g id="PathCollection_10">
    <path d="M 107.974642 202.972001 
L 107.881866 202.83035 
L 107.58278 202.370814 
L 107.354158 202.018118 
L 103.596442 196.453469 
L 103.355658 196.088641 
L 103.120047 195.733477 
L 98.978848 189.140288 
L 94.023957 181.776835 
L 91.009645 177.045033 
L 86.686582 170.691422 
L 84.834455 167.80256 
L 79.781655 176.554267 
L 81.426877 179.120408 
L 84.898075 184.142904 
L 86.296437 186.27209 
L 89.251762 190.845929 
L 95.215552 199.818572 
L 95.52962 200.284505 
L 95.652816 200.470178 
L 95.703581 200.546407 
L 96.573678 201.841931 
L 96.770376 202.136915 
L 97.350651 202.972001 
L 101.946033 202.972001 
L 102.124565 202.972001 
L 102.392469 202.972001 
L 104.488602 202.972001 
L 105.065411 202.972001 
L 106.907794 202.972001 
L 106.952863 202.972001 
L 107.362082 202.972001 
L 107.838707 202.972001 
" clip-path="url(#pf6a7c04689)" style="fill: #601880"/>
   </g>
   <g id="PathCollection_11">
    <path d="M 97.350651 202.972001 
L 96.770376 202.136915 
L 96.573678 201.841931 
L 95.703581 200.546407 
L 95.652816 200.470178 
L 95.52962 200.284505 
L 95.215552 199.818572 
L 89.251762 190.845929 
L 86.296437 186.27209 
L 84.898075 184.142904 
L 81.426877 179.120408 
L 79.781655 176.554267 
L 79.256881 177.463201 
L 75.232784 184.433141 
L 77.439919 187.626657 
L 84.250829 197.997142 
L 87.141716 202.471252 
L 87.484471 202.972001 
L 93.56623 202.972001 
L 94.461237 202.972001 
L 95.068296 202.972001 
L 95.267001 202.972001 
L 96.265781 202.972001 
" clip-path="url(#pf6a7c04689)" style="fill: #3f0f72"/>
   </g>
   <g id="PathCollection_12">
    <path d="M 70.889137 191.95656 
L 78.447192 202.972001 
L 83.382892 202.972001 
L 87.484471 202.972001 
L 87.141716 202.471252 
L 84.250829 197.997142 
L 77.439919 187.626657 
L 75.232784 184.433141 
L 71.893125 190.217601 
" clip-path="url(#pf6a7c04689)" style="fill: #1c1044"/>
   </g>
   <g id="PathCollection_13">
    <path d="M 66.971562 198.741998 
L 69.873906 202.972001 
L 78.447192 202.972001 
L 70.889137 191.95656 
" clip-path="url(#pf6a7c04689)" style="fill: #050416"/>
   </g>
   <g id="PathCollection_14">
    <path d="M 69.873906 202.972001 
L 66.971562 198.741998 
L 64.529369 202.972001 
" clip-path="url(#pf6a7c04689)" style="fill: #000004"/>
   </g>
   <g id="line2d_1">
    <path d="M 64.529369 202.972001 
L 211.804497 202.972001 
L 138.166933 75.427999 
L 64.529369 202.972001 
" clip-path="url(#pf6a7c04689)" style="fill: none; stroke: #000000; stroke-width: 2; stroke-linecap: square"/>
   </g>
   <g id="PathCollection_15"/>
   <g id="PathCollection_16">
    <path d="M 176.085905 141.105586 
L 175.029345 139.552432 
L 174.755244 139.131791 
L 166.915302 127.042143 
L 166.458265 126.315357 
L 166.142795 125.816468 
L 165.725453 125.117562 
L 153.291729 104.232667 
L 152.112767 102.173121 
L 149.452619 97.363168 
L 148.589885 95.778768 
L 145.17461 89.354498 
L 144.455616 87.947705 
L 144.15988 87.362903 
L 139.462388 77.671793 
" clip-path="url(#pf6a7c04689)" style="fill: none; stroke: #000000; stroke-opacity: 0.3; stroke-width: 0.5"/>
   </g>
   <g id="PathCollection_17">
    <path d="M 202.90475 202.972001 
L 202.825187 202.872443 
L 202.795565 202.832653 
L 202.379704 202.251285 
L 201.720478 201.326673 
L 199.929359 198.830872 
L 197.594379 195.569315 
L 196.042514 193.37144 
L 194.078756 190.549039 
L 187.518173 181.11652 
L 186.922172 180.262308 
L 185.874286 178.769058 
L 182.275902 173.689814 
L 180.972984 171.837909 
L 179.851186 170.266034 
L 177.458672 166.717265 
L 174.916572 163.018748 
L 171.156479 157.476023 
L 169.552853 155.137815 
L 167.993778 152.844329 
L 167.371893 151.870538 
L 161.567327 143.047241 
L 158.159399 137.803407 
L 156.308236 134.847207 
L 154.739624 132.379148 
L 150.950615 126.205959 
L 149.175072 123.220608 
L 145.71818 117.34253 
L 144.026016 114.426688 
L 143.193237 112.992789 
L 142.199539 111.155602 
L 136.612927 100.768321 
L 131.871731 91.851802 
L 131.553034 91.244412 
L 130.391938 88.894684 
" clip-path="url(#pf6a7c04689)" style="fill: none; stroke: #000000; stroke-opacity: 0.3; stroke-width: 0.5"/>
   </g>
   <g id="PathCollection_18">
    <path d="M 186.950183 202.972001 
L 186.312401 202.093026 
L 182.563175 196.708939 
L 180.331809 193.572495 
L 178.010762 190.214992 
L 177.750068 189.837515 
L 174.818434 185.381506 
L 172.893129 182.471971 
L 165.481209 171.86448 
L 164.702529 170.727831 
L 161.877171 166.643946 
L 161.549332 166.152297 
L 161.438284 165.987166 
L 156.260191 158.129938 
L 154.923894 156.14851 
L 153.906233 154.505278 
L 153.382496 153.667948 
L 150.023912 148.442068 
L 143.721112 138.376865 
L 140.837063 133.839092 
L 138.682967 130.24345 
L 135.924493 125.637258 
L 135.597858 125.076022 
L 134.495424 123.176733 
L 131.026703 117.139657 
L 129.603669 114.614294 
L 127.97451 111.692334 
L 127.151525 110.153846 
L 123.010723 102.31894 
L 122.850113 101.957508 
" clip-path="url(#pf6a7c04689)" style="fill: none; stroke: #000000; stroke-opacity: 0.3; stroke-width: 0.5"/>
   </g>
   <g id="PathCollection_19">
    <path d="M 171.808655 202.972001 
L 171.751413 202.888598 
L 171.126555 201.971072 
L 169.377354 199.43667 
L 167.587225 196.817583 
L 167.424537 196.577698 
L 166.964727 195.89598 
L 166.84428 195.716123 
L 166.323429 194.92685 
L 161.64455 188.150692 
L 161.578065 188.053124 
L 160.991787 187.167136 
L 160.74057 186.80761 
L 159.522115 185.029017 
L 156.575827 180.672484 
L 155.455901 178.934427 
L 146.741631 165.886415 
L 146.102157 164.922729 
L 144.300028 162.201518 
L 142.883888 160.018269 
L 141.670157 158.151585 
L 140.512717 156.301118 
L 138.720875 153.513052 
L 135.252032 147.917501 
L 130.380799 140.191826 
L 129.045305 137.994684 
L 128.462729 137.024553 
L 126.121875 133.107805 
L 124.894656 131.043853 
L 122.907577 127.650984 
L 122.29814 126.595672 
L 119.196505 121.087213 
L 117.730787 118.403926 
L 116.967878 116.990534 
L 115.751358 114.252912 
" clip-path="url(#pf6a7c04689)" style="fill: none; stroke: #000000; stroke-opacity: 0.3; stroke-width: 0.5"/>
   </g>
   <g id="PathCollection_20">
    <path d="M 157.569453 202.972001 
L 157.368188 202.667919 
L 156.909468 201.973086 
L 156.723758 201.691053 
L 156.110308 200.756095 
L 155.367698 199.615893 
L 155.329528 199.556986 
L 153.959503 197.416675 
L 151.643748 194.051254 
L 151.412725 193.696697 
L 151.175242 193.331235 
L 151.051928 193.141028 
L 150.664542 192.541405 
L 150.602601 192.445191 
L 150.215497 191.841652 
L 149.988749 191.486039 
L 147.503289 187.639556 
L 143.669592 181.833707 
L 142.331285 179.906537 
L 134.124577 167.624483 
L 132.718892 165.694048 
L 130.812745 162.783926 
L 128.84678 159.765211 
L 123.861898 151.893254 
L 121.745712 148.496803 
L 120.706416 146.802477 
L 115.833201 138.755637 
L 115.176036 137.686572 
L 108.767043 126.729609 
L 108.657332 126.540127 
" clip-path="url(#pf6a7c04689)" style="fill: none; stroke: #000000; stroke-opacity: 0.3; stroke-width: 0.5"/>
   </g>
   <g id="PathCollection_21">
    <path d="M 144.096734 202.972001 
L 144.037897 202.884149 
L 144.015153 202.850136 
L 143.797964 202.525002 
L 143.210462 201.640412 
L 139.461066 195.837869 
L 130.494392 182.258507 
L 127.36421 177.751028 
L 125.752574 175.339074 
L 124.97354 174.269222 
L 121.444696 168.836606 
L 119.98371 166.540399 
L 118.755539 164.498011 
L 115.859341 159.843293 
L 110.633824 151.811595 
L 109.499316 150.015555 
L 108.905493 149.066347 
L 105.289123 143.174791 
L 103.126037 139.584751 
L 102.124596 137.855158 
" clip-path="url(#pf6a7c04689)" style="fill: none; stroke: #000000; stroke-opacity: 0.3; stroke-width: 0.5"/>
   </g>
   <g id="PathCollection_22">
    <path d="M 131.349767 202.972001 
L 131.094466 202.590416 
L 131.010062 202.464138 
L 130.833182 202.199293 
L 130.705817 202.008422 
L 130.266403 201.348452 
L 129.685965 200.471732 
L 129.245724 199.800248 
L 129.176038 199.692425 
L 129.006421 199.430506 
L 128.870088 199.218301 
L 128.832792 199.159943 
L 128.656691 198.879541 
L 128.448524 198.543767 
L 128.434837 198.521313 
L 128.396801 198.458593 
L 123.030351 190.331185 
L 122.685641 189.790953 
L 120.193967 185.96195 
L 118.776051 183.878475 
L 114.356526 177.222739 
L 113.287233 175.635105 
L 112.267271 174.187294 
L 109.853826 170.520992 
L 109.167851 169.464251 
L 103.48378 160.66957 
L 103.369319 160.488368 
L 98.963358 153.445578 
L 98.47117 152.643736 
L 95.986005 148.487509 
" clip-path="url(#pf6a7c04689)" style="fill: none; stroke: #000000; stroke-opacity: 0.3; stroke-width: 0.5"/>
   </g>
   <g id="PathCollection_23">
    <path d="M 119.31656 202.972001 
L 118.575616 201.864582 
L 118.206267 201.308486 
L 112.748514 192.921451 
L 108.504533 186.685377 
L 107.835653 185.678055 
L 104.102619 180.135429 
L 103.886954 179.829298 
L 103.694059 179.538272 
L 103.021981 178.472892 
L 102.229587 177.260911 
L 98.295779 171.268337 
L 96.652125 168.688166 
L 95.974754 167.692632 
L 95.724668 167.314899 
L 92.863163 162.835494 
L 91.254914 160.206193 
L 90.591694 159.061813 
L 90.233815 158.450594 
" clip-path="url(#pf6a7c04689)" style="fill: none; stroke: #000000; stroke-opacity: 0.3; stroke-width: 0.5"/>
   </g>
   <g id="PathCollection_24">
    <path d="M 107.974642 202.972001 
L 107.881866 202.83035 
L 107.58278 202.370814 
L 107.354158 202.018118 
L 103.596442 196.453469 
L 103.355658 196.088641 
L 103.120047 195.733477 
L 98.978848 189.140288 
L 94.023957 181.776835 
L 91.009645 177.045033 
L 86.686582 170.691422 
L 84.834455 167.80256 
" clip-path="url(#pf6a7c04689)" style="fill: none; stroke: #000000; stroke-opacity: 0.3; stroke-width: 0.5"/>
   </g>
   <g id="PathCollection_25">
    <path d="M 97.350651 202.972001 
L 96.770376 202.136915 
L 96.573678 201.841931 
L 95.703581 200.546407 
L 95.652816 200.470178 
L 95.52962 200.284505 
L 95.215552 199.818572 
L 89.251762 190.845929 
L 86.296437 186.27209 
L 84.898075 184.142904 
L 81.426877 179.120408 
L 79.781655 176.554267 
" clip-path="url(#pf6a7c04689)" style="fill: none; stroke: #000000; stroke-opacity: 0.3; stroke-width: 0.5"/>
   </g>
   <g id="PathCollection_26">
    <path d="M 87.484471 202.972001 
L 87.141716 202.471252 
L 84.250829 197.997142 
L 77.439919 187.626657 
L 75.232784 184.433141 
" clip-path="url(#pf6a7c04689)" style="fill: none; stroke: #000000; stroke-opacity: 0.3; stroke-width: 0.5"/>
   </g>
   <g id="PathCollection_27">
    <path d="M 78.447192 202.972001 
L 70.889137 191.95656 
" clip-path="url(#pf6a7c04689)" style="fill: none; stroke: #000000; stroke-opacity: 0.3; stroke-width: 0.5"/>
   </g>
   <g id="PathCollection_28">
    <path d="M 69.873906 202.972001 
L 66.971562 198.741998 
" clip-path="url(#pf6a7c04689)" style="fill: none; stroke: #000000; stroke-opacity: 0.3; stroke-width: 0.5"/>
   </g>
   <g id="PathCollection_29"/>
   <g id="text_1">
    <!-- Heavy-end -->
    <g transform="translate(7.2 213.28126)scale(0.12 -0.12)">
     <defs>
      <path id="DejaVuSans-48" d="M 628 4666 
L 1259 4666 
L 1259 2753 
L 3553 2753 
L 3553 4666 
L 4184 4666 
L 4184 0 
L 3553 0 
L 3553 2222 
L 1259 2222 
L 1259 0 
L 628 0 
L 628 4666 
z
" transform="scale(0.015625)"/>
      <path id="DejaVuSans-65" d="M 3597 1894 
L 3597 1613 
L 953 1613 
Q 991 1019 1311 708 
Q 1631 397 2203 397 
Q 2534 397 2845 478 
Q 3156 559 3463 722 
L 3463 178 
Q 3153 47 2828 -22 
Q 2503 -91 2169 -91 
Q 1331 -91 842 396 
Q 353 884 353 1716 
Q 353 2575 817 3079 
Q 1281 3584 2069 3584 
Q 2775 3584 3186 3129 
Q 3597 2675 3597 1894 
z
M 3022 2063 
Q 3016 2534 2758 2815 
Q 2500 3097 2075 3097 
Q 1594 3097 1305 2825 
Q 1016 2553 972 2059 
L 3022 2063 
z
" transform="scale(0.015625)"/>
      <path id="DejaVuSans-61" d="M 2194 1759 
Q 1497 1759 1228 1600 
Q 959 1441 959 1056 
Q 959 750 1161 570 
Q 1363 391 1709 391 
Q 2188 391 2477 730 
Q 2766 1069 2766 1631 
L 2766 1759 
L 2194 1759 
z
M 3341 1997 
L 3341 0 
L 2766 0 
L 2766 531 
Q 2569 213 2275 61 
Q 1981 -91 1556 -91 
Q 1019 -91 701 211 
Q 384 513 384 1019 
Q 384 1609 779 1909 
Q 1175 2209 1959 2209 
L 2766 2209 
L 2766 2266 
Q 2766 2663 2505 2880 
Q 2244 3097 1772 3097 
Q 1472 3097 1187 3025 
Q 903 2953 641 2809 
L 641 3341 
Q 956 3463 1253 3523 
Q 1550 3584 1831 3584 
Q 2591 3584 2966 3190 
Q 3341 2797 3341 1997 
z
" transform="scale(0.015625)"/>
      <path id="DejaVuSans-76" d="M 191 3500 
L 800 3500 
L 1894 563 
L 2988 3500 
L 3597 3500 
L 2284 0 
L 1503 0 
L 191 3500 
z
" transform="scale(0.015625)"/>
      <path id="DejaVuSans-79" d="M 2059 -325 
Q 1816 -950 1584 -1140 
Q 1353 -1331 966 -1331 
L 506 -1331 
L 506 -850 
L 844 -850 
Q 1081 -850 1212 -737 
Q 1344 -625 1503 -206 
L 1606 56 
L 191 3500 
L 800 3500 
L 1894 763 
L 2988 3500 
L 3597 3500 
L 2059 -325 
z
" transform="scale(0.015625)"/>
      <path id="DejaVuSans-2d" d="M 313 2009 
L 1997 2009 
L 1997 1497 
L 313 1497 
L 313 2009 
z
" transform="scale(0.015625)"/>
      <path id="DejaVuSans-6e" d="M 3513 2113 
L 3513 0 
L 2938 0 
L 2938 2094 
Q 2938 2591 2744 2837 
Q 2550 3084 2163 3084 
Q 1697 3084 1428 2787 
Q 1159 2491 1159 1978 
L 1159 0 
L 581 0 
L 581 3500 
L 1159 3500 
L 1159 2956 
Q 1366 3272 1645 3428 
Q 1925 3584 2291 3584 
Q 2894 3584 3203 3211 
Q 3513 2838 3513 2113 
z
" transform="scale(0.015625)"/>
      <path id="DejaVuSans-64" d="M 2906 2969 
L 2906 4863 
L 3481 4863 
L 3481 0 
L 2906 0 
L 2906 525 
Q 2725 213 2448 61 
Q 2172 -91 1784 -91 
Q 1150 -91 751 415 
Q 353 922 353 1747 
Q 353 2572 751 3078 
Q 1150 3584 1784 3584 
Q 2172 3584 2448 3432 
Q 2725 3281 2906 2969 
z
M 947 1747 
Q 947 1113 1208 752 
Q 1469 391 1925 391 
Q 2381 391 2643 752 
Q 2906 1113 2906 1747 
Q 2906 2381 2643 2742 
Q 2381 3103 1925 3103 
Q 1469 3103 1208 2742 
Q 947 2381 947 1747 
z
" transform="scale(0.015625)"/>
     </defs>
     <use xlink:href="#DejaVuSans-48"/>
     <use xlink:href="#DejaVuSans-65" x="75.195312"/>
     <use xlink:href="#DejaVuSans-61" x="136.71875"/>
     <use xlink:href="#DejaVuSans-76" x="197.998047"/>
     <use xlink:href="#DejaVuSans-79" x="257.177734"/>
     <use xlink:href="#DejaVuSans-2d" x="314.607422"/>
     <use xlink:href="#DejaVuSans-65" x="350.691406"/>
     <use xlink:href="#DejaVuSans-6e" x="412.214844"/>
     <use xlink:href="#DejaVuSans-64" x="475.59375"/>
    </g>
   </g>
   <g id="text_2">
    <!-- Peak Shift -->
    <g transform="translate(204.44074 213.28126)scale(0.12 -0.12)">
     <defs>
      <path id="DejaVuSans-50" d="M 1259 4147 
L 1259 2394 
L 2053 2394 
Q 2494 2394 2734 2622 
Q 2975 2850 2975 3272 
Q 2975 3691 2734 3919 
Q 2494 4147 2053 4147 
L 1259 4147 
z
M 628 4666 
L 2053 4666 
Q 2838 4666 3239 4311 
Q 3641 3956 3641 3272 
Q 3641 2581 3239 2228 
Q 2838 1875 2053 1875 
L 1259 1875 
L 1259 0 
L 628 0 
L 628 4666 
z
" transform="scale(0.015625)"/>
      <path id="DejaVuSans-6b" d="M 581 4863 
L 1159 4863 
L 1159 1991 
L 2875 3500 
L 3609 3500 
L 1753 1863 
L 3688 0 
L 2938 0 
L 1159 1709 
L 1159 0 
L 581 0 
L 581 4863 
z
" transform="scale(0.015625)"/>
      <path id="DejaVuSans-20" transform="scale(0.015625)"/>
      <path id="DejaVuSans-53" d="M 3425 4513 
L 3425 3897 
Q 3066 4069 2747 4153 
Q 2428 4238 2131 4238 
Q 1616 4238 1336 4038 
Q 1056 3838 1056 3469 
Q 1056 3159 1242 3001 
Q 1428 2844 1947 2747 
L 2328 2669 
Q 3034 2534 3370 2195 
Q 3706 1856 3706 1288 
Q 3706 609 3251 259 
Q 2797 -91 1919 -91 
Q 1588 -91 1214 -16 
Q 841 59 441 206 
L 441 856 
Q 825 641 1194 531 
Q 1563 422 1919 422 
Q 2459 422 2753 634 
Q 3047 847 3047 1241 
Q 3047 1584 2836 1778 
Q 2625 1972 2144 2069 
L 1759 2144 
Q 1053 2284 737 2584 
Q 422 2884 422 3419 
Q 422 4038 858 4394 
Q 1294 4750 2059 4750 
Q 2388 4750 2728 4690 
Q 3069 4631 3425 4513 
z
" transform="scale(0.015625)"/>
      <path id="DejaVuSans-68" d="M 3513 2113 
L 3513 0 
L 2938 0 
L 2938 2094 
Q 2938 2591 2744 2837 
Q 2550 3084 2163 3084 
Q 1697 3084 1428 2787 
Q 1159 2491 1159 1978 
L 1159 0 
L 581 0 
L 581 4863 
L 1159 4863 
L 1159 2956 
Q 1366 3272 1645 3428 
Q 1925 3584 2291 3584 
Q 2894 3584 3203 3211 
Q 3513 2838 3513 2113 
z
" transform="scale(0.015625)"/>
      <path id="DejaVuSans-69" d="M 603 3500 
L 1178 3500 
L 1178 0 
L 603 0 
L 603 3500 
z
M 603 4863 
L 1178 4863 
L 1178 4134 
L 603 4134 
L 603 4863 
z
" transform="scale(0.015625)"/>
      <path id="DejaVuSans-66" d="M 2375 4863 
L 2375 4384 
L 1825 4384 
Q 1516 4384 1395 4259 
Q 1275 4134 1275 3809 
L 1275 3500 
L 2222 3500 
L 2222 3053 
L 1275 3053 
L 1275 0 
L 697 0 
L 697 3053 
L 147 3053 
L 147 3500 
L 697 3500 
L 697 3744 
Q 697 4328 969 4595 
Q 1241 4863 1831 4863 
L 2375 4863 
z
" transform="scale(0.015625)"/>
      <path id="DejaVuSans-74" d="M 1172 4494 
L 1172 3500 
L 2356 3500 
L 2356 3053 
L 1172 3053 
L 1172 1153 
Q 1172 725 1289 603 
Q 1406 481 1766 481 
L 2356 481 
L 2356 0 
L 1766 0 
Q 1100 0 847 248 
Q 594 497 594 1153 
L 594 3053 
L 172 3053 
L 172 3500 
L 594 3500 
L 594 4494 
L 1172 4494 
z
" transform="scale(0.015625)"/>
     </defs>
     <use xlink:href="#DejaVuSans-50"/>
     <use xlink:href="#DejaVuSans-65" x="56.677734"/>
     <use xlink:href="#DejaVuSans-61" x="118.201172"/>
     <use xlink:href="#DejaVuSans-6b" x="179.480469"/>
     <use xlink:href="#DejaVuSans-20" x="237.390625"/>
     <use xlink:href="#DejaVuSans-53" x="269.177734"/>
     <use xlink:href="#DejaVuSans-68" x="332.654297"/>
     <use xlink:href="#DejaVuSans-69" x="396.033203"/>
     <use xlink:href="#DejaVuSans-66" x="423.816406"/>
     <use xlink:href="#DejaVuSans-74" x="457.271484"/>
    </g>
   </g>
   <g id="text_3">
    <!-- Base -->
    <g transform="translate(123.555995 68.064243)scale(0.12 -0.12)">
     <defs>
      <path id="DejaVuSans-42" d="M 1259 2228 
L 1259 519 
L 2272 519 
Q 2781 519 3026 730 
Q 3272 941 3272 1375 
Q 3272 1813 3026 2020 
Q 2781 2228 2272 2228 
L 1259 2228 
z
M 1259 4147 
L 1259 2741 
L 2194 2741 
Q 2656 2741 2882 2914 
Q 3109 3088 3109 3444 
Q 3109 3797 2882 3972 
Q 2656 4147 2194 4147 
L 1259 4147 
z
M 628 4666 
L 2241 4666 
Q 2963 4666 3353 4366 
Q 3744 4066 3744 3513 
Q 3744 3084 3544 2831 
Q 3344 2578 2956 2516 
Q 3422 2416 3680 2098 
Q 3938 1781 3938 1306 
Q 3938 681 3513 340 
Q 3088 0 2303 0 
L 628 0 
L 628 4666 
z
" transform="scale(0.015625)"/>
      <path id="DejaVuSans-73" d="M 2834 3397 
L 2834 2853 
Q 2591 2978 2328 3040 
Q 2066 3103 1784 3103 
Q 1356 3103 1142 2972 
Q 928 2841 928 2578 
Q 928 2378 1081 2264 
Q 1234 2150 1697 2047 
L 1894 2003 
Q 2506 1872 2764 1633 
Q 3022 1394 3022 966 
Q 3022 478 2636 193 
Q 2250 -91 1575 -91 
Q 1294 -91 989 -36 
Q 684 19 347 128 
L 347 722 
Q 666 556 975 473 
Q 1284 391 1588 391 
Q 1994 391 2212 530 
Q 2431 669 2431 922 
Q 2431 1156 2273 1281 
Q 2116 1406 1581 1522 
L 1381 1569 
Q 847 1681 609 1914 
Q 372 2147 372 2553 
Q 372 3047 722 3315 
Q 1072 3584 1716 3584 
Q 2034 3584 2315 3537 
Q 2597 3491 2834 3397 
z
" transform="scale(0.015625)"/>
     </defs>
     <use xlink:href="#DejaVuSans-42"/>
     <use xlink:href="#DejaVuSans-61" x="68.603516"/>
     <use xlink:href="#DejaVuSans-73" x="129.882812"/>
     <use xlink:href="#DejaVuSans-65" x="181.982422"/>
    </g>
   </g>
  </g>
  <g id="axes_2">
   <g id="patch_2">
    <path d="M 227.105809 193.2 
L 235.025809 193.2 
L 235.025809 85.2 
L 227.105809 85.2 
z
" style="fill: #ffffff"/>
   </g>
   <g id="patch_3">
    <path clip-path="url(#p12be3cd53c)" style="fill: #ffffff; stroke: #ffffff; stroke-width: 0.01; stroke-linejoin: miter"/>
   </g>
   <g id="patch_4">
    <path d="M 227.105809 193.2 
L 231.065809 198.6 
L 235.025809 193.2 
" style="fill: #fcfdbf"/>
   </g>
   <g id="patch_5">
    <path d="M 227.105809 85.2 
L 231.065809 79.8 
L 235.025809 85.2 
" style="fill: #000004"/>
   </g>
   <g id="QuadMesh_1">
    <path d="M 227.105809 193.2 
L 235.025809 193.2 
L 235.025809 184.2 
L 227.105809 184.2 
L 227.105809 193.2 
" clip-path="url(#p12be3cd53c)" style="fill: #fdebac"/>
    <path d="M 227.105809 184.2 
L 235.025809 184.2 
L 235.025809 175.2 
L 227.105809 175.2 
L 227.105809 184.2 
" clip-path="url(#p12be3cd53c)" style="fill: #fec488"/>
    <path d="M 227.105809 175.2 
L 235.025809 175.2 
L 235.025809 166.2 
L 227.105809 166.2 
L 227.105809 175.2 
" clip-path="url(#p12be3cd53c)" style="fill: #fd9b6b"/>
    <path d="M 227.105809 166.2 
L 235.025809 166.2 
L 235.025809 157.2 
L 227.105809 157.2 
L 227.105809 166.2 
" clip-path="url(#p12be3cd53c)" style="fill: #f8745c"/>
    <path d="M 227.105809 157.2 
L 235.025809 157.2 
L 235.025809 148.2 
L 227.105809 148.2 
L 227.105809 157.2 
" clip-path="url(#p12be3cd53c)" style="fill: #e75263"/>
    <path d="M 227.105809 148.2 
L 235.025809 148.2 
L 235.025809 139.2 
L 227.105809 139.2 
L 227.105809 148.2 
" clip-path="url(#p12be3cd53c)" style="fill: #c73d73"/>
    <path d="M 227.105809 139.2 
L 235.025809 139.2 
L 235.025809 130.2 
L 227.105809 130.2 
L 227.105809 139.2 
" clip-path="url(#p12be3cd53c)" style="fill: #a5317e"/>
    <path d="M 227.105809 130.2 
L 235.025809 130.2 
L 235.025809 121.2 
L 227.105809 121.2 
L 227.105809 130.2 
" clip-path="url(#p12be3cd53c)" style="fill: #832681"/>
    <path d="M 227.105809 121.2 
L 235.025809 121.2 
L 235.025809 112.2 
L 227.105809 112.2 
L 227.105809 121.2 
" clip-path="url(#p12be3cd53c)" style="fill: #601880"/>
    <path d="M 227.105809 112.2 
L 235.025809 112.2 
L 235.025809 103.2 
L 227.105809 103.2 
L 227.105809 112.2 
" clip-path="url(#p12be3cd53c)" style="fill: #3f0f72"/>
    <path d="M 227.105809 103.2 
L 235.025809 103.2 
L 235.025809 94.2 
L 227.105809 94.2 
L 227.105809 103.2 
" clip-path="url(#p12be3cd53c)" style="fill: #1c1044"/>
    <path d="M 227.105809 94.2 
L 235.025809 94.2 
L 235.025809 85.2 
L 227.105809 85.2 
L 227.105809 94.2 
" clip-path="url(#p12be3cd53c)" style="fill: #050416"/>
   </g>
   <g id="matplotlib.axis_1">
    <g id="ytick_1">
     <g id="line2d_2">
      <defs>
       <path id="m0af5289111" d="M 0 0 
L 3.5 0 
" style="stroke: #000000; stroke-width: 0.8"/>
      </defs>
      <g>
       <use xlink:href="#m0af5289111" x="235.025809" y="193.2" style="stroke: #000000; stroke-width: 0.8"/>
      </g>
     </g>
     <g id="text_4">
      <!-- 12.8 -->
      <g transform="translate(238.525809 196.999219)scale(0.1 -0.1)">
       <defs>
        <path id="DejaVuSans-31" d="M 794 531 
L 1825 531 
L 1825 4091 
L 703 3866 
L 703 4441 
L 1819 4666 
L 2450 4666 
L 2450 531 
L 3481 531 
L 3481 0 
L 794 0 
L 794 531 
z
" transform="scale(0.015625)"/>
        <path id="DejaVuSans-32" d="M 1228 531 
L 3431 531 
L 3431 0 
L 469 0 
L 469 531 
Q 828 903 1448 1529 
Q 2069 2156 2228 2338 
Q 2531 2678 2651 2914 
Q 2772 3150 2772 3378 
Q 2772 3750 2511 3984 
Q 2250 4219 1831 4219 
Q 1534 4219 1204 4116 
Q 875 4013 500 3803 
L 500 4441 
Q 881 4594 1212 4672 
Q 1544 4750 1819 4750 
Q 2544 4750 2975 4387 
Q 3406 4025 3406 3419 
Q 3406 3131 3298 2873 
Q 3191 2616 2906 2266 
Q 2828 2175 2409 1742 
Q 1991 1309 1228 531 
z
" transform="scale(0.015625)"/>
        <path id="DejaVuSans-2e" d="M 684 794 
L 1344 794 
L 1344 0 
L 684 0 
L 684 794 
z
" transform="scale(0.015625)"/>
        <path id="DejaVuSans-38" d="M 2034 2216 
Q 1584 2216 1326 1975 
Q 1069 1734 1069 1313 
Q 1069 891 1326 650 
Q 1584 409 2034 409 
Q 2484 409 2743 651 
Q 3003 894 3003 1313 
Q 3003 1734 2745 1975 
Q 2488 2216 2034 2216 
z
M 1403 2484 
Q 997 2584 770 2862 
Q 544 3141 544 3541 
Q 544 4100 942 4425 
Q 1341 4750 2034 4750 
Q 2731 4750 3128 4425 
Q 3525 4100 3525 3541 
Q 3525 3141 3298 2862 
Q 3072 2584 2669 2484 
Q 3125 2378 3379 2068 
Q 3634 1759 3634 1313 
Q 3634 634 3220 271 
Q 2806 -91 2034 -91 
Q 1263 -91 848 271 
Q 434 634 434 1313 
Q 434 1759 690 2068 
Q 947 2378 1403 2484 
z
M 1172 3481 
Q 1172 3119 1398 2916 
Q 1625 2713 2034 2713 
Q 2441 2713 2670 2916 
Q 2900 3119 2900 3481 
Q 2900 3844 2670 4047 
Q 2441 4250 2034 4250 
Q 1625 4250 1398 4047 
Q 1172 3844 1172 3481 
z
" transform="scale(0.015625)"/>
       </defs>
       <use xlink:href="#DejaVuSans-31"/>
       <use xlink:href="#DejaVuSans-32" x="63.623047"/>
       <use xlink:href="#DejaVuSans-2e" x="127.246094"/>
       <use xlink:href="#DejaVuSans-38" x="159.033203"/>
      </g>
     </g>
    </g>
    <g id="ytick_2">
     <g id="line2d_3">
      <g>
       <use xlink:href="#m0af5289111" x="235.025809" y="175.2" style="stroke: #000000; stroke-width: 0.8"/>
      </g>
     </g>
     <g id="text_5">
      <!-- 14.4 -->
      <g transform="translate(238.525809 178.999219)scale(0.1 -0.1)">
       <defs>
        <path id="DejaVuSans-34" d="M 2419 4116 
L 825 1625 
L 2419 1625 
L 2419 4116 
z
M 2253 4666 
L 3047 4666 
L 3047 1625 
L 3713 1625 
L 3713 1100 
L 3047 1100 
L 3047 0 
L 2419 0 
L 2419 1100 
L 313 1100 
L 313 1709 
L 2253 4666 
z
" transform="scale(0.015625)"/>
       </defs>
       <use xlink:href="#DejaVuSans-31"/>
       <use xlink:href="#DejaVuSans-34" x="63.623047"/>
       <use xlink:href="#DejaVuSans-2e" x="127.246094"/>
       <use xlink:href="#DejaVuSans-34" x="159.033203"/>
      </g>
     </g>
    </g>
    <g id="ytick_3">
     <g id="line2d_4">
      <g>
       <use xlink:href="#m0af5289111" x="235.025809" y="157.2" style="stroke: #000000; stroke-width: 0.8"/>
      </g>
     </g>
     <g id="text_6">
      <!-- 16.0 -->
      <g transform="translate(238.525809 160.999219)scale(0.1 -0.1)">
       <defs>
        <path id="DejaVuSans-36" d="M 2113 2584 
Q 1688 2584 1439 2293 
Q 1191 2003 1191 1497 
Q 1191 994 1439 701 
Q 1688 409 2113 409 
Q 2538 409 2786 701 
Q 3034 994 3034 1497 
Q 3034 2003 2786 2293 
Q 2538 2584 2113 2584 
z
M 3366 4563 
L 3366 3988 
Q 3128 4100 2886 4159 
Q 2644 4219 2406 4219 
Q 1781 4219 1451 3797 
Q 1122 3375 1075 2522 
Q 1259 2794 1537 2939 
Q 1816 3084 2150 3084 
Q 2853 3084 3261 2657 
Q 3669 2231 3669 1497 
Q 3669 778 3244 343 
Q 2819 -91 2113 -91 
Q 1303 -91 875 529 
Q 447 1150 447 2328 
Q 447 3434 972 4092 
Q 1497 4750 2381 4750 
Q 2619 4750 2861 4703 
Q 3103 4656 3366 4563 
z
" transform="scale(0.015625)"/>
        <path id="DejaVuSans-30" d="M 2034 4250 
Q 1547 4250 1301 3770 
Q 1056 3291 1056 2328 
Q 1056 1369 1301 889 
Q 1547 409 2034 409 
Q 2525 409 2770 889 
Q 3016 1369 3016 2328 
Q 3016 3291 2770 3770 
Q 2525 4250 2034 4250 
z
M 2034 4750 
Q 2819 4750 3233 4129 
Q 3647 3509 3647 2328 
Q 3647 1150 3233 529 
Q 2819 -91 2034 -91 
Q 1250 -91 836 529 
Q 422 1150 422 2328 
Q 422 3509 836 4129 
Q 1250 4750 2034 4750 
z
" transform="scale(0.015625)"/>
       </defs>
       <use xlink:href="#DejaVuSans-31"/>
       <use xlink:href="#DejaVuSans-36" x="63.623047"/>
       <use xlink:href="#DejaVuSans-2e" x="127.246094"/>
       <use xlink:href="#DejaVuSans-30" x="159.033203"/>
      </g>
     </g>
    </g>
    <g id="ytick_4">
     <g id="line2d_5">
      <g>
       <use xlink:href="#m0af5289111" x="235.025809" y="139.2" style="stroke: #000000; stroke-width: 0.8"/>
      </g>
     </g>
     <g id="text_7">
      <!-- 17.6 -->
      <g transform="translate(238.525809 142.999219)scale(0.1 -0.1)">
       <defs>
        <path id="DejaVuSans-37" d="M 525 4666 
L 3525 4666 
L 3525 4397 
L 1831 0 
L 1172 0 
L 2766 4134 
L 525 4134 
L 525 4666 
z
" transform="scale(0.015625)"/>
       </defs>
       <use xlink:href="#DejaVuSans-31"/>
       <use xlink:href="#DejaVuSans-37" x="63.623047"/>
       <use xlink:href="#DejaVuSans-2e" x="127.246094"/>
       <use xlink:href="#DejaVuSans-36" x="159.033203"/>
      </g>
     </g>
    </g>
    <g id="ytick_5">
     <g id="line2d_6">
      <g>
       <use xlink:href="#m0af5289111" x="235.025809" y="121.2" style="stroke: #000000; stroke-width: 0.8"/>
      </g>
     </g>
     <g id="text_8">
      <!-- 19.2 -->
      <g transform="translate(238.525809 124.999219)scale(0.1 -0.1)">
       <defs>
        <path id="DejaVuSans-39" d="M 703 97 
L 703 672 
Q 941 559 1184 500 
Q 1428 441 1663 441 
Q 2288 441 2617 861 
Q 2947 1281 2994 2138 
Q 2813 1869 2534 1725 
Q 2256 1581 1919 1581 
Q 1219 1581 811 2004 
Q 403 2428 403 3163 
Q 403 3881 828 4315 
Q 1253 4750 1959 4750 
Q 2769 4750 3195 4129 
Q 3622 3509 3622 2328 
Q 3622 1225 3098 567 
Q 2575 -91 1691 -91 
Q 1453 -91 1209 -44 
Q 966 3 703 97 
z
M 1959 2075 
Q 2384 2075 2632 2365 
Q 2881 2656 2881 3163 
Q 2881 3666 2632 3958 
Q 2384 4250 1959 4250 
Q 1534 4250 1286 3958 
Q 1038 3666 1038 3163 
Q 1038 2656 1286 2365 
Q 1534 2075 1959 2075 
z
" transform="scale(0.015625)"/>
       </defs>
       <use xlink:href="#DejaVuSans-31"/>
       <use xlink:href="#DejaVuSans-39" x="63.623047"/>
       <use xlink:href="#DejaVuSans-2e" x="127.246094"/>
       <use xlink:href="#DejaVuSans-32" x="159.033203"/>
      </g>
     </g>
    </g>
    <g id="ytick_6">
     <g id="line2d_7">
      <g>
       <use xlink:href="#m0af5289111" x="235.025809" y="103.2" style="stroke: #000000; stroke-width: 0.8"/>
      </g>
     </g>
     <g id="text_9">
      <!-- 20.8 -->
      <g transform="translate(238.525809 106.999219)scale(0.1 -0.1)">
       <use xlink:href="#DejaVuSans-32"/>
       <use xlink:href="#DejaVuSans-30" x="63.623047"/>
       <use xlink:href="#DejaVuSans-2e" x="127.246094"/>
       <use xlink:href="#DejaVuSans-38" x="159.033203"/>
      </g>
     </g>
    </g>
    <g id="ytick_7">
     <g id="line2d_8">
      <g>
       <use xlink:href="#m0af5289111" x="235.025809" y="85.2" style="stroke: #000000; stroke-width: 0.8"/>
      </g>
     </g>
     <g id="text_10">
      <!-- 22.4 -->
      <g transform="translate(238.525809 88.999219)scale(0.1 -0.1)">
       <use xlink:href="#DejaVuSans-32"/>
       <use xlink:href="#DejaVuSans-32" x="63.623047"/>
       <use xlink:href="#DejaVuSans-2e" x="127.246094"/>
       <use xlink:href="#DejaVuSans-34" x="159.033203"/>
      </g>
     </g>
    </g>
    <g id="text_11">
     <!-- GWP [gCO$_2$e MJ$^{-1}$] -->
     <g transform="translate(272.691434 189.965)rotate(-90)scale(0.11 -0.11)">
      <defs>
       <path id="DejaVuSans-47" d="M 3809 666 
L 3809 1919 
L 2778 1919 
L 2778 2438 
L 4434 2438 
L 4434 434 
Q 4069 175 3628 42 
Q 3188 -91 2688 -91 
Q 1594 -91 976 548 
Q 359 1188 359 2328 
Q 359 3472 976 4111 
Q 1594 4750 2688 4750 
Q 3144 4750 3555 4637 
Q 3966 4525 4313 4306 
L 4313 3634 
Q 3963 3931 3569 4081 
Q 3175 4231 2741 4231 
Q 1884 4231 1454 3753 
Q 1025 3275 1025 2328 
Q 1025 1384 1454 906 
Q 1884 428 2741 428 
Q 3075 428 3337 486 
Q 3600 544 3809 666 
z
" transform="scale(0.015625)"/>
       <path id="DejaVuSans-57" d="M 213 4666 
L 850 4666 
L 1831 722 
L 2809 4666 
L 3519 4666 
L 4500 722 
L 5478 4666 
L 6119 4666 
L 4947 0 
L 4153 0 
L 3169 4050 
L 2175 0 
L 1381 0 
L 213 4666 
z
" transform="scale(0.015625)"/>
       <path id="DejaVuSans-5b" d="M 550 4863 
L 1875 4863 
L 1875 4416 
L 1125 4416 
L 1125 -397 
L 1875 -397 
L 1875 -844 
L 550 -844 
L 550 4863 
z
" transform="scale(0.015625)"/>
       <path id="DejaVuSans-67" d="M 2906 1791 
Q 2906 2416 2648 2759 
Q 2391 3103 1925 3103 
Q 1463 3103 1205 2759 
Q 947 2416 947 1791 
Q 947 1169 1205 825 
Q 1463 481 1925 481 
Q 2391 481 2648 825 
Q 2906 1169 2906 1791 
z
M 3481 434 
Q 3481 -459 3084 -895 
Q 2688 -1331 1869 -1331 
Q 1566 -1331 1297 -1286 
Q 1028 -1241 775 -1147 
L 775 -588 
Q 1028 -725 1275 -790 
Q 1522 -856 1778 -856 
Q 2344 -856 2625 -561 
Q 2906 -266 2906 331 
L 2906 616 
Q 2728 306 2450 153 
Q 2172 0 1784 0 
Q 1141 0 747 490 
Q 353 981 353 1791 
Q 353 2603 747 3093 
Q 1141 3584 1784 3584 
Q 2172 3584 2450 3431 
Q 2728 3278 2906 2969 
L 2906 3500 
L 3481 3500 
L 3481 434 
z
" transform="scale(0.015625)"/>
       <path id="DejaVuSans-43" d="M 4122 4306 
L 4122 3641 
Q 3803 3938 3442 4084 
Q 3081 4231 2675 4231 
Q 1875 4231 1450 3742 
Q 1025 3253 1025 2328 
Q 1025 1406 1450 917 
Q 1875 428 2675 428 
Q 3081 428 3442 575 
Q 3803 722 4122 1019 
L 4122 359 
Q 3791 134 3420 21 
Q 3050 -91 2638 -91 
Q 1578 -91 968 557 
Q 359 1206 359 2328 
Q 359 3453 968 4101 
Q 1578 4750 2638 4750 
Q 3056 4750 3426 4639 
Q 3797 4528 4122 4306 
z
" transform="scale(0.015625)"/>
       <path id="DejaVuSans-4f" d="M 2522 4238 
Q 1834 4238 1429 3725 
Q 1025 3213 1025 2328 
Q 1025 1447 1429 934 
Q 1834 422 2522 422 
Q 3209 422 3611 934 
Q 4013 1447 4013 2328 
Q 4013 3213 3611 3725 
Q 3209 4238 2522 4238 
z
M 2522 4750 
Q 3503 4750 4090 4092 
Q 4678 3434 4678 2328 
Q 4678 1225 4090 567 
Q 3503 -91 2522 -91 
Q 1538 -91 948 565 
Q 359 1222 359 2328 
Q 359 3434 948 4092 
Q 1538 4750 2522 4750 
z
" transform="scale(0.015625)"/>
       <path id="DejaVuSans-4d" d="M 628 4666 
L 1569 4666 
L 2759 1491 
L 3956 4666 
L 4897 4666 
L 4897 0 
L 4281 0 
L 4281 4097 
L 3078 897 
L 2444 897 
L 1241 4097 
L 1241 0 
L 628 0 
L 628 4666 
z
" transform="scale(0.015625)"/>
       <path id="DejaVuSans-4a" d="M 628 4666 
L 1259 4666 
L 1259 325 
Q 1259 -519 939 -900 
Q 619 -1281 -91 -1281 
L -331 -1281 
L -331 -750 
L -134 -750 
Q 284 -750 456 -515 
Q 628 -281 628 325 
L 628 4666 
z
" transform="scale(0.015625)"/>
       <path id="DejaVuSans-2212" d="M 678 2272 
L 4684 2272 
L 4684 1741 
L 678 1741 
L 678 2272 
z
" transform="scale(0.015625)"/>
       <path id="DejaVuSans-5d" d="M 1947 4863 
L 1947 -844 
L 622 -844 
L 622 -397 
L 1369 -397 
L 1369 4416 
L 622 4416 
L 622 4863 
L 1947 4863 
z
" transform="scale(0.015625)"/>
      </defs>
      <use xlink:href="#DejaVuSans-47" transform="translate(0 0.684375)"/>
      <use xlink:href="#DejaVuSans-57" transform="translate(77.490234 0.684375)"/>
      <use xlink:href="#DejaVuSans-50" transform="translate(176.367188 0.684375)"/>
      <use xlink:href="#DejaVuSans-20" transform="translate(236.669922 0.684375)"/>
      <use xlink:href="#DejaVuSans-5b" transform="translate(268.457031 0.684375)"/>
      <use xlink:href="#DejaVuSans-67" transform="translate(307.470703 0.684375)"/>
      <use xlink:href="#DejaVuSans-43" transform="translate(370.947266 0.684375)"/>
      <use xlink:href="#DejaVuSans-4f" transform="translate(440.771484 0.684375)"/>
      <use xlink:href="#DejaVuSans-32" transform="translate(520.439453 -15.721875)scale(0.7)"/>
      <use xlink:href="#DejaVuSans-65" transform="translate(567.709961 0.684375)"/>
      <use xlink:href="#DejaVuSans-20" transform="translate(629.233398 0.684375)"/>
      <use xlink:href="#DejaVuSans-4d" transform="translate(661.020508 0.684375)"/>
      <use xlink:href="#DejaVuSans-4a" transform="translate(747.299805 0.684375)"/>
      <use xlink:href="#DejaVuSans-2212" transform="translate(777.749023 38.965625)scale(0.7)"/>
      <use xlink:href="#DejaVuSans-31" transform="translate(836.401367 38.965625)scale(0.7)"/>
      <use xlink:href="#DejaVuSans-5d" transform="translate(883.671875 0.684375)"/>
     </g>
    </g>
   </g>
   <g id="LineCollection_1"/>
   <g id="patch_6">
    <path d="M 227.105809 193.2 
L 231.065809 198.6 
L 235.025809 193.2 
L 235.025809 85.2 
L 231.065809 79.8 
L 227.105809 85.2 
L 227.105809 193.2 
z
" style="fill: none; stroke: #000000; stroke-width: 0.8; stroke-linejoin: miter; stroke-linecap: square"/>
   </g>
  </g>
 </g>
 <defs>
  <clipPath id="pf6a7c04689">
   <rect x="64.529369" y="7.2" width="147.275128" height="264"/>
  </clipPath>
  <clipPath id="p12be3cd53c">
   <rect x="227.105809" y="85.2" width="7.92" height="108"/>
  </clipPath>
 </defs>
</svg>
