<?xml version="1.0" encoding="utf-8" standalone="no"?>
<!DOCTYPE svg PUBLIC "-//W3C//DTD SVG 1.1//EN"
  "http://www.w3.org/Graphics/SVG/1.1/DTD/svg11.dtd">
<svg xmlns:xlink="http://www.w3.org/1999/xlink" width="283.378449pt" height="278.4pt" viewBox="0 0 283.378449 278.4" xmlns="http://www.w3.org/2000/svg" version="1.1">
 <metadata>
  <rdf:RDF xmlns:dc="http://purl.org/dc/elements/1.1/" xmlns:cc="http://creativecommons.org/ns#" xmlns:rdf="http://www.w3.org/1999/02/22-rdf-syntax-ns#">
   <cc:Work>
    <dc:type rdf:resource="http://purl.org/dc/dcmitype/StillImage"/>
    <dc:date>2026-02-11T13:05:07.354815</dc:date>
    <dc:format>image/svg+xml</dc:format>
    <dc:creator>
     <cc:Agent>
      <dc:title>Matplotlib v3.5.3, https://matplotlib.org/</dc:title>
     </cc:Agent>
    </dc:creator>
   </cc:Work>
  </rdf:RDF>
 </metadata>
 <defs>
  <style type="text/css">*{stroke-linejoin: round; stroke-linecap: butt}</style>
 </defs>
 <g id="figure_1">
  <g id="patch_1">
   <path d="M 0 278.4 
L 283.378449 278.4 
L 283.378449 0 
L 0 0 
z
" style="fill: #ffffff"/>
  </g>
  <g id="axes_1">
   <g id="PathCollection_1">
    <path d="M 87.479407 161.516926 
L 87.724359 161.587363 
L 89.703287 161.434901 
L 93.896644 160.287493 
L 95.089938 159.606722 
L 98.593343 157.328945 
L 99.487928 156.107475 
L 100.877877 151.728 
L 100.143962 140.228629 
L 100.106341 139.646435 
L 93.246349 151.52829 
" clip-path="url(#pd7a447763f)" style="fill: #440154"/>
   </g>
   <g id="PathCollection_2">
    <path d="M 100.106341 139.646435 
L 100.143962 140.228629 
L 100.877877 151.728 
L 99.487928 156.107475 
L 98.593343 157.328945 
L 95.089938 159.606722 
L 93.896644 160.287493 
L 89.703287 161.434901 
L 87.724359 161.587363 
L 87.479407 161.516926 
L 86.128608 163.856579 
L 79.010866 176.184869 
L 78.85936 176.447287 
L 79.479077 176.542438 
L 86.264349 176.171379 
L 90.257998 175.94801 
L 99.652759 176.155151 
L 101.239561 175.867182 
L 103.250216 175.531869 
L 103.932143 175.425702 
L 104.074656 175.380652 
L 109.697248 173.111477 
L 113.682116 171.003465 
L 115.592933 169.437297 
L 115.999763 169.04737 
L 116.433829 168.464819 
L 117.059124 167.057256 
L 118.618447 162.816287 
L 120.904649 153.325829 
L 120.737355 150.465796 
L 120.049678 148.225274 
L 119.056047 146.021245 
L 115.484764 138.061834 
L 114.802742 136.610195 
L 107.591256 127.435366 
L 107.339203 127.118751 
L 100.364091 139.2 
" clip-path="url(#pd7a447763f)" style="fill: #471063"/>
   </g>
   <g id="PathCollection_3">
    <path d="M 107.339203 127.118751 
L 107.591256 127.435366 
L 114.802742 136.610195 
L 115.484764 138.061834 
L 119.056047 146.021245 
L 120.049678 148.225274 
L 120.737355 150.465796 
L 120.904649 153.325829 
L 118.618447 162.816287 
L 117.059124 167.057256 
L 116.433829 168.464819 
L 115.999763 169.04737 
L 115.592933 169.437297 
L 113.682116 171.003465 
L 109.697248 173.111477 
L 104.074656 175.380652 
L 103.932143 175.425702 
L 103.250216 175.531869 
L 101.239561 175.867182 
L 99.652759 176.155151 
L 90.257998 175.94801 
L 86.264349 176.171379 
L 79.479077 176.542438 
L 78.85936 176.447287 
L 73.640982 185.485781 
L 77.203309 186.032737 
L 85.465749 186.702668 
L 88.033947 187.12206 
L 89.501546 187.358164 
L 98.219345 186.988256 
L 101.468708 187.382489 
L 104.76646 187.580499 
L 106.343214 187.525342 
L 119.872466 183.191847 
L 121.933235 182.542047 
L 122.019581 182.523838 
L 122.858148 182.331398 
L 123.108875 182.166284 
L 124.207442 180.959552 
L 127.89219 176.806015 
L 133.390073 165.435854 
L 134.791649 163.162864 
L 135.135057 161.17225 
L 134.842043 156.762983 
L 132.493259 151.206948 
L 129.14659 140.179572 
L 127.388647 137.329274 
L 126.626735 136.179173 
L 124.712193 133.286264 
L 123.324255 131.41646 
L 121.185622 128.815506 
L 119.339001 126.730457 
L 117.159053 124.66254 
L 113.311853 121.673378 
L 112.485168 121.141691 
L 110.700868 121.296176 
L 107.481832 126.87171 
" clip-path="url(#pd7a447763f)" style="fill: #472d7b"/>
   </g>
   <g id="PathCollection_4">
    <path d="M 69.155448 193.254954 
L 77.510311 194.748607 
L 83.97063 195.272419 
L 91.001973 196.42065 
L 95.020041 197.067068 
L 95.191084 197.05981 
L 95.54866 197.103194 
L 98.885938 197.201596 
L 101.626851 197.302452 
L 101.700926 197.305691 
L 101.812445 197.310345 
L 102.696548 197.337873 
L 102.942128 197.342535 
L 103.726971 197.348487 
L 103.746112 197.348459 
L 107.327821 197.165957 
L 107.526681 197.165175 
L 107.758516 197.163196 
L 108.249926 197.155188 
L 108.506596 197.14892 
L 110.502753 197.048424 
L 111.422946 196.967886 
L 112.126311 196.889106 
L 113.120543 196.747204 
L 113.27643 196.721143 
L 119.877655 194.639652 
L 120.652359 194.47628 
L 128.17611 192.749678 
L 130.425673 191.268249 
L 140.282178 180.441263 
L 141.738144 178.800063 
L 144.761209 172.54807 
L 145.462096 168.183254 
L 145.575228 167.654299 
L 146.103948 162.318227 
L 145.961561 159.944103 
L 145.794845 158.522243 
L 145.111863 156.888092 
L 144.357602 154.474072 
L 140.720854 144.108516 
L 138.101982 139.307153 
L 136.628872 136.958743 
L 133.270838 132.008675 
L 131.39748 129.761454 
L 130.610457 128.811359 
L 127.590548 125.193636 
L 123.277782 120.923277 
L 119.465651 116.888265 
L 117.768626 115.407073 
L 117.591815 115.293356 
L 113.986372 115.605516 
L 110.700868 121.296176 
L 112.485168 121.141691 
L 113.311853 121.673378 
L 117.159053 124.66254 
L 119.339001 126.730457 
L 121.185622 128.815506 
L 123.324255 131.41646 
L 124.712193 133.286264 
L 126.626735 136.179173 
L 127.388647 137.329274 
L 129.14659 140.179572 
L 132.493259 151.206948 
L 134.842043 156.762983 
L 135.135057 161.17225 
L 134.791649 163.162864 
L 133.390073 165.435854 
L 127.89219 176.806015 
L 124.207442 180.959552 
L 123.108875 182.166284 
L 122.858148 182.331398 
L 122.019581 182.523838 
L 121.933235 182.542047 
L 119.872466 183.191847 
L 106.343214 187.525342 
L 104.76646 187.580499 
L 101.468708 187.382489 
L 98.219345 186.988256 
L 89.501546 187.358164 
L 88.033947 187.12206 
L 85.465749 186.702668 
L 77.203309 186.032737 
L 73.640982 185.485781 
L 71.893125 188.513159 
" clip-path="url(#pd7a447763f)" style="fill: #404688"/>
   </g>
   <g id="PathCollection_5">
    <path d="M 65.038996 200.384859 
L 67.592966 200.841449 
L 82.999031 200.841449 
L 92.842155 200.841449 
L 93.707261 200.841449 
L 94.294039 200.841449 
L 94.486105 200.841449 
L 95.451517 200.841449 
L 100.941998 200.841449 
L 101.114566 200.841449 
L 101.37352 200.841449 
L 103.399623 200.841449 
L 103.957161 200.841449 
L 105.737992 200.841449 
L 105.781556 200.841449 
L 106.177103 200.841449 
L 106.637805 200.841449 
L 107.614651 200.841449 
L 108.126126 200.841449 
L 112.211339 200.841449 
L 114.224189 200.841449 
L 115.861046 200.841449 
L 118.394984 200.841449 
L 118.823869 200.841449 
L 119.924257 200.841449 
L 120.354334 200.841449 
L 120.501673 200.841449 
L 122.363689 200.841449 
L 123.545453 200.841449 
L 123.760746 200.841449 
L 124.469547 200.841449 
L 125.21166 200.841449 
L 125.481264 200.841449 
L 126.829693 200.841449 
L 128.019951 200.841449 
L 128.66278 200.841449 
L 128.820602 200.841449 
L 129.022647 200.841449 
L 129.11273 200.841449 
L 129.447865 200.841449 
L 129.644245 200.841449 
L 129.943959 200.841449 
L 130.002294 200.841449 
L 130.336312 200.841449 
L 130.767761 200.841449 
L 130.973245 200.841449 
L 131.160548 200.841449 
L 131.375013 200.841449 
L 131.618963 200.841449 
L 133.823436 200.841449 
L 134.08238 200.841449 
L 134.219405 200.841449 
L 135.226553 200.841449 
L 135.260153 200.826212 
L 135.890051 200.530114 
L 136.002158 200.476435 
L 136.08352 200.437266 
L 136.255311 200.353966 
L 136.667254 200.150588 
L 137.105283 199.927751 
L 137.125129 199.917474 
L 137.510808 199.714008 
L 137.791677 199.560787 
L 137.937498 199.479248 
L 138.020899 199.431926 
L 138.300525 199.269113 
L 138.306356 199.265642 
L 138.623724 199.071222 
L 138.731399 199.002412 
L 138.740568 198.996475 
L 138.83298 198.935903 
L 139.135566 198.726396 
L 147.413021 189.644761 
L 147.892876 189.161352 
L 148.553551 188.483956 
L 148.644467 188.389522 
L 149.141316 187.867498 
L 149.277426 187.722578 
L 149.515123 187.467299 
L 149.719808 187.245057 
L 153.633778 182.449357 
L 153.839287 181.951073 
L 154.755033 179.471783 
L 154.884018 178.695651 
L 154.985752 177.653166 
L 155.246463 172.133452 
L 155.959434 164.937827 
L 155.866197 163.383226 
L 154.635369 157.203176 
L 153.727541 153.449267 
L 153.490779 152.882773 
L 153.409325 152.62208 
L 153.016588 151.50269 
L 145.268481 137.297537 
L 140.910186 130.349607 
L 139.947972 128.93121 
L 135.448313 123.533562 
L 135.344296 123.407993 
L 134.94517 122.929856 
L 131.50625 119.524751 
L 127.130538 115.396895 
L 125.577693 114.061419 
L 123.165656 112.262539 
L 119.385871 109.731826 
L 117.271877 109.914856 
L 113.986372 115.605516 
L 117.591815 115.293356 
L 117.768626 115.407073 
L 119.465651 116.888265 
L 123.277782 120.923277 
L 127.590548 125.193636 
L 130.610457 128.811359 
L 131.39748 129.761454 
L 133.270838 132.008675 
L 136.628872 136.958743 
L 138.101982 139.307153 
L 140.720854 144.108516 
L 144.357602 154.474072 
L 145.111863 156.888092 
L 145.794845 158.522243 
L 145.961561 159.944103 
L 146.103948 162.318227 
L 145.575228 167.654299 
L 145.462096 168.183254 
L 144.761209 172.54807 
L 141.738144 178.800063 
L 140.282178 180.441263 
L 130.425673 191.268249 
L 128.17611 192.749678 
L 120.652359 194.47628 
L 119.877655 194.639652 
L 113.27643 196.721143 
L 113.120543 196.747204 
L 112.126311 196.889106 
L 111.422946 196.967886 
L 110.502753 197.048424 
L 108.506596 197.14892 
L 108.249926 197.155188 
L 107.758516 197.163196 
L 107.526681 197.165175 
L 107.327821 197.165957 
L 103.746112 197.348459 
L 103.726971 197.348487 
L 102.942128 197.342535 
L 102.696548 197.337873 
L 101.812445 197.310345 
L 101.700926 197.305691 
L 101.626851 197.302452 
L 98.885938 197.201596 
L 95.54866 197.103194 
L 95.191084 197.05981 
L 95.020041 197.067068 
L 91.001973 196.42065 
L 83.97063 195.272419 
L 77.510311 194.748607 
L 69.155448 193.254954 
" clip-path="url(#pd7a447763f)" style="fill: #365d8d"/>
   </g>
   <g id="PathCollection_6">
    <path d="M 67.592966 200.841449 
L 65.038996 200.384859 
L 64.775384 200.841449 
M 152.734132 200.841449 
L 153.976157 199.280732 
L 154.330692 198.831078 
L 155.06829 197.889221 
L 155.416134 197.441633 
L 155.462645 197.381599 
L 157.250065 195.031927 
L 161.572139 188.753924 
L 161.641705 188.619638 
L 162.608419 183.752509 
L 164.881791 168.190573 
L 164.875659 167.617829 
L 164.778925 166.941012 
L 163.845916 161.585804 
L 163.325222 158.310585 
L 162.980398 157.043482 
L 162.082256 154.096647 
L 161.895723 153.554222 
L 155.149206 140.264104 
L 152.43498 135.28792 
L 150.153685 131.651114 
L 146.560905 126.964902 
L 145.001673 125.336825 
L 142.918727 123.224028 
L 138.885893 118.860009 
L 136.238964 115.896724 
L 130.032001 110.687721 
L 127.935826 109.173885 
L 127.229059 108.659393 
L 124.457703 106.41854 
L 121.108979 104.176438 
L 120.557381 104.224196 
L 117.271877 109.914856 
L 119.385871 109.731826 
L 123.165656 112.262539 
L 125.577693 114.061419 
L 127.130538 115.396895 
L 131.50625 119.524751 
L 134.94517 122.929856 
L 135.344296 123.407993 
L 135.448313 123.533562 
L 139.947972 128.93121 
L 140.910186 130.349607 
L 145.268481 137.297537 
L 153.016588 151.50269 
L 153.409325 152.62208 
L 153.490779 152.882773 
L 153.727541 153.449267 
L 154.635369 157.203176 
L 155.866197 163.383226 
L 155.959434 164.937827 
L 155.246463 172.133452 
L 154.985752 177.653166 
L 154.884018 178.695651 
L 154.755033 179.471783 
L 153.839287 181.951073 
L 153.633778 182.449357 
L 149.719808 187.245057 
L 149.515123 187.467299 
L 149.277426 187.722578 
L 149.141316 187.867498 
L 148.644467 188.389522 
L 148.553551 188.483956 
L 147.892876 189.161352 
L 147.413021 189.644761 
L 139.135566 198.726396 
L 138.83298 198.935903 
L 138.740568 198.996475 
L 138.731399 199.002412 
L 138.623724 199.071222 
L 138.306356 199.265642 
L 138.300525 199.269113 
L 138.020899 199.431926 
L 137.937498 199.479248 
L 137.791677 199.560787 
L 137.510808 199.714008 
L 137.125129 199.917474 
L 137.105283 199.927751 
L 136.667254 200.150588 
L 136.255311 200.353966 
L 136.08352 200.437266 
L 136.002158 200.476435 
L 135.890051 200.530114 
L 135.260153 200.826212 
L 135.226553 200.841449 
L 135.26228 200.841449 
L 135.985859 200.841449 
L 136.126404 200.841449 
L 136.230913 200.841449 
L 136.458903 200.841449 
L 137.050789 200.841449 
L 137.763913 200.841449 
L 137.798617 200.841449 
L 138.522122 200.841449 
L 139.117617 200.841449 
L 139.454471 200.841449 
L 139.656844 200.841449 
L 140.395149 200.841449 
L 140.411642 200.841449 
L 141.391944 200.841449 
L 141.767826 200.841449 
L 141.801033 200.841449 
L 142.147164 200.841449 
L 143.458556 200.841449 
L 144.166259 200.841449 
L 145.266254 200.841449 
L 145.430915 200.841449 
L 146.398106 200.841449 
L 146.685155 200.841449 
L 147.212463 200.841449 
L 147.695687 200.841449 
L 151.125874 200.841449 
L 151.203951 200.841449 
L 152.584469 200.841449 
" clip-path="url(#pd7a447763f)" style="fill: #2c728e"/>
   </g>
   <g id="PathCollection_7">
    <path d="M 164.985512 200.841449 
L 166.394074 198.626213 
L 168.736817 194.735379 
L 170.379821 190.851449 
L 170.44123 190.704352 
L 171.547168 183.669465 
L 172.289237 179.933356 
L 173.047491 174.742877 
L 173.004579 170.734746 
L 172.32762 165.998288 
L 171.693696 162.35974 
L 170.094729 156.420954 
L 168.418899 151.713477 
L 168.060215 150.56748 
L 166.604229 148.251816 
L 160.838181 136.723845 
L 160.339181 135.884626 
L 157.933335 132.350777 
L 153.791067 126.605665 
L 153.130748 125.744384 
L 148.965751 121.395492 
L 143.40182 115.75182 
L 142.2133 114.465697 
L 141.433221 113.592385 
L 139.603963 112.057236 
L 130.989425 105.835909 
L 128.084867 103.721526 
L 123.53557 100.043073 
L 123.100802 99.818861 
L 121.717315 102.215131 
L 120.557381 104.224196 
L 121.108979 104.176438 
L 124.457703 106.41854 
L 127.229059 108.659393 
L 127.935826 109.173885 
L 130.032001 110.687721 
L 136.238964 115.896724 
L 138.885893 118.860009 
L 142.918727 123.224028 
L 145.001673 125.336825 
L 146.560905 126.964902 
L 150.153685 131.651114 
L 152.43498 135.28792 
L 155.149206 140.264104 
L 161.895723 153.554222 
L 162.082256 154.096647 
L 162.980398 157.043482 
L 163.325222 158.310585 
L 163.845916 161.585804 
L 164.778925 166.941012 
L 164.875659 167.617829 
L 164.881791 168.190573 
L 162.608419 183.752509 
L 161.641705 188.619638 
L 161.572139 188.753924 
L 157.250065 195.031927 
L 155.462645 197.381599 
L 155.416134 197.441633 
L 155.06829 197.889221 
L 154.330692 198.831078 
L 153.976157 199.280732 
L 152.734132 200.841449 
L 153.557642 200.841449 
L 153.827484 200.841449 
L 154.451114 200.841449 
L 154.779164 200.841449 
L 154.824893 200.841449 
L 157.02447 200.841449 
L 161.016367 200.841449 
L 161.634095 200.841449 
L 163.430486 200.841449 
L 163.914797 200.841449 
" clip-path="url(#pd7a447763f)" style="fill: #24868e"/>
   </g>
   <g id="PathCollection_8">
    <path d="M 174.728056 200.841449 
L 176.274409 198.194434 
L 177.535353 195.094527 
L 178.67706 192.402471 
L 180.038214 185.40517 
L 180.54124 182.710557 
L 180.720093 179.994798 
L 180.694324 179.547831 
L 180.709056 177.605308 
L 180.567258 173.042104 
L 179.897245 168.652478 
L 179.482059 164.961619 
L 177.446051 157.278062 
L 176.371423 154.043992 
L 176.000371 152.917363 
L 175.040527 150.644658 
L 171.445045 143.101855 
L 171.020187 142.426142 
L 170.143833 140.674061 
L 168.781701 138.383225 
L 162.214407 128.736796 
L 160.557688 126.439012 
L 159.11109 124.612074 
L 155.604511 120.695985 
L 151.951874 116.845911 
L 145.026242 110.379544 
L 144.259574 109.837307 
L 143.272484 109.163349 
L 134.043025 102.497932 
L 128.940674 98.78366 
L 126.346057 96.685714 
L 125.239265 96.114934 
L 123.100802 99.818861 
L 123.53557 100.043073 
L 128.084867 103.721526 
L 130.989425 105.835909 
L 139.603963 112.057236 
L 141.433221 113.592385 
L 142.2133 114.465697 
L 143.40182 115.75182 
L 148.965751 121.395492 
L 153.130748 125.744384 
L 153.791067 126.605665 
L 157.933335 132.350777 
L 160.339181 135.884626 
L 160.838181 136.723845 
L 166.604229 148.251816 
L 168.060215 150.56748 
L 168.418899 151.713477 
L 170.094729 156.420954 
L 171.693696 162.35974 
L 172.32762 165.998288 
L 173.004579 170.734746 
L 173.047491 174.742877 
L 172.289237 179.933356 
L 171.547168 183.669465 
L 170.44123 190.704352 
L 170.379821 190.851449 
L 168.736817 194.735379 
L 166.394074 198.626213 
L 164.985512 200.841449 
L 166.898243 200.841449 
L 168.367312 200.841449 
L 168.976293 200.841449 
" clip-path="url(#pd7a447763f)" style="fill: #1f9a8a"/>
   </g>
   <g id="PathCollection_9">
    <path d="M 183.923148 200.841449 
L 184.140592 200.469233 
L 184.769315 198.923578 
L 186.776232 192.46757 
L 187.265357 189.847424 
L 187.959489 179.307495 
L 187.859482 177.572802 
L 187.865561 176.771101 
L 187.80704 174.887814 
L 186.247733 164.671935 
L 185.776987 163.856579 
L 178.659246 151.52829 
L 171.541505 139.2 
L 164.423763 126.87171 
L 160.108339 119.397177 
L 151.117005 109.919834 
L 147.469904 106.514585 
L 145.386258 105.040896 
L 142.703552 103.209218 
L 137.096625 99.159956 
L 129.796482 93.845793 
L 129.156543 93.328354 
L 127.377728 92.411008 
L 125.239265 96.114934 
L 126.346057 96.685714 
L 128.940674 98.78366 
L 134.043025 102.497932 
L 143.272484 109.163349 
L 144.259574 109.837307 
L 145.026242 110.379544 
L 151.951874 116.845911 
L 155.604511 120.695985 
L 159.11109 124.612074 
L 160.557688 126.439012 
L 162.214407 128.736796 
L 168.781701 138.383225 
L 170.143833 140.674061 
L 171.020187 142.426142 
L 171.445045 143.101855 
L 175.040527 150.644658 
L 176.000371 152.917363 
L 176.371423 154.043992 
L 177.446051 157.278062 
L 179.482059 164.961619 
L 179.897245 168.652478 
L 180.567258 173.042104 
L 180.709056 177.605308 
L 180.694324 179.547831 
L 180.720093 179.994798 
L 180.54124 182.710557 
L 180.038214 185.40517 
L 178.67706 192.402471 
L 177.535353 195.094527 
L 176.274409 198.194434 
L 174.728056 200.841449 
" clip-path="url(#pd7a447763f)" style="fill: #27ad81"/>
   </g>
   <g id="PathCollection_10">
    <path d="M 192.065615 200.841449 
L 192.55695 199.744873 
L 192.807471 198.927036 
L 193.28193 196.932361 
L 194.462592 192.003867 
L 194.581478 190.996152 
L 195.100574 181.048808 
L 194.968506 179.776756 
L 192.894729 176.184869 
L 186.247733 164.671935 
L 187.80704 174.887814 
L 187.865561 176.771101 
L 187.859482 177.572802 
L 187.959489 179.307495 
L 187.265357 189.847424 
L 186.776232 192.46757 
L 184.769315 198.923578 
L 184.140592 200.469233 
L 183.923148 200.841449 
L 185.427704 200.841449 
M 151.190786 103.951521 
L 150.282136 102.993756 
L 149.913566 102.649627 
L 146.512943 100.244486 
L 142.134619 97.255088 
L 140.150225 95.821979 
L 136.550504 93.201551 
L 132.34392 90.589517 
L 130.515749 89.479083 
L 130.076891 89.239609 
L 129.395049 88.916904 
L 128.835056 89.886841 
L 127.377728 92.411008 
L 129.156543 93.328354 
L 129.796482 93.845793 
L 137.096625 99.159956 
L 142.703552 103.209218 
L 145.386258 105.040896 
L 147.469904 106.514585 
L 151.117005 109.919834 
L 160.108339 119.397177 
" clip-path="url(#pd7a447763f)" style="fill: #48c16e"/>
   </g>
   <g id="PathCollection_11">
    <path d="M 199.804825 200.841449 
L 199.928733 200.431828 
L 199.992298 200.209367 
L 200.757198 197.012528 
L 201.198197 194.757026 
L 201.231674 194.583917 
L 201.283785 194.307566 
L 201.554858 191.184652 
L 200.01247 188.513159 
L 194.968506 179.776756 
L 195.100574 181.048808 
L 194.581478 190.996152 
L 194.462592 192.003867 
L 193.28193 196.932361 
L 192.807471 198.927036 
L 192.55695 199.744873 
L 192.065615 200.841449 
L 197.131843 200.841449 
L 197.997093 200.841449 
M 146.036086 95.023319 
L 145.224957 94.296027 
L 142.342389 92.283677 
L 136.029891 88.349832 
L 135.629659 88.110105 
L 133.975704 87.207584 
L 131.153182 85.87173 
L 129.395049 88.916904 
L 130.076891 89.239609 
L 130.515749 89.479083 
L 132.34392 90.589517 
L 136.550504 93.201551 
L 140.150225 95.821979 
L 142.134619 97.255088 
L 146.512943 100.244486 
L 149.913566 102.649627 
L 150.282136 102.993756 
L 151.190786 103.951521 
L 150.18828 102.215131 
" clip-path="url(#pd7a447763f)" style="fill: #75d054"/>
   </g>
   <g id="PathCollection_12">
    <path d="M 207.12111 200.841449 
L 207.121925 200.838756 
L 207.122948 200.833331 
L 207.123284 200.829451 
L 201.554858 191.184652 
L 201.283785 194.307566 
L 201.231674 194.583917 
L 201.198197 194.757026 
L 200.757198 197.012528 
L 199.992298 200.209367 
L 199.928733 200.431828 
L 199.804825 200.841449 
M 141.8274 87.733661 
L 136.354741 84.456274 
L 132.911314 82.826555 
L 131.153182 85.87173 
L 133.975704 87.207584 
L 135.629659 88.110105 
L 136.029891 88.349832 
L 142.342389 92.283677 
L 145.224957 94.296027 
L 146.036086 95.023319 
L 143.070539 89.886841 
" clip-path="url(#pd7a447763f)" style="fill: #aadc32"/>
   </g>
   <g id="PathCollection_13">
    <path d="M 207.123284 200.829451 
L 207.122948 200.833331 
L 207.121925 200.838756 
L 207.12111 200.841449 
L 207.130212 200.841449 
M 138.43158 81.851929 
L 136.122397 80.469039 
L 134.669447 79.781381 
L 132.911314 82.826555 
L 136.354741 84.456274 
L 141.8274 87.733661 
" clip-path="url(#pd7a447763f)" style="fill: #e5e419"/>
   </g>
   <g id="PathCollection_14">
    <path d="M 134.669447 79.781381 
L 136.122397 80.469039 
L 138.43158 81.851929 
L 135.952798 77.558551 
" clip-path="url(#pd7a447763f)" style="fill: #fde725"/>
   </g>
   <g id="line2d_1">
    <path d="M 64.775384 200.841449 
L 207.130212 200.841449 
L 135.952798 77.558551 
L 64.775384 200.841449 
" clip-path="url(#pd7a447763f)" style="fill: none; stroke: #000000; stroke-width: 2; stroke-linecap: square"/>
   </g>
   <g id="PathCollection_15"/>
   <g id="PathCollection_16">
    <path d="M 100.106341 139.646435 
L 100.143962 140.228629 
L 100.877877 151.728 
L 99.487928 156.107475 
L 98.593343 157.328945 
L 95.089938 159.606722 
L 93.896644 160.287493 
L 89.703287 161.434901 
L 87.724359 161.587363 
L 87.479407 161.516926 
" clip-path="url(#pd7a447763f)" style="fill: none; stroke: #000000; stroke-opacity: 0.3; stroke-width: 0.5"/>
   </g>
   <g id="PathCollection_17">
    <path d="M 107.339203 127.118751 
L 107.591256 127.435366 
L 114.802742 136.610195 
L 115.484764 138.061834 
L 119.056047 146.021245 
L 120.049678 148.225274 
L 120.737355 150.465796 
L 120.904649 153.325829 
L 118.618447 162.816287 
L 117.059124 167.057256 
L 116.433829 168.464819 
L 115.999763 169.04737 
L 115.592933 169.437297 
L 113.682116 171.003465 
L 109.697248 173.111477 
L 104.074656 175.380652 
L 103.932143 175.425702 
L 103.250216 175.531869 
L 101.239561 175.867182 
L 99.652759 176.155151 
L 90.257998 175.94801 
L 86.264349 176.171379 
L 79.479077 176.542438 
L 78.85936 176.447287 
" clip-path="url(#pd7a447763f)" style="fill: none; stroke: #000000; stroke-opacity: 0.3; stroke-width: 0.5"/>
   </g>
   <g id="PathCollection_18">
    <path d="M 110.700868 121.296176 
L 112.485168 121.141691 
L 113.311853 121.673378 
L 117.159053 124.66254 
L 119.339001 126.730457 
L 121.185622 128.815506 
L 123.324255 131.41646 
L 124.712193 133.286264 
L 126.626735 136.179173 
L 127.388647 137.329274 
L 129.14659 140.179572 
L 132.493259 151.206948 
L 134.842043 156.762983 
L 135.135057 161.17225 
L 134.791649 163.162864 
L 133.390073 165.435854 
L 127.89219 176.806015 
L 124.207442 180.959552 
L 123.108875 182.166284 
L 122.858148 182.331398 
L 122.019581 182.523838 
L 121.933235 182.542047 
L 119.872466 183.191847 
L 106.343214 187.525342 
L 104.76646 187.580499 
L 101.468708 187.382489 
L 98.219345 186.988256 
L 89.501546 187.358164 
L 88.033947 187.12206 
L 85.465749 186.702668 
L 77.203309 186.032737 
L 73.640982 185.485781 
" clip-path="url(#pd7a447763f)" style="fill: none; stroke: #000000; stroke-opacity: 0.3; stroke-width: 0.5"/>
   </g>
   <g id="PathCollection_19">
    <path d="M 113.986372 115.605516 
L 117.591815 115.293356 
L 117.768626 115.407073 
L 119.465651 116.888265 
L 123.277782 120.923277 
L 127.590548 125.193636 
L 130.610457 128.811359 
L 131.39748 129.761454 
L 133.270838 132.008675 
L 136.628872 136.958743 
L 138.101982 139.307153 
L 140.720854 144.108516 
L 144.357602 154.474072 
L 145.111863 156.888092 
L 145.794845 158.522243 
L 145.961561 159.944103 
L 146.103948 162.318227 
L 145.575228 167.654299 
L 145.462096 168.183254 
L 144.761209 172.54807 
L 141.738144 178.800063 
L 140.282178 180.441263 
L 130.425673 191.268249 
L 128.17611 192.749678 
L 120.652359 194.47628 
L 119.877655 194.639652 
L 113.27643 196.721143 
L 113.120543 196.747204 
L 112.126311 196.889106 
L 111.422946 196.967886 
L 110.502753 197.048424 
L 108.506596 197.14892 
L 108.249926 197.155188 
L 107.758516 197.163196 
L 107.526681 197.165175 
L 107.327821 197.165957 
L 103.746112 197.348459 
L 103.726971 197.348487 
L 102.942128 197.342535 
L 102.696548 197.337873 
L 101.812445 197.310345 
L 101.700926 197.305691 
L 101.626851 197.302452 
L 98.885938 197.201596 
L 95.54866 197.103194 
L 95.191084 197.05981 
L 95.020041 197.067068 
L 91.001973 196.42065 
L 83.97063 195.272419 
L 77.510311 194.748607 
L 69.155448 193.254954 
" clip-path="url(#pd7a447763f)" style="fill: none; stroke: #000000; stroke-opacity: 0.3; stroke-width: 0.5"/>
   </g>
   <g id="PathCollection_20">
    <path d="M 67.592966 200.841449 
L 65.038996 200.384859 
" clip-path="url(#pd7a447763f)" style="fill: none; stroke: #000000; stroke-opacity: 0.3; stroke-width: 0.5"/>
    <path d="M 117.271877 109.914856 
L 119.385871 109.731826 
L 123.165656 112.262539 
L 125.577693 114.061419 
L 127.130538 115.396895 
L 131.50625 119.524751 
L 134.94517 122.929856 
L 135.344296 123.407993 
L 135.448313 123.533562 
L 139.947972 128.93121 
L 140.910186 130.349607 
L 145.268481 137.297537 
L 153.016588 151.50269 
L 153.409325 152.62208 
L 153.490779 152.882773 
L 153.727541 153.449267 
L 154.635369 157.203176 
L 155.866197 163.383226 
L 155.959434 164.937827 
L 155.246463 172.133452 
L 154.985752 177.653166 
L 154.884018 178.695651 
L 154.755033 179.471783 
L 153.839287 181.951073 
L 153.633778 182.449357 
L 149.719808 187.245057 
L 149.515123 187.467299 
L 149.277426 187.722578 
L 149.141316 187.867498 
L 148.644467 188.389522 
L 148.553551 188.483956 
L 147.892876 189.161352 
L 147.413021 189.644761 
L 139.135566 198.726396 
L 138.83298 198.935903 
L 138.740568 198.996475 
L 138.731399 199.002412 
L 138.623724 199.071222 
L 138.306356 199.265642 
L 138.300525 199.269113 
L 138.020899 199.431926 
L 137.937498 199.479248 
L 137.791677 199.560787 
L 137.510808 199.714008 
L 137.125129 199.917474 
L 137.105283 199.927751 
L 136.667254 200.150588 
L 136.255311 200.353966 
L 136.08352 200.437266 
L 136.002158 200.476435 
L 135.890051 200.530114 
L 135.260153 200.826212 
L 135.226553 200.841449 
" clip-path="url(#pd7a447763f)" style="fill: none; stroke: #000000; stroke-opacity: 0.3; stroke-width: 0.5"/>
   </g>
   <g id="PathCollection_21">
    <path d="M 120.557381 104.224196 
L 121.108979 104.176438 
L 124.457703 106.41854 
L 127.229059 108.659393 
L 127.935826 109.173885 
L 130.032001 110.687721 
L 136.238964 115.896724 
L 138.885893 118.860009 
L 142.918727 123.224028 
L 145.001673 125.336825 
L 146.560905 126.964902 
L 150.153685 131.651114 
L 152.43498 135.28792 
L 155.149206 140.264104 
L 161.895723 153.554222 
L 162.082256 154.096647 
L 162.980398 157.043482 
L 163.325222 158.310585 
L 163.845916 161.585804 
L 164.778925 166.941012 
L 164.875659 167.617829 
L 164.881791 168.190573 
L 162.608419 183.752509 
L 161.641705 188.619638 
L 161.572139 188.753924 
L 157.250065 195.031927 
L 155.462645 197.381599 
L 155.416134 197.441633 
L 155.06829 197.889221 
L 154.330692 198.831078 
L 153.976157 199.280732 
L 152.734132 200.841449 
" clip-path="url(#pd7a447763f)" style="fill: none; stroke: #000000; stroke-opacity: 0.3; stroke-width: 0.5"/>
   </g>
   <g id="PathCollection_22">
    <path d="M 123.100802 99.818861 
L 123.53557 100.043073 
L 128.084867 103.721526 
L 130.989425 105.835909 
L 139.603963 112.057236 
L 141.433221 113.592385 
L 142.2133 114.465697 
L 143.40182 115.75182 
L 148.965751 121.395492 
L 153.130748 125.744384 
L 153.791067 126.605665 
L 157.933335 132.350777 
L 160.339181 135.884626 
L 160.838181 136.723845 
L 166.604229 148.251816 
L 168.060215 150.56748 
L 168.418899 151.713477 
L 170.094729 156.420954 
L 171.693696 162.35974 
L 172.32762 165.998288 
L 173.004579 170.734746 
L 173.047491 174.742877 
L 172.289237 179.933356 
L 171.547168 183.669465 
L 170.44123 190.704352 
L 170.379821 190.851449 
L 168.736817 194.735379 
L 166.394074 198.626213 
L 164.985512 200.841449 
" clip-path="url(#pd7a447763f)" style="fill: none; stroke: #000000; stroke-opacity: 0.3; stroke-width: 0.5"/>
   </g>
   <g id="PathCollection_23">
    <path d="M 125.239265 96.114934 
L 126.346057 96.685714 
L 128.940674 98.78366 
L 134.043025 102.497932 
L 143.272484 109.163349 
L 144.259574 109.837307 
L 145.026242 110.379544 
L 151.951874 116.845911 
L 155.604511 120.695985 
L 159.11109 124.612074 
L 160.557688 126.439012 
L 162.214407 128.736796 
L 168.781701 138.383225 
L 170.143833 140.674061 
L 171.020187 142.426142 
L 171.445045 143.101855 
L 175.040527 150.644658 
L 176.000371 152.917363 
L 176.371423 154.043992 
L 177.446051 157.278062 
L 179.482059 164.961619 
L 179.897245 168.652478 
L 180.567258 173.042104 
L 180.709056 177.605308 
L 180.694324 179.547831 
L 180.720093 179.994798 
L 180.54124 182.710557 
L 180.038214 185.40517 
L 178.67706 192.402471 
L 177.535353 195.094527 
L 176.274409 198.194434 
L 174.728056 200.841449 
" clip-path="url(#pd7a447763f)" style="fill: none; stroke: #000000; stroke-opacity: 0.3; stroke-width: 0.5"/>
   </g>
   <g id="PathCollection_24">
    <path d="M 186.247733 164.671935 
L 187.80704 174.887814 
L 187.865561 176.771101 
L 187.859482 177.572802 
L 187.959489 179.307495 
L 187.265357 189.847424 
L 186.776232 192.46757 
L 184.769315 198.923578 
L 184.140592 200.469233 
L 183.923148 200.841449 
" clip-path="url(#pd7a447763f)" style="fill: none; stroke: #000000; stroke-opacity: 0.3; stroke-width: 0.5"/>
    <path d="M 127.377728 92.411008 
L 129.156543 93.328354 
L 129.796482 93.845793 
L 137.096625 99.159956 
L 142.703552 103.209218 
L 145.386258 105.040896 
L 147.469904 106.514585 
L 151.117005 109.919834 
L 160.108339 119.397177 
" clip-path="url(#pd7a447763f)" style="fill: none; stroke: #000000; stroke-opacity: 0.3; stroke-width: 0.5"/>
   </g>
   <g id="PathCollection_25">
    <path d="M 194.968506 179.776756 
L 195.100574 181.048808 
L 194.581478 190.996152 
L 194.462592 192.003867 
L 193.28193 196.932361 
L 192.807471 198.927036 
L 192.55695 199.744873 
L 192.065615 200.841449 
" clip-path="url(#pd7a447763f)" style="fill: none; stroke: #000000; stroke-opacity: 0.3; stroke-width: 0.5"/>
    <path d="M 129.395049 88.916904 
L 130.076891 89.239609 
L 130.515749 89.479083 
L 132.34392 90.589517 
L 136.550504 93.201551 
L 140.150225 95.821979 
L 142.134619 97.255088 
L 146.512943 100.244486 
L 149.913566 102.649627 
L 150.282136 102.993756 
L 151.190786 103.951521 
" clip-path="url(#pd7a447763f)" style="fill: none; stroke: #000000; stroke-opacity: 0.3; stroke-width: 0.5"/>
   </g>
   <g id="PathCollection_26">
    <path d="M 201.554858 191.184652 
L 201.283785 194.307566 
L 201.231674 194.583917 
L 201.198197 194.757026 
L 200.757198 197.012528 
L 199.992298 200.209367 
L 199.928733 200.431828 
L 199.804825 200.841449 
" clip-path="url(#pd7a447763f)" style="fill: none; stroke: #000000; stroke-opacity: 0.3; stroke-width: 0.5"/>
    <path d="M 131.153182 85.87173 
L 133.975704 87.207584 
L 135.629659 88.110105 
L 136.029891 88.349832 
L 142.342389 92.283677 
L 145.224957 94.296027 
L 146.036086 95.023319 
" clip-path="url(#pd7a447763f)" style="fill: none; stroke: #000000; stroke-opacity: 0.3; stroke-width: 0.5"/>
   </g>
   <g id="PathCollection_27">
    <path d="M 207.123284 200.829451 
L 207.122948 200.833331 
L 207.121925 200.838756 
L 207.12111 200.841449 
" clip-path="url(#pd7a447763f)" style="fill: none; stroke: #000000; stroke-opacity: 0.3; stroke-width: 0.5"/>
    <path d="M 132.911314 82.826555 
L 136.354741 84.456274 
L 141.8274 87.733661 
" clip-path="url(#pd7a447763f)" style="fill: none; stroke: #000000; stroke-opacity: 0.3; stroke-width: 0.5"/>
   </g>
   <g id="PathCollection_28">
    <path d="M 134.669447 79.781381 
L 136.122397 80.469039 
L 138.43158 81.851929 
" clip-path="url(#pd7a447763f)" style="fill: none; stroke: #000000; stroke-opacity: 0.3; stroke-width: 0.5"/>
   </g>
   <g id="PathCollection_29"/>
   <g id="text_1">
    <!-- Heavy-end -->
    <g transform="translate(7.2 210.806287)scale(0.12 -0.12)">
     <defs>
      <path id="DejaVuSans-48" d="M 628 4666 
L 1259 4666 
L 1259 2753 
L 3553 2753 
L 3553 4666 
L 4184 4666 
L 4184 0 
L 3553 0 
L 3553 2222 
L 1259 2222 
L 1259 0 
L 628 0 
L 628 4666 
z
" transform="scale(0.015625)"/>
      <path id="DejaVuSans-65" d="M 3597 1894 
L 3597 1613 
L 953 1613 
Q 991 1019 1311 708 
Q 1631 397 2203 397 
Q 2534 397 2845 478 
Q 3156 559 3463 722 
L 3463 178 
Q 3153 47 2828 -22 
Q 2503 -91 2169 -91 
Q 1331 -91 842 396 
Q 353 884 353 1716 
Q 353 2575 817 3079 
Q 1281 3584 2069 3584 
Q 2775 3584 3186 3129 
Q 3597 2675 3597 1894 
z
M 3022 2063 
Q 3016 2534 2758 2815 
Q 2500 3097 2075 3097 
Q 1594 3097 1305 2825 
Q 1016 2553 972 2059 
L 3022 2063 
z
" transform="scale(0.015625)"/>
      <path id="DejaVuSans-61" d="M 2194 1759 
Q 1497 1759 1228 1600 
Q 959 1441 959 1056 
Q 959 750 1161 570 
Q 1363 391 1709 391 
Q 2188 391 2477 730 
Q 2766 1069 2766 1631 
L 2766 1759 
L 2194 1759 
z
M 3341 1997 
L 3341 0 
L 2766 0 
L 2766 531 
Q 2569 213 2275 61 
Q 1981 -91 1556 -91 
Q 1019 -91 701 211 
Q 384 513 384 1019 
Q 384 1609 779 1909 
Q 1175 2209 1959 2209 
L 2766 2209 
L 2766 2266 
Q 2766 2663 2505 2880 
Q 2244 3097 1772 3097 
Q 1472 3097 1187 3025 
Q 903 2953 641 2809 
L 641 3341 
Q 956 3463 1253 3523 
Q 1550 3584 1831 3584 
Q 2591 3584 2966 3190 
Q 3341 2797 3341 1997 
z
" transform="scale(0.015625)"/>
      <path id="DejaVuSans-76" d="M 191 3500 
L 800 3500 
L 1894 563 
L 2988 3500 
L 3597 3500 
L 2284 0 
L 1503 0 
L 191 3500 
z
" transform="scale(0.015625)"/>
      <path id="DejaVuSans-79" d="M 2059 -325 
Q 1816 -950 1584 -1140 
Q 1353 -1331 966 -1331 
L 506 -1331 
L 506 -850 
L 844 -850 
Q 1081 -850 1212 -737 
Q 1344 -625 1503 -206 
L 1606 56 
L 191 3500 
L 800 3500 
L 1894 763 
L 2988 3500 
L 3597 3500 
L 2059 -325 
z
" transform="scale(0.015625)"/>
      <path id="DejaVuSans-2d" d="M 313 2009 
L 1997 2009 
L 1997 1497 
L 313 1497 
L 313 2009 
z
" transform="scale(0.015625)"/>
      <path id="DejaVuSans-6e" d="M 3513 2113 
L 3513 0 
L 2938 0 
L 2938 2094 
Q 2938 2591 2744 2837 
Q 2550 3084 2163 3084 
Q 1697 3084 1428 2787 
Q 1159 2491 1159 1978 
L 1159 0 
L 581 0 
L 581 3500 
L 1159 3500 
L 1159 2956 
Q 1366 3272 1645 3428 
Q 1925 3584 2291 3584 
Q 2894 3584 3203 3211 
Q 3513 2838 3513 2113 
z
" transform="scale(0.015625)"/>
      <path id="DejaVuSans-64" d="M 2906 2969 
L 2906 4863 
L 3481 4863 
L 3481 0 
L 2906 0 
L 2906 525 
Q 2725 213 2448 61 
Q 2172 -91 1784 -91 
Q 1150 -91 751 415 
Q 353 922 353 1747 
Q 353 2572 751 3078 
Q 1150 3584 1784 3584 
Q 2172 3584 2448 3432 
Q 2725 3281 2906 2969 
z
M 947 1747 
Q 947 1113 1208 752 
Q 1469 391 1925 391 
Q 2381 391 2643 752 
Q 2906 1113 2906 1747 
Q 2906 2381 2643 2742 
Q 2381 3103 1925 3103 
Q 1469 3103 1208 2742 
Q 947 2381 947 1747 
z
" transform="scale(0.015625)"/>
     </defs>
     <use xlink:href="#DejaVuSans-48"/>
     <use xlink:href="#DejaVuSans-65" x="75.195312"/>
     <use xlink:href="#DejaVuSans-61" x="136.71875"/>
     <use xlink:href="#DejaVuSans-76" x="197.998047"/>
     <use xlink:href="#DejaVuSans-79" x="257.177734"/>
     <use xlink:href="#DejaVuSans-2d" x="314.607422"/>
     <use xlink:href="#DejaVuSans-65" x="350.691406"/>
     <use xlink:href="#DejaVuSans-6e" x="412.214844"/>
     <use xlink:href="#DejaVuSans-64" x="475.59375"/>
    </g>
   </g>
   <g id="text_2">
    <!-- Peak Shift -->
    <g transform="translate(200.01247 210.806287)scale(0.12 -0.12)">
     <defs>
      <path id="DejaVuSans-50" d="M 1259 4147 
L 1259 2394 
L 2053 2394 
Q 2494 2394 2734 2622 
Q 2975 2850 2975 3272 
Q 2975 3691 2734 3919 
Q 2494 4147 2053 4147 
L 1259 4147 
z
M 628 4666 
L 2053 4666 
Q 2838 4666 3239 4311 
Q 3641 3956 3641 3272 
Q 3641 2581 3239 2228 
Q 2838 1875 2053 1875 
L 1259 1875 
L 1259 0 
L 628 0 
L 628 4666 
z
" transform="scale(0.015625)"/>
      <path id="DejaVuSans-6b" d="M 581 4863 
L 1159 4863 
L 1159 1991 
L 2875 3500 
L 3609 3500 
L 1753 1863 
L 3688 0 
L 2938 0 
L 1159 1709 
L 1159 0 
L 581 0 
L 581 4863 
z
" transform="scale(0.015625)"/>
      <path id="DejaVuSans-20" transform="scale(0.015625)"/>
      <path id="DejaVuSans-53" d="M 3425 4513 
L 3425 3897 
Q 3066 4069 2747 4153 
Q 2428 4238 2131 4238 
Q 1616 4238 1336 4038 
Q 1056 3838 1056 3469 
Q 1056 3159 1242 3001 
Q 1428 2844 1947 2747 
L 2328 2669 
Q 3034 2534 3370 2195 
Q 3706 1856 3706 1288 
Q 3706 609 3251 259 
Q 2797 -91 1919 -91 
Q 1588 -91 1214 -16 
Q 841 59 441 206 
L 441 856 
Q 825 641 1194 531 
Q 1563 422 1919 422 
Q 2459 422 2753 634 
Q 3047 847 3047 1241 
Q 3047 1584 2836 1778 
Q 2625 1972 2144 2069 
L 1759 2144 
Q 1053 2284 737 2584 
Q 422 2884 422 3419 
Q 422 4038 858 4394 
Q 1294 4750 2059 4750 
Q 2388 4750 2728 4690 
Q 3069 4631 3425 4513 
z
" transform="scale(0.015625)"/>
      <path id="DejaVuSans-68" d="M 3513 2113 
L 3513 0 
L 2938 0 
L 2938 2094 
Q 2938 2591 2744 2837 
Q 2550 3084 2163 3084 
Q 1697 3084 1428 2787 
Q 1159 2491 1159 1978 
L 1159 0 
L 581 0 
L 581 4863 
L 1159 4863 
L 1159 2956 
Q 1366 3272 1645 3428 
Q 1925 3584 2291 3584 
Q 2894 3584 3203 3211 
Q 3513 2838 3513 2113 
z
" transform="scale(0.015625)"/>
      <path id="DejaVuSans-69" d="M 603 3500 
L 1178 3500 
L 1178 0 
L 603 0 
L 603 3500 
z
M 603 4863 
L 1178 4863 
L 1178 4134 
L 603 4134 
L 603 4863 
z
" transform="scale(0.015625)"/>
      <path id="DejaVuSans-66" d="M 2375 4863 
L 2375 4384 
L 1825 4384 
Q 1516 4384 1395 4259 
Q 1275 4134 1275 3809 
L 1275 3500 
L 2222 3500 
L 2222 3053 
L 1275 3053 
L 1275 0 
L 697 0 
L 697 3053 
L 147 3053 
L 147 3500 
L 697 3500 
L 697 3744 
Q 697 4328 969 4595 
Q 1241 4863 1831 4863 
L 2375 4863 
z
" transform="scale(0.015625)"/>
      <path id="DejaVuSans-74" d="M 1172 4494 
L 1172 3500 
L 2356 3500 
L 2356 3053 
L 1172 3053 
L 1172 1153 
Q 1172 725 1289 603 
Q 1406 481 1766 481 
L 2356 481 
L 2356 0 
L 1766 0 
Q 1100 0 847 248 
Q 594 497 594 1153 
L 594 3053 
L 172 3053 
L 172 3500 
L 594 3500 
L 594 4494 
L 1172 4494 
z
" transform="scale(0.015625)"/>
     </defs>
     <use xlink:href="#DejaVuSans-50"/>
     <use xlink:href="#DejaVuSans-65" x="56.677734"/>
     <use xlink:href="#DejaVuSans-61" x="118.201172"/>
     <use xlink:href="#DejaVuSans-6b" x="179.480469"/>
     <use xlink:href="#DejaVuSans-20" x="237.390625"/>
     <use xlink:href="#DejaVuSans-53" x="269.177734"/>
     <use xlink:href="#DejaVuSans-68" x="332.654297"/>
     <use xlink:href="#DejaVuSans-69" x="396.033203"/>
     <use xlink:href="#DejaVuSans-66" x="423.816406"/>
     <use xlink:href="#DejaVuSans-74" x="457.271484"/>
    </g>
   </g>
   <g id="text_3">
    <!-- Base -->
    <g transform="translate(121.34186 70.44081)scale(0.12 -0.12)">
     <defs>
      <path id="DejaVuSans-42" d="M 1259 2228 
L 1259 519 
L 2272 519 
Q 2781 519 3026 730 
Q 3272 941 3272 1375 
Q 3272 1813 3026 2020 
Q 2781 2228 2272 2228 
L 1259 2228 
z
M 1259 4147 
L 1259 2741 
L 2194 2741 
Q 2656 2741 2882 2914 
Q 3109 3088 3109 3444 
Q 3109 3797 2882 3972 
Q 2656 4147 2194 4147 
L 1259 4147 
z
M 628 4666 
L 2241 4666 
Q 2963 4666 3353 4366 
Q 3744 4066 3744 3513 
Q 3744 3084 3544 2831 
Q 3344 2578 2956 2516 
Q 3422 2416 3680 2098 
Q 3938 1781 3938 1306 
Q 3938 681 3513 340 
Q 3088 0 2303 0 
L 628 0 
L 628 4666 
z
" transform="scale(0.015625)"/>
      <path id="DejaVuSans-73" d="M 2834 3397 
L 2834 2853 
Q 2591 2978 2328 3040 
Q 2066 3103 1784 3103 
Q 1356 3103 1142 2972 
Q 928 2841 928 2578 
Q 928 2378 1081 2264 
Q 1234 2150 1697 2047 
L 1894 2003 
Q 2506 1872 2764 1633 
Q 3022 1394 3022 966 
Q 3022 478 2636 193 
Q 2250 -91 1575 -91 
Q 1294 -91 989 -36 
Q 684 19 347 128 
L 347 722 
Q 666 556 975 473 
Q 1284 391 1588 391 
Q 1994 391 2212 530 
Q 2431 669 2431 922 
Q 2431 1156 2273 1281 
Q 2116 1406 1581 1522 
L 1381 1569 
Q 847 1681 609 1914 
Q 372 2147 372 2553 
Q 372 3047 722 3315 
Q 1072 3584 1716 3584 
Q 2034 3584 2315 3537 
Q 2597 3491 2834 3397 
z
" transform="scale(0.015625)"/>
     </defs>
     <use xlink:href="#DejaVuSans-42"/>
     <use xlink:href="#DejaVuSans-61" x="68.603516"/>
     <use xlink:href="#DejaVuSans-73" x="129.882812"/>
     <use xlink:href="#DejaVuSans-65" x="181.982422"/>
    </g>
   </g>
  </g>
  <g id="axes_2">
   <g id="patch_2">
    <path d="M 221.920324 193.2 
L 229.840324 193.2 
L 229.840324 85.2 
L 221.920324 85.2 
z
" style="fill: #ffffff"/>
   </g>
   <g id="patch_3">
    <path clip-path="url(#pf35144cd94)" style="fill: #ffffff; stroke: #ffffff; stroke-width: 0.01; stroke-linejoin: miter"/>
   </g>
   <g id="patch_4">
    <path d="M 221.920324 193.2 
L 225.880324 198.6 
L 229.840324 193.2 
" style="fill: #440154"/>
   </g>
   <g id="patch_5">
    <path d="M 221.920324 85.2 
L 225.880324 79.8 
L 229.840324 85.2 
" style="fill: #fde725"/>
   </g>
   <g id="QuadMesh_1">
    <path d="M 221.920324 193.2 
L 229.840324 193.2 
L 229.840324 184.2 
L 221.920324 184.2 
L 221.920324 193.2 
" clip-path="url(#pf35144cd94)" style="fill: #471063"/>
    <path d="M 221.920324 184.2 
L 229.840324 184.2 
L 229.840324 175.2 
L 221.920324 175.2 
L 221.920324 184.2 
" clip-path="url(#pf35144cd94)" style="fill: #472d7b"/>
    <path d="M 221.920324 175.2 
L 229.840324 175.2 
L 229.840324 166.2 
L 221.920324 166.2 
L 221.920324 175.2 
" clip-path="url(#pf35144cd94)" style="fill: #404688"/>
    <path d="M 221.920324 166.2 
L 229.840324 166.2 
L 229.840324 157.2 
L 221.920324 157.2 
L 221.920324 166.2 
" clip-path="url(#pf35144cd94)" style="fill: #365d8d"/>
    <path d="M 221.920324 157.2 
L 229.840324 157.2 
L 229.840324 148.2 
L 221.920324 148.2 
L 221.920324 157.2 
" clip-path="url(#pf35144cd94)" style="fill: #2c728e"/>
    <path d="M 221.920324 148.2 
L 229.840324 148.2 
L 229.840324 139.2 
L 221.920324 139.2 
L 221.920324 148.2 
" clip-path="url(#pf35144cd94)" style="fill: #24868e"/>
    <path d="M 221.920324 139.2 
L 229.840324 139.2 
L 229.840324 130.2 
L 221.920324 130.2 
L 221.920324 139.2 
" clip-path="url(#pf35144cd94)" style="fill: #1f9a8a"/>
    <path d="M 221.920324 130.2 
L 229.840324 130.2 
L 229.840324 121.2 
L 221.920324 121.2 
L 221.920324 130.2 
" clip-path="url(#pf35144cd94)" style="fill: #27ad81"/>
    <path d="M 221.920324 121.2 
L 229.840324 121.2 
L 229.840324 112.2 
L 221.920324 112.2 
L 221.920324 121.2 
" clip-path="url(#pf35144cd94)" style="fill: #48c16e"/>
    <path d="M 221.920324 112.2 
L 229.840324 112.2 
L 229.840324 103.2 
L 221.920324 103.2 
L 221.920324 112.2 
" clip-path="url(#pf35144cd94)" style="fill: #75d054"/>
    <path d="M 221.920324 103.2 
L 229.840324 103.2 
L 229.840324 94.2 
L 221.920324 94.2 
L 221.920324 103.2 
" clip-path="url(#pf35144cd94)" style="fill: #aadc32"/>
    <path d="M 221.920324 94.2 
L 229.840324 94.2 
L 229.840324 85.2 
L 221.920324 85.2 
L 221.920324 94.2 
" clip-path="url(#pf35144cd94)" style="fill: #e5e419"/>
   </g>
   <g id="matplotlib.axis_1">
    <g id="ytick_1">
     <g id="line2d_2">
      <defs>
       <path id="m0d65a398c6" d="M 0 0 
L 3.5 0 
" style="stroke: #000000; stroke-width: 0.8"/>
      </defs>
      <g>
       <use xlink:href="#m0d65a398c6" x="229.840324" y="193.2" style="stroke: #000000; stroke-width: 0.8"/>
      </g>
     </g>
     <g id="text_4">
      <!-- 1.605 -->
      <g transform="translate(233.340324 196.999219)scale(0.1 -0.1)">
       <defs>
        <path id="DejaVuSans-31" d="M 794 531 
L 1825 531 
L 1825 4091 
L 703 3866 
L 703 4441 
L 1819 4666 
L 2450 4666 
L 2450 531 
L 3481 531 
L 3481 0 
L 794 0 
L 794 531 
z
" transform="scale(0.015625)"/>
        <path id="DejaVuSans-2e" d="M 684 794 
L 1344 794 
L 1344 0 
L 684 0 
L 684 794 
z
" transform="scale(0.015625)"/>
        <path id="DejaVuSans-36" d="M 2113 2584 
Q 1688 2584 1439 2293 
Q 1191 2003 1191 1497 
Q 1191 994 1439 701 
Q 1688 409 2113 409 
Q 2538 409 2786 701 
Q 3034 994 3034 1497 
Q 3034 2003 2786 2293 
Q 2538 2584 2113 2584 
z
M 3366 4563 
L 3366 3988 
Q 3128 4100 2886 4159 
Q 2644 4219 2406 4219 
Q 1781 4219 1451 3797 
Q 1122 3375 1075 2522 
Q 1259 2794 1537 2939 
Q 1816 3084 2150 3084 
Q 2853 3084 3261 2657 
Q 3669 2231 3669 1497 
Q 3669 778 3244 343 
Q 2819 -91 2113 -91 
Q 1303 -91 875 529 
Q 447 1150 447 2328 
Q 447 3434 972 4092 
Q 1497 4750 2381 4750 
Q 2619 4750 2861 4703 
Q 3103 4656 3366 4563 
z
" transform="scale(0.015625)"/>
        <path id="DejaVuSans-30" d="M 2034 4250 
Q 1547 4250 1301 3770 
Q 1056 3291 1056 2328 
Q 1056 1369 1301 889 
Q 1547 409 2034 409 
Q 2525 409 2770 889 
Q 3016 1369 3016 2328 
Q 3016 3291 2770 3770 
Q 2525 4250 2034 4250 
z
M 2034 4750 
Q 2819 4750 3233 4129 
Q 3647 3509 3647 2328 
Q 3647 1150 3233 529 
Q 2819 -91 2034 -91 
Q 1250 -91 836 529 
Q 422 1150 422 2328 
Q 422 3509 836 4129 
Q 1250 4750 2034 4750 
z
" transform="scale(0.015625)"/>
        <path id="DejaVuSans-35" d="M 691 4666 
L 3169 4666 
L 3169 4134 
L 1269 4134 
L 1269 2991 
Q 1406 3038 1543 3061 
Q 1681 3084 1819 3084 
Q 2600 3084 3056 2656 
Q 3513 2228 3513 1497 
Q 3513 744 3044 326 
Q 2575 -91 1722 -91 
Q 1428 -91 1123 -41 
Q 819 9 494 109 
L 494 744 
Q 775 591 1075 516 
Q 1375 441 1709 441 
Q 2250 441 2565 725 
Q 2881 1009 2881 1497 
Q 2881 1984 2565 2268 
Q 2250 2553 1709 2553 
Q 1456 2553 1204 2497 
Q 953 2441 691 2322 
L 691 4666 
z
" transform="scale(0.015625)"/>
       </defs>
       <use xlink:href="#DejaVuSans-31"/>
       <use xlink:href="#DejaVuSans-2e" x="63.623047"/>
       <use xlink:href="#DejaVuSans-36" x="95.410156"/>
       <use xlink:href="#DejaVuSans-30" x="159.033203"/>
       <use xlink:href="#DejaVuSans-35" x="222.65625"/>
      </g>
     </g>
    </g>
    <g id="ytick_2">
     <g id="line2d_3">
      <g>
       <use xlink:href="#m0d65a398c6" x="229.840324" y="175.2" style="stroke: #000000; stroke-width: 0.8"/>
      </g>
     </g>
     <g id="text_5">
      <!-- 1.635 -->
      <g transform="translate(233.340324 178.999219)scale(0.1 -0.1)">
       <defs>
        <path id="DejaVuSans-33" d="M 2597 2516 
Q 3050 2419 3304 2112 
Q 3559 1806 3559 1356 
Q 3559 666 3084 287 
Q 2609 -91 1734 -91 
Q 1441 -91 1130 -33 
Q 819 25 488 141 
L 488 750 
Q 750 597 1062 519 
Q 1375 441 1716 441 
Q 2309 441 2620 675 
Q 2931 909 2931 1356 
Q 2931 1769 2642 2001 
Q 2353 2234 1838 2234 
L 1294 2234 
L 1294 2753 
L 1863 2753 
Q 2328 2753 2575 2939 
Q 2822 3125 2822 3475 
Q 2822 3834 2567 4026 
Q 2313 4219 1838 4219 
Q 1578 4219 1281 4162 
Q 984 4106 628 3988 
L 628 4550 
Q 988 4650 1302 4700 
Q 1616 4750 1894 4750 
Q 2613 4750 3031 4423 
Q 3450 4097 3450 3541 
Q 3450 3153 3228 2886 
Q 3006 2619 2597 2516 
z
" transform="scale(0.015625)"/>
       </defs>
       <use xlink:href="#DejaVuSans-31"/>
       <use xlink:href="#DejaVuSans-2e" x="63.623047"/>
       <use xlink:href="#DejaVuSans-36" x="95.410156"/>
       <use xlink:href="#DejaVuSans-33" x="159.033203"/>
       <use xlink:href="#DejaVuSans-35" x="222.65625"/>
      </g>
     </g>
    </g>
    <g id="ytick_3">
     <g id="line2d_4">
      <g>
       <use xlink:href="#m0d65a398c6" x="229.840324" y="157.2" style="stroke: #000000; stroke-width: 0.8"/>
      </g>
     </g>
     <g id="text_6">
      <!-- 1.665 -->
      <g transform="translate(233.340324 160.999219)scale(0.1 -0.1)">
       <use xlink:href="#DejaVuSans-31"/>
       <use xlink:href="#DejaVuSans-2e" x="63.623047"/>
       <use xlink:href="#DejaVuSans-36" x="95.410156"/>
       <use xlink:href="#DejaVuSans-36" x="159.033203"/>
       <use xlink:href="#DejaVuSans-35" x="222.65625"/>
      </g>
     </g>
    </g>
    <g id="ytick_4">
     <g id="line2d_5">
      <g>
       <use xlink:href="#m0d65a398c6" x="229.840324" y="139.2" style="stroke: #000000; stroke-width: 0.8"/>
      </g>
     </g>
     <g id="text_7">
      <!-- 1.695 -->
      <g transform="translate(233.340324 142.999219)scale(0.1 -0.1)">
       <defs>
        <path id="DejaVuSans-39" d="M 703 97 
L 703 672 
Q 941 559 1184 500 
Q 1428 441 1663 441 
Q 2288 441 2617 861 
Q 2947 1281 2994 2138 
Q 2813 1869 2534 1725 
Q 2256 1581 1919 1581 
Q 1219 1581 811 2004 
Q 403 2428 403 3163 
Q 403 3881 828 4315 
Q 1253 4750 1959 4750 
Q 2769 4750 3195 4129 
Q 3622 3509 3622 2328 
Q 3622 1225 3098 567 
Q 2575 -91 1691 -91 
Q 1453 -91 1209 -44 
Q 966 3 703 97 
z
M 1959 2075 
Q 2384 2075 2632 2365 
Q 2881 2656 2881 3163 
Q 2881 3666 2632 3958 
Q 2384 4250 1959 4250 
Q 1534 4250 1286 3958 
Q 1038 3666 1038 3163 
Q 1038 2656 1286 2365 
Q 1534 2075 1959 2075 
z
" transform="scale(0.015625)"/>
       </defs>
       <use xlink:href="#DejaVuSans-31"/>
       <use xlink:href="#DejaVuSans-2e" x="63.623047"/>
       <use xlink:href="#DejaVuSans-36" x="95.410156"/>
       <use xlink:href="#DejaVuSans-39" x="159.033203"/>
       <use xlink:href="#DejaVuSans-35" x="222.65625"/>
      </g>
     </g>
    </g>
    <g id="ytick_5">
     <g id="line2d_6">
      <g>
       <use xlink:href="#m0d65a398c6" x="229.840324" y="121.2" style="stroke: #000000; stroke-width: 0.8"/>
      </g>
     </g>
     <g id="text_8">
      <!-- 1.725 -->
      <g transform="translate(233.340324 124.999219)scale(0.1 -0.1)">
       <defs>
        <path id="DejaVuSans-37" d="M 525 4666 
L 3525 4666 
L 3525 4397 
L 1831 0 
L 1172 0 
L 2766 4134 
L 525 4134 
L 525 4666 
z
" transform="scale(0.015625)"/>
        <path id="DejaVuSans-32" d="M 1228 531 
L 3431 531 
L 3431 0 
L 469 0 
L 469 531 
Q 828 903 1448 1529 
Q 2069 2156 2228 2338 
Q 2531 2678 2651 2914 
Q 2772 3150 2772 3378 
Q 2772 3750 2511 3984 
Q 2250 4219 1831 4219 
Q 1534 4219 1204 4116 
Q 875 4013 500 3803 
L 500 4441 
Q 881 4594 1212 4672 
Q 1544 4750 1819 4750 
Q 2544 4750 2975 4387 
Q 3406 4025 3406 3419 
Q 3406 3131 3298 2873 
Q 3191 2616 2906 2266 
Q 2828 2175 2409 1742 
Q 1991 1309 1228 531 
z
" transform="scale(0.015625)"/>
       </defs>
       <use xlink:href="#DejaVuSans-31"/>
       <use xlink:href="#DejaVuSans-2e" x="63.623047"/>
       <use xlink:href="#DejaVuSans-37" x="95.410156"/>
       <use xlink:href="#DejaVuSans-32" x="159.033203"/>
       <use xlink:href="#DejaVuSans-35" x="222.65625"/>
      </g>
     </g>
    </g>
    <g id="ytick_6">
     <g id="line2d_7">
      <g>
       <use xlink:href="#m0d65a398c6" x="229.840324" y="103.2" style="stroke: #000000; stroke-width: 0.8"/>
      </g>
     </g>
     <g id="text_9">
      <!-- 1.755 -->
      <g transform="translate(233.340324 106.999219)scale(0.1 -0.1)">
       <use xlink:href="#DejaVuSans-31"/>
       <use xlink:href="#DejaVuSans-2e" x="63.623047"/>
       <use xlink:href="#DejaVuSans-37" x="95.410156"/>
       <use xlink:href="#DejaVuSans-35" x="159.033203"/>
       <use xlink:href="#DejaVuSans-35" x="222.65625"/>
      </g>
     </g>
    </g>
    <g id="ytick_7">
     <g id="line2d_8">
      <g>
       <use xlink:href="#m0d65a398c6" x="229.840324" y="85.2" style="stroke: #000000; stroke-width: 0.8"/>
      </g>
     </g>
     <g id="text_10">
      <!-- 1.785 -->
      <g transform="translate(233.340324 88.999219)scale(0.1 -0.1)">
       <defs>
        <path id="DejaVuSans-38" d="M 2034 2216 
Q 1584 2216 1326 1975 
Q 1069 1734 1069 1313 
Q 1069 891 1326 650 
Q 1584 409 2034 409 
Q 2484 409 2743 651 
Q 3003 894 3003 1313 
Q 3003 1734 2745 1975 
Q 2488 2216 2034 2216 
z
M 1403 2484 
Q 997 2584 770 2862 
Q 544 3141 544 3541 
Q 544 4100 942 4425 
Q 1341 4750 2034 4750 
Q 2731 4750 3128 4425 
Q 3525 4100 3525 3541 
Q 3525 3141 3298 2862 
Q 3072 2584 2669 2484 
Q 3125 2378 3379 2068 
Q 3634 1759 3634 1313 
Q 3634 634 3220 271 
Q 2806 -91 2034 -91 
Q 1263 -91 848 271 
Q 434 634 434 1313 
Q 434 1759 690 2068 
Q 947 2378 1403 2484 
z
M 1172 3481 
Q 1172 3119 1398 2916 
Q 1625 2713 2034 2713 
Q 2441 2713 2670 2916 
Q 2900 3119 2900 3481 
Q 2900 3844 2670 4047 
Q 2441 4250 2034 4250 
Q 1625 4250 1398 4047 
Q 1172 3844 1172 3481 
z
" transform="scale(0.015625)"/>
       </defs>
       <use xlink:href="#DejaVuSans-31"/>
       <use xlink:href="#DejaVuSans-2e" x="63.623047"/>
       <use xlink:href="#DejaVuSans-37" x="95.410156"/>
       <use xlink:href="#DejaVuSans-38" x="159.033203"/>
       <use xlink:href="#DejaVuSans-35" x="222.65625"/>
      </g>
     </g>
    </g>
    <g id="text_11">
     <!-- H2 Consumption [t h$^{-1}$] -->
     <g transform="translate(273.868449 204.32)rotate(-90)scale(0.11 -0.11)">
      <defs>
       <path id="DejaVuSans-43" d="M 4122 4306 
L 4122 3641 
Q 3803 3938 3442 4084 
Q 3081 4231 2675 4231 
Q 1875 4231 1450 3742 
Q 1025 3253 1025 2328 
Q 1025 1406 1450 917 
Q 1875 428 2675 428 
Q 3081 428 3442 575 
Q 3803 722 4122 1019 
L 4122 359 
Q 3791 134 3420 21 
Q 3050 -91 2638 -91 
Q 1578 -91 968 557 
Q 359 1206 359 2328 
Q 359 3453 968 4101 
Q 1578 4750 2638 4750 
Q 3056 4750 3426 4639 
Q 3797 4528 4122 4306 
z
" transform="scale(0.015625)"/>
       <path id="DejaVuSans-6f" d="M 1959 3097 
Q 1497 3097 1228 2736 
Q 959 2375 959 1747 
Q 959 1119 1226 758 
Q 1494 397 1959 397 
Q 2419 397 2687 759 
Q 2956 1122 2956 1747 
Q 2956 2369 2687 2733 
Q 2419 3097 1959 3097 
z
M 1959 3584 
Q 2709 3584 3137 3096 
Q 3566 2609 3566 1747 
Q 3566 888 3137 398 
Q 2709 -91 1959 -91 
Q 1206 -91 779 398 
Q 353 888 353 1747 
Q 353 2609 779 3096 
Q 1206 3584 1959 3584 
z
" transform="scale(0.015625)"/>
       <path id="DejaVuSans-75" d="M 544 1381 
L 544 3500 
L 1119 3500 
L 1119 1403 
Q 1119 906 1312 657 
Q 1506 409 1894 409 
Q 2359 409 2629 706 
Q 2900 1003 2900 1516 
L 2900 3500 
L 3475 3500 
L 3475 0 
L 2900 0 
L 2900 538 
Q 2691 219 2414 64 
Q 2138 -91 1772 -91 
Q 1169 -91 856 284 
Q 544 659 544 1381 
z
M 1991 3584 
L 1991 3584 
z
" transform="scale(0.015625)"/>
       <path id="DejaVuSans-6d" d="M 3328 2828 
Q 3544 3216 3844 3400 
Q 4144 3584 4550 3584 
Q 5097 3584 5394 3201 
Q 5691 2819 5691 2113 
L 5691 0 
L 5113 0 
L 5113 2094 
Q 5113 2597 4934 2840 
Q 4756 3084 4391 3084 
Q 3944 3084 3684 2787 
Q 3425 2491 3425 1978 
L 3425 0 
L 2847 0 
L 2847 2094 
Q 2847 2600 2669 2842 
Q 2491 3084 2119 3084 
Q 1678 3084 1418 2786 
Q 1159 2488 1159 1978 
L 1159 0 
L 581 0 
L 581 3500 
L 1159 3500 
L 1159 2956 
Q 1356 3278 1631 3431 
Q 1906 3584 2284 3584 
Q 2666 3584 2933 3390 
Q 3200 3197 3328 2828 
z
" transform="scale(0.015625)"/>
       <path id="DejaVuSans-70" d="M 1159 525 
L 1159 -1331 
L 581 -1331 
L 581 3500 
L 1159 3500 
L 1159 2969 
Q 1341 3281 1617 3432 
Q 1894 3584 2278 3584 
Q 2916 3584 3314 3078 
Q 3713 2572 3713 1747 
Q 3713 922 3314 415 
Q 2916 -91 2278 -91 
Q 1894 -91 1617 61 
Q 1341 213 1159 525 
z
M 3116 1747 
Q 3116 2381 2855 2742 
Q 2594 3103 2138 3103 
Q 1681 3103 1420 2742 
Q 1159 2381 1159 1747 
Q 1159 1113 1420 752 
Q 1681 391 2138 391 
Q 2594 391 2855 752 
Q 3116 1113 3116 1747 
z
" transform="scale(0.015625)"/>
       <path id="DejaVuSans-5b" d="M 550 4863 
L 1875 4863 
L 1875 4416 
L 1125 4416 
L 1125 -397 
L 1875 -397 
L 1875 -844 
L 550 -844 
L 550 4863 
z
" transform="scale(0.015625)"/>
       <path id="DejaVuSans-2212" d="M 678 2272 
L 4684 2272 
L 4684 1741 
L 678 1741 
L 678 2272 
z
" transform="scale(0.015625)"/>
       <path id="DejaVuSans-5d" d="M 1947 4863 
L 1947 -844 
L 622 -844 
L 622 -397 
L 1369 -397 
L 1369 4416 
L 622 4416 
L 622 4863 
L 1947 4863 
z
" transform="scale(0.015625)"/>
      </defs>
      <use xlink:href="#DejaVuSans-48" transform="translate(0 0.684375)"/>
      <use xlink:href="#DejaVuSans-32" transform="translate(75.195312 0.684375)"/>
      <use xlink:href="#DejaVuSans-20" transform="translate(138.818359 0.684375)"/>
      <use xlink:href="#DejaVuSans-43" transform="translate(170.605469 0.684375)"/>
      <use xlink:href="#DejaVuSans-6f" transform="translate(240.429688 0.684375)"/>
      <use xlink:href="#DejaVuSans-6e" transform="translate(301.611328 0.684375)"/>
      <use xlink:href="#DejaVuSans-73" transform="translate(364.990234 0.684375)"/>
      <use xlink:href="#DejaVuSans-75" transform="translate(417.089844 0.684375)"/>
      <use xlink:href="#DejaVuSans-6d" transform="translate(480.46875 0.684375)"/>
      <use xlink:href="#DejaVuSans-70" transform="translate(577.880859 0.684375)"/>
      <use xlink:href="#DejaVuSans-74" transform="translate(641.357422 0.684375)"/>
      <use xlink:href="#DejaVuSans-69" transform="translate(680.566406 0.684375)"/>
      <use xlink:href="#DejaVuSans-6f" transform="translate(708.349609 0.684375)"/>
      <use xlink:href="#DejaVuSans-6e" transform="translate(769.53125 0.684375)"/>
      <use xlink:href="#DejaVuSans-20" transform="translate(832.910156 0.684375)"/>
      <use xlink:href="#DejaVuSans-5b" transform="translate(864.697266 0.684375)"/>
      <use xlink:href="#DejaVuSans-74" transform="translate(903.710938 0.684375)"/>
      <use xlink:href="#DejaVuSans-20" transform="translate(942.919922 0.684375)"/>
      <use xlink:href="#DejaVuSans-68" transform="translate(974.707031 0.684375)"/>
      <use xlink:href="#DejaVuSans-2212" transform="translate(1039.042969 38.965625)scale(0.7)"/>
      <use xlink:href="#DejaVuSans-31" transform="translate(1097.695312 38.965625)scale(0.7)"/>
      <use xlink:href="#DejaVuSans-5d" transform="translate(1144.96582 0.684375)"/>
     </g>
    </g>
   </g>
   <g id="LineCollection_1"/>
   <g id="patch_6">
    <path d="M 221.920324 193.2 
L 225.880324 198.6 
L 229.840324 193.2 
L 229.840324 85.2 
L 225.880324 79.8 
L 221.920324 85.2 
L 221.920324 193.2 
z
" style="fill: none; stroke: #000000; stroke-width: 0.8; stroke-linejoin: miter; stroke-linecap: square"/>
   </g>
  </g>
 </g>
 <defs>
  <clipPath id="pd7a447763f">
   <rect x="64.775384" y="7.2" width="142.354828" height="264"/>
  </clipPath>
  <clipPath id="pf35144cd94">
   <rect x="221.920324" y="85.2" width="7.92" height="108"/>
  </clipPath>
 </defs>
</svg>
