<?xml version="1.0" encoding="utf-8" standalone="no"?>
<!DOCTYPE svg PUBLIC "-//W3C//DTD SVG 1.1//EN"
  "http://www.w3.org/Graphics/SVG/1.1/DTD/svg11.dtd">
<svg xmlns:xlink="http://www.w3.org/1999/xlink" width="280.522031pt" height="196.114697pt" viewBox="0 0 280.522031 196.114697" xmlns="http://www.w3.org/2000/svg" version="1.1">
 <metadata>
  <rdf:RDF xmlns:dc="http://purl.org/dc/elements/1.1/" xmlns:cc="http://creativecommons.org/ns#" xmlns:rdf="http://www.w3.org/1999/02/22-rdf-syntax-ns#">
   <cc:Work>
    <dc:type rdf:resource="http://purl.org/dc/dcmitype/StillImage"/>
    <dc:date>2026-02-11T14:14:27.924256</dc:date>
    <dc:format>image/svg+xml</dc:format>
    <dc:creator>
     <cc:Agent>
      <dc:title>Matplotlib v3.5.3, https://matplotlib.org/</dc:title>
     </cc:Agent>
    </dc:creator>
   </cc:Work>
  </rdf:RDF>
 </metadata>
 <defs>
  <style type="text/css">*{stroke-linejoin: round; stroke-linecap: butt}</style>
 </defs>
 <g id="figure_1">
  <g id="patch_1">
   <path d="M 0 196.114697 
L 280.522031 196.114697 
L 280.522031 0 
L 0 0 
L 0 196.114697 
z
" style="fill: none"/>
  </g>
  <g id="axes_1">
   <g id="PathCollection_1">
    <path d="M 131.490547 35.003758 
L 133.617817 39.388527 
L 134.458319 41.041082 
L 134.465778 41.055882 
L 137.95707 46.927514 
L 139.439688 49.700515 
L 142.188886 54.763113 
L 145.3314 60.452895 
L 146.839438 63.010344 
L 152.802122 72.821674 
L 154.527274 75.673065 
L 157.236061 80.195886 
L 158.875978 83.372971 
L 161.877409 88.40358 
L 166.549687 95.629115 
L 167.664267 97.361568 
L 172.203633 104.263669 
L 173.729567 106.726257 
L 175.930052 110.197939 
L 177.097168 112.037514 
L 179.064133 115.062991 
L 179.382186 115.527879 
L 180.989599 117.996762 
L 186.334548 126.419352 
L 187.584357 128.186682 
L 194.275791 138.337619 
L 195.293551 139.845821 
L 195.591649 140.298354 
L 197.0893 142.573312 
L 198.549785 144.852397 
L 199.406535 146.236812 
L 204.447821 154.246733 
L 205.674397 156.113511 
L 207.602287 159.033929 
L 208.191903 159.903143 
L 212.56013 166.392793 
L 213.070652 167.051784 
L 214.588407 167.051784 
L 206.621616 153.252897 
L 198.654824 139.45401 
L 190.688033 125.655123 
L 182.721242 111.856236 
L 174.754451 98.057349 
L 166.78766 84.258461 
L 150.854078 56.660687 
L 142.887286 42.8618 
L 134.920495 29.062913 
" clip-path="url(#p968636c2d5)" style="fill: #fcfdbf"/>
   </g>
   <g id="PathCollection_2">
    <path d="M 213.070652 167.051784 
L 212.56013 166.392793 
L 208.191903 159.903143 
L 207.602287 159.033929 
L 205.674397 156.113511 
L 204.447821 154.246733 
L 199.406535 146.236812 
L 198.549785 144.852397 
L 197.0893 142.573312 
L 195.591649 140.298354 
L 195.293551 139.845821 
L 194.275791 138.337619 
L 187.584357 128.186682 
L 186.334548 126.419352 
L 180.989599 117.996762 
L 179.382186 115.527879 
L 179.064133 115.062991 
L 177.097168 112.037514 
L 175.930052 110.197939 
L 173.729567 106.726257 
L 172.203633 104.263669 
L 167.664267 97.361568 
L 166.549687 95.629115 
L 161.877409 88.40358 
L 158.875978 83.372971 
L 157.236061 80.195886 
L 154.527274 75.673065 
L 152.802122 72.821674 
L 146.839438 63.010344 
L 145.3314 60.452895 
L 142.188886 54.763113 
L 139.439688 49.700515 
L 137.95707 46.927514 
L 134.465778 41.055882 
L 134.458319 41.041082 
L 133.617817 39.388527 
L 131.490547 35.003758 
L 126.953704 42.8618 
L 123.329021 49.139936 
L 124.063468 50.59632 
L 126.543112 55.871027 
L 129.218051 60.874075 
L 132.398774 66.731317 
L 135.080427 72.045453 
L 137.519713 76.194069 
L 142.407064 84.975246 
L 142.479443 85.095079 
L 142.513204 85.158039 
L 142.582373 85.279358 
L 148.607363 95.013798 
L 155.983447 107.224021 
L 159.951322 113.496924 
L 161.667257 116.199497 
L 161.986107 116.69065 
L 162.256053 117.122508 
L 164.536188 120.699009 
L 165.195552 121.746079 
L 166.136025 123.195757 
L 169.773924 128.784189 
L 171.485477 131.472407 
L 174.679749 136.427485 
L 178.632501 142.449894 
L 179.192451 143.351747 
L 180.07232 144.775014 
L 181.1246 146.398375 
L 185.44322 153.10316 
L 189.0729 158.670108 
L 191.87404 162.980569 
L 194.135876 166.461325 
L 194.551626 167.051784 
L 203.397369 167.051784 
L 204.365831 167.051784 
" clip-path="url(#p968636c2d5)" style="fill: #fde9aa"/>
   </g>
   <g id="PathCollection_3">
    <path d="M 194.551626 167.051784 
L 194.135876 166.461325 
L 191.87404 162.980569 
L 189.0729 158.670108 
L 185.44322 153.10316 
L 181.1246 146.398375 
L 180.07232 144.775014 
L 179.192451 143.351747 
L 178.632501 142.449894 
L 174.679749 136.427485 
L 171.485477 131.472407 
L 169.773924 128.784189 
L 166.136025 123.195757 
L 165.195552 121.746079 
L 164.536188 120.699009 
L 162.256053 117.122508 
L 161.986107 116.69065 
L 161.667257 116.199497 
L 159.951322 113.496924 
L 155.983447 107.224021 
L 148.607363 95.013798 
L 142.582373 85.279358 
L 142.513204 85.158039 
L 142.479443 85.095079 
L 142.407064 84.975246 
L 137.519713 76.194069 
L 135.080427 72.045453 
L 132.398774 66.731317 
L 129.218051 60.874075 
L 126.543112 55.871027 
L 124.063468 50.59632 
L 123.329021 49.139936 
L 118.986913 56.660687 
L 115.299876 63.046823 
L 116.248098 65.490769 
L 118.022339 69.282136 
L 119.010943 71.213333 
L 119.524497 72.205436 
L 121.380999 75.63705 
L 125.213554 82.487082 
L 127.996554 87.507378 
L 128.835493 89.009281 
L 129.946101 90.917321 
L 134.036216 98.08198 
L 134.57302 98.949283 
L 135.696138 100.808469 
L 144.459318 115.126517 
L 145.873599 117.520062 
L 147.130488 119.627153 
L 147.754188 120.63808 
L 150.586696 125.077315 
L 156.602496 134.735195 
L 157.562104 136.280451 
L 158.955982 138.442475 
L 161.558425 142.579513 
L 165.002566 147.827003 
L 168.767059 153.890077 
L 169.896495 155.71704 
L 170.103408 156.039672 
L 174.033619 162.27229 
L 174.06832 162.325137 
L 174.094593 162.366233 
L 177.198547 167.051784 
L 190.297085 167.051784 
" clip-path="url(#p968636c2d5)" style="fill: #febf84"/>
   </g>
   <g id="PathCollection_4">
    <path d="M 177.198547 167.051784 
L 174.094593 162.366233 
L 174.06832 162.325137 
L 174.033619 162.27229 
L 170.103408 156.039672 
L 169.896495 155.71704 
L 168.767059 153.890077 
L 165.002566 147.827003 
L 161.558425 142.579513 
L 158.955982 138.442475 
L 157.562104 136.280451 
L 156.602496 134.735195 
L 150.586696 125.077315 
L 147.754188 120.63808 
L 147.130488 119.627153 
L 145.873599 117.520062 
L 144.459318 115.126517 
L 135.696138 100.808469 
L 134.57302 98.949283 
L 134.036216 98.08198 
L 129.946101 90.917321 
L 128.835493 89.009281 
L 127.996554 87.507378 
L 125.213554 82.487082 
L 121.380999 75.63705 
L 119.524497 72.205436 
L 119.010943 71.213333 
L 118.022339 69.282136 
L 116.248098 65.490769 
L 115.299876 63.046823 
L 107.309055 76.887332 
L 107.979898 78.616361 
L 108.417937 79.475116 
L 110.619798 83.710807 
L 113.093849 88.312221 
L 115.376184 92.46496 
L 116.002026 93.581898 
L 116.935174 95.223019 
L 121.288974 102.822278 
L 128.659079 115.445507 
L 129.94807 117.632668 
L 130.655146 118.820878 
L 131.983628 121.032545 
L 134.163854 124.660907 
L 134.508881 125.158896 
L 145.627791 142.990615 
L 146.290708 144.007772 
L 148.214894 147.208281 
L 149.533668 149.462878 
L 149.659294 149.670616 
L 149.871795 150.034513 
L 149.905932 150.092837 
L 150.120457 150.457607 
L 150.189067 150.573986 
L 150.321704 150.798208 
L 150.451306 151.016832 
L 154.438895 157.332881 
L 155.376612 158.956207 
L 155.403028 159.001421 
L 155.920133 159.882378 
L 156.352029 160.612716 
L 156.483566 160.834683 
L 156.810239 161.384211 
L 156.999436 161.677767 
L 157.026209 161.72201 
L 158.610313 164.3586 
L 159.510037 165.78068 
L 160.387608 167.051784 
L 162.973808 167.051784 
L 163.665222 167.051784 
L 165.675898 167.051784 
L 166.217981 167.051784 
L 169.557312 167.051784 
L 171.20162 167.051784 
L 171.883245 167.051784 
" clip-path="url(#p968636c2d5)" style="fill: #fd9266"/>
   </g>
   <g id="PathCollection_5">
    <path d="M 160.387608 167.051784 
L 159.510037 165.78068 
L 158.610313 164.3586 
L 157.026209 161.72201 
L 156.999436 161.677767 
L 156.810239 161.384211 
L 156.483566 160.834683 
L 156.352029 160.612716 
L 155.920133 159.882378 
L 155.403028 159.001421 
L 155.376612 158.956207 
L 154.438895 157.332881 
L 150.451306 151.016832 
L 150.321704 150.798208 
L 150.189067 150.573986 
L 150.120457 150.457607 
L 149.905932 150.092837 
L 149.871795 150.034513 
L 149.659294 149.670616 
L 149.533668 149.462878 
L 148.214894 147.208281 
L 146.290708 144.007772 
L 145.627791 142.990615 
L 134.508881 125.158896 
L 134.163854 124.660907 
L 131.983628 121.032545 
L 130.655146 118.820878 
L 129.94807 117.632668 
L 128.659079 115.445507 
L 121.288974 102.822278 
L 116.935174 95.223019 
L 116.002026 93.581898 
L 115.376184 92.46496 
L 113.093849 88.312221 
L 110.619798 83.710807 
L 108.417937 79.475116 
L 107.979898 78.616361 
L 107.309055 76.887332 
L 103.053331 84.258461 
L 99.47334 90.459187 
L 104.447439 100.083134 
L 105.839538 102.609691 
L 109.360518 108.551136 
L 113.370051 115.095651 
L 117.80817 123.149846 
L 118.398223 124.2182 
L 121.402692 129.278085 
L 122.637648 131.354211 
L 124.643617 134.249491 
L 128.561548 140.532792 
L 131.144589 144.496119 
L 138.642138 156.966833 
L 143.78071 165.751824 
L 144.270213 166.561272 
L 144.556651 167.051784 
L 145.34492 167.051784 
L 145.529223 167.051784 
L 146.611787 167.051784 
L 146.933076 167.051784 
L 147.523286 167.051784 
L 148.064152 167.051784 
L 151.903513 167.051784 
L 151.990904 167.051784 
L 153.536099 167.051784 
L 154.625358 167.051784 
L 154.927389 167.051784 
L 155.62541 167.051784 
L 155.992592 167.051784 
L 156.043775 167.051784 
L 158.505732 167.051784 
" clip-path="url(#p968636c2d5)" style="fill: #f4675c"/>
   </g>
   <g id="PathCollection_6">
    <path d="M 144.556651 167.051784 
L 144.270213 166.561272 
L 143.78071 165.751824 
L 138.642138 156.966833 
L 131.144589 144.496119 
L 128.561548 140.532792 
L 124.643617 134.249491 
L 122.637648 131.354211 
L 121.402692 129.278085 
L 118.398223 124.2182 
L 117.80817 123.149846 
L 113.370051 115.095651 
L 109.360518 108.551136 
L 105.839538 102.609691 
L 104.447439 100.083134 
L 99.47334 90.459187 
L 95.08654 98.057349 
L 92.051124 103.314842 
L 93.426198 105.815898 
L 96.686277 111.628433 
L 99.692661 116.955578 
L 105.977273 127.817866 
L 106.636865 128.894478 
L 106.969009 129.497245 
L 107.364719 130.21372 
L 108.699169 132.445797 
L 110.624116 135.62599 
L 110.858471 136.077236 
L 111.170718 136.58691 
L 116.656901 145.652647 
L 117.400883 146.849195 
L 118.810796 149.028334 
L 119.002626 149.369422 
L 126.062743 161.0342 
L 126.078217 161.064593 
L 126.083842 161.075469 
L 126.171687 161.238378 
L 126.242627 161.38112 
L 126.25904 161.409883 
L 126.319487 161.514815 
L 126.395457 161.645271 
L 126.425481 161.701617 
L 126.627292 162.0428 
L 126.900642 162.500243 
L 127.113225 162.85357 
L 127.175763 162.95722 
L 127.2633 163.102322 
L 127.305361 163.171839 
L 127.481201 163.462662 
L 127.601116 163.660681 
L 127.811499 163.986186 
L 127.857836 164.062091 
L 128.163407 164.56248 
L 128.698011 165.436991 
L 129.035249 165.98781 
L 129.410769 166.601021 
L 129.686917 167.051784 
L 129.796643 167.051784 
L 130.069693 167.051784 
L 132.53713 167.051784 
L 132.826962 167.051784 
L 132.980332 167.051784 
L 134.147608 167.051784 
L 134.957501 167.051784 
L 135.114811 167.051784 
L 135.231786 167.051784 
L 135.486972 167.051784 
L 136.149462 167.051784 
L 136.947652 167.051784 
L 136.986495 167.051784 
L 137.796305 167.051784 
L 138.462834 167.051784 
L 138.83987 167.051784 
L 139.066384 167.051784 
L 139.892759 167.051784 
L 139.91122 167.051784 
L 141.008457 167.051784 
L 141.429177 167.051784 
L 141.466346 167.051784 
L 141.853765 167.051784 
L 143.321588 167.051784 
L 144.113711 167.051784 
" clip-path="url(#p968636c2d5)" style="fill: #db476a"/>
   </g>
   <g id="PathCollection_7">
    <path d="M 129.686917 167.051784 
L 129.410769 166.601021 
L 129.035249 165.98781 
L 128.698011 165.436991 
L 128.163407 164.56248 
L 127.857836 164.062091 
L 127.811499 163.986186 
L 127.601116 163.660681 
L 127.481201 163.462662 
L 127.305361 163.171839 
L 127.2633 163.102322 
L 127.175763 162.95722 
L 127.113225 162.85357 
L 126.900642 162.500243 
L 126.627292 162.0428 
L 126.425481 161.701617 
L 126.395457 161.645271 
L 126.319487 161.514815 
L 126.25904 161.409883 
L 126.242627 161.38112 
L 126.171687 161.238378 
L 126.083842 161.075469 
L 126.078217 161.064593 
L 126.062743 161.0342 
L 119.002626 149.369422 
L 118.810796 149.028334 
L 117.400883 146.849195 
L 116.656901 145.652647 
L 111.170718 136.58691 
L 110.858471 136.077236 
L 110.624116 135.62599 
L 108.699169 132.445797 
L 107.364719 130.21372 
L 106.969009 129.497245 
L 106.636865 128.894478 
L 105.977273 127.817866 
L 99.692661 116.955578 
L 96.686277 111.628433 
L 93.426198 105.815898 
L 92.051124 103.314842 
L 87.119748 111.856236 
L 84.995804 115.535015 
L 85.555739 116.550132 
L 85.849408 117.193502 
L 87.750116 120.190577 
L 88.658739 121.759271 
L 89.210724 122.701128 
L 90.941934 125.727127 
L 91.82333 127.207433 
L 94.173295 131.152198 
L 96.687412 135.868056 
L 98.333837 138.701413 
L 98.677548 139.460352 
L 98.794593 139.648911 
L 99.763121 141.513792 
L 103.131181 147.011408 
L 104.34496 149.017137 
L 108.291366 155.364149 
L 115.770157 166.923253 
L 115.842444 167.051784 
L 116.979967 167.051784 
L 117.461347 167.051784 
L 117.626261 167.051784 
L 119.710391 167.051784 
L 121.033124 167.051784 
L 121.274098 167.051784 
L 122.067449 167.051784 
L 122.898086 167.051784 
L 123.199851 167.051784 
L 124.709128 167.051784 
L 126.041368 167.051784 
L 126.760878 167.051784 
L 126.937526 167.051784 
L 127.163672 167.051784 
L 127.2645 167.051784 
L 127.639613 167.051784 
L 127.859418 167.051784 
L 128.194884 167.051784 
L 128.260178 167.051784 
L 128.634039 167.051784 
L 129.116954 167.051784 
L 129.34695 167.051784 
L 129.556596 167.051784 
" clip-path="url(#p968636c2d5)" style="fill: #b5367a"/>
   </g>
   <g id="PathCollection_8">
    <path d="M 115.842444 167.051784 
L 115.770157 166.923253 
L 108.291366 155.364149 
L 104.34496 149.017137 
L 103.131181 147.011408 
L 99.763121 141.513792 
L 98.794593 139.648911 
L 98.677548 139.460352 
L 98.333837 138.701413 
L 96.687412 135.868056 
L 94.173295 131.152198 
L 91.82333 127.207433 
L 90.941934 125.727127 
L 89.210724 122.701128 
L 88.658739 121.759271 
L 87.750116 120.190577 
L 85.849408 117.193502 
L 85.555739 116.550132 
L 84.995804 115.535015 
L 79.152957 125.655123 
L 78.184453 127.332622 
L 79.190692 129.078535 
L 84.813749 137.650337 
L 88.089139 143.932205 
L 92.682519 151.55752 
L 96.992308 159.101105 
L 97.272565 159.566837 
L 97.532518 159.997126 
L 101.436518 166.371284 
L 101.686273 166.797611 
L 101.835785 167.051784 
L 102.108623 167.051784 
L 103.201993 167.051784 
L 103.77448 167.051784 
L 108.347004 167.051784 
L 110.599959 167.051784 
L 112.432071 167.051784 
L 115.268273 167.051784 
L 115.748318 167.051784 
" clip-path="url(#p968636c2d5)" style="fill: #902a81"/>
   </g>
   <g id="PathCollection_9">
    <path d="M 101.835785 167.051784 
L 101.686273 166.797611 
L 101.436518 166.371284 
L 97.532518 159.997126 
L 97.272565 159.566837 
L 96.992308 159.101105 
L 92.682519 151.55752 
L 88.089139 143.932205 
L 84.813749 137.650337 
L 79.190692 129.078535 
L 78.184453 127.332622 
L 72.072621 137.918624 
L 74.350134 141.870306 
L 77.341745 146.656245 
L 78.778653 149.119282 
L 82.487443 155.46121 
L 87.729069 164.194001 
L 88.359275 165.231497 
L 88.616749 165.663586 
L 88.724754 165.844139 
L 89.127174 166.515769 
L 89.450978 167.051784 
L 89.587963 167.051784 
L 95.733384 167.051784 
L 95.926536 167.051784 
L 96.21638 167.051784 
L 98.484169 167.051784 
L 99.108215 167.051784 
L 101.101475 167.051784 
L 101.150235 167.051784 
L 101.592965 167.051784 
" clip-path="url(#p968636c2d5)" style="fill: #6b1d81"/>
   </g>
   <g id="PathCollection_10">
    <path d="M 89.450978 167.051784 
L 89.127174 166.515769 
L 88.724754 165.844139 
L 88.616749 165.663586 
L 88.359275 165.231497 
L 87.729069 164.194001 
L 82.487443 155.46121 
L 78.778653 149.119282 
L 77.341745 146.656245 
L 74.350134 141.870306 
L 72.072621 137.918624 
L 71.186166 139.45401 
L 66.505964 147.560358 
L 68.517365 150.778171 
L 76.193621 163.936217 
L 77.844645 166.759423 
L 78.026676 167.051784 
L 86.66734 167.051784 
L 87.635641 167.051784 
L 88.292414 167.051784 
L 88.507391 167.051784 
" clip-path="url(#p968636c2d5)" style="fill: #471078"/>
   </g>
   <g id="PathCollection_11">
    <path d="M 61.292983 156.589505 
L 67.764477 167.051784 
L 75.650065 167.051784 
L 78.026676 167.051784 
L 77.844645 166.759423 
L 76.193621 163.936217 
L 68.517365 150.778171 
L 66.505964 147.560358 
L 63.219375 153.252897 
" clip-path="url(#p968636c2d5)" style="fill: #20114b"/>
   </g>
   <g id="PathCollection_12">
    <path d="M 56.472413 164.938977 
L 57.7793 167.051784 
L 67.764477 167.051784 
L 61.292983 156.589505 
" clip-path="url(#p968636c2d5)" style="fill: #060518"/>
   </g>
   <g id="PathCollection_13">
    <path d="M 57.7793 167.051784 
L 56.472413 164.938977 
L 55.252584 167.051784 
" clip-path="url(#p968636c2d5)" style="fill: #000004"/>
   </g>
   <g id="line2d_1">
    <path d="M 55.252584 167.051784 
L 214.588407 167.051784 
L 134.920495 29.062913 
L 55.252584 167.051784 
" clip-path="url(#p968636c2d5)" style="fill: none; stroke: #000000; stroke-width: 2; stroke-linecap: square"/>
   </g>
   <g id="PathCollection_14"/>
   <g id="PathCollection_15">
    <path d="M 213.070652 167.051784 
L 212.56013 166.392793 
L 208.191903 159.903143 
L 207.602287 159.033929 
L 205.674397 156.113511 
L 204.447821 154.246733 
L 199.406535 146.236812 
L 198.549785 144.852397 
L 197.0893 142.573312 
L 195.591649 140.298354 
L 195.293551 139.845821 
L 194.275791 138.337619 
L 187.584357 128.186682 
L 186.334548 126.419352 
L 180.989599 117.996762 
L 179.382186 115.527879 
L 179.064133 115.062991 
L 177.097168 112.037514 
L 175.930052 110.197939 
L 173.729567 106.726257 
L 172.203633 104.263669 
L 167.664267 97.361568 
L 166.549687 95.629115 
L 161.877409 88.40358 
L 158.875978 83.372971 
L 157.236061 80.195886 
L 154.527274 75.673065 
L 152.802122 72.821674 
L 146.839438 63.010344 
L 145.3314 60.452895 
L 142.188886 54.763113 
L 139.439688 49.700515 
L 137.95707 46.927514 
L 134.465778 41.055882 
L 134.458319 41.041082 
L 133.617817 39.388527 
L 131.490547 35.003758 
" clip-path="url(#p968636c2d5)" style="fill: none; stroke: #000000; stroke-opacity: 0.3; stroke-width: 0.5"/>
   </g>
   <g id="PathCollection_16">
    <path d="M 194.551626 167.051784 
L 194.135876 166.461325 
L 191.87404 162.980569 
L 189.0729 158.670108 
L 185.44322 153.10316 
L 181.1246 146.398375 
L 180.07232 144.775014 
L 179.192451 143.351747 
L 178.632501 142.449894 
L 174.679749 136.427485 
L 171.485477 131.472407 
L 169.773924 128.784189 
L 166.136025 123.195757 
L 165.195552 121.746079 
L 164.536188 120.699009 
L 162.256053 117.122508 
L 161.986107 116.69065 
L 161.667257 116.199497 
L 159.951322 113.496924 
L 155.983447 107.224021 
L 148.607363 95.013798 
L 142.582373 85.279358 
L 142.513204 85.158039 
L 142.479443 85.095079 
L 142.407064 84.975246 
L 137.519713 76.194069 
L 135.080427 72.045453 
L 132.398774 66.731317 
L 129.218051 60.874075 
L 126.543112 55.871027 
L 124.063468 50.59632 
L 123.329021 49.139936 
" clip-path="url(#p968636c2d5)" style="fill: none; stroke: #000000; stroke-opacity: 0.3; stroke-width: 0.5"/>
   </g>
   <g id="PathCollection_17">
    <path d="M 177.198547 167.051784 
L 174.094593 162.366233 
L 174.06832 162.325137 
L 174.033619 162.27229 
L 170.103408 156.039672 
L 169.896495 155.71704 
L 168.767059 153.890077 
L 165.002566 147.827003 
L 161.558425 142.579513 
L 158.955982 138.442475 
L 157.562104 136.280451 
L 156.602496 134.735195 
L 150.586696 125.077315 
L 147.754188 120.63808 
L 147.130488 119.627153 
L 145.873599 117.520062 
L 144.459318 115.126517 
L 135.696138 100.808469 
L 134.57302 98.949283 
L 134.036216 98.08198 
L 129.946101 90.917321 
L 128.835493 89.009281 
L 127.996554 87.507378 
L 125.213554 82.487082 
L 121.380999 75.63705 
L 119.524497 72.205436 
L 119.010943 71.213333 
L 118.022339 69.282136 
L 116.248098 65.490769 
L 115.299876 63.046823 
" clip-path="url(#p968636c2d5)" style="fill: none; stroke: #000000; stroke-opacity: 0.3; stroke-width: 0.5"/>
   </g>
   <g id="PathCollection_18">
    <path d="M 160.387608 167.051784 
L 159.510037 165.78068 
L 158.610313 164.3586 
L 157.026209 161.72201 
L 156.999436 161.677767 
L 156.810239 161.384211 
L 156.483566 160.834683 
L 156.352029 160.612716 
L 155.920133 159.882378 
L 155.403028 159.001421 
L 155.376612 158.956207 
L 154.438895 157.332881 
L 150.451306 151.016832 
L 150.321704 150.798208 
L 150.189067 150.573986 
L 150.120457 150.457607 
L 149.905932 150.092837 
L 149.871795 150.034513 
L 149.659294 149.670616 
L 149.533668 149.462878 
L 148.214894 147.208281 
L 146.290708 144.007772 
L 145.627791 142.990615 
L 134.508881 125.158896 
L 134.163854 124.660907 
L 131.983628 121.032545 
L 130.655146 118.820878 
L 129.94807 117.632668 
L 128.659079 115.445507 
L 121.288974 102.822278 
L 116.935174 95.223019 
L 116.002026 93.581898 
L 115.376184 92.46496 
L 113.093849 88.312221 
L 110.619798 83.710807 
L 108.417937 79.475116 
L 107.979898 78.616361 
L 107.309055 76.887332 
" clip-path="url(#p968636c2d5)" style="fill: none; stroke: #000000; stroke-opacity: 0.3; stroke-width: 0.5"/>
   </g>
   <g id="PathCollection_19">
    <path d="M 144.556651 167.051784 
L 144.270213 166.561272 
L 143.78071 165.751824 
L 138.642138 156.966833 
L 131.144589 144.496119 
L 128.561548 140.532792 
L 124.643617 134.249491 
L 122.637648 131.354211 
L 121.402692 129.278085 
L 118.398223 124.2182 
L 117.80817 123.149846 
L 113.370051 115.095651 
L 109.360518 108.551136 
L 105.839538 102.609691 
L 104.447439 100.083134 
L 99.47334 90.459187 
" clip-path="url(#p968636c2d5)" style="fill: none; stroke: #000000; stroke-opacity: 0.3; stroke-width: 0.5"/>
   </g>
   <g id="PathCollection_20">
    <path d="M 129.686917 167.051784 
L 129.410769 166.601021 
L 129.035249 165.98781 
L 128.698011 165.436991 
L 128.163407 164.56248 
L 127.857836 164.062091 
L 127.811499 163.986186 
L 127.601116 163.660681 
L 127.481201 163.462662 
L 127.305361 163.171839 
L 127.2633 163.102322 
L 127.175763 162.95722 
L 127.113225 162.85357 
L 126.900642 162.500243 
L 126.627292 162.0428 
L 126.425481 161.701617 
L 126.395457 161.645271 
L 126.319487 161.514815 
L 126.25904 161.409883 
L 126.242627 161.38112 
L 126.171687 161.238378 
L 126.083842 161.075469 
L 126.078217 161.064593 
L 126.062743 161.0342 
L 119.002626 149.369422 
L 118.810796 149.028334 
L 117.400883 146.849195 
L 116.656901 145.652647 
L 111.170718 136.58691 
L 110.858471 136.077236 
L 110.624116 135.62599 
L 108.699169 132.445797 
L 107.364719 130.21372 
L 106.969009 129.497245 
L 106.636865 128.894478 
L 105.977273 127.817866 
L 99.692661 116.955578 
L 96.686277 111.628433 
L 93.426198 105.815898 
L 92.051124 103.314842 
" clip-path="url(#p968636c2d5)" style="fill: none; stroke: #000000; stroke-opacity: 0.3; stroke-width: 0.5"/>
   </g>
   <g id="PathCollection_21">
    <path d="M 115.842444 167.051784 
L 115.770157 166.923253 
L 108.291366 155.364149 
L 104.34496 149.017137 
L 103.131181 147.011408 
L 99.763121 141.513792 
L 98.794593 139.648911 
L 98.677548 139.460352 
L 98.333837 138.701413 
L 96.687412 135.868056 
L 94.173295 131.152198 
L 91.82333 127.207433 
L 90.941934 125.727127 
L 89.210724 122.701128 
L 88.658739 121.759271 
L 87.750116 120.190577 
L 85.849408 117.193502 
L 85.555739 116.550132 
L 84.995804 115.535015 
" clip-path="url(#p968636c2d5)" style="fill: none; stroke: #000000; stroke-opacity: 0.3; stroke-width: 0.5"/>
   </g>
   <g id="PathCollection_22">
    <path d="M 101.835785 167.051784 
L 101.686273 166.797611 
L 101.436518 166.371284 
L 97.532518 159.997126 
L 97.272565 159.566837 
L 96.992308 159.101105 
L 92.682519 151.55752 
L 88.089139 143.932205 
L 84.813749 137.650337 
L 79.190692 129.078535 
L 78.184453 127.332622 
" clip-path="url(#p968636c2d5)" style="fill: none; stroke: #000000; stroke-opacity: 0.3; stroke-width: 0.5"/>
   </g>
   <g id="PathCollection_23">
    <path d="M 89.450978 167.051784 
L 89.127174 166.515769 
L 88.724754 165.844139 
L 88.616749 165.663586 
L 88.359275 165.231497 
L 87.729069 164.194001 
L 82.487443 155.46121 
L 78.778653 149.119282 
L 77.341745 146.656245 
L 74.350134 141.870306 
L 72.072621 137.918624 
" clip-path="url(#p968636c2d5)" style="fill: none; stroke: #000000; stroke-opacity: 0.3; stroke-width: 0.5"/>
   </g>
   <g id="PathCollection_24">
    <path d="M 78.026676 167.051784 
L 77.844645 166.759423 
L 76.193621 163.936217 
L 68.517365 150.778171 
L 66.505964 147.560358 
" clip-path="url(#p968636c2d5)" style="fill: none; stroke: #000000; stroke-opacity: 0.3; stroke-width: 0.5"/>
   </g>
   <g id="PathCollection_25">
    <path d="M 67.764477 167.051784 
L 61.292983 156.589505 
" clip-path="url(#p968636c2d5)" style="fill: none; stroke: #000000; stroke-opacity: 0.3; stroke-width: 0.5"/>
   </g>
   <g id="PathCollection_26">
    <path d="M 57.7793 167.051784 
L 56.472413 164.938977 
" clip-path="url(#p968636c2d5)" style="fill: none; stroke: #000000; stroke-opacity: 0.3; stroke-width: 0.5"/>
   </g>
   <g id="PathCollection_27"/>
   <g id="text_1">
    <!-- Heavy-end -->
    <g transform="translate(7.2 179.798649)scale(0.12 -0.12)">
     <defs>
      <path id="HelveticaNeueLTPro-Lt-48" d="M 461 0 
L 896 0 
L 896 2214 
L 3610 2214 
L 3610 0 
L 4045 0 
L 4045 4570 
L 3610 4570 
L 3610 2586 
L 896 2586 
L 896 4570 
L 461 4570 
L 461 0 
z
" transform="scale(0.015625)"/>
      <path id="HelveticaNeueLTPro-Lt-65" d="M 621 1882 
C 691 2483 1043 3059 1709 3059 
C 2355 3059 2739 2490 2758 1882 
L 621 1882 
z
M 3162 1542 
C 3194 2470 2765 3398 1709 3398 
C 659 3398 218 2522 218 1651 
C 218 710 659 -96 1709 -96 
C 2547 -96 2976 339 3149 1088 
L 2746 1088 
C 2618 582 2298 243 1709 243 
C 941 243 621 954 621 1542 
L 3162 1542 
z
" transform="scale(0.015625)"/>
      <path id="HelveticaNeueLTPro-Lt-61" d="M 749 2291 
C 768 2829 1126 3059 1632 3059 
C 2112 3059 2496 2925 2496 2381 
C 2496 2022 2310 1965 1978 1933 
C 1107 1830 205 1792 205 870 
C 205 205 698 -96 1312 -96 
C 1952 -96 2227 147 2515 576 
L 2528 576 
C 2528 237 2592 0 3002 0 
C 3110 0 3168 6 3264 26 
L 3264 365 
C 3219 346 3181 339 3136 339 
C 2976 339 2899 422 2899 582 
L 2899 2336 
C 2899 3226 2266 3398 1683 3398 
C 922 3398 390 3066 346 2291 
L 749 2291 
z
M 2496 1280 
C 2496 634 1965 243 1344 243 
C 960 243 608 493 608 896 
C 608 1536 1459 1536 2144 1658 
C 2253 1677 2432 1709 2483 1805 
L 2496 1805 
L 2496 1280 
z
" transform="scale(0.015625)"/>
      <path id="HelveticaNeueLTPro-Lt-76" d="M 1286 0 
L 1715 0 
L 2950 3302 
L 2534 3302 
L 1510 403 
L 1498 403 
L 461 3302 
L 13 3302 
L 1286 0 
z
" transform="scale(0.015625)"/>
      <path id="HelveticaNeueLTPro-Lt-79" d="M 1331 13 
L 1190 -365 
C 1056 -672 973 -883 614 -883 
C 518 -883 435 -870 339 -851 
L 339 -1190 
C 410 -1216 486 -1216 646 -1222 
C 1152 -1222 1280 -1062 1517 -506 
L 2950 3302 
L 2547 3302 
L 1530 486 
L 442 3302 
L 13 3302 
L 1331 13 
z
" transform="scale(0.015625)"/>
      <path id="HelveticaNeueLTPro-Lt-2d" d="M 1984 1574 
L 1984 1946 
L 384 1946 
L 384 1574 
L 1984 1574 
z
" transform="scale(0.015625)"/>
      <path id="HelveticaNeueLTPro-Lt-6e" d="M 378 0 
L 781 0 
L 781 1926 
C 800 2573 1171 3059 1818 3059 
C 2470 3059 2656 2624 2656 2061 
L 2656 0 
L 3059 0 
L 3059 2125 
C 3059 2912 2778 3398 1850 3398 
C 1382 3398 947 3130 794 2733 
L 781 2733 
L 781 3302 
L 378 3302 
L 378 0 
z
" transform="scale(0.015625)"/>
      <path id="HelveticaNeueLTPro-Lt-64" d="M 3290 4570 
L 2886 4570 
L 2886 2675 
L 2874 2675 
C 2707 3149 2214 3398 1728 3398 
C 723 3398 243 2592 243 1651 
C 243 710 723 -96 1728 -96 
C 2208 -96 2733 192 2906 627 
L 2918 627 
L 2918 0 
L 3290 0 
L 3290 4570 
z
M 646 1651 
C 646 2336 960 3059 1728 3059 
C 2579 3059 2886 2336 2886 1651 
C 2886 966 2579 243 1728 243 
C 960 243 646 966 646 1651 
z
" transform="scale(0.015625)"/>
     </defs>
     <use xlink:href="#HelveticaNeueLTPro-Lt-48"/>
     <use xlink:href="#HelveticaNeueLTPro-Lt-65" x="70.399994"/>
     <use xlink:href="#HelveticaNeueLTPro-Lt-61" x="122.299988"/>
     <use xlink:href="#HelveticaNeueLTPro-Lt-76" x="174.199982"/>
     <use xlink:href="#HelveticaNeueLTPro-Lt-79" x="220.499969"/>
     <use xlink:href="#HelveticaNeueLTPro-Lt-2d" x="266.799957"/>
     <use xlink:href="#HelveticaNeueLTPro-Lt-65" x="303.799942"/>
     <use xlink:href="#HelveticaNeueLTPro-Lt-6e" x="355.699936"/>
     <use xlink:href="#HelveticaNeueLTPro-Lt-64" x="409.399933"/>
    </g>
   </g>
   <g id="text_2">
    <!-- Peak Shift -->
    <g transform="translate(206.621616 179.798649)scale(0.12 -0.12)">
     <defs>
      <path id="HelveticaNeueLTPro-Lt-50" d="M 896 4198 
L 2394 4198 
C 3002 4198 3411 3898 3411 3264 
C 3411 2630 3002 2330 2394 2330 
L 896 2330 
L 896 4198 
z
M 461 0 
L 896 0 
L 896 1958 
L 2490 1958 
C 3309 1958 3846 2438 3846 3264 
C 3846 4090 3309 4570 2490 4570 
L 461 4570 
L 461 0 
z
" transform="scale(0.015625)"/>
      <path id="HelveticaNeueLTPro-Lt-6b" d="M 384 0 
L 787 0 
L 787 1254 
L 1440 1798 
L 2746 0 
L 3251 0 
L 1747 2080 
L 3155 3302 
L 2618 3302 
L 787 1702 
L 787 4570 
L 384 4570 
L 384 0 
z
" transform="scale(0.015625)"/>
      <path id="HelveticaNeueLTPro-Lt-20" transform="scale(0.015625)"/>
      <path id="HelveticaNeueLTPro-Lt-53" d="M 230 1504 
C 179 390 973 -96 2054 -96 
C 3674 -96 3802 896 3802 1210 
C 3802 1952 3264 2240 2618 2413 
L 1504 2688 
C 1126 2771 813 2957 813 3386 
C 813 4064 1363 4294 1958 4294 
C 2611 4294 3174 3936 3206 3245 
L 3642 3245 
C 3642 4186 2861 4666 1952 4666 
C 666 4666 378 3827 378 3379 
C 378 2662 870 2413 1408 2278 
L 2426 2029 
C 2854 1926 3366 1722 3366 1203 
C 3366 538 2637 275 2157 275 
C 1318 275 646 563 666 1504 
L 230 1504 
z
" transform="scale(0.015625)"/>
      <path id="HelveticaNeueLTPro-Lt-68" d="M 378 0 
L 781 0 
L 781 1926 
C 800 2573 1171 3059 1818 3059 
C 2470 3059 2656 2624 2656 2061 
L 2656 0 
L 3059 0 
L 3059 2125 
C 3059 2912 2778 3398 1850 3398 
C 1382 3398 947 3130 794 2733 
L 781 2733 
L 781 4570 
L 378 4570 
L 378 0 
z
" transform="scale(0.015625)"/>
      <path id="HelveticaNeueLTPro-Lt-69" d="M 390 3923 
L 794 3923 
L 794 4570 
L 390 4570 
L 390 3923 
z
M 390 0 
L 794 0 
L 794 3302 
L 390 3302 
L 390 0 
z
" transform="scale(0.015625)"/>
      <path id="HelveticaNeueLTPro-Lt-66" d="M 1658 3302 
L 1005 3302 
L 1005 3590 
C 1005 3942 1005 4230 1446 4230 
C 1542 4230 1632 4218 1741 4198 
L 1741 4544 
C 1613 4563 1523 4570 1402 4570 
C 749 4570 602 4173 602 3603 
L 602 3302 
L 38 3302 
L 38 2963 
L 602 2963 
L 602 0 
L 1005 0 
L 1005 2963 
L 1658 2963 
L 1658 3302 
z
" transform="scale(0.015625)"/>
      <path id="HelveticaNeueLTPro-Lt-74" d="M 1024 4294 
L 621 4294 
L 621 3302 
L 45 3302 
L 45 2963 
L 621 2963 
L 621 704 
C 614 141 800 -38 1338 -38 
C 1459 -38 1574 -26 1696 -26 
L 1696 320 
C 1581 307 1466 301 1350 301 
C 1062 320 1024 474 1024 736 
L 1024 2963 
L 1696 2963 
L 1696 3302 
L 1024 3302 
L 1024 4294 
z
" transform="scale(0.015625)"/>
     </defs>
     <use xlink:href="#HelveticaNeueLTPro-Lt-50"/>
     <use xlink:href="#HelveticaNeueLTPro-Lt-65" x="62.999985"/>
     <use xlink:href="#HelveticaNeueLTPro-Lt-61" x="114.899979"/>
     <use xlink:href="#HelveticaNeueLTPro-Lt-6b" x="166.799973"/>
     <use xlink:href="#HelveticaNeueLTPro-Lt-20" x="216.799957"/>
     <use xlink:href="#HelveticaNeueLTPro-Lt-53" x="244.599945"/>
     <use xlink:href="#HelveticaNeueLTPro-Lt-68" x="307.59993"/>
     <use xlink:href="#HelveticaNeueLTPro-Lt-69" x="361.299927"/>
     <use xlink:href="#HelveticaNeueLTPro-Lt-66" x="379.799911"/>
     <use xlink:href="#HelveticaNeueLTPro-Lt-74" x="405.699905"/>
    </g>
   </g>
   <g id="text_3">
    <!-- Base -->
    <g transform="translate(121.803933 21.096122)scale(0.12 -0.12)">
     <defs>
      <path id="HelveticaNeueLTPro-Lt-42" d="M 896 4198 
L 2394 4198 
C 3078 4198 3424 3910 3424 3341 
C 3424 2912 3085 2566 2394 2566 
L 896 2566 
L 896 4198 
z
M 461 0 
L 2394 0 
C 3878 0 4032 864 4032 1299 
C 4032 1894 3654 2336 3066 2413 
L 3066 2426 
C 3539 2528 3859 2970 3859 3450 
C 3859 4301 3162 4570 2394 4570 
L 461 4570 
L 461 0 
z
M 896 2195 
L 2394 2195 
C 3162 2195 3597 1901 3597 1312 
C 3597 570 3040 371 2394 371 
L 896 371 
L 896 2195 
z
" transform="scale(0.015625)"/>
      <path id="HelveticaNeueLTPro-Lt-73" d="M 2765 2336 
C 2733 3053 2221 3398 1555 3398 
C 973 3398 314 3142 314 2470 
C 314 1914 710 1722 1235 1587 
L 1754 1472 
C 2118 1382 2477 1254 2477 870 
C 2477 410 1958 243 1574 243 
C 1037 243 634 525 602 1069 
L 198 1069 
C 269 256 781 -96 1555 -96 
C 2170 -96 2880 179 2880 896 
C 2880 1472 2400 1741 1939 1811 
L 1402 1933 
C 1120 2003 717 2138 717 2490 
C 717 2918 1139 3059 1498 3059 
C 1958 3059 2342 2835 2362 2336 
L 2765 2336 
z
" transform="scale(0.015625)"/>
     </defs>
     <use xlink:href="#HelveticaNeueLTPro-Lt-42"/>
     <use xlink:href="#HelveticaNeueLTPro-Lt-61" x="66.699997"/>
     <use xlink:href="#HelveticaNeueLTPro-Lt-73" x="118.599991"/>
     <use xlink:href="#HelveticaNeueLTPro-Lt-65" x="166.699982"/>
    </g>
   </g>
  </g>
  <g id="axes_2">
   <g id="patch_2">
    <path d="M 231.142778 135.226264 
L 236.594219 135.226264 
L 236.594219 60.888433 
L 231.142778 60.888433 
L 231.142778 135.226264 
z
" style="fill: none"/>
   </g>
   <g id="patch_3">
    <path clip-path="url(#p23b73efc63)" style="fill: #ffffff; stroke: #ffffff; stroke-width: 0.01; stroke-linejoin: miter"/>
   </g>
   <g id="patch_4">
    <path d="M 231.142778 135.226264 
L 233.868498 138.943155 
L 236.594219 135.226264 
" style="fill: #fcfdbf"/>
   </g>
   <g id="patch_5">
    <path d="M 231.142778 60.888433 
L 233.868498 57.171542 
L 236.594219 60.888433 
" style="fill: #000004"/>
   </g>
   <g id="QuadMesh_1">
    <path d="M 231.142778 135.226264 
L 236.594219 135.226264 
L 236.594219 128.468279 
L 231.142778 128.468279 
L 231.142778 135.226264 
" clip-path="url(#p23b73efc63)" style="fill: #fde9aa"/>
    <path d="M 231.142778 128.468279 
L 236.594219 128.468279 
L 236.594219 121.710295 
L 231.142778 121.710295 
L 231.142778 128.468279 
" clip-path="url(#p23b73efc63)" style="fill: #febf84"/>
    <path d="M 231.142778 121.710295 
L 236.594219 121.710295 
L 236.594219 114.95231 
L 231.142778 114.95231 
L 231.142778 121.710295 
" clip-path="url(#p23b73efc63)" style="fill: #fd9266"/>
    <path d="M 231.142778 114.95231 
L 236.594219 114.95231 
L 236.594219 108.194325 
L 231.142778 108.194325 
L 231.142778 114.95231 
" clip-path="url(#p23b73efc63)" style="fill: #f4675c"/>
    <path d="M 231.142778 108.194325 
L 236.594219 108.194325 
L 236.594219 101.436341 
L 231.142778 101.436341 
L 231.142778 108.194325 
" clip-path="url(#p23b73efc63)" style="fill: #db476a"/>
    <path d="M 231.142778 101.436341 
L 236.594219 101.436341 
L 236.594219 94.678356 
L 231.142778 94.678356 
L 231.142778 101.436341 
" clip-path="url(#p23b73efc63)" style="fill: #b5367a"/>
    <path d="M 231.142778 94.678356 
L 236.594219 94.678356 
L 236.594219 87.920372 
L 231.142778 87.920372 
L 231.142778 94.678356 
" clip-path="url(#p23b73efc63)" style="fill: #902a81"/>
    <path d="M 231.142778 87.920372 
L 236.594219 87.920372 
L 236.594219 81.162387 
L 231.142778 81.162387 
L 231.142778 87.920372 
" clip-path="url(#p23b73efc63)" style="fill: #6b1d81"/>
    <path d="M 231.142778 81.162387 
L 236.594219 81.162387 
L 236.594219 74.404402 
L 231.142778 74.404402 
L 231.142778 81.162387 
" clip-path="url(#p23b73efc63)" style="fill: #471078"/>
    <path d="M 231.142778 74.404402 
L 236.594219 74.404402 
L 236.594219 67.646418 
L 231.142778 67.646418 
L 231.142778 74.404402 
" clip-path="url(#p23b73efc63)" style="fill: #20114b"/>
    <path d="M 231.142778 67.646418 
L 236.594219 67.646418 
L 236.594219 60.888433 
L 231.142778 60.888433 
L 231.142778 67.646418 
" clip-path="url(#p23b73efc63)" style="fill: #060518"/>
   </g>
   <g id="matplotlib.axis_1">
    <g id="ytick_1">
     <g id="line2d_2">
      <defs>
       <path id="mb7fe9d87ee" d="M 0 0 
L 3.5 0 
" style="stroke: #000000; stroke-width: 0.8"/>
      </defs>
      <g>
       <use xlink:href="#mb7fe9d87ee" x="236.594219" y="135.226264" style="stroke: #000000; stroke-width: 0.8"/>
      </g>
     </g>
     <g id="text_4">
      <!-- 1.20 -->
      <g transform="translate(240.094219 138.796576)scale(0.1 -0.1)">
       <defs>
        <path id="HelveticaNeueLTPro-Lt-31" d="M 621 3328 
L 1805 3328 
L 1805 0 
L 2208 0 
L 2208 4480 
L 1882 4480 
C 1760 3661 1325 3635 621 3616 
L 621 3328 
z
" transform="scale(0.015625)"/>
        <path id="HelveticaNeueLTPro-Lt-2e" d="M 1158 0 
L 1158 678 
L 621 678 
L 621 0 
L 1158 0 
z
" transform="scale(0.015625)"/>
        <path id="HelveticaNeueLTPro-Lt-32" d="M 3181 371 
L 691 371 
C 794 966 1600 1376 2035 1664 
C 2624 2042 3162 2509 3162 3258 
C 3162 4090 2554 4518 1773 4518 
C 800 4518 320 3853 339 2931 
L 742 2931 
C 723 3590 1018 4179 1754 4179 
C 2298 4179 2758 3846 2758 3264 
C 2758 2906 2637 2669 2387 2419 
C 1632 1664 256 1331 230 0 
L 3181 0 
L 3181 371 
z
" transform="scale(0.015625)"/>
        <path id="HelveticaNeueLTPro-Lt-30" d="M 1779 4518 
C 474 4518 218 3258 218 2208 
C 218 1165 474 -96 1779 -96 
C 3085 -96 3341 1165 3341 2214 
C 3341 3258 3085 4518 1779 4518 
z
M 1779 4179 
C 2803 4179 2938 2989 2938 2214 
C 2938 1434 2803 243 1779 243 
C 755 243 621 1434 621 2214 
C 621 2989 755 4179 1779 4179 
z
" transform="scale(0.015625)"/>
       </defs>
       <use xlink:href="#HelveticaNeueLTPro-Lt-31"/>
       <use xlink:href="#HelveticaNeueLTPro-Lt-2e" x="55.599991"/>
       <use xlink:href="#HelveticaNeueLTPro-Lt-32" x="83.399979"/>
       <use xlink:href="#HelveticaNeueLTPro-Lt-30" x="138.999969"/>
      </g>
     </g>
    </g>
    <g id="ytick_2">
     <g id="line2d_3">
      <g>
       <use xlink:href="#mb7fe9d87ee" x="236.594219" y="121.710295" style="stroke: #000000; stroke-width: 0.8"/>
      </g>
     </g>
     <g id="text_5">
      <!-- 1.36 -->
      <g transform="translate(240.094219 125.280607)scale(0.1 -0.1)">
       <defs>
        <path id="HelveticaNeueLTPro-Lt-33" d="M 211 1427 
C 141 467 819 -96 1741 -96 
C 2566 -96 3283 390 3283 1267 
C 3283 1856 2950 2278 2362 2374 
L 2362 2387 
C 2848 2509 3117 2893 3117 3379 
C 3117 4173 2426 4518 1728 4518 
C 858 4518 314 3891 314 3046 
L 717 3046 
C 698 3712 1069 4179 1734 4179 
C 2272 4179 2714 3923 2714 3334 
C 2714 2765 2221 2522 1805 2522 
L 1466 2522 
L 1466 2182 
L 1805 2182 
C 2400 2182 2880 1875 2880 1235 
C 2880 595 2323 243 1734 243 
C 1018 243 582 717 614 1427 
L 211 1427 
z
" transform="scale(0.015625)"/>
        <path id="HelveticaNeueLTPro-Lt-36" d="M 3232 3347 
C 3136 4134 2650 4518 1856 4518 
C 390 4518 256 2816 256 2285 
C 256 538 736 -96 1824 -96 
C 2714 -96 3341 550 3341 1421 
C 3341 2291 2758 2918 1862 2918 
C 1350 2918 883 2618 672 2176 
L 659 2176 
C 659 2989 845 4179 1894 4179 
C 2413 4179 2758 3840 2829 3347 
L 3232 3347 
z
M 1856 2579 
C 2541 2579 2938 2048 2938 1395 
C 2938 774 2502 243 1862 243 
C 1075 243 742 755 742 1395 
C 742 2054 1152 2579 1856 2579 
z
" transform="scale(0.015625)"/>
       </defs>
       <use xlink:href="#HelveticaNeueLTPro-Lt-31"/>
       <use xlink:href="#HelveticaNeueLTPro-Lt-2e" x="55.599991"/>
       <use xlink:href="#HelveticaNeueLTPro-Lt-33" x="83.399979"/>
       <use xlink:href="#HelveticaNeueLTPro-Lt-36" x="138.999969"/>
      </g>
     </g>
    </g>
    <g id="ytick_3">
     <g id="line2d_4">
      <g>
       <use xlink:href="#mb7fe9d87ee" x="236.594219" y="108.194325" style="stroke: #000000; stroke-width: 0.8"/>
      </g>
     </g>
     <g id="text_6">
      <!-- 1.52 -->
      <g transform="translate(240.094219 111.764638)scale(0.1 -0.1)">
       <defs>
        <path id="HelveticaNeueLTPro-Lt-35" d="M 230 1280 
C 250 429 870 -96 1702 -96 
C 2560 -96 3258 550 3258 1421 
C 3258 2323 2675 2970 1754 2970 
C 1402 2970 1030 2816 806 2554 
L 794 2566 
L 1082 4051 
L 3040 4051 
L 3040 4422 
L 800 4422 
L 365 2099 
L 710 2099 
C 934 2438 1306 2630 1709 2630 
C 2374 2630 2854 2125 2854 1466 
C 2854 813 2426 243 1734 243 
C 1120 243 653 659 634 1280 
L 230 1280 
z
" transform="scale(0.015625)"/>
       </defs>
       <use xlink:href="#HelveticaNeueLTPro-Lt-31"/>
       <use xlink:href="#HelveticaNeueLTPro-Lt-2e" x="55.599991"/>
       <use xlink:href="#HelveticaNeueLTPro-Lt-35" x="83.399979"/>
       <use xlink:href="#HelveticaNeueLTPro-Lt-32" x="138.999969"/>
      </g>
     </g>
    </g>
    <g id="ytick_4">
     <g id="line2d_5">
      <g>
       <use xlink:href="#mb7fe9d87ee" x="236.594219" y="94.678356" style="stroke: #000000; stroke-width: 0.8"/>
      </g>
     </g>
     <g id="text_7">
      <!-- 1.68 -->
      <g transform="translate(240.094219 98.248669)scale(0.1 -0.1)">
       <defs>
        <path id="HelveticaNeueLTPro-Lt-38" d="M 1779 2566 
C 1299 2547 819 2803 819 3398 
C 819 3910 1286 4179 1779 4179 
C 2317 4179 2733 3910 2733 3398 
C 2733 2822 2272 2547 1779 2566 
z
M 3136 3398 
C 3136 4166 2438 4518 1773 4518 
C 1107 4518 416 4166 416 3398 
C 416 2906 678 2560 1146 2413 
L 1146 2400 
C 589 2298 256 1843 237 1254 
C 237 352 934 -96 1779 -96 
C 2624 -96 3322 352 3322 1254 
C 3322 1862 2989 2278 2406 2400 
L 2406 2413 
C 2867 2547 3136 2912 3136 3398 
z
M 1779 243 
C 1146 243 640 582 640 1254 
C 640 1907 1165 2246 1779 2227 
C 2381 2246 2918 1894 2918 1254 
C 2918 563 2413 243 1779 243 
z
" transform="scale(0.015625)"/>
       </defs>
       <use xlink:href="#HelveticaNeueLTPro-Lt-31"/>
       <use xlink:href="#HelveticaNeueLTPro-Lt-2e" x="55.599991"/>
       <use xlink:href="#HelveticaNeueLTPro-Lt-36" x="83.399979"/>
       <use xlink:href="#HelveticaNeueLTPro-Lt-38" x="138.999969"/>
      </g>
     </g>
    </g>
    <g id="ytick_5">
     <g id="line2d_6">
      <g>
       <use xlink:href="#mb7fe9d87ee" x="236.594219" y="81.162387" style="stroke: #000000; stroke-width: 0.8"/>
      </g>
     </g>
     <g id="text_8">
      <!-- 1.84 -->
      <g transform="translate(240.094219 84.7327)scale(0.1 -0.1)">
       <defs>
        <path id="HelveticaNeueLTPro-Lt-34" d="M 557 1453 
L 2246 3891 
L 2259 3891 
L 2259 1453 
L 557 1453 
z
M 192 1114 
L 2259 1114 
L 2259 0 
L 2630 0 
L 2630 1114 
L 3302 1114 
L 3302 1453 
L 2630 1453 
L 2630 4480 
L 2266 4480 
L 192 1504 
L 192 1114 
z
" transform="scale(0.015625)"/>
       </defs>
       <use xlink:href="#HelveticaNeueLTPro-Lt-31"/>
       <use xlink:href="#HelveticaNeueLTPro-Lt-2e" x="55.599991"/>
       <use xlink:href="#HelveticaNeueLTPro-Lt-38" x="83.399979"/>
       <use xlink:href="#HelveticaNeueLTPro-Lt-34" x="138.999969"/>
      </g>
     </g>
    </g>
    <g id="ytick_6">
     <g id="line2d_7">
      <g>
       <use xlink:href="#mb7fe9d87ee" x="236.594219" y="67.646418" style="stroke: #000000; stroke-width: 0.8"/>
      </g>
     </g>
     <g id="text_9">
      <!-- 2.00 -->
      <g transform="translate(240.094219 71.21673)scale(0.1 -0.1)">
       <use xlink:href="#HelveticaNeueLTPro-Lt-32"/>
       <use xlink:href="#HelveticaNeueLTPro-Lt-2e" x="55.599991"/>
       <use xlink:href="#HelveticaNeueLTPro-Lt-30" x="83.399979"/>
       <use xlink:href="#HelveticaNeueLTPro-Lt-30" x="138.999969"/>
      </g>
     </g>
    </g>
    <g id="text_10">
     <!-- MSP [\$ kg$^{-1}$] -->
     <g transform="translate(271.012031 128.802349)rotate(-90)scale(0.11 -0.11)">
      <defs>
       <path id="HelveticaNeueLTPro-Lt-4d" d="M 448 0 
L 883 0 
L 883 3949 
L 896 3949 
L 2464 0 
L 2874 0 
L 4435 3949 
L 4448 3949 
L 4448 0 
L 4883 0 
L 4883 4570 
L 4243 4570 
L 2669 563 
L 1088 4570 
L 448 4570 
L 448 0 
z
" transform="scale(0.015625)"/>
       <path id="HelveticaNeueLTPro-Lt-5b" d="M 1517 -1222 
L 1517 -883 
L 890 -883 
L 890 4326 
L 1517 4326 
L 1517 4666 
L 486 4666 
L 486 -1222 
L 1517 -1222 
z
" transform="scale(0.015625)"/>
       <path id="HelveticaNeueLTPro-Lt-24" d="M 186 1459 
C 218 486 646 6 1645 -90 
L 1645 -640 
L 1894 -640 
L 1894 -96 
C 2643 -96 3373 339 3373 1184 
C 3373 2080 2630 2330 1894 2483 
L 1894 4326 
C 2458 4326 2842 3917 2848 3277 
L 3251 3277 
C 3270 4115 2637 4666 1894 4666 
L 1894 5165 
L 1645 5165 
L 1645 4666 
C 902 4666 301 4186 301 3418 
C 301 2522 922 2291 1645 2138 
L 1645 243 
C 973 320 595 717 589 1459 
L 186 1459 
z
M 1645 2541 
C 1165 2662 704 2778 704 3373 
C 704 4045 1133 4326 1645 4326 
L 1645 2541 
z
M 1894 2086 
C 2394 1965 2970 1786 2970 1178 
C 2970 512 2432 243 1894 243 
L 1894 2086 
z
" transform="scale(0.015625)"/>
       <path id="HelveticaNeueLTPro-Lt-67" d="M 3174 3302 
L 2771 3302 
L 2771 2733 
L 2758 2733 
C 2598 3098 2195 3398 1709 3398 
C 755 3398 218 2643 218 1734 
C 218 787 653 38 1709 38 
C 2189 38 2573 307 2758 717 
L 2771 717 
L 2771 269 
C 2771 -544 2458 -979 1709 -979 
C 1267 -979 826 -806 742 -320 
L 339 -320 
C 390 -1018 1050 -1318 1709 -1318 
C 2778 -1318 3174 -723 3174 269 
L 3174 3302 
z
M 1709 378 
C 960 378 621 1024 621 1690 
C 621 2374 941 3059 1709 3059 
C 2477 3059 2771 2336 2771 1690 
C 2771 1024 2406 378 1709 378 
z
" transform="scale(0.015625)"/>
       <path id="HelveticaNeueLTPro-Lt-2212" d="M 3533 1779 
L 314 1779 
L 314 1440 
L 3533 1440 
L 3533 1779 
z
" transform="scale(0.015625)"/>
       <path id="HelveticaNeueLTPro-Lt-5d" d="M 26 4666 
L 26 4326 
L 653 4326 
L 653 -883 
L 26 -883 
L 26 -1222 
L 1056 -1222 
L 1056 4666 
L 26 4666 
z
" transform="scale(0.015625)"/>
      </defs>
      <use xlink:href="#HelveticaNeueLTPro-Lt-4d" transform="translate(0 0.884375)"/>
      <use xlink:href="#HelveticaNeueLTPro-Lt-53" transform="translate(83.299988 0.884375)"/>
      <use xlink:href="#HelveticaNeueLTPro-Lt-50" transform="translate(146.299973 0.884375)"/>
      <use xlink:href="#HelveticaNeueLTPro-Lt-20" transform="translate(209.299957 0.884375)"/>
      <use xlink:href="#HelveticaNeueLTPro-Lt-5b" transform="translate(237.099945 0.884375)"/>
      <use xlink:href="#HelveticaNeueLTPro-Lt-24" transform="translate(261.199936 0.884375)"/>
      <use xlink:href="#HelveticaNeueLTPro-Lt-20" transform="translate(316.799927 0.884375)"/>
      <use xlink:href="#HelveticaNeueLTPro-Lt-6b" transform="translate(344.599915 0.884375)"/>
      <use xlink:href="#HelveticaNeueLTPro-Lt-67" transform="translate(394.599899 0.884375)"/>
      <use xlink:href="#HelveticaNeueLTPro-Lt-2212" transform="translate(451.102781 37)scale(0.7)"/>
      <use xlink:href="#HelveticaNeueLTPro-Lt-31" transform="translate(493.10277 37)scale(0.7)"/>
      <use xlink:href="#HelveticaNeueLTPro-Lt-5d" transform="translate(534.602451 0.884375)"/>
     </g>
    </g>
   </g>
   <g id="LineCollection_1"/>
   <g id="patch_6">
    <path d="M 231.142778 135.226264 
L 233.868498 138.943155 
L 236.594219 135.226264 
L 236.594219 60.888433 
L 233.868498 57.171542 
L 231.142778 60.888433 
L 231.142778 135.226264 
z
" style="fill: none; stroke: #000000; stroke-width: 0.8; stroke-linejoin: miter; stroke-linecap: square"/>
   </g>
  </g>
 </g>
 <defs>
  <clipPath id="p968636c2d5">
   <rect x="55.252584" y="7.2" width="159.335823" height="181.714697"/>
  </clipPath>
  <clipPath id="p23b73efc63">
   <rect x="231.142778" y="60.888433" width="5.451441" height="74.337831"/>
  </clipPath>
 </defs>
</svg>
